<svg width="21" height="15" viewBox="0 0 21 15"  xmlns="http://www.w3.org/2000/svg">
<path d="M19.0908 0C19.5972 0 20.0828 0.197544 20.4408 0.549175C20.7989 0.900805 21 1.37772 21 1.875V13.125C21 13.6223 20.7989 14.0992 20.4408 14.4508C20.0828 14.8025 19.5972 15 19.0908 15H3.81732C3.31097 15 2.82536 14.8025 2.46732 14.4508C2.10928 14.0992 1.90813 13.6223 1.90813 13.125V12.1875H3.81732V13.125H19.0908V3.20906L12.4707 9.71062C12.2022 9.97426 11.838 10.1224 11.4584 10.1224C11.0787 10.1224 10.7145 9.97426 10.446 9.71062L3.81732 3.20062V3.75H1.90813V1.875C1.90813 1.37772 2.10928 0.900805 2.46732 0.549175C2.82536 0.197544 3.31097 0 3.81732 0H19.0908ZM5.7265 8.4375C5.96981 8.43777 6.20383 8.52926 6.38075 8.6933C6.55767 8.85733 6.66414 9.08152 6.6784 9.32006C6.69266 9.5586 6.61363 9.79348 6.45747 9.97672C6.30131 10.16 6.07979 10.2777 5.83819 10.3059L5.7265 10.3125H0.953536C0.71023 10.3122 0.476208 10.2207 0.299288 10.0567C0.122367 9.89267 0.0159008 9.66848 0.00164194 9.42994C-0.0126169 9.1914 0.0664079 8.95652 0.22257 8.77328C0.378732 8.59004 0.600245 8.47228 0.841849 8.44406L0.953536 8.4375H5.7265ZM4.77191 5.625C5.02508 5.625 5.26789 5.72377 5.44691 5.89959C5.62593 6.0754 5.7265 6.31386 5.7265 6.5625C5.7265 6.81114 5.62593 7.0496 5.44691 7.22541C5.26789 7.40123 5.02508 7.5 4.77191 7.5H1.90813C1.65496 7.5 1.41215 7.40123 1.23313 7.22541C1.05411 7.0496 0.953536 6.81114 0.953536 6.5625C0.953536 6.31386 1.05411 6.0754 1.23313 5.89959C1.41215 5.72377 1.65496 5.625 1.90813 5.625H4.77191Z" />
</svg>
