<svg width="30" height="30" viewBox="0 0 30 30" fill="none" xmlns="http://www.w3.org/2000/svg">
<g clip-path="url(#clip0_963_4993)">
<circle cx="15" cy="15" r="15" fill="url(#paint0_linear_963_4993)"/>
<path d="M7.59352 14.6217C11.6208 12.9019 14.3057 11.7681 15.6481 11.2202C19.4855 9.65596 20.2819 9.38428 20.802 9.37508C20.9164 9.37328 21.1711 9.401 21.3372 9.53271C21.4754 9.6438 21.5142 9.79402 21.5336 9.8995C21.5509 10.0049 21.5747 10.245 21.5552 10.4325C21.348 12.5737 20.448 17.7699 19.9905 20.1682C19.7984 21.183 19.4164 21.5232 19.0473 21.5565C18.2445 21.6288 17.6358 21.0368 16.8589 20.5377C15.6438 19.7563 14.9575 19.2701 13.7769 18.5077C12.4129 17.6267 13.2978 17.1423 14.0747 16.351C14.2776 16.1439 17.8128 12.9923 17.8797 12.7064C17.8884 12.6707 17.897 12.5374 17.815 12.4671C17.7351 12.3966 17.6164 12.4208 17.5301 12.4398C17.4071 12.4669 15.4668 13.7254 11.7028 16.2152C11.1525 16.5863 10.6539 16.7672 10.205 16.7577C9.71292 16.7473 8.76329 16.4843 8.05755 16.2596C7.19425 15.9839 6.50576 15.8381 6.5662 15.3699C6.59641 15.1261 6.93957 14.8767 7.59352 14.6217Z" fill="white"/>
</g>
<defs>
<linearGradient id="paint0_linear_963_4993" x1="1500" y1="0" x2="1500" y2="3000" gradientUnits="userSpaceOnUse">
<stop stop-color="#2AABEE"/>
<stop offset="1" stop-color="#229ED9"/>
</linearGradient>
<clipPath id="clip0_963_4993">
<rect width="30" height="30" fill="white"/>
</clipPath>
</defs>
</svg>
