<svg width="33" height="33" viewBox="0 0 33 33" fill="none" xmlns="http://www.w3.org/2000/svg">
<g clip-path="url(#clip0_963_6053)">
<path d="M7.98828 6.21777H24.8502V26.6474H7.98828V6.21777Z" fill="white"/>
<path d="M16.5172 0C7.39738 0 0 7.40071 0 16.4966C0 25.62 7.39738 33 16.5172 33C25.6026 33 33 25.62 33 16.4966C33 7.40071 25.6026 0 16.5172 0ZM18.6513 26.3022V9.32324H17.1347C14.3487 9.32324 12.8871 10.7359 12.8871 12.8238C12.8871 15.2011 13.8958 16.2967 15.9819 17.7093L17.6974 18.8739L12.743 26.3022H9.05802L13.5047 19.6594C10.9451 17.8265 9.51092 16.0418 9.51092 13.0236C9.51092 9.23366 12.1254 6.6634 17.1073 6.6634H22.0549V26.3022H18.6513Z" fill="#FC3F1D"/>
</g>
<defs>
<clipPath id="clip0_963_6053">
<rect width="33" height="33" fill="white"/>
</clipPath>
</defs>
</svg>
