<svg width="33" height="33" viewBox="0 0 33 33" fill="none" xmlns="http://www.w3.org/2000/svg">
<g clip-path="url(#clip0_963_6056)">
<path d="M16.5172 0C7.39738 0 0 7.34005 0 16.3613C0 25.41 7.39738 32.7295 16.5172 32.7295C25.6026 32.7295 33 25.41 33 16.3613C33 7.34005 25.6026 0 16.5172 0Z" fill="white"/>
<path fill-rule="evenodd" clip-rule="evenodd" d="M16.4998 0C15.2705 0 14.075 0.138281 12.9231 0.394025V16.5114C12.9231 18.4865 14.5335 20.0973 16.5092 20.0973C18.4838 20.0973 20.0937 18.4865 20.0937 16.5124C20.0937 14.6151 18.6112 13.0579 16.7476 12.9339V10.0638C20.1914 10.1887 22.9626 13.0375 22.9626 16.5124C22.9626 20.0661 20.0635 22.9665 16.5092 22.9665C12.9534 22.9665 10.0548 20.0661 10.0548 16.5114V1.30598C9.64737 1.47896 9.24936 1.67077 8.85928 1.87695V16.5114C8.85978 20.7238 12.2966 24.159 16.5092 24.159C20.7222 24.159 24.1576 20.7238 24.1576 16.5124C24.1576 12.3793 20.8516 8.99468 16.7476 8.86731V5.99811C22.4307 6.12648 27.0249 10.8003 27.0249 16.5124C27.0249 22.3053 22.3009 27.0282 16.5092 27.0282C10.716 27.0282 5.99045 22.3053 5.99045 16.5114V3.78017C2.33254 6.80499 0 11.3792 0 16.499C0 25.6112 7.38719 33 16.5002 33C25.6148 33 33 25.6112 33 16.499C33 7.38686 25.6148 0 16.4998 0Z" fill="#D91935"/>
</g>
<defs>
<clipPath id="clip0_963_6056">
<rect width="33" height="33" fill="white"/>
</clipPath>
</defs>
</svg>
