<svg width="100" height="119" viewBox="0 0 100 119" fill="none" xmlns="http://www.w3.org/2000/svg">
<path fill-rule="evenodd" clip-rule="evenodd" d="M86.1072 118.673C100.403 116.904 113.397 111.549 124.632 102.796C132.28 96.8371 138.759 89.3757 144.088 80.387C145.976 77.2036 147.586 75.9505 149.497 76.1776C151.469 76.4118 152.058 75.1927 151.232 72.5874C150.258 69.5191 151.047 65.8427 153.563 61.7266C154.85 59.6228 155.014 59.2168 154.999 58.17C154.99 57.4947 154.701 56.2284 154.326 55.2156C153.671 53.4481 153.67 53.4352 153.955 50.8431C154.407 46.7336 154.537 39.0969 154.219 35.3108C152.661 16.7794 144.842 -0.249076 131.937 -13.2132C119.867 -25.3385 105.413 -32.6805 88.3529 -35.3523C84.4074 -35.9701 74.0405 -36.2107 69.6338 -35.7867C64.2508 -35.2686 58.7534 -34.1126 52.8576 -32.2587C51.2233 -31.7448 49.1026 -31.2475 48.145 -31.1537L46.404 -30.9831L44.9737 -29.5231C43.1542 -27.6656 39.9136 -26.0204 35.4892 -24.7077C31.9723 -23.6642 31.5062 -23.3498 30.4881 -21.335C29.9727 -20.3151 29.2826 -19.5524 27.5074 -18.0416C15.0743 -7.45851 6.07377 6.92942 2.23257 22.3627C0.416832 29.6579 7.76072e-06 33.2321 8.48415e-06 41.5072C8.92974e-06 46.6041 0.0994354 48.9622 0.40835 51.1976C1.31103 57.7264 2.54713 62.6848 4.94535 69.3967C5.74459 71.634 5.8292 72.0937 5.80281 74.0646C5.73872 78.8543 8.29622 84.5343 12.329 88.5589C14.1402 90.3665 14.3424 90.4748 16.927 91.0229C17.3625 91.1153 18.0825 91.6991 18.911 92.6317C19.6261 93.4367 21.5408 95.4098 23.1657 97.016C35.5724 109.28 51.634 116.876 69.1917 118.782C72.3032 119.12 83.056 119.051 86.1072 118.673ZM81.3946 117.702C95.7245 116.663 107.798 112.596 119.213 104.965C129.13 98.3344 136.848 90.0756 143.121 79.3807C144.179 77.5768 146.314 75.4024 147.261 75.1639C147.74 75.0436 147.802 74.9153 147.696 74.2781L147.571 73.5328L148.072 74.1237C148.348 74.4487 148.726 74.9006 148.912 75.1282C149.33 75.6383 150.04 75.6624 150.44 75.18C150.685 74.8829 150.627 74.4497 150.112 72.7574C148.867 68.6666 149.492 65.7087 152.698 60.5148C153.266 59.5945 153.744 58.5841 153.76 58.2695C153.776 57.9547 153.496 57.0059 153.138 56.161C152.354 54.3111 152.288 52.8514 152.765 47.9083C153.429 41.0276 152.826 31.9579 151.224 24.7262C144.791 -4.30912 121.545 -27.2206 92.4691 -33.1842C88.4453 -34.0093 88.2945 -34.0235 88.6981 -33.5357C88.9335 -33.2511 88.9163 -33.0689 88.61 -32.6C88.1399 -31.8805 86.2452 -31.2622 82.6769 -30.664C79.4097 -30.1164 70.3833 -30.0457 67.9021 -30.5482C65.9707 -30.9396 65.0803 -31.5579 65.1823 -32.4376C65.3182 -33.6106 67.1542 -34.0741 72.323 -34.2402C74.5124 -34.3104 75.6333 -34.2743 75.2683 -34.145C74.9443 -34.0301 73.99 -33.9235 73.1477 -33.9082C69.4924 -33.8417 65.6076 -32.9798 65.6076 -32.2353C65.6076 -31.8623 66.8326 -31.3452 68.445 -31.0369C70.6429 -30.617 78.8145 -30.6756 81.7636 -31.1324C85.3124 -31.6824 87.4507 -32.2192 88.0473 -32.7101C88.5443 -33.119 88.5544 -33.1769 88.192 -33.5468C87.655 -34.0949 86.4316 -34.2882 81.4867 -34.6066C76.8604 -34.9044 70.4983 -34.6607 66.4059 -34.0289C63.7235 -33.6146 61.6019 -32.6763 61.6019 -31.9041C61.6019 -30.7358 63.4339 -29.7155 66.1967 -29.3447C68.2494 -29.0693 68.6797 -28.6893 66.9391 -28.6893C65.547 -28.6893 63.2928 -29.314 62.2874 -29.9781C61.822 -30.2856 61.3057 -30.8651 61.1401 -31.2662C60.8807 -31.8944 60.8958 -32.0823 61.2499 -32.6243C61.5553 -33.0918 61.576 -33.2206 61.3307 -33.1261C61.1493 -33.0563 60.3946 -32.8729 59.654 -32.7186C58.0524 -32.3851 57.5011 -31.8084 57.8642 -30.8469C58.2037 -29.9483 58.9773 -29.192 60.1922 -28.5716C61.9009 -27.699 63.1385 -27.4711 66.1451 -27.4751C68.3296 -27.478 68.9083 -27.4149 68.6917 -27.1977C68.2431 -26.7477 63.1778 -26.8386 61.5972 -27.3251C58.9987 -28.1249 56.8665 -30.2239 57.2195 -31.6349L57.3588 -32.1911L54.8267 -31.3851C51.4372 -30.3062 49.9756 -29.9374 48.289 -29.7351C46.961 -29.5758 46.7965 -29.4836 45.5755 -28.2125C43.9579 -26.5285 40.132 -24.5794 36.272 -23.4725C32.7805 -22.4713 32.5086 -22.3052 31.6853 -20.6694C31.1975 -19.7001 30.4725 -18.8247 29.2918 -17.7797C23.0554 -12.2602 20.2649 -9.33112 16.6046 -4.46322C6.46467 9.02277 1.283 24.6095 1.283 41.6254C1.283 50.6975 2.69346 58.7675 5.86525 67.8422C7.12114 71.4352 7.17982 71.7077 7.1638 73.8692C7.14447 76.4447 7.64447 78.5705 8.92274 81.3455C10.6419 85.0777 13.7705 88.7527 15.6546 89.2524C18.3295 89.9621 18.5389 90.1042 21.054 92.9139C33.0156 106.277 50.1955 115.124 68.3204 117.254C71.4033 117.617 78.9919 117.877 81.3946 117.702ZM70.069 115.581C72.0593 115.045 73.9637 114.102 74.794 113.243C76.5275 111.449 75.3953 109.581 71.7219 108.177C67.6894 106.635 67.007 106.125 68.0536 105.437C68.5324 105.122 71.3232 104.24 73.2066 103.807C73.5628 103.726 73.8546 103.57 73.8546 103.461C73.8546 103.213 70.6364 103.763 69.0402 104.284C67.2125 104.881 66.7334 105.476 67.1682 106.613C67.3536 107.097 68.58 107.727 71.1644 108.665C73.2909 109.437 75.0327 110.752 75.0327 111.585C75.0327 111.821 74.6225 112.405 74.1211 112.883C72.5091 114.421 68.4092 115.609 65.2723 115.447C63.7271 115.367 63.2454 115.538 64.2527 115.809C65.2242 116.07 68.7716 115.932 70.069 115.581ZM97.935 110.988C101.412 110.445 105.148 108.672 107.362 106.513C108.848 105.063 108.947 104.732 108.447 102.859C108.219 102.003 108.228 101.684 108.498 101.142C108.681 100.776 108.869 100.397 108.916 100.299C108.964 100.202 108.822 100.191 108.602 100.276C108.381 100.361 108.017 100.843 107.792 101.346C107.453 102.106 107.425 102.469 107.625 103.484L107.866 104.707L106.517 105.936C104.031 108.202 99.3963 110.049 96.1956 110.049C94.905 110.049 94.7974 110.006 94.5676 109.4C94.1421 108.277 93.6576 107.922 92.5504 107.922C91.9873 107.922 91.5266 108.028 91.5266 108.158C91.5266 108.288 91.8282 108.395 92.197 108.395C92.9595 108.395 93.6473 109.031 93.6473 109.736C93.6473 110.918 95.2969 111.399 97.935 110.988ZM98.1831 109.517C99.7484 109.198 99.5778 108.867 97.8483 108.867C95.9781 108.867 95.3782 108.434 95.8859 107.449C96.5853 106.092 102.602 103.557 104.754 103.712C105.725 103.782 105.779 103.823 105.734 104.464C105.707 104.838 105.505 105.344 105.284 105.589C105.062 105.834 104.962 106.113 105.06 106.21C105.331 106.476 106.607 104.826 106.607 104.208C106.607 103.911 106.395 103.455 106.135 103.195C105.168 102.225 102.461 102.765 98.4432 104.729C96.4003 105.729 95.7069 106.193 95.3211 106.818C94.6857 107.85 94.6946 108.43 95.3555 109.031C96.0507 109.665 96.8146 109.796 98.1831 109.517ZM38.4723 104.142C41.0489 103.212 43.232 101.44 43.2155 100.291C43.1919 98.6481 41.027 97.8369 34.8754 97.1666C31.3976 96.7877 29.7923 96.4557 29.7923 96.1146C29.7923 95.787 31.1721 95.0137 33.7906 93.8735C36.3938 92.7402 37.0967 92.2538 37.0967 91.5863C37.0967 90.8414 35.4827 90.5951 31.5595 90.7416C27.4511 90.8948 21.3097 91.587 21.3097 91.8969C21.3097 92.0144 21.9167 92.0491 22.6645 91.974C28.0456 91.4341 35.5328 91.2141 36.1064 91.5792C36.5675 91.8726 36.1033 92.1701 33.4709 93.2692C28.7963 95.2207 27.8962 96.5358 30.7275 97.2775C31.185 97.3973 33.0969 97.6684 34.976 97.8797C38.9315 98.3245 40.1224 98.5611 41.5109 99.177C42.3323 99.5415 42.5161 99.7386 42.5161 100.255C42.5161 101.165 41.1481 102.329 38.6283 103.561C36.4065 104.647 36.3352 104.913 38.4723 104.142ZM85.1647 103.649C87.2134 103.091 88.0716 102.979 90.1576 103L92.6767 103.025L94.988 101.707C96.2594 100.983 98.5375 99.9641 100.051 99.4438C103.304 98.3257 103.949 98.0104 105.664 96.7005C106.377 96.1564 107.783 95.1574 108.789 94.4807C111.598 92.5908 112.478 90.7929 111.697 88.5412L111.329 87.4776L112.198 85.705C112.676 84.73 113.107 83.8524 113.155 83.7551C113.204 83.6577 113.112 83.5778 112.952 83.5778C112.519 83.5778 110.876 85.3946 110.71 86.0569C110.573 86.6045 110.54 86.6137 110 86.259C109.297 85.7969 109.298 85.822 110.045 87.4582C110.755 89.0153 110.845 90.4762 110.296 91.5414C110.05 92.0189 109.063 92.8716 107.609 93.8629C106.345 94.7246 104.76 95.8303 104.088 96.32C103.307 96.8879 101.91 97.5277 100.228 98.0874C97.5214 98.9882 95.4512 99.9366 93.8013 101.032C92.9366 101.606 92.6027 101.666 89.544 101.807C87.0301 101.922 85.8249 102.09 84.5756 102.501C83.6126 102.818 82.3098 103.05 81.4448 103.06L79.9634 103.077L78.7719 101.715C78.1163 100.965 77.1126 100.078 76.5412 99.7419C75.9698 99.406 75.2389 98.7958 74.9168 98.3859L74.331 97.6407L74.3284 98.377C74.327 98.7818 74.5235 99.3668 74.7648 99.6769L75.204 100.241L73.8442 100.272C72.569 100.302 69.5845 101.354 69.8944 101.665C69.9587 101.729 70.8444 101.666 71.8626 101.524C72.901 101.379 74.4432 101.338 75.3748 101.431C76.9776 101.591 77.0725 101.637 78.0958 102.739C78.679 103.368 79.4547 103.993 79.8195 104.129C80.8704 104.521 82.4981 104.375 85.1647 103.649ZM89.848 101.182C90.8039 101.008 91.7052 100.738 91.8508 100.58C92.0549 100.36 91.9804 100.328 91.5266 100.441C91.2026 100.522 89.8242 100.653 88.4635 100.733C85.372 100.914 84.0685 100.576 84.1666 99.6192L84.229 99.0113L82.5172 99.1203C80.3569 99.2581 79.0105 98.9021 78.2469 97.9919C77.0461 96.5604 78.2042 95.0468 82.0454 93.0276C83.7542 92.1295 84.1503 91.9912 83.8715 92.3906C83.0789 93.5254 83.7726 95.159 85.0469 95.159C85.7716 95.159 85.8086 94.8773 85.1251 94.5651C84.1748 94.1311 84.1043 93.679 84.7728 92.3006C85.7615 90.2621 86.2354 89.8681 88.1138 89.5216C89.0188 89.3547 92.1451 88.6303 95.061 87.9118C101.029 86.4414 102.74 86.2706 104.015 87.0172C105.11 87.6591 105.285 88.7875 104.382 89.3809C103.63 89.8751 103.628 90.0347 104.368 90.432C104.72 90.6208 104.957 90.9557 104.957 91.2637C104.957 92.1784 103.217 94.2103 101.07 95.8019C99.8897 96.6764 100.784 96.4022 102.27 95.4341C103.925 94.3554 105.584 92.6057 105.811 91.7C105.915 91.2829 105.846 90.8265 105.618 90.428C105.294 89.8612 105.301 89.7589 105.699 89.2658C105.939 88.9685 106.135 88.5509 106.135 88.3377C106.133 87.5655 105.175 86.3826 104.187 85.9328C102.587 85.2044 101.077 85.3448 95.4038 86.7496C90.0325 88.0796 86.9008 88.7709 86.176 88.7867C85.9436 88.7917 85.5407 89.1373 85.2806 89.5549C84.9601 90.0687 84.0848 90.7062 82.5709 91.5284C77.9575 94.0342 77.0035 94.8908 76.7547 96.7516C76.6541 97.5041 76.7452 97.7981 77.2761 98.4308C78.286 99.6346 79.4686 100.122 81.377 100.122C82.7559 100.122 83.0669 100.196 83.2665 100.57C83.7914 101.554 86.4427 101.801 89.848 101.182ZM95.1204 94.1127C96.3044 93.6889 97.5726 92.6915 98.0127 91.8378C98.4302 91.0278 98.1612 90.9201 97.5132 91.6381C97.2667 91.9113 96.3471 92.5627 95.4696 93.0855C93.2481 94.4093 93.1037 94.8348 95.1204 94.1127ZM98.5954 93.6199C99.918 92.9366 101.365 91.4597 101.634 90.5178C102.04 89.0985 100.958 87.7085 99.5853 87.8846C98.9592 87.965 98.963 87.9725 99.824 88.3564C101.529 89.1165 101.225 90.4164 98.8179 92.6518C98.0179 93.3944 97.4022 94.0394 97.4493 94.085C97.4965 94.1307 98.0122 93.9213 98.5954 93.6199ZM74.2733 93.7598C74.1604 93.172 72.6467 92.7766 71.6093 93.064C70.4535 93.384 70.7947 93.6383 72.745 93.9101C74.1507 94.1063 74.3362 94.0881 74.2733 93.7598ZM75.5039 93.5043C75.5039 93.0964 77.3871 91.4131 78.6519 90.6906C80.3682 89.7102 82.5909 89.0139 84.0042 89.0139C85.065 89.0139 85.1941 88.9626 85.0454 88.6003C84.9519 88.3727 84.8258 88.0144 84.765 87.8035C84.5914 87.202 85.9738 85.8238 87.4623 85.1148C89.0087 84.3781 92.8485 83.3414 94.0309 83.3414C94.9314 83.3414 95.0945 82.9961 94.2952 82.7813C92.7066 82.3542 89.2938 83.0314 86.8838 84.2514C85.3598 85.0233 83.7509 86.6173 83.7509 87.3556C83.7509 87.6726 83.5421 87.8702 83.1029 87.9694C81.2016 88.3989 80.454 88.6527 79.1621 89.3067C77.3279 90.2353 76.3272 91.0106 75.7702 91.9345C75.1694 92.9307 74.937 93.7409 75.2525 93.7409C75.3909 93.7409 75.5039 93.6346 75.5039 93.5043ZM18.7362 88.5067C18.9023 88.1956 18.9468 87.5783 18.8518 86.9113C18.7663 86.3129 18.6176 85.0786 18.5213 84.1687C18.3436 82.4939 17.902 81.4506 17.3709 81.4506C17.156 81.4506 17.14 81.609 17.3099 82.0569C17.4362 82.3904 17.5396 83.146 17.5396 83.7364C17.5396 84.3266 17.7074 85.4589 17.9124 86.2528C18.1176 87.0467 18.2263 87.9929 18.1539 88.3552C17.9984 89.1351 18.3518 89.2271 18.7362 88.5067ZM16.3533 88.0841C16.7359 87.3668 16.6461 86.4946 15.8957 83.6319C15.091 80.5624 14.4421 79.3254 12.8563 77.8375C11.4414 76.5097 10.3947 75.9581 9.23259 75.9276C7.83792 75.8909 7.45573 77.0032 8.31248 78.6054C8.87068 79.6494 9.36337 79.8588 9.07049 78.9276C8.52288 77.1869 8.53537 76.96 9.17981 76.96C10.5406 76.96 12.9206 78.8666 13.878 80.7234C14.2849 81.5126 15.6506 86.4816 15.6532 87.1822C15.6551 87.743 15.2091 87.7024 14.5505 87.082C13.8825 86.4523 13.8497 86.7463 14.4739 87.773C15.0161 88.665 15.96 88.8213 16.3533 88.0841ZM83.2796 87.1273C83.2796 86.276 81.9882 85.2323 80.9352 85.2323C80.1776 85.2323 80.3633 85.5216 81.6934 86.414C83.2134 87.4341 83.2796 87.4637 83.2796 87.1273ZM22.2522 87.12C22.2522 86.9718 21.9423 86.5395 21.5634 86.1595C21.0743 85.6688 20.6476 85.47 20.0908 85.4738L19.3068 85.479L19.8959 85.9347C20.9437 86.7454 22.2522 87.4034 22.2522 87.12ZM135.471 85.3748C137.68 85.0039 139.455 84.5405 139.292 84.3769C139.228 84.3136 138.237 84.4386 137.088 84.6551C134.465 85.1491 128.692 85.0162 126.517 84.4114C122.462 83.2838 118.052 80.1313 119.364 79.2975C119.864 78.9798 122.58 79.0597 124.397 79.4457C125.304 79.6385 126.072 79.7962 126.105 79.7962C126.137 79.7962 126.164 79.6607 126.164 79.4953C126.164 79.3298 125.794 78.9949 125.343 78.751C124.153 78.1081 121.848 75.608 121.124 74.1743C120.152 72.2504 120.084 71.089 120.853 69.5132C121.978 67.2067 125.497 65.0433 128.144 65.0308C129.828 65.0228 130.06 65.3797 128.754 65.9703C127.646 66.4714 126.415 67.7557 125.649 69.2088C124.839 70.7472 124.922 73.1048 125.858 75.1114C126.247 75.9455 126.922 77.0353 127.358 77.5331C129.081 79.5012 132.24 81.344 134.835 81.8947C136.284 82.2022 139.262 82.2188 139.948 81.9233C140.256 81.7905 139.617 81.7144 138.104 81.7035C136.292 81.6905 135.409 81.5589 134.033 81.0956C130.614 79.9441 127.665 77.5307 126.465 74.9034C125.648 73.1119 125.588 70.6647 126.329 69.2624C126.928 68.1277 128.335 66.7923 129.398 66.3511C130.333 65.9625 130.593 65.2702 130.036 64.6526C128.658 63.1249 122.62 65.5676 120.741 68.413C118.861 71.2587 119.464 74.0448 122.673 77.3435L123.85 78.5544L122.2 78.436C121.293 78.3707 120.171 78.3889 119.708 78.4761C118.008 78.7959 118.09 80.2755 119.893 81.8342C121.146 82.917 124.668 84.6116 126.682 85.1011C128.864 85.6315 133.149 85.7648 135.471 85.3748ZM107.076 82.6324C107.083 81.7874 107.183 80.6917 107.297 80.1975C107.556 79.0798 107.188 79.1202 106.569 80.2779C105.991 81.3596 106.004 82.8947 106.599 83.6106L107.062 84.1687L107.076 82.6324ZM86.4519 83.5187C86.1694 82.5693 85.6757 81.9836 84.9415 81.7267C83.9844 81.392 84.0341 81.6423 85.1847 82.9536C86.2323 84.1474 86.7012 84.3566 86.4519 83.5187ZM104.509 82.3842C103.73 81.6503 103.661 81.6326 102.035 81.7473C100.497 81.8557 97.8841 82.7066 98.1793 83.003C98.2465 83.0701 99.3355 82.9484 100.599 82.7324C102.913 82.3367 102.951 82.3393 104.957 83.0193C105.152 83.085 104.95 82.7993 104.509 82.3842ZM12.9077 81.5452C12.4772 80.687 12.001 79.5702 11.8497 79.0635C11.4447 77.7073 11.0863 77.908 11.2795 79.3826C11.5057 81.1098 12.7477 83.1051 13.5966 83.1051C13.6483 83.1051 13.3382 82.4031 12.9077 81.5452ZM98.2243 81.1703C98.3148 80.3495 98.451 79.4121 98.5273 79.0871C98.6656 78.4977 98.6647 78.4974 98.156 78.9498C97.5097 79.5244 97.2029 80.6581 97.4519 81.553C97.8049 82.8215 98.0561 82.6969 98.2243 81.1703ZM91.7427 80.1391C93.6091 79.0689 93.7816 78.4884 92.684 76.9689C92.2839 76.4147 92.0455 75.8756 92.1538 75.7704C92.2625 75.6654 93.8101 75.3019 95.5931 74.9625C102.168 73.7108 107.287 71.2164 110.537 67.6791C113.291 64.6822 113.357 61.963 110.796 57.0511C108.071 51.8244 105.328 50.5146 97.7837 50.8381C92.6602 51.0579 92.6524 51.4172 97.7707 51.4309C105.587 51.4517 107.655 52.4226 110.194 57.2643C112.846 62.3201 112.585 64.9467 109.112 68.1303C105.853 71.1183 101.327 73.1672 95.5759 74.2584C93.6253 74.6286 92.0007 75.0644 91.7191 75.293C91.2563 75.6688 91.2514 75.7224 91.6168 76.3832C91.828 76.7654 92.2231 77.3573 92.4948 77.6985C93.1538 78.5267 92.8416 79.0996 91.2238 80.0302C90.548 80.419 90.1541 80.7368 90.3485 80.7366C90.5429 80.7361 91.1701 80.4674 91.7427 80.1391ZM46.2862 79.6527C50.2442 79.1703 56.9148 77.8378 59.3119 77.0507C60.6722 76.604 61.8376 75.6716 61.8376 75.0299C61.8376 74.7716 61.5362 74.2577 61.1677 73.8881C60.4976 73.2161 59.6549 72.9124 54.3048 71.4154C51.5675 70.6496 50.0967 70.014 49.9059 69.5149C49.3053 67.945 54.5911 66.369 64.1102 65.2799C69.8124 64.6274 71.3416 64.3503 72.1463 63.824C72.9215 63.3168 72.8011 62.7632 71.675 61.6576C69.9431 59.9566 69.6281 59.8958 62.9844 59.9767C58.8072 60.0275 57.0583 59.9703 56.8649 59.7762C55.6149 58.5224 61.1686 53.6342 66.4266 51.3605C71.5143 49.1603 81.6244 47.416 89.2891 47.416C93.4269 47.416 94.5551 47.948 93.9316 49.6053C93.6732 50.2922 93.6774 50.2981 94.1286 49.8885C95.1395 48.9709 94.3838 47.4264 92.6852 46.9376C90.8588 46.4122 83.9368 46.7882 77.3842 47.7686C74.3006 48.2302 70.2436 49.1851 68.0817 49.9582C61.9516 52.1504 55.481 57.3399 56.0487 59.6087C56.3123 60.6618 56.8425 60.7427 63.0614 60.6779C67.9801 60.6264 69.0023 60.6751 69.6698 60.993C70.7136 61.4898 72.031 62.7122 71.9111 63.0726C71.7591 63.5304 70.023 63.9249 66.4549 64.3121C60.6297 64.9445 57.5508 65.4163 54.7049 66.1131C51.6719 66.8557 50.4768 67.3709 49.5996 68.3135C49.1189 68.8302 49.0621 69.036 49.2511 69.5756C49.5951 70.5565 51.1123 71.2492 55.6981 72.5187C59.8955 73.6808 61.0129 74.192 61.0129 74.951C61.0129 75.942 59.433 76.5062 52.7659 77.8959C43.0741 79.9165 36.8161 79.1665 32.9772 75.5248C28.9518 71.7059 29.5345 66.7938 34.6151 61.7153C37.1457 59.1858 39.2425 57.9169 43.0036 56.6384C44.8985 55.9944 45.8257 55.5415 46.4075 54.9759C48.5774 52.8663 47.0303 50.8398 42.5105 49.8719C40.2546 49.3888 35.2751 49.5621 32.3691 50.2248C29.2428 50.9379 26.5156 52.0771 25.4921 53.0974C23.9996 54.5852 24.3281 55.3983 26.9108 56.6094C28.3003 57.261 28.5618 57.6909 27.9718 58.3529C25.7126 60.8885 17.2043 63.1135 12.8271 62.3132C9.71234 61.7436 8.48471 60.8086 9.15225 59.5137C9.5825 58.6793 10.639 57.9726 13.9336 56.3151C16.6115 54.9681 17.304 54.3236 17.304 53.1782C17.304 52.3271 15.8589 50.9733 14.3457 50.407C12.7929 49.8258 9.61218 49.6516 7.09498 50.01C5.96961 50.1702 5.00662 50.3702 4.95478 50.4541C4.90295 50.538 6.73258 50.6067 9.02052 50.6067C12.8629 50.6067 13.2703 50.6483 14.3558 51.1501C16.5399 52.1598 17.1428 53.2501 16.0971 54.299C15.8221 54.5748 14.7352 55.2061 13.6819 55.7018C9.50357 57.6675 7.78536 59.2799 8.33203 60.7224C9.18852 62.9816 15.3601 63.8625 20.6202 62.4763C24.6681 61.4094 27.8146 59.8438 28.7315 58.4401C29.3177 57.543 28.8276 56.8228 26.9982 55.893C25.8995 55.3345 25.4117 54.9471 25.3615 54.5933C25.2008 53.4628 28.2687 51.8741 32.494 50.9001C35.6799 50.1657 41.5083 50.1638 43.8307 50.8967C45.6236 51.4623 46.7574 52.304 46.7574 53.0688C46.7574 53.3307 46.4285 53.9206 46.0263 54.3799C45.441 55.0485 44.8887 55.3392 43.2576 55.836C37.7788 57.5054 33.2336 61.0282 31.0206 65.3203C29.3439 68.5723 29.2072 70.7465 30.5142 73.3702C31.8507 76.0533 34.7656 78.1566 38.461 79.1046C40.2053 79.552 44.5906 79.8593 46.2862 79.6527ZM18.5634 79.1275C18.9704 78.6766 19.0837 78.1417 18.7724 78.1417C18.5486 78.1417 16.8328 79.2991 16.8328 79.4502C16.8328 79.7602 18.227 79.5005 18.5634 79.1275ZM16.5971 78.4329C16.5971 77.638 15.6831 76.2292 14.9181 75.8448C14.6103 75.6903 13.6695 75.2457 12.8271 74.8567C11.9847 74.4676 10.8528 73.8113 10.3115 73.3979C9.47457 72.7588 9.20149 72.6702 8.48541 72.8049C7.48541 72.993 7.36125 73.4147 8.30587 73.4147C8.71399 73.4147 9.50616 73.8068 10.3676 74.435C11.1372 74.9961 12.4885 75.755 13.3707 76.1216C14.5566 76.6144 15.1245 77.0096 15.5502 77.638C15.8669 78.1053 16.1259 78.6227 16.1259 78.7874C16.1259 78.9522 16.2319 79.0871 16.3615 79.0871C16.4911 79.0871 16.5971 78.7926 16.5971 78.4329ZM142.422 78.5362C142.422 78.4594 141.972 78.2762 141.421 78.1296C137.739 77.149 134.255 73.309 133.81 69.7411C133.227 65.0585 137.384 59.8575 144.718 56.0943C146.666 55.095 146.95 54.7457 146.003 54.5132C144.503 54.1444 144.034 52.5323 145.191 51.7202C145.547 51.4699 146.157 51.1612 146.546 51.0343C147.248 50.8053 147.576 50.0527 146.899 50.2229C145.311 50.6226 141.283 49.6067 138.314 48.0574C134.517 46.0754 133.613 44.1732 135.643 42.432C136.481 41.7123 139.781 40.1737 141.597 39.6558C142.505 39.397 143.856 39.0134 144.602 38.8033C145.748 38.4802 145.957 38.3377 145.957 37.8782C145.957 37.368 145.343 36.6301 144.543 36.1782C144.348 36.0683 144.547 36.3902 144.984 36.8931C145.732 37.7542 145.753 37.8262 145.351 38.1212C145.116 38.2935 144.746 38.4346 144.528 38.4346C143.497 38.4346 139.335 39.7022 137.601 40.5438C134.183 42.2032 133.158 44.0255 134.516 46.0295C135.646 47.6984 139.547 49.7511 143.262 50.6323L144.927 51.0272L144.381 51.5743C143.617 52.3408 143.672 53.3571 144.53 54.3373L145.223 55.13L143.882 55.7859C141.416 56.9913 138.732 58.967 136.85 60.9618C133.04 64.9989 132.137 68.9037 134.11 72.8094C134.96 74.4929 137.283 76.725 139.129 77.6338C140.569 78.3426 142.422 78.8503 142.422 78.5362ZM26.0184 73.655C26.8262 72.7879 27.055 71.6825 26.7289 70.2235C25.9091 66.5539 22.702 64.0939 20.7477 65.6359C19.4744 66.6406 19.0745 68.3837 19.7611 69.9361C19.9461 70.3544 20.8792 71.521 21.8347 72.5284C23.4065 74.1859 23.6567 74.3601 24.4668 74.3601C25.1565 74.3601 25.5126 74.1982 26.0184 73.655ZM12.5896 73.1828C12.8902 72.4549 12.75 71.2875 12.362 71.2875C12.2408 71.2875 12.0778 71.6862 12 72.1738C11.9223 72.6612 11.8214 73.2462 11.7757 73.4738C11.6376 74.1649 12.2788 73.9356 12.5896 73.1828ZM25.4555 72.9167C26.7298 71.5028 25.0917 67.2102 22.936 66.3144C21.5377 65.7337 20.3672 66.7321 20.3672 68.5052C20.3672 69.3546 20.6275 69.8176 21.8292 71.106C22.2562 71.5636 22.8851 72.2703 23.2265 72.6763C23.9593 73.5477 24.8045 73.639 25.4555 72.9167ZM147.484 70.8226C147.816 70.1781 147.817 70.0355 147.494 69.4085C146.832 68.1237 147.147 66.516 148.389 64.8469C149.327 63.5865 149.568 63.0152 149.164 63.0152C148.598 63.0152 147.331 64.4631 146.715 65.8129C146.244 66.8431 146.164 67.3031 146.28 68.296C146.662 71.5499 146.877 72.0003 147.484 70.8226ZM3.70548 46.8908C3.94348 46.0078 4.65624 45.3869 6.51888 44.4398C8.33509 43.5162 8.99436 42.7459 8.60064 42.0076C8.46067 41.7454 7.59403 41.1345 6.67461 40.6497C3.98399 39.2316 3.93357 38.268 6.42204 35.8255C10.345 31.9758 18.5281 29.617 30.2635 28.9536C35.7258 28.6447 37.3022 28.8149 38.3945 29.8302C39.3856 30.7515 39.0703 31.3653 36.1591 34.1803C33.1266 37.1129 32.6921 37.986 33.4921 39.5398C35.2388 42.9333 43.0649 44.7688 52.059 43.8943C65.8053 42.558 78.3089 37.6965 80.486 32.8418C81.0155 31.6613 80.8414 31.0056 79.7544 30.0881C78.2165 28.7901 75.2108 28.3436 67.0103 28.1952C61.6121 28.0973 60.576 27.9089 61.1665 27.1323C61.3326 26.9139 62.015 26.1857 62.6828 25.5142C64.7994 23.3863 64.5906 22.2509 61.9316 21.427C60.1985 20.8902 59.8618 20.8427 60.059 21.1628C60.133 21.2828 60.5369 21.4554 60.9565 21.5461C61.3764 21.6371 62.1172 21.9132 62.6033 22.1599C63.958 22.8479 63.8241 23.513 61.9554 25.3783C60.9323 26.3996 60.4238 27.0923 60.4238 27.4655C60.4238 28.587 60.9803 28.6906 68.4351 28.9576C76.852 29.2587 78.8602 29.6577 79.8887 31.2323C80.3857 31.9929 80.0572 32.8553 78.7608 34.1954C76.1465 36.8976 70.6307 39.4368 63.6048 41.1725C53.4198 43.6887 44.5948 44.1009 38.9914 42.3224C36.7197 41.6013 34.7692 40.423 34.189 39.4214C33.4089 38.0742 33.8611 37.2065 36.7341 34.5379C39.4928 31.9754 39.9659 31.1496 39.3552 29.9647C39.1393 29.5464 38.5423 29.042 37.8688 28.7092C36.7989 28.1807 36.5354 28.1562 32.5449 28.2089C23.3672 28.3299 14.8233 30.0304 9.45855 32.8033C7.01392 34.0671 4.23092 36.714 3.9894 38.0054C3.74058 39.3365 4.29548 40.1167 6.20831 41.125C7.11736 41.6043 7.93523 42.1163 8.02548 42.2631C8.22717 42.5902 7.20219 43.4871 5.42462 44.5394C3.93687 45.42 3.32517 46.1784 3.44888 46.9887C3.52828 47.5105 3.53961 47.506 3.70548 46.8908ZM142.095 36.0936C143.958 34.9539 144.619 32.3906 143.596 30.2706C142.518 28.0387 140.65 27.7024 139.078 29.4575C136.185 32.6877 138.682 38.1812 142.095 36.0936ZM142.198 34.6967C143.051 33.8411 143.129 33.6572 143.128 32.4946C143.127 30.2115 141.788 28.8002 140.338 29.5525C139.334 30.0732 138.84 31.1361 138.825 32.8097C138.809 34.5265 139.371 35.4417 140.513 35.5551C141.129 35.6163 141.439 35.4585 142.198 34.6967ZM110.966 30.0162C117.148 29.3708 122.509 27.8359 121.637 26.9614C121.578 26.9021 120.936 26.973 120.211 27.119C119.485 27.2653 118.487 27.3079 117.992 27.2141L117.092 27.0434L118.152 26.5033C120.155 25.483 122.555 25.1223 126.373 25.2684C129.297 25.38 130.435 25.5468 133.916 26.3738C136.171 26.9094 138.205 27.4492 138.436 27.5733C138.992 27.8716 139.188 27.8583 138.989 27.5357C138.681 27.0351 136.747 26.3526 133.288 25.5232C127.128 24.046 121.332 24.1727 117.917 25.8591C116.091 26.7607 116.022 27.786 117.787 27.7952C119.204 27.8026 117.979 28.2694 115.2 28.7808C112.764 29.2292 111.544 29.3001 106.253 29.3018C101.435 29.3032 99.7736 29.2216 98.472 28.92C95.4931 28.2301 93.8906 27.3171 94.2071 26.4899C94.5049 25.7116 96.4121 25.2086 102.211 24.3793C110.759 23.1566 113.869 22.4369 114.593 21.5137C115.246 20.6815 114.906 20.0379 113.299 19.0609C107.165 15.3319 95.713 14.8628 73.0299 17.4109C66.1462 18.1842 63.8022 18.5265 63.2513 18.8389C62.6521 19.1788 64.7544 19.0828 68.9064 18.5808C81.5612 17.0512 87.7057 16.5986 95.7679 16.6026C103.124 16.6064 105.985 16.9387 109.843 18.2377C111.752 18.8805 114.059 20.1384 114.252 20.6416C114.611 21.582 109.848 22.713 100.127 23.9945C96.3233 24.496 94.795 24.9231 93.9484 25.7208C92.4658 27.1181 94.3553 28.7541 98.4218 29.5939C100.088 29.938 108.88 30.2342 110.966 30.0162ZM5.87607 22.6971C7.38056 21.3407 9.66355 19.9999 14.2409 17.785C18.2142 15.8623 28.1122 11.7798 30.3813 11.1277C31.997 10.6635 33.5623 9.92281 33.5623 9.62241C33.5623 8.71529 26.2875 9.02089 16.9506 10.3208C14.0995 10.7177 11.5017 11.1076 11.1777 11.1875C10.0092 11.4754 11.169 10.5704 13.5236 9.35722C14.7752 8.71222 16.1113 7.85663 16.4927 7.45553L17.1862 6.72638L16.6499 6.28843C16.0957 5.83581 14.0509 5.46474 13.0457 5.63444C12.4444 5.73584 12.6659 5.79776 14.9477 6.16505C17.0891 6.50965 16.764 7.02726 13.3106 8.77083C10.804 10.0365 9.12609 11.3738 9.78538 11.5808C10.6836 11.8625 11.2258 11.8933 12.1728 11.7158C16.029 10.993 24.5189 10.0431 28.025 9.94171L32.0307 9.8259L29.6744 10.6257C25.9862 11.8777 17.2668 15.5232 13.8363 17.2476C8.79433 19.782 6.1341 21.5468 5.04691 23.0781C4.77264 23.4646 4.58178 23.7761 4.62301 23.7702C4.66425 23.7645 5.22811 23.2816 5.87607 22.6971ZM147.959 19.4097C147.056 18.6498 144.221 17.166 141.951 16.2651C140.979 15.8791 137.483 14.7437 134.183 13.7413C128.388 11.9817 125.928 11.0282 125.928 10.5411C125.928 10.4132 126.379 10.296 126.93 10.2802C130.438 10.1804 133.127 10.6458 138.873 12.348C143.292 13.6572 143.619 13.7392 143.117 13.4125C141.877 12.6042 135.053 10.5364 131.729 9.96156C125.527 8.88899 122.917 10.4447 127.792 12.3085C128.646 12.6349 131.826 13.6538 134.859 14.5725C140.88 16.3967 144.177 17.6279 146.899 19.0687C148.254 19.7858 148.501 19.8654 147.959 19.4097ZM107.672 9.51297C107.209 7.36098 107.209 7.38084 107.689 7.58197C107.936 7.68573 108.676 7.82163 109.334 7.88379C110.681 8.01119 111.959 7.49831 112.95 6.43283C113.802 5.51721 113.409 5.45977 112.046 6.30118C111.203 6.82116 110.57 7.03836 109.959 7.01662C109.476 6.99937 108.056 6.96202 106.804 6.93342C104.844 6.88899 104.45 6.81076 103.976 6.37375C103.5 5.93437 103.084 5.85376 100.893 5.77695C99.4998 5.72802 98.3598 5.75332 98.3598 5.8332C98.3598 6.18608 99.639 6.50492 101.229 6.54794C102.77 6.59001 103.04 6.66966 103.758 7.29646C104.448 7.89821 104.705 7.98211 105.562 7.88521C106.493 7.7798 106.569 7.81479 106.687 8.40519C106.756 8.75334 107.039 9.29741 107.315 9.61436L107.818 10.1906L107.672 9.51297ZM96.2391 8.10124C96.2391 7.9209 93.3463 7.30757 90.5841 6.90246C85.4698 6.15182 80.7818 5.99274 72.5586 6.28984C68.282 6.44441 63.0334 6.53446 60.895 6.49003L57.0072 6.40897L60.1882 5.72496C68.8732 3.85778 78.1467 1.25886 79.6503 0.270438C79.9618 0.0657567 80.2165 -0.295388 80.2165 -0.532212C80.2165 -1.8988 77.5694 -2.41618 69.577 -2.61236C59.5195 -2.85887 52.5661 -1.75865 50.5647 0.39641C49.4883 1.55524 50.0767 2.59283 52.7619 4.27164C55.5791 6.03293 55.063 6.52714 50.4063 6.52714C43.7913 6.52714 34.9268 4.60513 33.9518 2.95941C33.829 2.7519 33.7989 2.30117 33.8849 1.95751C34.1026 1.0875 35.8125 0.162188 39.6853 -1.18123C43.2049 -2.40223 43.9299 -2.76385 43.9299 -3.29895C43.9299 -3.90259 42.58 -4.27344 38.5104 -4.7875C33.9607 -5.36254 32.3304 -5.74849 30.3314 -6.72416C28.7366 -7.50222 27.9072 -8.35428 27.9072 -9.21389C27.9072 -10.0104 29.0974 -11.2503 30.6676 -12.0893C31.9881 -12.7949 37.8125 -14.6845 40.3434 -15.2283C41.4671 -15.4699 42.9874 -16.4051 42.9874 -16.8547C42.9874 -17.5403 40.1954 -17.7377 35.9186 -17.3543C34.1796 -17.1986 34.4388 -17.1737 37.8849 -17.1662C40.2355 -17.1612 41.9513 -17.0601 42.0925 -16.9185C42.4558 -16.554 41.4527 -16.0114 39.6457 -15.5947C36.9588 -14.975 32.3276 -13.5606 30.9869 -12.9504C28.4749 -11.8074 26.9567 -10.0777 27.2913 -8.74047C27.4909 -7.94302 28.6879 -6.79886 30.0425 -6.11012C31.7399 -5.24744 34.207 -4.64995 38.2748 -4.1165C42.8618 -3.51475 43.4066 -3.40318 42.9647 -3.15525C42.7793 -3.05126 41.7277 -2.65135 40.6278 -2.26704C36.3088 -0.757466 34.7946 -0.0732164 33.9464 0.753306C32.8125 1.85778 32.7899 2.75946 33.8705 3.78121C35.8521 5.65477 44.8125 7.4007 51.4299 7.20239C53.7951 7.13149 54.3279 7.04569 54.744 6.66777C55.0169 6.42008 55.24 6.03576 55.24 5.81359C55.24 5.25746 54.2515 4.31654 52.8027 3.49357C50.297 2.07002 50.1415 1.0738 52.2621 0.0329069C55.2324 -1.42467 60.9839 -2.08551 69.2127 -1.91463C76.1305 -1.77093 79.5096 -1.33865 79.5096 -0.597688C79.5096 0.156981 72.0379 2.35742 61.3849 4.74032C56.2699 5.8845 55.2226 6.29102 55.7494 6.92776C56.0708 7.31632 57.5682 7.31111 77.806 6.8507C84.9498 6.68809 90.8692 7.09864 95.5912 8.08399C95.9474 8.1582 96.2391 8.166 96.2391 8.10124ZM94.9642 6.31655C95.7222 5.85283 96.795 4.64223 96.6112 4.45788C96.4823 4.32859 95.8862 4.7415 94.7436 5.75167C93.5073 6.84479 93.6216 7.13763 94.9642 6.31655ZM118.151 5.55148C118.151 5.50302 117.898 4.84124 117.589 4.08065C117.087 2.845 117.062 2.63087 117.353 2.07167C117.785 1.24065 117.769 -0.605252 117.32 -1.68302C116.697 -3.17746 115.195 -4.93238 113.34 -6.33324C112.357 -7.07515 111.404 -7.97068 111.222 -8.32309C110.331 -10.052 108.718 -10.9898 105.456 -11.6762C104.34 -11.9114 102.739 -12.2846 101.9 -12.506C100.838 -12.7861 99.8131 -12.8757 98.5268 -12.801C96.8079 -12.7013 96.4712 -12.5862 93.6906 -11.1477C91.5688 -10.0501 90.5652 -9.3907 90.2306 -8.87379C89.8503 -8.28622 89.5433 -8.1151 88.6402 -7.98747C88.0245 -7.90049 87.5209 -7.75016 87.5209 -7.65302C87.5209 -7.4195 88.8433 -7.16094 89.2453 -7.31574C89.4533 -7.39563 89.6545 -7.12431 89.835 -6.52043C89.9856 -6.01629 90.3086 -5.42234 90.5532 -5.20041C90.9868 -4.80665 90.9891 -4.82295 90.647 -5.86527C90.3237 -6.85038 90.3306 -6.99928 90.7347 -7.779C91.1133 -8.50909 91.5846 -8.82037 94.1857 -10.0581C97.836 -11.7949 99.2446 -12.0156 101.811 -11.2529C102.699 -10.9889 104.168 -10.6488 105.075 -10.4971C107.839 -10.035 109.236 -9.26236 110.277 -7.61995C110.577 -7.14606 111.65 -6.11367 112.661 -5.32544C114.691 -3.74331 115.594 -2.71516 116.276 -1.20913C116.888 0.144458 116.884 2.02322 116.267 2.81003C115.724 3.50254 115.674 3.72045 116.091 3.56919C116.253 3.51034 116.549 3.79633 116.749 4.20451C117.045 4.80886 118.155 5.87528 118.151 5.55148ZM110.549 5.00975C113.134 4.04638 114.625 2.41697 114.613 0.568706C114.607 -0.404118 113.913 -1.9501 113.203 -2.57241C112.907 -2.8324 112.712 -2.93876 112.77 -2.80877C112.828 -2.67877 113.067 -2.15005 113.3 -1.6341C113.841 -0.43887 113.722 1.56777 113.068 2.29361C112.011 3.4652 109.18 4.62687 107.366 4.63349C106.941 4.63514 105.967 4.31914 105.201 3.93152C104.211 3.42998 103.23 3.16054 101.797 2.99746C99.4385 2.72849 99.0681 2.56234 98.2 1.38341C97.8424 0.897474 96.8334 -0.268443 95.9578 -1.20794C94.1967 -3.09734 94.0125 -3.53295 94.1699 -5.43581C94.3035 -7.05269 95.0327 -7.87685 97.0754 -8.71897L98.4776 -9.29733L97.5865 -9.30276C95.7929 -9.31411 94.1513 -8.25407 93.3857 -6.59039C92.4842 -4.63104 93.0273 -2.85082 95.2474 -0.48849C96.0028 0.315343 96.9712 1.42903 97.3994 1.98635C98.422 3.31724 99.5938 3.88662 101.702 4.07593C102.892 4.183 103.844 4.44015 104.774 4.90623C106.503 5.77247 108.411 5.80673 110.549 5.00975ZM21.074 5.20594C22.9902 4.37564 25.079 1.33001 25.0795 -0.634312C25.0799 -2.54309 23.8434 -3.60644 22.1641 -3.1413C20.3773 -2.64638 17.8231 0.532315 17.4338 2.74552C17.1869 4.1511 18.431 5.60561 19.8523 5.57252C20.0707 5.56732 20.6205 5.40235 21.074 5.20594ZM21.0005 4.17662C22.0217 3.71148 23.1977 2.33024 23.8033 0.884953C24.5927 -0.999241 23.9093 -2.62676 22.4993 -2.22118C19.9579 -1.49015 17.324 3.20238 18.8335 4.30945C19.4209 4.74032 19.8158 4.71598 21.0005 4.17662ZM94.8266 2.98399C94.6885 2.72519 93.9856 2.0764 93.2648 1.54224C91.9029 0.533018 91.4616 -0.199907 91.1788 -1.92243C90.9927 -3.05574 90.6684 -3.22805 90.4399 -2.31455C90.2537 -1.57051 90.7 0.0199031 91.3541 0.942617C91.8096 1.58526 94.4262 3.45456 94.8701 3.45456C94.9842 3.45456 94.9646 3.2428 94.8266 2.98399ZM107.903 2.75637C108.162 2.64884 108.639 2.27469 108.963 1.92513C109.464 1.38436 109.552 1.06315 109.552 -0.224018C109.552 -1.65513 109.504 -1.78489 108.676 -2.61567C107.753 -3.54193 107.144 -3.57927 108.001 -2.65727C109.286 -1.2739 109.102 1.02487 107.608 2.26027C106.772 2.95137 106.903 3.17141 107.903 2.75637ZM121.094 0.0678817C123.79 -2.53199 129.783 -2.99099 133.428 -0.876822C133.989 -0.551596 134.491 -0.328962 134.544 -0.382376C134.598 -0.435553 134.334 -0.964987 133.959 -1.55846C132.833 -3.33985 130.476 -4.71612 125.393 -6.5599C120.34 -8.3928 119.086 -9.22052 119.611 -10.377C119.974 -11.1751 121.801 -12.0681 124.309 -12.6734C125.528 -12.9676 126.562 -13.3146 126.605 -13.4446C126.708 -13.7467 124.632 -14.4843 123.643 -14.4978C122.506 -14.5134 118.151 -15.3983 116.634 -15.9218C113.496 -17.0045 110.515 -18.9563 110.224 -20.1175C110.106 -20.5883 110.195 -20.8348 110.603 -21.166C111.049 -21.5278 111.586 -21.6011 113.878 -21.6136C115.982 -21.6252 116.484 -21.685 116.032 -21.8698C115.708 -22.0024 114.365 -22.0731 113.046 -22.0268C110.325 -21.9313 109.67 -21.6035 109.67 -20.3368C109.67 -19.7885 109.942 -19.3579 110.832 -18.4971C113.056 -16.3472 117.545 -14.6668 122.832 -14.005C124.146 -13.8405 125.221 -13.6204 125.221 -13.5162C125.221 -13.4117 125.005 -13.3264 124.742 -13.3264C124.478 -13.3264 123.406 -13.0428 122.36 -12.6958C119.526 -11.7563 118.357 -10.4545 119.099 -9.06405C119.482 -8.3472 121.168 -7.48475 124.671 -6.21412C128.505 -4.82319 131.056 -3.58708 132.253 -2.54027L133.115 -1.78678L131.701 -2.26799C130.09 -2.81656 127.232 -2.90828 125.367 -2.47126C123.738 -2.09002 121.852 -1.11127 120.955 -0.182652C120.01 0.795375 120.125 1.00265 121.094 0.0678817ZM89.3873 -2.98957C90.4429 -3.52988 90.2389 -3.83452 89.003 -3.56366C87.6496 -3.26681 87.5497 -3.20276 87.999 -2.91772C88.4571 -2.62724 88.7043 -2.64001 89.3873 -2.98957ZM96.4672 -3.90519C96.4764 -5.23255 96.9441 -5.87069 98.242 -6.32662C98.9847 -6.58755 99.0966 -6.69368 98.7703 -6.82722C98.0653 -7.11604 96.7594 -6.72747 96.2493 -6.07704C95.6807 -5.35167 95.6121 -3.93285 96.1138 -3.26752C96.4342 -2.84255 96.4604 -2.88983 96.4672 -3.90519ZM89.8772 -16.819C89.8772 -17.1258 89.1588 -18.0534 88.9213 -18.0534C88.6039 -18.0534 88.6463 -17.2555 88.9818 -16.919C89.2985 -16.6013 89.8772 -16.5368 89.8772 -16.819ZM83.7509 -17.8367C83.7509 -18.4127 83.2002 -18.3314 83.0857 -17.7384C83.0405 -17.5051 83.1606 -17.3444 83.3803 -17.3444C83.5987 -17.3444 83.7509 -17.5465 83.7509 -17.8367ZM102.837 -18.4432C103.512 -18.7195 104.015 -19.3113 104.015 -19.8294C104.015 -20.5611 102.32 -22.4096 101.11 -22.997C100.538 -23.2749 99.6289 -23.4895 99.024 -23.4895C96.0042 -23.4895 95.9236 -20.4867 98.9024 -18.9622C99.8558 -18.4744 102.168 -18.1695 102.837 -18.4432ZM93.0561 -19.9549C92.6388 -21.9601 91.6826 -23.0017 89.0525 -24.3154C86.827 -25.4269 84.7603 -25.9185 82.2193 -25.9403C79.1687 -25.9663 78.5878 -25.7926 77.1712 -24.4302C76.4983 -23.7828 76.0862 -23.2499 76.2558 -23.2456C76.4556 -23.2409 76.4142 -23.1241 76.1378 -22.9138C75.6345 -22.5311 75.9825 -22.2033 76.6625 -22.4198C77.2648 -22.6115 77.499 -23.2515 76.9693 -23.2584C76.7464 -23.2612 77.1474 -23.607 77.8602 -24.0265C79.1342 -24.7765 79.2059 -24.7895 82.1015 -24.7876C85.2752 -24.7855 86.3821 -24.5344 88.9347 -23.2383C90.7083 -22.3378 91.6475 -21.3997 92.3334 -19.8438C93.1004 -18.1045 93.4305 -18.1553 93.0561 -19.9549ZM89.9458 -19.1281C91.3527 -19.581 91.7957 -20.3243 91.2012 -21.2345C90.5961 -22.1608 90.0669 -22.048 90.643 -21.1156C91.0363 -20.4789 90.7028 -20.2832 88.6239 -19.9315C84.8343 -19.2903 80.3784 -20.5408 79.1712 -22.5843C78.8086 -23.1979 78.8197 -23.2324 79.5664 -23.8225L80.3343 -24.4298L79.6757 -24.4324C78.7648 -24.4359 77.7747 -23.4252 77.9957 -22.7174C78.3958 -21.4368 79.8331 -20.2163 81.8534 -19.4418C83.6098 -18.7684 88.2679 -18.5878 89.9458 -19.1281ZM102.915 -19.3928C103.583 -20.0629 101.665 -22.0459 99.8586 -22.5534C98.9279 -22.8148 98.6678 -22.8093 98.1496 -22.5174C97.8134 -22.3281 97.507 -22.0104 97.4689 -21.8112C97.3605 -21.2468 98.3424 -20.166 99.4015 -19.6833C100.332 -19.2595 102.596 -19.0724 102.915 -19.3928ZM78.7975 -20.2926C78.967 -20.4973 79.049 -20.7214 78.9799 -20.7906C78.7799 -20.9915 77.2657 -20.5283 77.3227 -20.2837C77.4125 -19.8984 78.4768 -19.9048 78.7975 -20.2926ZM38.3926 -20.3886C40.6938 -21.057 41.5736 -21.7679 41.5736 -22.9592C41.5736 -23.4791 41.535 -23.4666 40.7706 -22.6999C39.8542 -21.7807 38.3014 -21.1756 36.3182 -20.965C35.1499 -20.8407 34.8507 -20.8937 34.2659 -21.3274C33.8893 -21.6065 33.4683 -21.8351 33.3302 -21.8351C32.9555 -21.8351 33.7199 -20.4756 34.2562 -20.1877C34.9223 -19.8299 36.7802 -19.9202 38.3926 -20.3886ZM46.4092 -25.3567C47.7209 -26.1114 48.2496 -26.8708 48.1316 -27.8311C48.0244 -28.703 47.6686 -28.7179 47.3934 -27.862C47.0635 -26.8358 46.822 -26.6016 45.2989 -25.8304C44.5458 -25.4491 43.9299 -25.0324 43.9299 -24.9043C43.9299 -24.447 45.2454 -24.6871 46.4092 -25.3567Z" fill="white"/>
</svg>
