<svg width="85" height="32" viewBox="0 0 85 32" fill="none" xmlns="http://www.w3.org/2000/svg">
<g clip-path="url(#clip0_1581_6076)">
<path fill-rule="evenodd" clip-rule="evenodd" d="M15.2147 6.11694C13.7819 5.0479 11.8566 4.85555 10.6899 6.04465C7.89439 3.987 4.50134 6.49393 4.50139 9.76708C4.50143 12.8121 8.36067 15.7093 10.8012 16.9778C11.2492 16.9352 11.6689 16.863 12.0615 16.7644C12.7044 17.2084 13.5295 17.6898 14.568 18.2202C15.7615 18.8298 16.7243 19.2458 17.5169 19.4867C14.4885 23.2543 10.7355 25.9535 10.7355 25.9535C10.7355 25.9535 0.189453 18.3686 0.189453 10.8806C0.189453 4.94395 4.91109 0.131348 10.7355 0.131348C12.3986 0.131348 13.9718 0.523717 15.3707 1.22258C15.0945 1.6995 14.8154 2.39106 15.3189 3.16833C14.77 3.8825 14.8267 4.47755 15.4951 4.99744C15.2246 5.38614 15.1661 5.77179 15.2147 6.11694Z" fill="url(#paint0_linear_1581_6076)"/>
<path fill-rule="evenodd" clip-rule="evenodd" d="M17.3927 21.8204C18.5683 22.0278 19.6593 22.3138 20.6462 22.7086C25.7274 24.7407 23.369 27.1694 19.0395 27.1694H10.6325L8.88053 28.7597H19.6168C21.8688 28.7597 23.5092 28.136 24.3596 27.1622C24.7839 26.6762 25.0109 26.1288 25.0254 25.5742C25.0254 23.7987 22.3707 22.5891 20.8683 22.1236C19.9021 21.8243 18.8405 21.6003 17.7478 21.4333C17.6296 21.5641 17.5112 21.6933 17.3927 21.8204ZM18.0142 21.135C19.0981 21.3025 20.1534 21.5265 21.1175 21.8252C22.7041 22.3166 24.058 23.0146 24.879 24.0091C25.353 24.5832 25.574 25.2082 25.5579 25.8252C25.486 28.5874 21.7269 29.5908 19.6168 29.5908H7.96495L5.4375 31.8849H19.0395C21.8182 31.8849 27.2134 30.3646 27.3247 26.1292C27.3247 23.2077 23.9026 21.9882 21.4857 21.3215C20.5135 21.0534 19.466 20.8495 18.396 20.6948C18.2693 20.8435 18.1421 20.9902 18.0142 21.135Z" fill="url(#paint1_linear_1581_6076)"/>
<path fill-rule="evenodd" clip-rule="evenodd" d="M10.7899 8.05532C12.5572 5.46517 15.6501 7.12444 15.6501 9.80269C15.6501 12.0296 12.5748 14.4685 10.7899 15.3962C9.00506 14.4685 5.92969 12.0297 5.92969 9.80269C5.92969 7.12439 9.02247 5.4792 10.7899 8.05532Z" fill="#EE6870"/>
<mask id="mask0_1581_6076" style="mask-type:alpha" maskUnits="userSpaceOnUse" x="0" y="0" width="22" height="26">
<path d="M21.1785 11.4888C20.7654 18.965 9.81754 25.9335 9.81754 25.9335C9.81754 25.9335 -0.293369 17.7562 0.119745 10.2799C0.447255 4.35261 5.42692 -0.18175 11.2421 0.152077C17.0574 0.485904 21.506 5.56151 21.1785 11.4888Z" fill="#857373"/>
</mask>
<g mask="url(#mask0_1581_6076)">
<mask id="mask1_1581_6076" style="mask-type:alpha" maskUnits="userSpaceOnUse" x="11" y="1" width="13" height="18">
<path d="M15.4734 17.6813C7.31973 13.5168 13.227 10.6148 15.4731 6.04605C15.6579 0.960831 15.5978 0.206777 19.1576 3.15978C20.5553 5.35329 22.7495 9.51774 23.0463 13.8494C20.8001 18.4181 21.1507 20.5809 15.4734 17.6813Z" fill="#D9D9D9"/>
</mask>
<g mask="url(#mask1_1581_6076)">
<path fill-rule="evenodd" clip-rule="evenodd" d="M17.0041 8.22746C16.9293 7.74889 16.9357 7.10123 17.5932 6.93512C18.0731 6.89636 18.3751 7.13479 18.5289 7.74957C18.6827 8.36435 19.0105 11.521 19.0105 11.521L19.2304 10.9359C19.3463 10.6272 19.3951 10.3391 19.3625 10.0105C19.3625 10.0105 19.1475 8.14938 19.0227 7.51852C18.8978 6.88767 18.3515 6.32723 17.6161 6.3865C17.1329 6.42551 16.7964 6.62714 16.5926 7.03836L16.2342 6.47682C15.9627 6.00447 16.0131 5.43917 16.5391 5.07397L16.0867 4.61097C15.694 4.12299 15.8941 3.5337 16.31 3.3593C16.0998 3.19459 15.9138 2.83026 15.8941 2.56774C15.8067 2.06483 15.9244 1.66012 16.4328 1.89247C16.9412 2.12482 18.1674 2.56774 18.6316 3.01371C19.1675 3.52852 21.3302 7.56646 21.3302 7.56646C21.6695 8.07026 21.7792 8.65703 21.6998 9.26335L20.8316 14.0015C20.6066 14.8931 20.2702 16.0254 19.9026 16.532C18.9468 17.849 17.47 19.6729 17.328 19.6448C13.3558 18.8611 12.0293 16.9388 12.0293 16.9388L16.0576 14.5881C15.7108 12.899 16.7797 12.4021 17.1094 11.6075C17.6246 10.3661 17.0041 8.22746 17.0041 8.22746Z" fill="#EE6870"/>
</g>
</g>
<path d="M38.8709 11.1149V20.0693H37.4026V13.1648L34.9595 20.0693H33.701L31.1962 13.1648V20.0693H29.7402V11.1149H31.8995L34.3549 18.1199L36.7239 11.1149H38.8709ZM46.2206 18.0445C46.0602 18.7488 45.7148 19.3021 45.1965 19.692C44.6783 20.0944 44.049 20.2831 43.3334 20.2831C42.371 20.2831 41.606 19.9687 41.0384 19.3399C40.4708 18.711 40.1993 17.8936 40.1993 16.9C40.1993 15.8939 40.4831 15.0513 41.0631 14.3848C41.643 13.7308 42.3833 13.3912 43.284 13.3912C44.2094 13.3912 44.9498 13.7182 45.4927 14.3722C46.0356 15.0261 46.307 15.9065 46.307 17.0258V17.1767H41.606C41.6183 17.8307 41.7787 18.3463 42.0872 18.6985C42.3833 19.0506 42.8152 19.2267 43.3581 19.2267C43.7406 19.2267 44.049 19.1386 44.2958 18.95C44.5426 18.7613 44.7277 18.4595 44.8757 18.0445H46.2206ZM44.9004 16.2209C44.851 15.6801 44.6906 15.2525 44.3945 14.9381C44.0984 14.6237 43.7282 14.4602 43.2717 14.4602C42.8028 14.4602 42.4327 14.6111 42.1489 14.913C41.8651 15.2148 41.6923 15.655 41.6306 16.2209H44.9004ZM53.41 11.1149V20.0693H52.0898V19.1764C51.6826 19.8932 51.0039 20.2454 50.0539 20.2454C49.1531 20.2454 48.4375 19.9435 47.9069 19.3147C47.3764 18.6985 47.1172 17.8684 47.1172 16.812C47.1172 15.7807 47.3764 14.9507 47.8946 14.3344C48.4128 13.7182 49.1161 13.4038 50.0045 13.4038C50.8929 13.4038 51.5715 13.7434 52.0281 14.4225V11.1149H53.41ZM50.2636 14.5608C49.7207 14.5608 49.3012 14.762 48.9927 15.1645C48.6843 15.5669 48.5362 16.1077 48.5362 16.7868C48.5362 17.5037 48.6843 18.0696 49.0051 18.4721C49.3259 18.8871 49.7577 19.0883 50.313 19.0883C50.8559 19.0883 51.2877 18.8871 51.5962 18.4847C51.9047 18.0822 52.0651 17.5289 52.0651 16.812C52.0651 16.1077 51.9047 15.5544 51.5839 15.1519C51.2631 14.762 50.8312 14.5608 50.2636 14.5608ZM56.2642 13.5799V14.4979C56.7824 13.7685 57.4487 13.4038 58.2631 13.4038C58.6826 13.4038 59.0404 13.5044 59.3489 13.693C59.6574 13.8943 59.8918 14.1584 60.0399 14.5105C60.5457 13.7811 61.2367 13.4038 62.1004 13.4038C62.6927 13.4038 63.1986 13.5924 63.5934 13.9572C63.9882 14.3219 64.1857 14.8249 64.1857 15.4663V20.0693H62.779V16.0826C62.779 15.6298 62.6927 15.2651 62.5446 15.001C62.3842 14.7495 62.0881 14.6111 61.6439 14.6111C61.1874 14.6111 60.8419 14.762 60.6074 15.0513C60.3607 15.3406 60.2496 15.743 60.2496 16.2586V20.0693H58.843V16.0071C58.843 15.5544 58.769 15.2022 58.6332 14.9633C58.4975 14.7369 58.2137 14.6111 57.7942 14.6111C57.313 14.6111 56.9552 14.7746 56.7084 15.089C56.4616 15.4034 56.3382 15.8185 56.3382 16.3341V20.0693H54.9316V13.5799H56.2642ZM68.6044 13.3912C69.5668 13.3912 70.3442 13.7056 70.9241 14.3219C71.4917 14.9507 71.7878 15.7807 71.7878 16.8246C71.7878 17.881 71.4917 18.7236 70.9241 19.3399C70.3565 19.9687 69.5792 20.2705 68.6044 20.2705C67.605 20.2705 66.8153 19.9687 66.2354 19.3399C65.6431 18.7236 65.3593 17.881 65.3593 16.8246C65.3593 15.7807 65.6431 14.9507 66.2354 14.3219C66.8277 13.7056 67.6173 13.3912 68.6044 13.3912ZM68.5798 14.5231C68.0122 14.5231 67.5803 14.7369 67.2595 15.1393C66.9387 15.5544 66.7783 16.1203 66.7783 16.8246C66.7783 17.554 66.9387 18.1325 67.2595 18.535C67.5803 18.95 68.0245 19.1512 68.5921 19.1512C69.135 19.1512 69.5668 18.95 69.8876 18.535C70.2085 18.1199 70.3689 17.5414 70.3689 16.812C70.3689 16.1077 70.2085 15.5418 69.8876 15.1393C69.5668 14.7369 69.135 14.5231 68.5798 14.5231ZM74.3762 11.1149V14.4225C74.8451 13.7559 75.536 13.4164 76.4614 13.4164C77.3005 13.4164 77.9791 13.7308 78.4973 14.3344C79.0156 14.9507 79.2747 15.7682 79.2747 16.7743C79.2747 17.8307 79.0032 18.6733 78.485 19.3021C77.9544 19.931 77.2511 20.2454 76.3874 20.2454C75.425 20.2454 74.7217 19.8932 74.3022 19.1889V20.0693H72.9819V11.1149H74.3762ZM76.1036 14.5608C75.5484 14.5608 75.1165 14.762 74.7957 15.1645C74.4749 15.5669 74.3268 16.1329 74.3268 16.8372C74.3268 17.5414 74.4749 18.0822 74.7957 18.4847C75.1165 18.8871 75.5484 19.0883 76.1036 19.0883C76.6218 19.0883 77.0537 18.8871 77.3745 18.4721C77.6953 18.0571 77.8557 17.5037 77.8557 16.7994C77.8557 16.1203 77.6953 15.5669 77.3745 15.1645C77.0537 14.762 76.6342 14.5608 76.1036 14.5608ZM81.9561 11.0771V12.4857H80.5495V11.0771H81.9561ZM81.9561 13.5799V20.0693H80.5495V13.5799H81.9561ZM84.9324 11.1149V20.0693H83.5381V11.1149H84.9324Z" fill="#4E4E4E"/>
</g>
<defs>
<linearGradient id="paint0_linear_1581_6076" x1="6.04558" y1="0.131348" x2="12.3497" y2="26.3796" gradientUnits="userSpaceOnUse">
<stop offset="0.295042" stop-color="#0ECCAA"/>
<stop offset="0.895759" stop-color="#4AACE2"/>
</linearGradient>
<linearGradient id="paint1_linear_1581_6076" x1="12.8347" y1="20.6948" x2="13.8193" y2="32.6446" gradientUnits="userSpaceOnUse">
<stop offset="0.295042" stop-color="#0ECCAA"/>
<stop offset="0.895759" stop-color="#4AACE2"/>
</linearGradient>
<clipPath id="clip0_1581_6076">
<rect width="85" height="32" fill="white"/>
</clipPath>
</defs>
</svg>
