<svg width="57" height="24" viewBox="0 0 57 24" fill="none" xmlns="http://www.w3.org/2000/svg">
<g clip-path="url(#clip0_1578_5884)">
<path fill-rule="evenodd" clip-rule="evenodd" d="M31.3899 14.8776C30.0004 15.1617 28.9635 15.8848 28.327 17.014C27.8569 17.8479 27.6875 18.4952 27.6875 19.4587C27.6875 21.026 28.3806 22.3833 29.5749 23.155C29.9384 23.3899 30.4523 23.6534 30.7167 23.7406C31.3844 23.9608 33.1968 24.0444 33.6943 23.8779C34.735 23.5295 34.8142 21.9642 33.8149 21.4981C33.5705 21.3841 33.2154 21.3403 32.5378 21.3403C31.7199 21.3403 31.5486 21.3111 31.206 21.1132C30.1787 20.5199 29.8833 19.1713 30.5753 18.2327C31.0444 17.5962 31.2318 17.5228 32.544 17.4618C33.8909 17.3992 34.1907 17.2662 34.4562 16.6141C34.6535 16.1294 34.6492 15.9969 34.4203 15.501C34.0779 14.7597 33.0256 14.5432 31.3899 14.8776ZM38.513 14.9205C37.735 15.1716 37.2564 15.4656 36.6235 16.0812C35.4308 17.2413 34.9324 18.9168 35.3316 20.4232C35.7018 21.8198 36.6219 22.9355 37.9258 23.5688C38.5919 23.8923 38.7414 23.927 39.6393 23.9663C40.3569 23.9976 40.7892 23.9675 41.2376 23.8545C42.522 23.5311 43.6799 22.5556 44.3042 21.2709C44.657 20.5446 44.6607 20.5244 44.6607 19.3485V18.1599L44.2529 17.3511C43.6226 16.1011 42.6225 15.2761 41.2534 14.8769C40.5279 14.6653 39.2401 14.6858 38.513 14.9205ZM45.6088 14.9179C45.2789 15.1257 45.0843 15.4906 45.0764 15.9162C45.072 16.1472 47.0419 22.1797 47.4719 23.2523C47.8222 24.1262 49.2223 24.2563 49.7505 23.464C49.8417 23.3272 50.1524 22.5321 50.441 21.697C50.7295 20.862 50.9989 20.1203 51.0396 20.0488C51.0871 19.9653 51.2642 20.334 51.5343 21.0785C52.2492 23.0499 52.2988 23.1742 52.4976 23.4927C52.9825 24.27 54.3557 24.1249 54.741 23.2557C54.883 22.9358 55.2933 21.6761 56.058 19.2138C56.2033 18.746 56.4787 17.8813 56.6701 17.2922C57.1587 15.7884 57.1208 15.3847 56.4495 14.94C55.8577 14.5481 54.9418 14.731 54.7159 15.286C54.6619 15.419 54.3623 16.5163 54.0503 17.7243L53.483 19.9206L53.2753 19.0947C52.915 17.6615 52.2873 15.4403 52.1924 15.2629C52.0442 14.9858 51.5168 14.7252 51.1038 14.7252C50.4998 14.7252 50.1343 15.002 49.9571 15.5934C49.5737 16.8731 49.0468 18.7927 48.944 19.2847C48.8161 19.8957 48.7047 19.9758 48.6153 19.5209C48.5821 19.352 48.3624 18.5333 48.1273 17.7016C47.8921 16.8699 47.6503 16.0006 47.59 15.7698C47.5255 15.5229 47.3494 15.2216 47.162 15.0374C46.8885 14.7686 46.7781 14.7247 46.3773 14.7262C46.0764 14.7272 45.8037 14.7952 45.6088 14.9179ZM39.1925 17.5093C37.6276 18.0575 37.4312 20.1972 38.8606 21.1268C39.2113 21.3549 39.3525 21.3871 39.9897 21.3842C40.5747 21.3815 40.7874 21.3387 41.071 21.1665C42.2599 20.4451 42.4513 18.9296 41.4749 17.9686C40.8869 17.3898 40.0272 17.2169 39.1925 17.5093Z" fill="black"/>
<path fill-rule="evenodd" clip-rule="evenodd" d="M0.693992 14.9094C0.0289107 15.308 0.0427587 15.2203 0.0113125 19.2336C-0.0154215 22.6553 -0.0066681 22.8763 0.171238 23.2715C0.418288 23.8203 0.803527 24.0222 1.4964 23.9657C1.81634 23.9396 2.0857 23.8561 2.21524 23.7427C2.63288 23.3769 2.68424 23.0713 2.68424 20.9524V18.9518L3.25056 19.6577C4.30848 20.9763 4.83787 20.9185 6.02599 19.3545L6.33853 18.9431V20.9481C6.33853 22.4792 6.37123 23.03 6.47701 23.2787C6.85427 24.1661 8.34301 24.2397 8.81316 23.3943C8.96741 23.117 8.98309 22.7484 8.98309 19.4028C8.98309 15.326 8.98636 15.35 8.36782 14.9407C7.95056 14.6647 7.2798 14.6511 6.84783 14.9099C6.67838 15.0115 6.27381 15.4259 5.94877 15.831C5.62383 16.2361 5.17877 16.7908 4.95971 17.0637C4.74074 17.3367 4.53514 17.5599 4.50283 17.5599C4.47052 17.5599 4.10633 17.124 3.6935 16.5912C2.78348 15.4166 2.42872 15.0337 2.08801 14.8583C1.7171 14.6673 1.05769 14.6915 0.693992 14.9094ZM12.9707 14.9924C12.5722 15.1339 12.1127 15.3432 11.9495 15.4573C11.3882 15.8501 10.5385 16.8484 10.2419 17.4635C9.95532 18.0577 9.94475 18.1253 9.94513 19.3556C9.94551 20.5003 9.96936 20.6834 10.1772 21.1363C10.6724 22.2159 11.6534 23.1819 12.7601 23.6799C13.2113 23.8829 13.4914 23.9345 14.3271 23.9683C15.9137 24.0325 16.7978 23.7124 17.9125 22.6701C18.914 21.7334 19.3209 20.7903 19.3209 19.4052C19.3209 18.0403 19.01 17.2086 18.1568 16.2912C17.4945 15.579 16.9934 15.2528 16.1176 14.9639C15.0921 14.6255 13.9753 14.6357 12.9707 14.9924ZM22.4944 14.7899C21.4459 14.9624 20.7273 15.4614 20.3779 16.2595C20.2022 16.6611 20.1612 16.9326 20.1583 17.7146C20.1551 18.5765 20.1823 18.7312 20.4205 19.2096C20.8789 20.1305 21.7506 20.4897 23.5264 20.4897C24.4766 20.4897 24.5223 20.4991 24.6219 20.7141C24.6974 20.8768 24.696 20.9934 24.6165 21.1394C24.5116 21.332 24.4405 21.3403 22.8997 21.3405C21.1284 21.3406 20.8245 21.4142 20.4336 21.9379C20.162 22.3019 20.162 23.0249 20.4336 23.389C20.8516 23.949 21.099 24.0012 23.1194 23.9565C25.1442 23.9117 25.4642 23.8452 26.0582 23.3455C26.5549 22.9278 26.7925 22.4601 26.9207 21.6481C27.1128 20.4309 26.7191 19.1762 26.0006 18.7162C25.4857 18.3867 24.6768 18.2215 23.578 18.2215C22.6277 18.2215 22.5821 18.2121 22.4824 17.9971C22.4069 17.8343 22.4084 17.7177 22.4878 17.5718C22.5919 17.3809 22.6677 17.3709 24.0123 17.3707C25.1681 17.3706 25.4885 17.3403 25.7607 17.2053C26.7073 16.736 26.6906 15.3353 25.7336 14.9082C25.397 14.7581 25.1189 14.7305 24.033 14.7395C23.319 14.7455 22.6266 14.7682 22.4944 14.7899ZM13.7914 17.5117C13.5768 17.5857 13.2475 17.8188 13.0467 18.039C11.9156 19.2786 12.6643 21.2356 14.3338 21.4037C15.0687 21.4777 15.5974 21.3082 16.0923 20.8397C16.9337 20.0433 16.9422 18.7887 16.112 17.9727C15.5207 17.3917 14.6447 17.2177 13.7914 17.5117Z" fill="#EE1D24"/>
<path fill-rule="evenodd" clip-rule="evenodd" d="M13.8395 0.168725C13.2581 0.291966 12.8206 0.527107 12.4951 0.891349C11.9656 1.48412 11.8733 1.79676 11.8711 3.00554C11.869 4.20289 11.9542 4.47045 12.528 5.06851C13.0093 5.57017 13.3554 5.66959 14.8012 5.72186C15.5152 5.74766 16.1536 5.81145 16.2196 5.86362C16.3726 5.98431 16.3756 6.42945 16.2245 6.57802C16.1439 6.65722 15.6207 6.69144 14.4887 6.69144C13.2139 6.69144 12.8069 6.72263 12.5804 6.83783C11.9361 7.16522 11.7172 8.07431 12.1355 8.68447C12.5085 9.22837 12.6191 9.2503 14.8493 9.22176C17.15 9.19236 17.3506 9.13868 18.0159 8.37476C18.5038 7.81478 18.6791 7.16144 18.6311 6.08289C18.5801 4.93865 18.2675 4.34551 17.4865 3.91151C16.9916 3.63649 16.8971 3.61929 15.6389 3.57355C14.2752 3.52402 14.131 3.47866 14.131 3.10005C14.131 2.75386 14.2615 2.72088 15.7209 2.69763C16.8914 2.67901 17.2159 2.64328 17.474 2.50473C18.3978 2.00912 18.381 0.595438 17.4467 0.211821C17.0865 0.0639126 14.4814 0.0328194 13.8395 0.168725ZM20.1957 0.190273C20.0686 0.257281 19.8738 0.432029 19.763 0.578708C19.5677 0.837099 19.5605 0.95949 19.5332 4.50457C19.5025 8.47872 19.5288 8.7304 20.0111 9.08198C20.3735 9.34632 21.1088 9.39254 21.5328 9.17753C22.179 8.84995 22.2057 8.70195 22.2058 5.43918L22.206 2.53299H23.05C24.0707 2.53299 24.3216 2.65652 24.3216 3.15884C24.3216 3.68762 24.1805 3.85613 23.7382 3.85613C23.1998 3.85613 22.7048 4.08097 22.59 4.37754C22.4053 4.85492 22.4734 5.34212 22.7703 5.66865C23.0166 5.9397 23.1128 5.97628 23.6715 6.01125C25.2864 6.11228 26.3925 5.22804 26.6163 3.65719C26.8418 2.0748 26.2829 0.897586 25.0428 0.342906C24.5987 0.144151 24.4047 0.125534 22.4945 0.0982202C20.9436 0.0760103 20.3691 0.0990707 20.1957 0.190273ZM27.9278 0.209932C27.3499 0.463975 27.3535 0.438362 27.3225 4.44493C27.2911 8.51378 27.3175 8.76149 27.8125 9.05816C28.0976 9.22903 28.3103 9.24245 30.7166 9.24151C33.5686 9.24028 33.6325 9.22932 34.016 8.67473C34.2039 8.40311 34.2366 8.25728 34.2027 7.84266C34.1693 7.43334 34.1049 7.2842 33.8559 7.03933L33.5502 6.73869L31.7247 6.7093L29.8992 6.68V6.26038V5.84085H31.2486C32.7893 5.84085 33.1515 5.74482 33.4548 5.25583C33.8398 4.63546 33.6076 3.84848 32.9493 3.54141C32.6826 3.41704 32.3219 3.38358 31.2493 3.38358H29.8876L29.9175 3.04287L29.9473 2.70207L31.4116 2.71624C33.0755 2.73241 33.496 2.65368 33.8866 2.25305C34.1031 2.03095 34.1702 1.86301 34.1986 1.47183C34.2416 0.880291 34.1085 0.589483 33.6581 0.291209C33.3392 0.0800735 33.2813 0.0758208 30.7745 0.0794122C28.8488 0.0822475 28.145 0.114477 27.9278 0.209932ZM38.599 0.214844C37.2288 0.508109 36.2019 1.30615 35.572 2.56758C34.2241 5.26717 35.5317 8.38553 38.3099 9.09653C39.0174 9.27761 40.8983 9.29415 41.2439 9.12233C41.8217 8.83493 42.0934 7.95693 41.7855 7.37172C41.495 6.81959 41.3218 6.74909 40.1071 6.68851C38.803 6.62339 38.3546 6.44439 37.9075 5.81022C37.6927 5.50562 37.6364 5.30866 37.6085 4.76371C37.5763 4.13257 37.5935 4.06434 37.8959 3.62354C38.3831 2.9132 38.6786 2.78656 39.9919 2.72456C40.6262 2.6946 41.1975 2.61947 41.3241 2.54925C42.1685 2.08085 42.0885 0.576725 41.1996 0.211821C40.7855 0.0417027 39.4008 0.0433077 38.599 0.214844ZM43.1027 0.22921C42.6605 0.443464 42.4694 0.78219 42.4694 1.35161C42.4694 2.2143 42.9553 2.64111 43.9875 2.68506L44.5645 2.70963L44.6126 5.6264C44.6557 8.24386 44.6787 8.5702 44.8364 8.80657C45.3086 9.51427 46.561 9.48327 47.0142 8.7527C47.1977 8.45698 47.2084 8.28185 47.2086 5.54267L47.209 2.64546L47.5715 2.69328C48.7672 2.85092 49.7331 1.80422 49.2625 0.860823C49.1645 0.664336 48.9372 0.407268 48.7575 0.289603C48.4387 0.0809243 48.3695 0.0758216 45.9206 0.0779009C43.8311 0.0796966 43.3589 0.105024 43.1027 0.22921ZM49.0248 7.15283C48.6959 7.47606 48.6515 7.57322 48.6515 7.96865C48.6515 9.35256 50.329 9.8253 51.0599 8.64742C51.3034 8.25501 51.2983 7.78615 51.0463 7.38552C50.7879 6.97449 50.4108 6.78595 49.847 6.78595C49.4539 6.78595 49.3519 6.8315 49.0248 7.15283Z" fill="black"/>
<path fill-rule="evenodd" clip-rule="evenodd" d="M0.808874 0.114501C0.6502 0.183777 0.41219 0.355597 0.279962 0.496323L0.0395484 0.752162L0.0107938 4.40696C-0.00507357 6.41701 0.00743036 8.19824 0.0384919 8.36514C0.0695534 8.53205 0.223898 8.79536 0.381513 8.95035C0.94639 9.50541 1.94382 9.40343 2.43744 8.73997C2.63025 8.48082 2.63602 8.36354 2.63602 4.67603V0.8789L2.40532 0.561062C2.02575 0.0379486 1.39068 -0.139637 0.808874 0.114501ZM4.33056 0.137563C4.15188 0.226876 3.92483 0.430262 3.82607 0.589417C3.65855 0.859527 3.64643 1.13616 3.64614 4.71743C3.64576 8.46721 3.65038 8.56182 3.84655 8.80689C4.28276 9.35193 5.04516 9.47828 5.62889 9.10242C6.06279 8.82304 6.14607 8.4468 6.14607 6.76556V5.22712L7.43469 7.12527C8.75446 9.06953 9.017 9.33756 9.60159 9.33756C9.97894 9.33756 10.4675 9.06839 10.6634 8.75254C10.8495 8.45247 10.8574 8.28566 10.8565 4.65931C10.8553 0.629205 10.8515 0.595087 10.3751 0.247573C9.79892 -0.172524 8.90862 -0.00760349 8.53924 0.58781C8.38124 0.842421 8.35855 1.0803 8.35826 2.48415L8.35788 4.08951L7.11705 2.24117C6.43466 1.22462 5.75785 0.31666 5.61321 0.223473C5.23519 -0.0199853 4.71551 -0.0547647 4.33056 0.137563Z" fill="#EE1D24"/>
</g>
<defs>
<clipPath id="clip0_1578_5884">
<rect width="57" height="24" fill="white"/>
</clipPath>
</defs>
</svg>
