<svg width="80" height="26" viewBox="0 0 80 26" fill="none" xmlns="http://www.w3.org/2000/svg">
<g clip-path="url(#clip0_1573_5567)">
<path d="M12.4141 1.19459V5.02432C12.4141 5.69187 11.8836 6.21894 11.2116 6.21894H7.88704C6.5784 6.21894 6.33083 7.02702 6.29547 7.37838V7.41348C6.26011 7.55404 6.26011 7.65944 6.26011 7.8V11.1378C6.26011 11.8054 5.7296 12.3324 5.05761 12.3324H1.20251C0.530518 12.3324 0 11.8054 0 11.1378V7.30808C0 6.64056 0.530518 6.11354 1.20251 6.11354H4.52709C5.83568 6.11354 6.08325 5.3054 6.11861 4.95405V4.91892C6.15403 4.77838 6.15403 4.67297 6.15403 4.53243V1.19459C6.15403 0.527025 6.68453 0 7.35653 0H11.2116C11.8836 0 12.4141 0.527025 12.4141 1.19459Z" fill="#0041F9"/>
<path d="M6.26011 14.1243V18.0243C6.26011 18.6568 5.7296 19.1838 5.09297 19.1838H1.16714C0.530516 19.1838 0 18.6568 0 18.0243V14.1243C0 13.4919 0.530516 12.9648 1.16714 12.9648H5.09297C5.7296 12.9648 6.26011 13.4919 6.26011 14.1243Z" fill="#6795F7"/>
<path d="M6.26011 20.9407V24.8407C6.26011 25.4732 5.7296 26.0002 5.09297 26.0002H1.16714C0.530516 26.0002 0 25.4732 0 24.8407V20.9407C0 20.3083 0.530516 19.7812 1.16714 19.7812H5.09297C5.7296 19.7812 6.26011 20.3083 6.26011 20.9407Z" fill="#AFCDFB"/>
<path d="M16.7637 12.1916V13.7375C16.7637 14.0537 16.5161 14.2996 16.1978 14.2996H14.7124C14.3941 14.2996 14.1465 14.0537 14.1465 13.7375V12.1916C14.1465 11.8754 14.3941 11.6294 14.7124 11.6294H16.1978C16.4807 11.6294 16.7637 11.8754 16.7637 12.1916Z" fill="#161616"/>
<path d="M16.7637 15.6694H14.1465V25.6829H16.7637V15.6694Z" fill="#161616"/>
<path d="M19.1328 11.6294H28.8236V14.2996H21.8915V17.3916H28.2931V19.9213H21.8915V25.6834H19.1328V11.6294Z" fill="#161616"/>
<path d="M40.848 18.0239C40.6004 17.3915 40.2468 16.8293 39.787 16.3375C39.3272 15.8807 38.7613 15.4942 38.1247 15.2131C37.4881 14.9321 36.71 14.7915 35.8965 14.7915C35.0831 14.7915 34.305 14.9321 33.633 15.2131C32.961 15.4942 32.3598 15.8807 31.8646 16.3726C31.3695 16.8645 30.9804 17.4618 30.7328 18.1293C30.4499 18.7969 30.3438 19.4996 30.3438 20.2726C30.3438 21.0455 30.4852 21.7834 30.7328 22.4509C30.9804 23.1185 31.3695 23.6807 31.8292 24.1726C32.3244 24.6645 32.8903 25.0509 33.5976 25.3321C34.2696 25.6131 35.0477 25.7537 35.8965 25.7537C37.099 25.7537 38.0894 25.5429 38.9028 25.0861C39.6455 24.6996 40.2468 24.1375 40.7419 23.4699L40.8127 23.3645L38.8674 22.1699L38.7967 22.2401C38.4784 22.5915 38.1247 22.9077 37.7003 23.1537C37.2051 23.4347 36.6039 23.5753 35.9319 23.5753C35.1538 23.5753 34.4818 23.3645 33.9513 22.9429C33.4208 22.5213 33.0671 21.9239 32.9256 21.2213L32.8903 21.0455H41.2017V20.905C41.2017 20.8699 41.2017 20.8347 41.2017 20.8347C41.2371 20.5537 41.2371 20.3429 41.2371 20.2023C41.2371 19.3942 41.0956 18.6915 40.848 18.0239ZM32.961 19.1483L33.0318 18.9375C33.2439 18.305 33.5976 17.778 34.0574 17.4267C34.5526 17.0753 35.1538 16.8645 35.8611 16.8645C36.4624 16.8645 37.0636 17.0401 37.5588 17.3915C38.0893 17.7429 38.4076 18.2699 38.5845 18.9375L38.6199 19.1483H32.961Z" fill="#161616"/>
<path d="M45.803 11.6294H43.1504V25.6834H45.803V11.6294Z" fill="#161616"/>
<path d="M50.4358 11.6294H47.7832V25.6834H50.4358V11.6294Z" fill="#161616"/>
<path d="M63.239 18.1289C62.9564 17.4613 62.567 16.8992 62.0369 16.4073C61.5062 15.9154 60.9052 15.5289 60.2332 15.2478C59.5612 14.9667 58.783 14.8262 57.9692 14.8262C57.1558 14.8262 56.4134 14.9667 55.7057 15.2478C55.0337 15.5289 54.4326 15.9154 53.902 16.4073C53.407 16.8992 53.0179 17.4613 52.7349 18.1289C52.452 18.7965 52.3105 19.4992 52.3105 20.2721C52.3105 21.0451 52.452 21.7478 52.7349 22.4154C53.0179 23.0829 53.407 23.6451 53.902 24.137C54.4326 24.6289 55.0337 25.0154 55.7057 25.2965C56.3777 25.5775 57.1558 25.7181 57.9692 25.7181C58.783 25.7181 59.5254 25.5775 60.2332 25.2965C60.9052 25.0154 61.5414 24.6289 62.0369 24.137C62.5318 23.6451 62.9564 23.0478 63.239 22.4154C63.5222 21.7478 63.6636 21.0451 63.6636 20.2721C63.6636 19.5343 63.5222 18.7965 63.239 18.1289ZM60.8342 21.537C60.6929 21.9235 60.4449 22.2397 60.1622 22.5208C59.879 22.8019 59.5612 23.0127 59.1718 23.1883C58.3937 23.5046 57.4742 23.5046 56.7313 23.1883C56.3425 23.0127 56.0241 22.8019 55.7766 22.5208C55.5292 22.2397 55.3169 21.9235 55.1398 21.537C54.9985 21.1505 54.9276 20.7289 54.9276 20.2721C54.9276 19.8154 54.9985 19.3937 55.1398 19.0073C55.2812 18.6208 55.5292 18.3046 55.7766 18.0235C56.0593 17.7424 56.3777 17.5316 56.767 17.3559C57.1558 17.2154 57.5804 17.11 57.9692 17.11C58.3937 17.11 58.8182 17.1802 59.1718 17.3559C59.5254 17.4965 59.879 17.7424 60.1622 18.0235C60.4449 18.3046 60.6572 18.6208 60.799 19.0073C60.9404 19.3937 61.0465 19.8154 61.0465 20.2721C61.0817 20.7289 60.9756 21.1505 60.8342 21.537Z" fill="#161616"/>
<path d="M79.9997 15.2837L77.2759 25.7188H73.7746L72.1831 19.0783L71.2285 22.9431L70.5565 25.7188H67.0903L64.4023 15.2837H67.0546V15.3539L68.9293 23.1891L70.9101 15.2837H73.5981L75.5431 23.2242L77.453 15.2837H79.9997Z" fill="#161616"/>
</g>
<defs>
<clipPath id="clip0_1573_5567">
<rect width="80" height="26" fill="white"/>
</clipPath>
</defs>
</svg>
