<svg width="183" height="252" viewBox="0 0 183 252" fill="none" xmlns="http://www.w3.org/2000/svg">
<path fill-rule="evenodd" clip-rule="evenodd" d="M164.88 75.046C164.365 75.3438 163.518 74.8853 163.363 74.225C163.175 73.4175 164.221 72.6413 164.867 73.1101C165.086 73.2696 165.323 73.4154 165.393 73.4343C165.603 73.4906 165.159 74.8844 164.88 75.046ZM155.076 70.6041C153.927 71.2678 152.84 69.9624 153.801 69.0732C154.427 68.4949 154.89 68.5534 155.299 69.2623C155.731 70.0115 155.692 70.248 155.076 70.6041ZM146.408 64.7238C145.19 65.2837 144.359 63.5948 145.522 62.9235C146.016 62.6383 146.265 62.6622 146.604 63.0282C147.193 63.665 147.108 64.4015 146.408 64.7238ZM138.846 57.4514C138.056 57.8146 137.246 57.3052 137.342 56.5063C137.458 55.538 138.687 55.2642 139.17 56.0992C139.605 56.8546 139.539 57.1326 138.846 57.4514ZM132.882 48.5969C132.679 48.7838 132.197 48.8023 131.81 48.6377C131.284 48.4137 131.159 48.1474 131.313 47.5739C131.466 47.0003 131.708 46.8321 132.276 46.9013C132.924 46.9801 133.432 47.5817 133.292 48.1041C133.269 48.1883 133.085 48.4101 132.882 48.5969Z" fill="white"/>
<path fill-rule="evenodd" clip-rule="evenodd" d="M155.961 105.676C161.303 98.4606 166.148 89.2747 170.134 78.8047C173.343 70.3772 176.445 57.1162 176.856 50.0738C177.432 40.1852 175.55 32.2916 172.138 30.2834C170.602 29.3792 166.573 28.7594 163.356 28.9327C153.66 29.4542 138.934 35.0773 126.569 42.9801C121.814 46.0194 115.647 50.4852 111.888 53.611C98.7094 64.5696 81.7911 87.868 62.6927 121.358C60.7741 124.723 59.1211 127.608 59.0198 127.769C58.9186 127.93 55.3145 128.615 51.0111 129.291C40.3714 130.962 39.8724 131.028 40.1982 130.721C40.7049 130.244 40.6602 128.35 40.1177 127.322C39.3409 125.849 38.1013 125.628 36.5224 126.683C36.2359 126.874 36.0091 127.014 35.7959 127.173C34.6921 127.994 33.9527 129.305 27.1836 140.709C24.8277 144.678 21.701 149.934 20.235 152.389C17.5242 156.928 17.2333 157.786 18.1215 158.62C18.6456 159.111 21.1386 158.99 22.9785 158.383C24.0197 158.04 25.6566 156.622 26.253 155.548C26.5918 154.937 28.0516 154.581 36.3605 153.087C41.702 152.126 46.1145 151.414 46.1665 151.504C46.2184 151.594 45.001 154.123 43.461 157.125C41.9212 160.127 40.5569 162.984 40.4292 163.475C39.9942 165.149 40.6634 167.37 42.5704 170.582L44.4357 173.724L44.8537 174.308C45.2155 174.405 42.9228 177.241 42.3475 177.409L40.7524 180.177C36.895 184.966 36.7556 186.853 40.3419 185.738C42.312 185.125 43.6533 184.249 44.9819 182.707C45.6133 181.974 46.9132 180.856 47.8701 180.223L49.6106 179.07L52.4804 181.212C54.0586 182.389 55.5032 183.394 55.6901 183.444L57.0817 184.306C57.2837 184.453 57.9645 184.803 58.5943 185.085L59.74 185.597L60.5646 186.19L63.5875 187C68.1047 188.211 68.5733 188.044 74.9888 182.94L80.1707 178.817L80.2373 181.066C80.2741 182.303 80.3658 186.766 80.4417 190.984L80.5793 198.653L79.5291 199.985C78.2739 201.576 77.7212 203.433 77.8643 205.58C78.0629 208.567 79.5287 209.125 81.747 207.058C82.3797 206.469 85.2786 203.82 88.1887 201.172C104.396 186.427 105.522 185.44 106.109 184.199C106.184 184.04 106.25 183.878 106.338 183.682C107.441 181.213 105.058 179.209 102.463 180.425C101.616 180.821 101.3 180.845 101.274 180.516C101.254 180.27 101.139 177.901 101.019 175.253C100.898 172.605 100.707 168.549 100.595 166.24L100.391 162.042L107.479 155.784C116.962 147.413 129.038 136.047 134.437 130.414C135.194 129.624 136.839 127.913 138.095 126.612C144.036 120.452 151.485 111.722 155.961 105.676ZM169.296 77.5961C168.115 80.6599 165.611 86.63 165.272 87.1872C165.049 87.5545 164.578 87.4665 162.087 86.5938C160.479 86.0305 158.122 85.0516 156.85 84.4183C155.577 83.7852 154.357 83.1938 154.14 83.1041C153.923 83.0148 153.437 83.3755 153.059 83.9059C152.682 84.4362 150.761 87.1689 148.791 89.9785C143.662 97.2934 138.153 104.574 134.823 108.438C133.239 110.276 131.998 111.876 132.066 111.993C132.33 112.451 137.612 115.213 140.894 116.61L144.349 118.081L143.379 119.165C137.402 125.844 126.856 136.4 125.819 136.742C123.261 137.585 117.134 136.429 112.363 134.204C102.16 129.445 91.7012 121.069 84.5236 111.909L82.7815 109.685L86.0465 104.737C99.915 83.7214 118.607 63.7255 136.35 50.926C138.48 49.3892 136.781 50.19 134.173 51.9514C130.713 54.289 124.282 59.3421 120.356 62.8072C106.439 75.091 94.1082 89.9997 84.6883 105.931C83.6291 107.722 82.7282 109.211 82.6862 109.239C82.4987 109.366 80.1586 105.137 79.4708 103.428C79.0532 102.391 78.6544 100.62 78.5853 99.4945L78.4594 97.4474L82.2264 91.7778C91.5347 77.7688 100.675 66.0285 107.796 58.9361C113.011 53.7423 121.674 47.2787 129.831 42.4952L133.967 40.0697L134.077 41.7346C134.413 46.8409 139.278 53.9805 146.801 60.4069C153.083 65.7743 158.017 68.6025 163.931 70.2274C167.617 71.24 168.031 71.2918 169.72 70.9535L171.539 70.5891L170.875 72.9033C170.511 74.1761 169.8 76.2879 169.296 77.5961ZM164.076 89.8097C163.775 90.3607 162.863 92.1089 162.048 93.6946C159.33 98.9844 154.246 106.345 149.142 112.377C147.836 113.921 146.292 115.749 145.711 116.439C144.668 117.677 144.641 117.686 143.476 117.198C139.949 115.721 133.124 111.855 133.435 111.511C140.36 103.828 145.145 97.6264 150.728 89.0946L153.975 84.1338L155.006 84.5679C155.573 84.8065 158.022 85.7177 160.447 86.5923C163.137 87.5623 164.811 88.3045 164.74 88.4952C164.675 88.6674 164.376 89.2588 164.076 89.8097ZM118.747 143.922C106.589 155.217 91.2698 168.408 78.6118 178.48C74.2318 181.965 73.4593 182.156 68.8737 180.876C65.1596 179.84 61.9756 178.199 57.8312 175.186L57.055 174.622L59.2503 173.156C61.4245 171.704 61.5153 171.59 68.6992 161.237C72.6888 155.489 75.9877 150.655 76.0301 150.497C76.2635 149.626 74.6768 150.344 69.1825 153.595C64.3842 156.434 63.1262 157.053 63.274 156.501C63.4678 155.778 62.8129 154.191 62.2589 154.043C61.5565 153.855 60.609 154.319 59.3494 155.467C58.3108 156.414 54.0447 161.965 50.2455 167.313C49.9487 167.731 49.6707 167.482 48.3164 165.581C46.4551 162.969 45.3968 160.555 45.1767 158.422C45.0236 156.939 45.0712 156.777 46.5402 153.808C51.8307 143.113 63.806 121.465 71.1955 109.237C71.9837 107.933 72.6895 106.83 72.764 106.787C72.8385 106.744 73.1694 107.556 73.4998 108.592C74.8051 112.683 80.1854 120.69 83.4041 123.331C83.8162 123.669 84.0542 124.077 83.9328 124.238C83.8113 124.399 80.7212 128.526 77.0661 133.41C71.0458 141.454 68.9034 144.34 67.2523 146.63L66.6929 147.406L65.1995 145.946C61.8428 142.666 58.8472 138.371 57.8637 135.429C57.6066 134.66 57.3087 134.08 57.202 134.142C56.5681 134.508 59.3928 140.327 61.5946 143.191C63.0546 145.09 66.6023 148.81 66.8154 148.666C67.274 148.354 69.0005 146.116 76.7107 135.84C81.452 129.521 85.3719 124.198 85.4218 124.012C85.4717 123.826 84.8247 123.075 83.9836 122.344C80.0298 118.907 75.0351 111.826 73.6035 107.629L73.0778 106.087L75.2933 102.505C77.4586 99.0043 78.3185 97.9072 78.0181 99.0283C77.6867 100.265 79.0363 104.602 80.7216 107.717C86.0548 117.574 97.9085 128.33 109.874 134.17C115.016 136.68 120.965 138.071 124.317 137.548C125.127 137.421 125.777 137.343 125.762 137.374C125.747 137.405 122.59 140.351 118.747 143.922ZM104.634 184.227C104.321 184.668 101.616 187.264 98.623 189.997C89.511 198.316 86.6547 200.922 83.1738 204.093C81.3371 205.765 79.6743 207.091 79.4785 207.039C78.559 206.792 79.2185 202.181 80.3514 200.938C80.8807 200.357 91.8075 190.855 101.167 182.837C102.964 181.298 103.126 181.23 104.278 181.539C105.355 181.827 105.477 181.953 105.348 182.645C105.267 183.075 104.946 183.787 104.634 184.227ZM95.8315 185.836C93.5804 187.758 89.5027 191.264 86.7702 193.626L81.8023 197.921L81.6236 188.639C81.5256 183.534 81.4553 178.99 81.4677 178.541C81.4863 177.871 82.3252 177.042 86.1682 173.896C88.7413 171.79 92.6753 168.526 94.9102 166.642C97.1452 164.758 99.0406 163.347 99.1224 163.507C99.204 163.666 99.2997 164.542 99.3352 165.454C99.3706 166.365 99.5563 170.42 99.7481 174.464C99.9399 178.508 100.058 181.934 100.011 182.078C99.9636 182.222 98.083 183.913 95.8315 185.836ZM71.2106 184.368C69.58 185.61 68.4204 186.248 67.6982 186.302C64.1822 186.561 59.5171 184.678 53.9423 180.748C53.7383 180.604 53.5468 180.47 53.3674 180.345C51.9615 179.36 51.3063 178.901 51.329 178.478C51.3488 178.109 51.8848 177.768 52.8885 177.13C53.0352 177.037 53.1919 176.937 53.3585 176.83L55.7927 175.264L58.1494 176.86C63.1211 180.226 68.7855 182.38 72.2061 182.205C73.0746 182.161 73.7536 182.212 73.715 182.32C73.6767 182.427 72.5497 183.349 71.2106 184.368ZM70.6693 156.297C69.3466 158.197 67.8226 160.372 67.2826 161.129C66.7427 161.887 64.9726 164.416 63.3489 166.749L60.3967 170.992L56.1516 173.64C53.8168 175.096 50.9875 176.87 49.8637 177.581L47.8207 178.875L54.6515 169.225L61.4825 159.575L65.1036 157.429C67.0949 156.249 69.7268 154.666 70.9518 153.912C72.1768 153.158 73.1556 152.608 73.1269 152.691C73.0979 152.773 71.9923 154.396 70.6693 156.297ZM57.5727 162.956C55.2559 166.214 51.3651 171.708 48.9268 175.165C46.4887 178.623 44.0227 181.94 43.4469 182.538C42.5035 183.517 39.3041 185.173 39.0863 184.795C39.0377 184.711 40.7612 182.252 42.9165 179.33C45.0714 176.409 47.8325 172.663 49.0524 171.005L50.1921 169.456C58.9513 157.552 59.6457 156.609 60.5605 155.992C60.5975 155.967 60.6348 155.942 60.6729 155.918C60.7162 155.89 60.7607 155.862 60.8071 155.833C60.8491 155.806 60.8926 155.779 60.9384 155.749C61.8586 155.161 62.265 155.402 61.9813 156.366C61.8736 156.732 59.8899 159.698 57.5727 162.956ZM47.4748 171.147C46.0657 173.061 45.8696 173.217 45.4092 172.785C44.4364 171.873 42.06 167.483 41.7521 166.028C41.3812 164.277 41.5476 163.616 43.1672 160.408L44.4069 157.952L44.7873 160.022C45.0571 161.49 45.7455 163.075 47.1554 165.476C48.2486 167.336 49.1181 168.898 49.0873 168.945C49.0566 168.993 48.3311 169.984 47.4748 171.147ZM55.6875 133.914C53.2335 138.322 48.5958 147.004 47.8369 148.609C47.5559 149.204 47.1359 149.767 46.9041 149.862C46.6723 149.956 43.5389 150.558 39.9408 151.2C36.3428 151.841 32.0757 152.624 30.4585 152.939C28.8413 153.254 27.504 153.489 27.4869 153.461C27.3776 153.282 39.0621 132.706 39.37 132.536C39.7957 132.301 57.3874 129.449 57.7741 129.553C57.7888 129.557 57.8031 129.56 57.8167 129.563C57.8581 129.572 57.8929 129.58 57.9139 129.602C58.0253 129.715 57.7517 130.206 56.0302 133.298L55.6875 133.914ZM32.6425 141.679C24.6288 156.019 24.5892 156.082 23.2808 156.797C22.0186 157.487 19.0425 157.974 18.9041 157.512C18.8506 157.334 20.5769 154.224 22.7406 150.602C24.9043 146.98 28.6597 140.673 31.086 136.587C33.512 132.501 35.7402 128.891 36.037 128.565C36.9092 127.608 37.7588 127.142 38.3446 127.299C38.9588 127.463 39.5589 128.818 39.3295 129.522C39.2469 129.775 36.238 135.246 32.6425 141.679ZM148.689 60.4238C157.144 67.3354 166.095 71.3904 170.677 70.3869C171.618 70.1805 171.671 70.0951 172.304 67.7331C172.663 66.3909 172.91 65.28 172.852 65.2644L173.562 62.8276C174.276 60.6147 175.2 55.1962 175.506 51.4305C176.165 43.2973 175.315 36.7331 173.13 33.0844C172.345 31.774 172.009 31.5042 170.441 30.9279C164.602 28.7815 152.013 31.2819 140.021 36.9698C135.028 39.3378 134.64 39.5894 134.559 40.5081C134.149 45.1587 139.859 53.2065 148.689 60.4238Z" fill="white"/>
<path fill-rule="evenodd" clip-rule="evenodd" d="M58.0014 190.787C54.4856 199.745 47.5668 206.863 34.403 215.066C31.3063 216.996 27.3678 219.483 25.6507 220.593C20.6589 223.82 10.7667 231.784 4.11943 237.927C2.11169 239.783 0.643861 241.053 0.857953 240.75C2.53809 238.369 7.87392 230.377 8.84562 228.786C16.1287 216.858 18.5496 211.927 22.5086 200.958C27.3176 187.632 31.3398 181.444 38.0715 177.017C39.4988 176.078 44.3012 174.16 44.8537 174.308C45.2156 174.405 42.9228 177.241 42.3475 177.409C40.5449 177.933 38.081 179.581 36.666 181.209C35.036 183.086 32.713 187.603 29.1012 195.922C26.8806 201.036 25.449 203.875 23.926 206.185C23.2404 207.224 22.7788 208.059 22.8995 208.042C23.7629 207.915 27.8198 204.748 29.7757 202.673C31.6519 200.683 31.6083 201.025 29.5311 204.589C27.0183 208.901 24.7963 211.869 19.3218 218.225C17.6498 220.167 16.2543 221.859 16.2209 221.986C16.1878 222.114 16.7031 221.738 17.3663 221.152C19.5837 219.194 25.4263 215.241 31.8693 211.338C42.258 205.046 45.5753 202.565 49.6258 198.055C52.838 194.48 54.6601 191.305 55.7868 187.321C56.5222 184.72 56.7906 184.095 57.0817 184.306C57.2837 184.453 57.9646 184.803 58.5943 185.085L59.74 185.597L59.2784 187.153C59.0247 188.009 58.4499 189.645 58.0014 190.787ZM54.0634 189.624C51.8273 194.514 48.0353 198.99 42.558 203.207C39.5785 205.501 37.2421 207.066 31.1837 210.826C25.9889 214.051 23.4803 215.696 21.7592 217.008C21.0699 217.533 21.7561 216.604 23.5945 214.524C27.2556 210.381 30.2855 205.726 31.9519 201.684C32.6552 199.978 33.6152 197.985 34.0859 197.254C35.4176 195.186 34.72 195.582 32.5168 198.145C30.2967 200.727 25.9797 205.104 25.8591 204.895C25.8168 204.821 26.1156 204.266 26.5233 203.661C26.9308 203.055 28.0366 200.848 28.9802 198.756C36.0099 183.169 37.2419 181.107 40.8784 178.838C42.3204 177.938 42.2893 178.268 40.7525 180.176C36.895 184.966 36.7556 186.853 40.342 185.738C42.312 185.125 43.6533 184.249 44.9819 182.707C45.6134 181.974 46.9132 180.856 47.8702 180.222L49.6106 179.07L52.4804 181.212C54.0586 182.389 55.5032 183.394 55.6901 183.444C56.0826 183.549 55.0535 187.458 54.0634 189.624Z" fill="white"/>
<path fill-rule="evenodd" clip-rule="evenodd" d="M162.048 93.6945C162.863 92.1088 163.775 90.3606 164.076 89.8096C164.376 89.2587 164.675 88.6673 164.74 88.4951C164.812 88.3044 163.137 87.5622 160.448 86.5922C158.022 85.7176 155.574 84.8064 155.007 84.5678L153.975 84.1337L150.729 89.0945C145.145 97.6263 140.36 103.828 133.435 111.511C133.124 111.855 139.949 115.721 143.476 117.198C144.641 117.686 144.669 117.677 145.711 116.439C146.292 115.749 147.836 113.921 149.143 112.377C154.246 106.344 159.331 98.9843 162.048 93.6945Z" fill="white"/>
<path d="M71.1955 109.237C71.9836 107.933 72.6894 106.83 72.7639 106.787C72.8384 106.744 73.1694 107.556 73.4998 108.592C74.805 112.684 80.1854 120.69 83.4041 123.331C83.8161 123.669 84.0542 124.077 83.9327 124.238C83.8113 124.399 80.7211 128.526 77.066 133.41C71.0457 141.454 68.9033 144.34 67.2522 146.63L66.6929 147.406L65.1994 145.947C61.8427 142.666 58.8471 138.371 57.8637 135.429C57.6065 134.66 57.3086 134.08 57.2019 134.142L57.0785 133.914C61.9436 125.074 67.2298 115.799 71.1955 109.237Z" fill="white"/>
<path fill-rule="evenodd" clip-rule="evenodd" d="M148.689 60.4238C157.145 67.3354 166.095 71.3904 170.678 70.3869C171.619 70.1805 171.671 70.0951 172.304 67.7331C172.664 66.3908 172.91 65.28 172.852 65.2644C172.794 65.2488 172.213 65.3516 171.562 65.4926C169.93 65.8457 165.435 64.5443 161.962 62.7131C151.031 56.9499 139.488 44.9323 139.107 38.9199C139.016 37.4698 139.469 37.6428 139.593 39.1053C139.713 40.5038 142.02 44.288 144.475 47.1099C152.629 56.484 167.092 65.9147 171.892 64.9875C172.865 64.7997 172.969 64.6646 173.562 62.8276C174.277 60.6147 175.201 55.1962 175.506 51.4305C176.165 43.2973 175.315 36.7331 173.131 33.0844C172.346 31.7739 172.01 31.5042 170.442 30.9279C164.603 28.7815 152.014 31.2819 140.021 36.9698C135.029 39.3378 134.64 39.5894 134.559 40.5081C134.15 45.1587 139.859 53.2065 148.689 60.4238Z" fill="white"/>
</svg>
