<?xml version="1.0" encoding="utf-8"?><svg viewBox="0 0 398 312" xmlns="http://www.w3.org/2000/svg" xmlns:xlink="http://www.w3.org/1999/xlink"><style>:root>svg{display:none}:root>svg:target{display:block}</style><svg fill="none" viewBox="0 0 398 249" id="cloud" xmlns="http://www.w3.org/2000/svg"><path fill-rule="evenodd" clip-rule="evenodd" d="M209.415 217.336c3.329.904 6.064 3.377 6.064 5.483 0 .473.057.859.127.859.069 0 .633-.203 1.252-.451 1.711-.687 5.202-.6 6.99.173 2.496 1.08 3.982 3.33 3.67 5.557l-.152 1.085 1.328-.644c2.853-1.382 6.842-.626 8.928 1.694l1.032 1.147 2.019-.408c5.822-1.179 12.74.108 14.644 2.725.641.882.808 2.774.298 3.375-.237.28.151.343 2.131.346 2.139.003 2.575.086 3.74.71 2.496 1.339 3.252 3.537 1.73 5.027-2.384 2.334-9.933 3.852-17.813 3.583-5.294-.181-7.596-.571-12.96-2.193-.707-.214-.981-.154-1.808.396-1.41.938-4.705 2.05-7.548 2.548-1.744.305-4.128.441-8.135.464-6.299.036-7.639-.175-8.999-1.418l-.8-.732-1.022.511c-1.406.702-4.272.706-5.441.008l-.839-.501-1.798.892c-4.732 2.349-10.685 1.76-14.856-1.468l-1.295-1.002-2.842.418c-3.219.472-6.799.365-8.906-.266-3.037-.91-5.668-3.287-6.093-5.505-.563-2.939 2.856-6.004 7.566-6.782 1-.165 3.125-.261 4.724-.213 2.43.073 2.927.023 3.034-.307.234-.726 2.498-2.757 3.824-3.43 2.637-1.34 5.997-1.529 8.96-.505l1.45.501.004-1.57c.006-2.149.605-3.243 3.088-5.636 1.661-1.602 2.559-2.228 4.501-3.14 1.334-.627 3.054-1.266 3.823-1.42 1.811-.362 4.875-.32 6.38.089zm-.395.894c3.256.86 5.309 2.894 5.482 5.432.039.562.148 1.098.244 1.191.095.094.862-.162 1.705-.567 1.333-.641 1.825-.735 3.774-.722 1.777.012 2.499.138 3.49.608 3.308 1.57 4.249 4.963 2.131 7.681-.644.825-.747 1.069-.371.871.287-.15.735-.626.996-1.057.585-.97 2.682-2.011 4.47-2.218 2.021-.235 4.176.474 5.492 1.804.583.591 1.184 1.294 1.335 1.562.266.472.33.473 1.978.043.936-.244 3.067-.504 4.735-.578 6.092-.269 10.545 1.511 10.545 4.215 0 1.037-1.182 2.412-2.073 2.412-.293 0-.606.117-.696.26-.321.508.655.551 2.651.116 2.492-.543 5.225-.411 6.49.312.998.571 2.065 1.983 2.065 2.732 0 .785-1.566 2.122-3.17 2.709-.802.292-2.759.805-4.351 1.138-2.581.541-3.56.605-9.089.596-6.627-.011-9.169-.339-13.402-1.732l-1.765-.581-1.314.706c-3.986 2.142-7.864 2.855-15.684 2.885-5.575.021-6.006-.012-7.167-.542-.68-.311-1.437-.866-1.684-1.234-.418-.625-.48-.642-.922-.25-1.24 1.099-3.749 1.421-5.554.714l-1.1-.431.634-.545c1.225-1.055 1.41-1.537.238-.621-.653.51-1.351.869-1.553.798-.203-.071-.293-.011-.201.134.178.282-1.686 1.146-3.387 1.568-4.237 1.051-8.875.184-12.198-2.279l-1.387-1.029-1.776.251c-2.738.388-7.373.319-9.169-.136-5.711-1.446-7.926-5.425-4.693-8.428 1.951-1.812 5.673-2.632 10.654-2.346l2.523.145.344-.812c1.265-2.991 6.351-5.192 10.209-4.417 2.147.431 3.266.929 4.103 1.825.633.679.665.788.264.914-2.289.719-3.428 1.455-4.232 2.735-.627.999-.958 2.519-.714 3.274.283.871.603.619.619-.485.02-1.436.749-2.781 1.978-3.653 1.354-.96 2.774-1.324 4.747-1.217l1.583.086.286-1.137c.205-.813.567-1.358 1.272-1.914 1.339-1.056 3.528-1.106 5.234-.12l1.137.657.71-.514c.903-.654 2.88-.882 3.934-.455 1.578.64 2.327 2.498 1.568 3.887-.341.623-.039.656.433.048.193-.248.354-.93.359-1.514.009-1.203-.651-2.209-1.848-2.815-.989-.5-3.777-.501-4.558 0-.537.344-.705.328-1.734-.171-1.505-.728-3.755-.724-5.227.012-1.071.535-2.18 1.915-2.18 2.712 0 .307-.244.421-.9.421-1.74 0-3.104-2.551-2.513-4.7.776-2.822 4.517-6.183 8.554-7.685 1.707-.635 6.12-.952 7.646-.549zM44.033 134.078c.291.069 1.184.261 1.983.428 1.777.37 4.223 1.599 5.819 2.924 1.581 1.313 2.05 1.874 2.646 3.171l.5 1.089 1.703-.09c1.187-.063 1.949.041 2.52.346.905.482 1.623 1.675 1.623 2.696 0 .521.173.696.817.829 1.215.251 2.356 1.638 2.356 2.866 0 1.873-.988 2.681-4.263 3.487-2.087.513-9.083.693-11.267.29-.923-.171-1.09-.138-.967.192.275.739-1.092 1.727-3.374 2.438-5.744 1.788-11.759 1.665-17.12-.351-2.026-.762-2.146-.776-3.643-.413-1.898.46-3.951.486-5.596.07-1.46-.369-2.696-1.185-2.696-1.78 0-.329-.187-.383-.86-.246-2.3.466-6.519.493-8.434.053-3.898-.896-5.78-2.28-5.78-4.25 0-1.991 2.266-4.191 5.232-5.079 1.44-.431 4.927-.415 6.288.029.415.136.616.015.848-.509.406-.919 1.73-1.585 2.967-1.493.555.041 1.17-.058 1.366-.22 2.059-1.704 5.435-2.064 7.786-.831.74.389 1.705 1.128 2.144 1.644.558.654 1.081.971 1.735 1.049.863.104.97.035 1.36-.876.443-1.033 1.32-1.62 2.419-1.62.476 0 .648-.148.648-.556 0-1.85 1.891-3.624 4.981-4.675 1.435-.487 5.219-.857 6.26-.612zm1.634 1.208c2.71.732 4.626 1.743 6.312 3.331 1.666 1.569 2.236 2.531 2.236 3.772 0 .81-.044.848-.727.645a6.791 6.791 0 00-1.45-.234c-.522-.013-.803-.217-1.011-.735-.371-.924-1.5-2.03-2.45-2.399-1.559-.608-3.848-.115-4.73 1.017-.234.3-.038.249.614-.161 1.246-.783 3.155-.806 4.34-.052.758.483 1.4 1.467 1.761 2.701.078.267.537.396 1.462.409 1.122.017 1.462.148 2.033.783.755.84.848 1.278.374 1.766-.441.455-.05.755.439.337.499-.427.509-1.609.019-2.275-.282-.384-.303-.69-.088-1.323l.278-.824 1.848.107c1.645.096 1.92.194 2.505.895.524.627.63.994.526 1.797-.13 1.002-.123 1.01.938 1.157 2.067.286 3.134 2.458 1.855 3.777-1.499 1.544-10.73 2.4-15.912 1.474-2.35-.419-3.56-.441-1.959-.035.927.234 1.93.891 1.93 1.262 0 .398-1.981 1.252-4.409 1.9-2.657.709-7.477.968-10.433.561-2.697-.371-6.57-1.482-6.862-1.968-.164-.274-.438-.264-1.35.048-1.642.561-6.17.497-7.276-.102-1.075-.583-1.327-1.01-.82-1.391.332-.25.34-.362.053-.639-.279-.268-.398-.246-.591.109-.502.924-5.596 1.202-8.95.489-4.943-1.053-6.653-2.855-5.043-5.316 1.721-2.632 7.382-4.061 10.425-2.633.569.267.724.26.822-.041.066-.204.452-.755.859-1.224.631-.728.923-.853 2.016-.859.933-.005 1.633-.224 2.595-.812 2.535-1.549 6.271-1.122 8.184.934l.703.757-.805.888c-.442.488-.804.999-.804 1.135 0 .137-.591-.06-1.314-.437-2.884-1.507-5.826-.271-5.826 2.447 0 .9 1.173 2.046 2.088 2.038.595-.005.536-.077-.436-.531-1.047-.49-1.124-.6-1.124-1.605 0-.88.157-1.215.848-1.814 1.147-.995 2.791-.852 4.695.407.745.492 1.379.848 1.41.791.03-.057.294-.593.585-1.193.489-1.008.62-1.096 1.742-1.171.848-.057 1.315.046 1.553.34.62.77 1.11.521.93-.471-.375-2.056 1.849-3.148 3.398-1.668.94.898 1.248.628.49-.429-1.686-2.35.5-4.875 5.11-5.902 2.185-.487 4.155-.435 6.394.17zM361.641 82.429c2.022.653 4.953 2.605 6.55 4.362 2.448 2.69 3.799 6.026 3.242 8.004l-.267.947.609-.391c.335-.216 1.303-.589 2.15-.83 3.665-1.044 7.736.615 9.791 3.992l.795 1.305 2.135-.146c6.61-.452 11.354 2.552 11.354 7.192 0 2.013-.573 3.236-2.276 4.853-2.568 2.439-6.438 3.218-11.43 2.301l-2.336-.429-1.538 1.395c-3.825 3.471-8.666 3.975-13.091 1.364-1.454-.858-1.566-.884-2.17-.496-1.534.985-3.957.934-5.404-.115l-.699-.506-.41.699c-1.013 1.73-4.271 2.324-10.385 1.896-6.018-.422-9.825-1.518-12.267-3.531l-.784-.647-2.368.869c-3.481 1.277-5.873 1.709-10.314 1.863-4.596.159-7.731-.236-11.374-1.436-3.929-1.294-5.388-2.723-5.124-5.018.165-1.431.961-2.535 2.417-3.35.899-.503 1.482-.617 3.158-.619 1.606-.001 2.025-.078 1.919-.349-.796-2.041-.06-4.203 1.876-5.508 1.521-1.026 2.828-1.46 5.481-1.82 1.812-.247 2.593-.226 4.661.126 1.366.232 2.667.523 2.889.645.307.168.604-.068 1.225-.971 1.12-1.632 2.621-2.61 4.306-2.805 1.75-.203 2.987.031 4.109.777l.895.595.008-1.835c.007-1.36.157-2.113.58-2.91.752-1.417 2.446-2.809 3.904-3.209 1.473-.404 3.954-.24 5.136.339.496.242.927.441.958.441.031 0 .119-.45.194-1.001.313-2.288 2.314-4.791 4.649-5.816 1.76-.772 5.224-.881 7.246-.227zm-1.001.827c3.132.77 7.289 4.167 8.851 7.232.678 1.329.848 1.984.848 3.254 0 2.172-.837 3.83-2.051 4.065-.82.158-.873.119-1.133-.828-.79-2.875-4.502-4.26-6.757-2.521-.694.534-.726.536-1.525.073-.977-.565-2.681-.612-3.759-.105-1.846.87-2.668 3.842-1.44 5.206.475.528.524.541.353.094-.428-1.112-.421-2.664.016-3.492.829-1.572 3.192-1.964 4.723-.784.832.641 1.043.64 1.642-.008.264-.286.912-.634 1.439-.773 2.123-.56 4.206.825 4.451 2.96l.137 1.188h1.696c3.62 0 5.853 1.985 5.991 5.323.067 1.635.349 1.856.613.481.421-2.202-1.418-5.297-3.697-6.22l-1.132-.46.66-.987c1.206-1.806 5.115-2.603 8.016-1.635 1.653.552 3.768 2.444 4.561 4.08l.656 1.352 3.667.012c4.014.013 5.463.371 7.419 1.833 1.051.786 2.202 2.949 2.202 4.138 0 1.095-1.089 3.223-2.147 4.195-2.258 2.075-5.065 2.686-10.243 2.228l-3.341-.295-1.235 1.132c-3.346 3.067-8.002 3.817-12.128 1.953-1.132-.511-1.892-1.012-1.892-1.248 0-.217-.081-.314-.182-.216-.1.098-.636-.257-1.192-.788-.555-.532-1.01-.848-1.01-.703 0 .145.358.599.795 1.01.437.41.795.831.795.935 0 .104-.535.39-1.188.634-1.495.56-3.087.35-4.317-.569-.488-.365-.923-.622-.966-.572-.044.05-.225.365-.403.699-.178.335-.982.904-1.787 1.265-1.448.65-1.515.655-6.798.524-4.366-.109-5.743-.239-7.586-.714-2.322-.598-4.834-1.702-6.225-2.736l-.794-.591-1.551.62c-.853.341-2.819.945-4.37 1.341-2.62.67-3.187.721-7.986.718-4.817-.002-5.363-.052-8.113-.745-1.621-.409-3.524-1.05-4.229-1.426-1.439-.765-2.491-2.094-2.491-3.147 0-1.778 2.439-3.634 4.776-3.634.671 0 2.071.219 3.111.487 1.041.267 1.956.423 2.035.346.324-.317.099-.616-.659-.874-1.544-.528-2.196-3.178-1.128-4.587.752-.993 2.608-2.04 4.436-2.501 2.782-.702 7.438-.355 9.972.742.329.142.592-.148 1.149-1.264.578-1.158.999-1.607 2.091-2.232 1.187-.68 1.578-.772 2.962-.698 2.118.114 3.502.837 4.498 2.35.437.665.951 1.269 1.142 1.343.197.077.108-.195-.204-.624-.731-1.005-1.336-2.728-1.336-3.802 0-.476.239-1.491.531-2.255.848-2.22 2.59-3.486 5.156-3.746 1.568-.159 2.841.174 4.252 1.113.527.35 1.069.57 1.205.488.135-.082.246-.73.246-1.44 0-2.308 1.513-4.488 3.942-5.681 1.333-.656 4.332-.913 5.96-.513zM112.29.62c2.412.71 4.406 1.707 6.312 3.157 1.656 1.258 3.192 3.156 3.402 4.2l.147.731 2.02-.154c1.691-.13 2.17-.072 2.939.353 1.244.687 1.952 1.698 1.976 2.825.018.841.115.963.948 1.188 1.822.491 2.898 1.763 2.964 3.502.094 2.51-2.614 3.795-9.383 4.454-2.975.29-8.562.022-9.856-.471-.299-.115-.421-.007-.421.373 0 1.345-.448 1.677-3.753 2.78-3.456 1.153-6.693 1.57-10.925 1.409-4.274-.163-6.77-.639-9.935-1.894-2.098-.832-2.277-.86-3.249-.519-1.51.53-4.628.732-6.514.422-2.24-.368-3.537-1.02-3.891-1.953-.238-.627-.403-.735-.952-.617-5.541 1.187-11.369.594-14.876-1.516-3.073-1.847-2.98-4.755.228-7.19 2.414-1.831 6.803-2.681 10.155-1.966 1.412.301 1.42.3 2.05-.502.89-1.13 2.002-1.632 3.458-1.561.992.049 1.489-.1 2.512-.75 3.435-2.185 7.81-1.717 10.685 1.143.772.767 1.524 1.271 1.948 1.304.38.03.957.139 1.281.241.325.103.574.089.553-.031-.126-.721.129-1.296.926-2.09.732-.727 1.105-.895 1.988-.895 1.034 0 1.086-.039 1.086-.804 0-2.25 2.566-4.32 6.715-5.418 2.211-.586 7.063-.458 9.462.248zm-1.887.46c5.689 1.11 10.872 5.04 10.965 8.316.014.479-.04.935-.119 1.014-.079.08-.597-.044-1.15-.274-.553-.23-1.262-.354-1.575-.276-.466.116-.664-.058-1.089-.957-.285-.605-.971-1.456-1.523-1.89-1.839-1.45-5.43-1.172-6.831.53-.26.315.004.238.836-.245 2.913-1.69 6.376-.32 7.042 2.787.148.689.232.725 1.677.725 1.292 0 1.65.113 2.385.75.877.763 1.209 2.146.566 2.359-.434.144-.366.582.09.582.894 0 1.228-1.842.517-2.851-.325-.462-.36-.768-.155-1.355.147-.417.196-.827.111-.912-.173-.173 1.628-.263 3.246-.162 1.951.121 3.473 1.9 2.83 3.305-.342.745-.278.8 1.208 1.044 1.627.268 2.72 1.365 2.72 2.731 0 1.68-.968 2.358-4.347 3.049-3.095.633-7.916 1.003-10.626.815-2.413-.167-6.651-.794-7.463-1.104-.283-.108-.377-.065-.263.12.099.158.566.368 1.037.466 1.134.235 2.051.831 2.051 1.333 0 .525-2.168 1.47-5.035 2.193-4.639 1.17-9.94 1.308-14.567.38-2.651-.533-6.103-1.633-6.103-1.946 0-.333-1.146-.325-1.484.011-.477.475-4.126.783-6.055.51-2.65-.372-3.014-.499-3.607-1.249l-.538-.68.609-.335c.505-.28.527-.337.128-.345-.264-.005-.406-.128-.316-.273.29-.467-.265-.28-.713.24-.828.962-6.787 1.22-10.457.453-6.575-1.376-8.453-4.031-5.084-7.189 2.572-2.41 7.547-3.314 11.195-2.034 1.069.376 1.467.212 1.478-.607.007-.515 1.557-1.64 2.501-1.817.49-.091 1.116-.047 1.39.099.39.208.715.103 1.518-.493 1.578-1.17 3.357-1.654 5.56-1.512 2.055.133 3.125.565 4.869 1.97 1.258 1.014 1.366 1.289.601 1.53-.288.091-.807.637-1.152 1.213-.537.895-.676.99-.957.653-.457-.547-3.038-1.472-4.067-1.456-1.84.027-3.9 1.795-3.9 3.347 0 1.488 1.742 3.05 2.845 2.551.38-.172.319-.231-.326-.314-1.96-.254-2.617-2.252-1.244-3.781 1.352-1.505 3.86-1.325 6.462.462 1.046.719 1.539.653 1.539-.205 0-.292.349-.878.775-1.302.957-.953 2.344-1.038 3.506-.215.956.677 1.152.522 1.054-.83-.063-.871.062-1.18.75-1.866.695-.69.96-.795 1.667-.654.463.092 1.15.462 1.528.822.378.36.77.654.871.654.358 0 .177-.729-.346-1.39-.895-1.132-.622-2.712.694-4.021 2.123-2.112 8.027-3.303 12.271-2.474z" fill="#fff"/></svg><svg fill="none" viewBox="0 0 33 33" id="icon-bitrix" xmlns="http://www.w3.org/2000/svg"><g clip-path="url(#bclip0_963_6056)"><path d="M16.517 0C7.397 0 0 7.34 0 16.361 0 25.41 7.397 32.73 16.517 32.73 25.603 32.73 33 25.41 33 16.36 33 7.34 25.603 0 16.517 0z" fill="#fff"/><path fill-rule="evenodd" clip-rule="evenodd" d="M16.5 0c-1.23 0-2.425.138-3.577.394v16.117a3.593 3.593 0 003.586 3.586 3.592 3.592 0 003.585-3.585 3.593 3.593 0 00-3.346-3.578v-2.87c3.443.125 6.215 2.973 6.215 6.448 0 3.554-2.9 6.454-6.454 6.454-3.556 0-6.454-2.9-6.454-6.455V1.306c-.408.173-.806.365-1.196.57v14.635c0 4.213 3.438 7.648 7.65 7.648 4.213 0 7.649-3.435 7.649-7.647 0-4.133-3.306-7.517-7.41-7.645V5.998c5.683.128 10.277 4.802 10.277 10.514 0 5.793-4.724 10.516-10.516 10.516-5.793 0-10.519-4.723-10.519-10.517V3.781A16.463 16.463 0 000 16.498C0 25.611 7.387 33 16.5 33 25.615 33 33 25.611 33 16.499 33 7.387 25.615 0 16.5 0z" fill="#D91935"/></g><defs><clipPath id="bclip0_963_6056"><path fill="#fff" d="M0 0h33v33H0z"/></clipPath></defs></svg><svg viewBox="0 0 21 15" id="icon-email" xmlns="http://www.w3.org/2000/svg"><path d="M19.09 0c.507 0 .993.198 1.35.55.359.35.56.828.56 1.325v11.25c0 .497-.201.974-.56 1.326-.357.351-.843.549-1.35.549H3.818c-.506 0-.992-.197-1.35-.55a1.858 1.858 0 01-.559-1.325v-.938h1.91v.938H19.09V3.209l-6.62 6.502a1.445 1.445 0 01-1.013.411c-.38 0-.744-.148-1.012-.411L3.817 3.2v.549H1.908V1.875c0-.497.201-.974.56-1.326C2.824.198 3.31 0 3.817 0H19.09zM5.727 8.438c.244 0 .478.091.655.255a.927.927 0 01.077 1.283.96.96 0 01-.62.33l-.112.007H.954a.964.964 0 01-.655-.256.927.927 0 01-.077-1.283.96.96 0 01.62-.33l.112-.007h4.772zm-.954-2.813c.253 0 .496.099.675.275a.93.93 0 010 1.325.963.963 0 01-.675.275H1.908a.963.963 0 01-.675-.275.93.93 0 010-1.325.963.963 0 01.675-.275h2.864z"/></svg><svg fill="none" viewBox="0 0 40 16" id="icon-left" xmlns="http://www.w3.org/2000/svg"><g clip-path="url(#dclip0_963_4759)" stroke="#000" stroke-width="2" stroke-linecap="round" stroke-linejoin="round"><path d="M38.75 8H1.25M7.5 14.25L1.25 8 7.5 1.75"/></g><defs><clipPath id="dclip0_963_4759"><path fill="#fff" transform="matrix(0 1 1 0 0 0)" d="M0 0h16v40H0z"/></clipPath></defs></svg><svg fill="none" viewBox="0 0 32 52" id="icon-mgu" xmlns="http://www.w3.org/2000/svg"><g clip-path="url(#eclip0_963_6059)"><path d="M15.553 1.402L16 1.164l.445.238-.086-.506.361-.36-.499-.074L16 0l-.224.462-.499.074.362.36-.086.506z" fill="url(#epaint0_linear_963_6059)"/><path d="M15.354 9.467h1.058c.02 0 .116 0 .258.016l-.343-4.803-.714.906-.26 3.881z" fill="url(#epaint1_linear_963_6059)"/><path d="M18.37 16.97v-1.654h-.72v-2.309l-1.355-1.258.345-1.023h.35v-.566a5.418 5.418 0 00-.596-.06h-1.386v.616h.346l.345 1.023-1.355 1.259v2.309h-.713v1.653l-2.258 3.002v3.274c3.416-1.136 6.656-2.577 8.471-4.302L18.37 16.97z" fill="url(#epaint2_linear_963_6059)"/><path d="M0 25.878v.214a60.41 60.41 0 001.066-.203L0 25.878z" fill="url(#epaint3_linear_963_6059)"/><path d="M4.33 24.222H2.12v1.443c.677-.14 1.416-.3 2.208-.482v-.961z" fill="url(#epaint4_linear_963_6059)"/><path d="M15.208 29.12a22.874 22.874 0 00-1.58-.056c-5.923 0-10.45 2.406-13.64 5.048v5.622c4.627-1.08 10.908-3.8 15.22-10.614z" fill="url(#epaint5_linear_963_6059)"/><path d="M26.538 25.554h-.612v.633c.216-.198.42-.41.612-.633z" fill="url(#epaint6_linear_963_6059)"/><path d="M15.82 2.572l-.133 1.917.575-.728-.083-1.189.91-1.08.043-.612-1.116 1.189h-.031L14.867.879l.043.613.91 1.08z" fill="url(#epaint7_linear_963_6059)"/><path d="M15.77 28.533c2.597.231 4.814.088 6.641-.443h-1.786v-8.128l-.415-.554c-1.965 1.847-5.333 3.336-8.835 4.498v4.184H6.074v-2.54h-.522c-2.3.556-4.29.947-5.552 1.173v6.58c3.64-2.89 8.873-5.407 15.77-4.77z" fill="url(#epaint8_linear_963_6059)"/><path d="M24.767 35.026c.302-1.284 1.156-2.309 2.538-3.071a9.624 9.624 0 00-4.193-1.154c-3.922-.12-6.694 2.45-6.902 2.648l-4.536 5.752h3.854c.108 0 2.274.057 3.901 1.434h6.774c-.72-1.106-1.95-3.42-1.436-5.609z" fill="url(#epaint9_linear_963_6059)"/><path d="M29.88 25.878v-1.656h-1.72c-.147.296-.31.584-.488.861v.462h-.33a8.08 8.08 0 01-1.415 1.46v1.075h-1.728c-2.131 1.014-4.904 1.386-8.295 1.088C11.436 36.444 4.809 39.277 0 40.378v.261h9.756l6.013-7.62c.121-.12 3.027-2.964 7.353-2.83 3.089.092 6.074 1.685 8.878 4.728V25.89l-2.12-.011z" fill="url(#epaint10_linear_963_6059)"/><path d="M11.177 39.834l-.632.805h7.79a6.634 6.634 0 00-2.812-.8l-4.346-.005z" fill="url(#epaint11_linear_963_6059)"/><path d="M27.299 40.64h4.7v-4.873c-1.745 1.386-4.201 3.651-4.7 4.872z" fill="url(#epaint12_linear_963_6059)"/><path d="M31.546 35.329a16.755 16.755 0 00-3.579-3.002c-1.438.693-2.314 1.644-2.599 2.847-.467 1.981.743 4.184 1.394 5.181.735-1.678 3.675-4.142 4.784-5.026z" fill="url(#epaint13_linear_963_6059)"/><path d="M15.555 1.402l.447-.238.445.238-.086-.506.361-.36-.499-.074L16.002 0l-.224.462-.499.074.361.36-.085.506z" fill="#002D99"/><path d="M16 .522l.021.041.052.109.117.018h.046l-.034.033-.084.085.02.12v.046l-.04-.023-.104-.055-.106.055-.04.023V.928l.017-.12-.06-.078-.041-.037h.04l.118-.019.054-.108.02-.042m0-.522l-.226.462-.498.074.36.36-.085.506.451-.231.452.23-.086-.505.361-.36-.503-.076L15.996 0v.002zM15.354 9.467h1.058c.02 0 .116 0 .258.016l-.343-4.803-.714.906-.26 3.881z" fill="#002D99"/><path d="M16.142 5.283l.273 3.953h-.836l.246-3.565.31-.393m.185-.602l-.714.905-.252 3.886h1.058c.02 0 .116 0 .258.016l-.343-4.803-.007-.004zM18.37 16.97v-1.654h-.72v-2.309l-1.355-1.258.345-1.023h.35v-.566a5.418 5.418 0 00-.596-.06h-1.386v.616h.346l.345 1.023-1.355 1.259v2.309h-.713v1.653l-2.258 3.002v3.274c3.416-1.136 6.656-2.577 8.471-4.302L18.37 16.97z" fill="#002D99"/><path d="M16.394 10.335c.016 0 .154 0 .373.033v.122h-.284l-.052.155-.348 1.025-.048.143.111.102 1.278 1.191v2.44h.72v1.502l.048.062 1.354 1.787c-1.555 1.409-4.222 2.771-7.938 4.02V20.04l2.201-2.93.048-.062v-1.501h.72v-2.44l1.28-1.192.108-.102-.047-.143-.339-1.025-.052-.155h-.293v-.155h1.16zm0-.23h-1.386v.616h.346l.345 1.023-1.355 1.258v2.31h-.713v1.653l-2.258 3.002v3.274c3.416-1.141 6.656-2.582 8.471-4.307l-1.474-1.956v-1.662h-.72v-2.309l-1.355-1.258.345-1.023h.35v-.566a5.418 5.418 0 00-.596-.06v.005zM0 25.878v.214a60.41 60.41 0 001.066-.203L0 25.878z" fill="#002D99"/><path d="M1.066 25.878H0v.214a60.41 60.41 0 001.066-.203v-.011zM4.33 24.222H2.12v1.443c.677-.14 1.416-.3 2.208-.482v-.961z" fill="#002D99"/><path d="M4.103 24.453v.545c-.578.131-1.167.26-1.756.383v-.924h1.756m.226-.23H2.121v1.443c.677-.141 1.416-.3 2.208-.483v-.965.005zM15.208 29.12a22.874 22.874 0 00-1.58-.056c-5.923 0-10.45 2.406-13.64 5.048v5.622c4.627-1.08 10.908-3.8 15.22-10.614z" fill="#002D99"/><path d="M13.64 29.295c.385 0 .776 0 1.165.032-4.193 6.401-10.172 9.036-14.58 10.116v-5.22c3.984-3.27 8.497-4.928 13.415-4.928zm0-.23c-5.923 0-10.45 2.405-13.64 5.047v5.622c4.615-1.08 10.896-3.8 15.209-10.622a22.87 22.87 0 00-1.58-.055l.01.007zM26.538 25.554h-.612v.633c.216-.198.42-.41.612-.633z" fill="#002D99"/><path d="M26.538 25.554h-.612v.633c.216-.198.42-.41.612-.633zM15.82 2.572l-.133 1.917.575-.728-.083-1.189.91-1.08.043-.612-1.116 1.189h-.031L14.867.879l.043.613.91 1.08z" fill="#002D99"/><path d="M16.113 2.309l-.106.125-.122-.125h.226m-.113.951l.031.434-.065.086.036-.522m1.13-2.37l-1.114 1.19h-.032L14.855.888l.046.604.903 1.08-.133 1.917.584-.728-.083-1.189.903-1.08.04-.612.014.009zM15.77 28.533c2.597.231 4.814.088 6.641-.443h-1.786v-8.128l-.415-.554c-1.965 1.847-5.333 3.336-8.835 4.498v4.184H6.074v-2.54h-.522c-2.3.556-4.29.947-5.552 1.173v6.58c3.64-2.89 8.873-5.407 15.77-4.77z" fill="#002D99"/><path d="M20.178 19.745l.226.295v8.228c-.776.1-1.557.148-2.34.145-.717 0-1.48-.037-2.257-.11a23.35 23.35 0 00-2.154-.1c-.709 0-1.355.03-2.032.092v-4.22c3.951-1.324 6.834-2.771 8.58-4.33m-14.353 6.04v2.54h5.493A21.73 21.73 0 00.226 32.842v-5.923a96.174 96.174 0 005.35-1.134h.272zm14.362-6.377c-1.965 1.847-5.333 3.336-8.835 4.498v4.184H6.074v-2.54h-.522c-2.3.556-4.29.947-5.552 1.173v6.58c3.254-2.592 7.785-4.87 13.637-4.87.693 0 1.404.034 2.134.1.8.074 1.562.11 2.29.11 1.468.022 2.932-.165 4.35-.553h-1.786v-8.128l-.415-.554zM24.767 35.026c.302-1.284 1.156-2.309 2.538-3.071a9.624 9.624 0 00-4.193-1.154c-3.922-.12-6.694 2.45-6.902 2.648l-4.536 5.752h3.854c.108 0 2.274.057 3.901 1.434h6.774c-.72-1.106-1.95-3.42-1.436-5.609z" fill="#002D99"/><path d="M22.83 31.034h.275a9.35 9.35 0 013.719.923c-1.224.77-1.99 1.776-2.276 3.002-.481 2.046.479 4.156 1.237 5.433h-6.277c-1.684-1.385-3.883-1.431-3.98-1.434H12.14l4.23-5.364c.225-.205 2.824-2.572 6.454-2.572m0-.23c-3.77 0-6.416 2.451-6.62 2.645l-4.531 5.764h3.854c.108 0 2.274.058 3.901 1.434h6.774c-.716-1.106-1.946-3.42-1.432-5.609.303-1.284 1.156-2.309 2.538-3.071a9.624 9.624 0 00-4.193-1.154h-.282l-.009-.01z" fill="#002D99"/><path d="M29.88 25.878v-1.656h-1.72c-.147.296-.31.584-.488.861v.462h-.33a8.08 8.08 0 01-1.415 1.46v1.075h-1.728c-2.131 1.014-4.904 1.386-8.295 1.088C11.436 36.444 4.809 39.277 0 40.378v.261h9.756l6.013-7.62c.121-.12 3.027-2.964 7.353-2.83 3.089.092 6.074 1.685 8.878 4.728V25.89l-2.12-.011z" fill="#002D99"/><path d="M29.654 24.453v1.655h2.12v8.225c-2.734-2.821-5.644-4.297-8.645-4.387h-.3c-4.247 0-7.099 2.782-7.225 2.9h-.011l-5.945 7.562H.869c4.72-1.228 10.892-4.137 15.155-10.984.704.058 1.39.086 2.032.086 2.425 0 4.515-.4 6.182-1.185h1.903V27.13a8.3 8.3 0 001.3-1.34h.452v-.632c.138-.217.269-.446.4-.693h1.354m.226-.23h-1.72c-.147.296-.31.583-.488.86v.463h-.323a8.086 8.086 0 01-1.415 1.459v1.076h-1.728c-1.655.787-3.7 1.181-6.132 1.184-.69 0-1.412-.032-2.163-.096C11.436 36.444 4.809 39.276 0 40.377v.261h9.756l6.013-7.62c.12-.117 2.896-2.835 7.06-2.835h.293c3.089.092 6.074 1.685 8.878 4.729v-9.029h-2.12v-1.662l-.007.011z" fill="#002D99"/><path d="M11.177 39.834l-.632.805h7.79a6.634 6.634 0 00-2.812-.8l-4.346-.005z" fill="#002D99"/><path d="M15.519 40.064a6.42 6.42 0 011.734.344h-6.236l.27-.344h4.232zm0-.23h-4.342l-.632.805h7.79a6.634 6.634 0 00-2.812-.8l-.004-.005zM27.299 40.64h4.7v-4.873c-1.745 1.386-4.201 3.651-4.7 4.872z" fill="#002D99"/><path d="M31.774 36.252v4.157h-4.105c.646-1.086 2.454-2.81 4.105-4.157zm.226-.478c-1.741 1.386-4.202 3.656-4.701 4.873h4.7v-4.873zM31.546 35.329a16.758 16.758 0 00-3.579-3.002c-1.438.693-2.314 1.644-2.599 2.847-.467 1.981.743 4.184 1.394 5.182.735-1.679 3.675-4.143 4.784-5.027z" fill="#002D99"/><path d="M27.954 32.588c1.195.757 2.29 1.67 3.255 2.715-1.203.977-3.562 3.002-4.468 4.59-.61-1.013-1.558-2.953-1.154-4.668.26-1.097 1.055-1.984 2.367-2.637zm.013-.264c-1.438.693-2.314 1.645-2.599 2.848-.467 1.98.743 4.184 1.394 5.181.735-1.676 3.675-4.14 4.784-5.027a16.754 16.754 0 00-3.579-3.002zM.078 43.318h.74v2.94l2.175-2.94h.7v4.14h-.74v-2.935L.777 47.458h-.7v-4.14zM8.427 43.318v4.14h-.75v-1.773H5.58v1.773h-.752v-4.14h.752v1.709h2.097v-1.71h.75zM12.5 43.969h-1.355v3.489H10.4v-3.489H9.074v-.651H12.5v.651zM17.284 46.807v1.563h-.695v-.912h-3.437v-4.14h.74v3.489h2.033v-3.49h.745v3.49h.614zM23.288 47.458v-2.745l-1.33 2.272h-.34l-1.33-2.236v2.709h-.712v-4.14h.619l1.6 2.738 1.581-2.738h.612v4.14h-.7zM27.886 43.969H25.88v3.489h-.74v-4.14h2.747v.651zM32 43.318l-1.76 3.341a1.81 1.81 0 01-.55.677 1.205 1.205 0 01-.698.23c-.206 0-.409-.045-.596-.131l.185-.603c.126.045.259.071.393.076a.687.687 0 00.352-.107.707.707 0 00.25-.276l.064-.101-1.615-3.088h.804l1.197 2.432 1.233-2.432.74-.018zM1.858 50.945c.08.104.12.233.115.364a.582.582 0 01-.225.485c-.193.128-.421.19-.65.174H0V49.6h1.034a1.04 1.04 0 01.61.157.518.518 0 01.225.45.554.554 0 01-.087.32.535.535 0 01-.253.209c.129.03.244.103.33.208zM.422 50.61h.576a.522.522 0 00.318-.083.341.341 0 00.108-.252.349.349 0 00-.108-.252.506.506 0 00-.318-.085H.422v.672zm1.13.667c0-.23-.152-.344-.452-.344H.422v.693h.662c.305.002.456-.116.456-.349h.011zM2.733 51.843a1.14 1.14 0 01-.451-.436 1.274 1.274 0 010-1.247 1.14 1.14 0 01.451-.437c.196-.106.415-.16.637-.157.223-.003.442.051.639.157.187.1.344.25.452.434a1.3 1.3 0 010 1.252 1.14 1.14 0 01-.452.434c-.197.106-.416.16-.639.157a1.303 1.303 0 01-.637-.157zm1.055-.335a.76.76 0 00.291-.298.912.912 0 000-.854.76.76 0 00-.291-.298.872.872 0 00-.833 0 .76.76 0 00-.292.298.912.912 0 000 .854.76.76 0 00.292.298.871.871 0 00.833 0zM6.406 49.702c.14.06.26.16.343.289a.917.917 0 010 .898.763.763 0 01-.343.293c-.165.071-.344.106-.524.102h-.521v.693H4.93V49.6h.952c.18-.005.359.03.524.101zM6.29 50.8a.422.422 0 00.147-.349.438.438 0 00-.147-.348.653.653 0 00-.427-.12h-.501v.94h.508a.653.653 0 00.42-.123zM7.58 51.843a1.119 1.119 0 01-.453-.437 1.273 1.273 0 010-1.246 1.12 1.12 0 01.452-.437 1.378 1.378 0 011.276 0c.187.099.343.25.451.434a1.283 1.283 0 010 1.252 1.139 1.139 0 01-.451.434 1.377 1.377 0 01-1.276 0zm1.053-.335a.76.76 0 00.292-.298.912.912 0 000-.854.761.761 0 00-.292-.298.808.808 0 00-.415-.106.77.77 0 00-.707.404.912.912 0 000 .854.77.77 0 00.707.404.806.806 0 00.415-.106zM9.781 49.6h1.806v.361h-1.381v.582h.677a.98.98 0 01.632.178.615.615 0 01.226.512.663.663 0 01-.237.543 1.066 1.066 0 01-.677.192H9.78V49.6zm1.018 2.028a.617.617 0 00.378-.097.336.336 0 00.128-.284c0-.245-.167-.365-.505-.365h-.594v.746h.594zM13.755 50.591a.707.707 0 01.226.568.754.754 0 01-.244.6c-.195.148-.435.222-.677.209h-.994V49.6h.423v.801h.64a.962.962 0 01.626.19zm-.343.924a.43.43 0 00.135-.346c0-.284-.173-.427-.521-.427h-.553v.89h.553a.571.571 0 00.386-.122v.005zM15.99 51.598v.37h-1.736V49.6h1.689v.367h-1.267v.616h1.129v.36h-1.129v.654h1.314zM18.169 50.945c.079.104.12.233.115.364a.583.583 0 01-.226.485 1.056 1.056 0 01-.652.174H16.31V49.6h1.034a1.04 1.04 0 01.61.157.519.519 0 01.225.45.547.547 0 01-.085.32.528.528 0 01-.254.209.608.608 0 01.328.208zm-1.436-.335h.575a.517.517 0 00.319-.083.342.342 0 00.108-.252.347.347 0 00-.108-.252.501.501 0 00-.319-.085h-.575v.672zm1.129.667c0-.23-.152-.344-.452-.344h-.677v.693h.652c.314.002.465-.116.465-.349h.012zM20.321 50.591a.692.692 0 01.226.568.757.757 0 01-.244.6c-.198.15-.442.224-.689.209h-.993V49.6h.422v.801h.642a.955.955 0 01.636.19zm-.34.924a.429.429 0 00.135-.346c0-.284-.174-.427-.524-.427h-.553v.89h.55a.573.573 0 00.389-.122l.002.005zm.902-1.91h.423v2.367h-.43l.007-2.367zM24.11 49.973h-1.147v1.995h-.42V49.6h1.58l-.013.372zM24.479 51.843a1.14 1.14 0 01-.451-.437 1.29 1.29 0 010-1.246 1.14 1.14 0 01.451-.437 1.378 1.378 0 011.276 0c.187.099.343.25.451.434a1.299 1.299 0 010 1.252 1.138 1.138 0 01-.451.434 1.377 1.377 0 01-1.276 0zm1.054-.335a.761.761 0 00.292-.298.913.913 0 000-.854.761.761 0 00-.292-.298.872.872 0 00-.833 0 .761.761 0 00-.291.298.913.913 0 000 .854.761.761 0 00.291.298.87.87 0 00.833 0zM28.154 49.702c.14.06.26.16.343.289a.9.9 0 010 .898.763.763 0 01-.343.293c-.166.071-.344.106-.524.102h-.521v.693h-.43V49.6h.951c.18-.005.359.03.524.101zm-.117 1.088a.42.42 0 00.146-.349.437.437 0 00-.146-.348.653.653 0 00-.427-.12h-.501v.94h.5a.653.653 0 00.428-.114v-.009zM30.566 50.591a.694.694 0 01.226.568.757.757 0 01-.244.6c-.195.148-.435.221-.677.209h-.996V49.6h.424v.801h.642a.955.955 0 01.625.19zm-.34.924a.43.43 0 00.135-.346c0-.284-.174-.427-.524-.427h-.551v.89h.55a.578.578 0 00.39-.122v.005zm.902-1.91h.422v2.367h-.422v-2.367z" fill="#002D99"/></g><defs><linearGradient id="epaint0_linear_963_6059" x1="16" y1=".3" x2="16" y2="1.575" gradientUnits="userSpaceOnUse"><stop offset=".15" stop-color="#2A3C90"/><stop offset=".62" stop-color="#252351"/><stop offset="1" stop-color="#110E23"/></linearGradient><linearGradient id="epaint1_linear_963_6059" x1="16.002" y1="5.71" x2="16.002" y2="10.081" gradientUnits="userSpaceOnUse"><stop offset=".15" stop-color="#2A3C90"/><stop offset=".62" stop-color="#252351"/><stop offset="1" stop-color="#110E23"/></linearGradient><linearGradient id="epaint2_linear_963_6059" x1="15.609" y1="12.917" x2="15.609" y2="24.855" gradientUnits="userSpaceOnUse"><stop offset=".15" stop-color="#2A3C90"/><stop offset=".62" stop-color="#252351"/><stop offset="1" stop-color="#110E23"/></linearGradient><linearGradient id="epaint3_linear_963_6059" x1=".533" y1="25.922" x2=".533" y2="26.106" gradientUnits="userSpaceOnUse"><stop offset=".15" stop-color="#2A3C90"/><stop offset=".62" stop-color="#252351"/><stop offset="1" stop-color="#110E23"/></linearGradient><linearGradient id="epaint4_linear_963_6059" x1="3.225" y1="24.531" x2="3.225" y2="25.843" gradientUnits="userSpaceOnUse"><stop offset=".15" stop-color="#2A3C90"/><stop offset=".62" stop-color="#252351"/><stop offset="1" stop-color="#110E23"/></linearGradient><linearGradient id="epaint5_linear_963_6059" x1="7.604" y1="31.35" x2="7.604" y2="41.05" gradientUnits="userSpaceOnUse"><stop offset=".15" stop-color="#2A3C90"/><stop offset=".62" stop-color="#252351"/><stop offset="1" stop-color="#110E23"/></linearGradient><linearGradient id="epaint6_linear_963_6059" x1="26.233" y1="25.691" x2="26.233" y2="26.263" gradientUnits="userSpaceOnUse"><stop offset=".15" stop-color="#2A3C90"/><stop offset=".62" stop-color="#252351"/><stop offset="1" stop-color="#110E23"/></linearGradient><linearGradient id="epaint7_linear_963_6059" x1="16.001" y1="1.653" x2="16.001" y2="4.932" gradientUnits="userSpaceOnUse"><stop offset=".15" stop-color="#2A3C90"/><stop offset=".62" stop-color="#252351"/><stop offset="1" stop-color="#110E23"/></linearGradient><linearGradient id="epaint8_linear_963_6059" x1="11.206" y1="22.386" x2="11.206" y2="35.022" gradientUnits="userSpaceOnUse"><stop offset=".15" stop-color="#2A3C90"/><stop offset=".62" stop-color="#252351"/><stop offset="1" stop-color="#110E23"/></linearGradient><linearGradient id="epaint9_linear_963_6059" x1="19.49" y1="32.909" x2="19.49" y2="41.845" gradientUnits="userSpaceOnUse"><stop offset=".15" stop-color="#2A3C90"/><stop offset=".62" stop-color="#252351"/><stop offset="1" stop-color="#110E23"/></linearGradient><linearGradient id="epaint10_linear_963_6059" x1="16.001" y1="27.739" x2="16.001" y2="42.657" gradientUnits="userSpaceOnUse"><stop offset=".15" stop-color="#2A3C90"/><stop offset=".62" stop-color="#252351"/><stop offset="1" stop-color="#110E23"/></linearGradient><linearGradient id="epaint11_linear_963_6059" x1="14.44" y1="40.004" x2="14.44" y2="40.732" gradientUnits="userSpaceOnUse"><stop offset=".15" stop-color="#2A3C90"/><stop offset=".62" stop-color="#252351"/><stop offset="1" stop-color="#110E23"/></linearGradient><linearGradient id="epaint12_linear_963_6059" x1="29.649" y1="36.806" x2="29.649" y2="41.235" gradientUnits="userSpaceOnUse"><stop offset=".15" stop-color="#2A3C90"/><stop offset=".62" stop-color="#252351"/><stop offset="1" stop-color="#110E23"/></linearGradient><linearGradient id="epaint13_linear_963_6059" x1="28.405" y1="34.045" x2="28.405" y2="41.344" gradientUnits="userSpaceOnUse"><stop offset=".15" stop-color="#2A3C90"/><stop offset=".62" stop-color="#252351"/><stop offset="1" stop-color="#110E23"/></linearGradient><clipPath id="eclip0_963_6059"><path fill="#fff" d="M0 0h32v52H0z"/></clipPath></defs></svg><svg fill="none" viewBox="0 0 24 23" id="icon-phone" xmlns="http://www.w3.org/2000/svg"><path d="M16.568 14.434l-.6.6s-1.43 1.424-5.328-2.464C6.74 8.68 8.17 7.257 8.17 7.257l.377-.379c.933-.929 1.021-2.422.207-3.512L7.092 1.138C6.084-.212 4.138-.39 2.983.761L.912 2.826c-.572.571-.954 1.31-.908 2.13.119 2.101 1.066 6.618 6.349 11.889 5.604 5.588 10.862 5.81 13.01 5.609.682-.064 1.273-.41 1.75-.887l1.873-1.869c1.266-1.261.91-3.425-.71-4.308l-2.52-1.375c-1.064-.578-2.357-.409-3.188.42z" fill="#fff"/></svg><svg fill="none" viewBox="0 0 60 60" id="icon-play" xmlns="http://www.w3.org/2000/svg"><circle cx="30" cy="30" r="30" fill="#fff"/><path d="M38.409 27.353a2.998 2.998 0 010 5.294l-12.812 6.967C23.534 40.737 21 39.277 21 36.968V23.033c0-2.31 2.534-3.769 4.597-2.648l12.812 6.968z" fill="#B24EFE"/></svg><svg fill="none" viewBox="0 0 60 60" id="icon-play-2" xmlns="http://www.w3.org/2000/svg"><circle cx="30" cy="30" r="30" fill="#fff"/><path d="M38.409 27.353a2.998 2.998 0 010 5.294l-12.812 6.967C23.534 40.737 21 39.277 21 36.968V23.033c0-2.31 2.534-3.769 4.597-2.648l12.812 6.968z" fill="#723ABA"/></svg><svg fill="none" viewBox="0 0 83 66" id="icon-quote" xmlns="http://www.w3.org/2000/svg"><mask id="ia" maskUnits="userSpaceOnUse" x="-1" y="-1" width="85" height="68" fill="#000"><path fill="#fff" d="M-1-1h85v68H-1z"/><path d="M9.2 65.45l4.55-30.8H.45V0h34.3v34.65L23.2 65.45h-14zm47.95 0l4.55-30.8H48.4V0h34.3v34.65l-11.55 30.8h-14z"/></mask><path d="M9.2 65.45l-.99-.146-.169 1.146H9.2v-1zm4.55-30.8l.99.146.169-1.146H13.75v1zm-13.3 0h-1v1h1v-1zM.45 0v-1h-1v1h1zm34.3 0h1v-1h-1v1zm0 34.65l.936.351.064-.17v-.181h-1zM23.2 65.45v1h.693l.243-.649-.936-.351zm33.95 0l-.99-.146-.169 1.146h1.159v-1zm4.55-30.8l.99.146.169-1.146H61.7v1zm-13.3 0h-1v1h1v-1zM48.4 0v-1h-1v1h1zm34.3 0h1v-1h-1v1zm0 34.65l.936.351.064-.17v-.181h-1zm-11.55 30.8v1h.693l.243-.649-.936-.351zm-60.96.146l4.55-30.8-1.98-.292-4.55 30.8 1.98.292zm3.56-31.946H.45v2h13.3v-2zm-12.3 1V0h-2v34.65h2zM.45 1h34.3v-2H.45v2zm33.3-1v34.65h2V0h-2zm.064 34.299l-11.55 30.8 1.872.702 11.55-30.8-1.872-.702zM23.2 64.45h-14v2h14v-2zm34.94 1.146l4.55-30.8-1.98-.292-4.55 30.8 1.98.292zM61.7 33.65H48.4v2h13.3v-2zm-12.3 1V0h-2v34.65h2zM48.4 1h34.3v-2H48.4v2zm33.3-1v34.65h2V0h-2zm.064 34.299l-11.55 30.8 1.872.702 11.55-30.8-1.872-.702zM71.15 64.45h-14v2h14v-2z" fill="#fff" mask="url(#ia)"/></svg><svg fill="none" viewBox="0 0 40 16" id="icon-right" xmlns="http://www.w3.org/2000/svg"><g clip-path="url(#jclip0_963_4755)" stroke="#000" stroke-width="2" stroke-linecap="round" stroke-linejoin="round"><path d="M1.25 8h37.5M32.5 14.25L38.75 8 32.5 1.75"/></g><defs><clipPath id="jclip0_963_4755"><path fill="#fff" transform="rotate(90 20 20)" d="M0 0h16v40H0z"/></clipPath></defs></svg><svg fill="none" viewBox="0 0 33 33" id="icon-sk" xmlns="http://www.w3.org/2000/svg"><g clip-path="url(#kclip0_963_6140)"><path d="M8.252 0A8.252 8.252 0 000 8.252V24.75a8.252 8.252 0 008.252 8.252H24.75a8.252 8.252 0 008.252-8.252V0H8.252z" fill="#B1EC52"/><path d="M27.268 12.37h-3.963l-3.77 4.127V8.252H16.48v1.998c-.1-.129-.205-.257-.323-.382-1.112-1.177-2.715-1.771-4.763-1.771-2.369 0-3.716 1.06-4.43 1.949-.885 1.104-1.28 2.61-1.006 3.839.708 3.178 3.658 3.686 5.825 3.967 1.71.223 3.347.533 3.303 2.058-.046 1.582-1.829 1.971-3 1.971-3.048 0-3.151-2.253-3.151-2.253h-3.28c.047.846.304 2.204 1.346 3.371 1.141 1.277 2.852 1.925 5.086 1.925 1.713 0 3.274-.56 4.393-1.55v1.358h3.058V20.84l1.082-1.185 3.089 5.077h3.559l-4.495-7.436 4.496-4.926zm-18.25.807c-.27-1.18.908-2.224 2.431-2.224 1.372 0 2.748.307 3.27 2.22h1.76v2.92c-2.193-1.803-6.947-.672-7.46-2.916z" fill="#4D5759"/></g><defs><clipPath id="kclip0_963_6140"><path fill="#fff" d="M0 0h33v33H0z"/></clipPath></defs></svg><svg fill="none" viewBox="0 0 30 30" id="icon-tlg" xmlns="http://www.w3.org/2000/svg"><g clip-path="url(#lclip0_963_4993)"><circle cx="15" cy="15" r="15" fill="url(#lpaint0_linear_963_4993)"/><path d="M7.594 14.622c4.027-1.72 6.712-2.854 8.054-3.402 3.837-1.564 4.634-1.836 5.154-1.845.114-.002.37.026.535.158a.578.578 0 01.197.367c.017.105.04.345.021.532-.207 2.142-1.107 7.338-1.564 9.736-.193 1.015-.575 1.355-.944 1.389-.803.072-1.411-.52-2.188-1.02-1.215-.78-1.902-1.267-3.082-2.03-1.364-.88-.48-1.365.298-2.156.203-.207 3.738-3.359 3.805-3.645.008-.035.017-.169-.065-.239-.08-.07-.199-.046-.285-.027-.123.027-2.063 1.285-5.827 3.775-.55.371-1.05.552-1.498.543-.492-.01-1.442-.274-2.147-.498-.864-.276-1.552-.422-1.492-.89.03-.244.374-.493 1.028-.748z" fill="#fff"/></g><defs><linearGradient id="lpaint0_linear_963_4993" x1="1500" y1="0" x2="1500" y2="3000" gradientUnits="userSpaceOnUse"><stop stop-color="#2AABEE"/><stop offset="1" stop-color="#229ED9"/></linearGradient><clipPath id="lclip0_963_4993"><path fill="#fff" d="M0 0h30v30H0z"/></clipPath></defs></svg><svg fill="none" viewBox="0 0 15 9" id="icon-up" xmlns="http://www.w3.org/2000/svg"><path d="M13.5 7.25L7.25 1 1 7.25" stroke="#000" stroke-width="2" stroke-linecap="round" stroke-linejoin="round"/></svg><svg fill="none" viewBox="0 0 30 30" id="icon-wa" xmlns="http://www.w3.org/2000/svg"><g clip-path="url(#nclip0_1271_6088)"><path d="M.125 14.865c0 2.62.687 5.177 1.994 7.432L0 30l7.919-2.067a14.984 14.984 0 007.138 1.81h.006c8.232 0 14.934-6.67 14.937-14.866A14.74 14.74 0 0025.629 4.36 14.877 14.877 0 0015.062 0C6.83 0 .13 6.668.126 14.865" fill="url(#npaint0_linear_1271_6088)"/><path d="M11.068 8.65c-.295-.618-.605-.63-.886-.641C9.952 7.999 9.69 8 9.428 8c-.263 0-.69.093-1.05.465C8.017 8.836 7 9.735 7 11.562s1.41 3.593 1.607 3.841c.197.248 2.724 4.118 6.725 5.606 3.325 1.238 4.002.991 4.724.93.722-.062 2.329-.899 2.657-1.766.328-.867.328-1.61.23-1.766-.099-.155-.361-.247-.755-.433s-2.33-1.084-2.69-1.208c-.36-.124-.623-.186-.886.186-.262.371-1.016 1.207-1.246 1.455-.23.248-.46.28-.853.094-.394-.187-1.662-.579-3.166-1.844-1.17-.984-1.96-2.2-2.19-2.572-.23-.371-.024-.572.173-.757.177-.167.394-.434.591-.65.196-.218.262-.373.393-.62.131-.248.066-.465-.033-.65-.098-.186-.863-2.023-1.213-2.758z" fill="#fff"/></g><defs><linearGradient id="npaint0_linear_1271_6088" x1="1500" y1="3000" x2="1500" y2="0" gradientUnits="userSpaceOnUse"><stop stop-color="#1FAF38"/><stop offset="1" stop-color="#60D669"/></linearGradient><clipPath id="nclip0_1271_6088"><path fill="#fff" d="M0 0h30v30H0z"/></clipPath></defs></svg><svg fill="none" viewBox="0 0 33 33" id="icon-yandex" xmlns="http://www.w3.org/2000/svg"><g clip-path="url(#oclip0_963_6053)"><path d="M7.988 6.218H24.85v20.43H7.988V6.217z" fill="#fff"/><path d="M16.517 0C7.397 0 0 7.4 0 16.497 0 25.62 7.397 33 16.517 33 25.603 33 33 25.62 33 16.497 33 7.4 25.603 0 16.517 0zm2.134 26.302V9.323h-1.516c-2.786 0-4.248 1.413-4.248 3.5 0 2.378 1.009 3.474 3.095 4.886l1.715 1.165-4.954 7.428H9.058l4.447-6.643c-2.56-1.832-3.994-3.617-3.994-6.635 0-3.79 2.614-6.36 7.596-6.36h4.948v19.638H18.65z" fill="#FC3F1D"/></g><defs><clipPath id="oclip0_963_6053"><path fill="#fff" d="M0 0h33v33H0z"/></clipPath></defs></svg><svg fill="none" viewBox="0 0 215 34" id="logo" xmlns="http://www.w3.org/2000/svg"><g clip-path="url(#pclip0_963_2803)"><path d="M41.426 34h-6.728L7.016 8.984V34H0V0h6.728l27.681 24.868V0h7.017v34zM62.88 0h-7.017v34h7.017V0zM145.101 34h-7.016V5.83h-19.116V0h45.249v5.83h-19.117V34z" fill="#000"/><mask id="pa" style="mask-type:luminance" maskUnits="userSpaceOnUse" x="-9" y="-9" width="232" height="52"><path d="M222.521-8.647H-8.719v50.965h231.24V-8.647z" fill="#fff"/></mask><g mask="url(#pa)" fill="#000"><path d="M186.883-.008h8.518c6.419 0 11.29 1.441 14.613 4.325 3.322 2.883 4.988 7.108 4.998 12.676 0 5.573-1.666 9.799-4.998 12.677-3.332 2.877-8.203 4.317-14.613 4.319h-8.518c-6.42 0-11.292-1.44-14.616-4.322s-4.986-7.107-4.984-12.677c0-5.573 1.666-9.799 4.998-12.676 3.332-2.878 8.199-4.319 14.602-4.322zm17.664 25.548c2.221-1.746 3.332-4.595 3.332-8.547 0-3.951-1.111-6.801-3.332-8.55-2.221-1.746-5.867-2.62-10.937-2.622h-4.936c-5.067 0-8.712.874-10.937 2.623-2.225 1.748-3.338 4.597-3.34 8.546 0 3.952 1.11 6.8 3.331 8.547 2.222 1.746 5.867 2.621 10.937 2.625h4.937c5.064 0 8.71-.875 10.937-2.625M103.353 34h12.05L85.739 16.999 115.403 0h-12.05L82.157 11.802V0H75.14v18.32l7.016 3.9v-.024L103.353 34z"/></g></g><defs><clipPath id="pclip0_963_2803"><path fill="#fff" d="M0 0h215v34H0z"/></clipPath></defs></svg><svg fill="none" viewBox="0 0 100 119" id="moon" xmlns="http://www.w3.org/2000/svg"><path fill-rule="evenodd" clip-rule="evenodd" d="M86.107 118.673c14.296-1.769 27.29-7.124 38.525-15.877 7.648-5.959 14.127-13.42 19.456-22.409 1.888-3.183 3.498-4.436 5.409-4.21 1.972.235 2.561-.984 1.735-3.59-.974-3.068-.185-6.744 2.331-10.86 1.287-2.104 1.451-2.51 1.436-3.557-.009-.675-.298-1.942-.673-2.954-.655-1.768-.656-1.78-.371-4.373.452-4.11.582-11.746.264-15.532-1.558-18.532-9.377-35.56-22.282-48.524-12.07-12.126-26.524-19.468-43.584-22.14-3.946-.617-14.313-.858-18.72-.434-5.382.518-10.88 1.674-16.775 3.528-1.635.514-3.755 1.012-4.713 1.105l-1.741.17-1.43 1.46c-1.82 1.858-5.06 3.504-9.485 4.816-3.517 1.044-3.983 1.358-5 3.373-.516 1.02-1.206 1.783-2.982 3.293C15.074-7.459 6.074 6.93 2.233 22.363.417 29.658 0 33.233 0 41.507c0 5.097.1 7.455.408 9.69.903 6.53 2.14 11.488 4.537 18.2.8 2.237.884 2.697.858 4.668-.064 4.79 2.493 10.47 6.526 14.494 1.811 1.808 2.013 1.916 4.598 2.464.436.092 1.155.676 1.984 1.609.715.805 2.63 2.778 4.255 4.384 12.406 12.264 28.468 19.86 46.026 21.766 3.111.338 13.864.269 16.915-.109zm-4.712-.971c14.33-1.039 26.403-5.106 37.818-12.737 9.917-6.63 17.635-14.89 23.908-25.584 1.058-1.804 3.193-3.979 4.14-4.217.479-.12.541-.249.435-.886l-.125-.745.501.59c.276.326.654.778.84 1.005.418.51 1.128.534 1.528.052.245-.297.187-.73-.328-2.423-1.245-4.09-.62-7.048 2.586-12.242.568-.92 1.046-1.93 1.062-2.245.016-.315-.264-1.264-.622-2.109-.784-1.85-.85-3.31-.373-8.253.664-6.88.061-15.95-1.541-23.182-6.433-29.035-29.679-51.947-58.755-57.91-4.024-.825-4.174-.84-3.77-.352.234.285.217.467-.089.936-.47.72-2.365 1.338-5.933 1.936-3.267.548-12.294.618-14.775.116-1.931-.392-2.822-1.01-2.72-1.89.136-1.173 1.972-1.636 7.141-1.802 2.19-.07 3.31-.034 2.945.095-.324.115-1.278.222-2.12.237-3.656.066-7.54.928-7.54 1.673 0 .373 1.225.89 2.837 1.198 2.198.42 10.37.361 13.319-.095 3.548-.55 5.687-1.087 6.283-1.578.497-.409.507-.467.145-.837-.537-.548-1.76-.741-6.705-1.06-4.627-.297-10.989-.054-15.081.578-2.683.414-4.804 1.353-4.804 2.125 0 1.168 1.832 2.189 4.595 2.56 2.052.275 2.483.655.742.655-1.392 0-3.646-.625-4.652-1.29-.465-.307-.981-.886-1.147-1.287-.26-.628-.244-.816.11-1.358.305-.468.326-.597.08-.502-.18.07-.935.253-1.676.407-1.602.334-2.153.91-1.79 1.872.34.899 1.113 1.655 2.328 2.275 1.709.873 2.947 1.1 5.953 1.097 2.185-.003 2.763.06 2.547.277-.449.45-5.514.36-7.095-.127-2.598-.8-4.73-2.899-4.378-4.31l.14-.556-2.532.806c-3.39 1.079-4.851 1.448-6.538 1.65-1.328.16-1.492.251-2.714 1.523-1.617 1.683-5.443 3.633-9.303 4.74-3.491 1-3.763 1.167-4.587 2.803-.487.969-1.212 1.844-2.393 2.89-6.237 5.519-9.027 8.448-12.687 13.316C6.465 9.023 1.283 24.61 1.283 41.625c0 9.072 1.41 17.142 4.582 26.217 1.256 3.593 1.315 3.866 1.299 6.027-.02 2.576.48 4.701 1.759 7.477 1.719 3.732 4.848 7.407 6.732 7.906 2.675.71 2.884.852 5.399 3.662 11.962 13.363 29.142 22.21 47.266 24.34 3.083.363 10.672.623 13.075.448zm-11.326-2.121c1.99-.536 3.895-1.479 4.725-2.338 1.734-1.794.601-3.662-3.072-5.066-4.033-1.542-4.715-2.052-3.668-2.74.478-.315 3.27-1.197 5.153-1.63.356-.081.648-.237.648-.346 0-.248-3.219.302-4.815.823-1.828.597-2.307 1.192-1.872 2.329.186.484 1.412 1.114 3.996 2.052 2.127.772 3.869 2.087 3.869 2.92 0 .236-.41.82-.912 1.298-1.612 1.538-5.712 2.726-8.849 2.564-1.545-.08-2.027.091-1.02.362.972.261 4.52.123 5.817-.228zm27.866-4.593c3.477-.543 7.213-2.316 9.427-4.475 1.486-1.45 1.585-1.781 1.085-3.654-.228-.856-.219-1.175.051-1.717.183-.366.371-.745.418-.843.048-.097-.094-.108-.314-.023-.221.085-.585.567-.81 1.07-.339.76-.367 1.123-.167 2.138l.241 1.223-1.349 1.229c-2.486 2.266-7.12 4.113-10.321 4.113-1.291 0-1.399-.043-1.628-.649-.426-1.123-.91-1.478-2.018-1.478-.563 0-1.023.106-1.023.236s.301.237.67.237c.763 0 1.45.636 1.45 1.341 0 1.182 1.65 1.663 4.288 1.252zm.248-1.471c1.565-.319 1.395-.65-.335-.65-1.87 0-2.47-.433-1.962-1.418.7-1.357 6.716-3.892 8.868-3.737.971.07 1.025.111.98.752-.027.374-.229.88-.45 1.125-.222.245-.322.524-.224.621.271.266 1.547-1.384 1.547-2.002 0-.297-.212-.753-.472-1.013-.967-.97-3.674-.43-7.692 1.534-2.043 1-2.736 1.464-3.122 2.089-.635 1.032-.626 1.612.035 2.213.695.634 1.459.765 2.827.486zm-59.71-5.375c2.576-.93 4.759-2.702 4.742-3.851-.023-1.643-2.188-2.454-8.34-3.124-3.477-.38-5.083-.711-5.083-1.052 0-.328 1.38-1.101 3.999-2.241 2.603-1.134 3.306-1.62 3.306-2.288 0-.745-1.614-.99-5.538-.844-4.108.153-10.25.845-10.25 1.155 0 .117.608.152 1.355.077 5.382-.54 12.869-.76 13.442-.395.462.294-.003.591-2.635 1.69-4.675 1.952-5.575 3.267-2.743 4.008.457.12 2.369.391 4.248.603 3.956.445 5.146.681 6.535 1.297.821.364 1.005.562 1.005 1.078 0 .91-1.368 2.074-3.888 3.306-2.221 1.086-2.293 1.352-.156.581zm46.692-.493c2.048-.558 2.907-.67 4.993-.649l2.519.025 2.311-1.318c1.271-.724 3.55-1.743 5.063-2.263 3.253-1.118 3.898-1.434 5.613-2.743a79.249 79.249 0 013.125-2.22c2.809-1.89 3.689-3.688 2.908-5.94l-.368-1.063.869-1.773.957-1.95c.049-.097-.043-.177-.203-.177-.433 0-2.076 1.817-2.242 2.479-.137.547-.17.557-.71.202-.703-.462-.702-.437.045 1.2.71 1.556.8 3.017.251 4.082-.246.478-1.233 1.33-2.687 2.322a179.514 179.514 0 00-3.521 2.457c-.781.568-2.178 1.208-3.86 1.767-2.707.901-4.777 1.85-6.427 2.945-.864.574-1.198.634-4.257.775-2.514.115-3.72.283-4.968.694-.963.317-2.266.549-3.131.559l-1.482.017-1.191-1.362c-.656-.75-1.66-1.637-2.23-1.973-.572-.336-1.303-.946-1.625-1.356l-.586-.745-.003.736c-.001.405.195.99.437 1.3l.439.564-1.36.031c-1.275.03-4.26 1.082-3.95 1.393.065.064.95.001 1.969-.141 1.038-.145 2.58-.186 3.512-.093 1.603.16 1.698.206 2.72 1.308.584.629 1.36 1.254 1.725 1.39 1.05.392 2.678.246 5.345-.48zm4.683-2.467c.956-.174 1.857-.444 2.003-.602.204-.22.13-.252-.324-.139-.324.081-1.703.212-3.064.292-3.091.181-4.394-.157-4.296-1.114l.062-.608-1.712.11c-2.16.137-3.507-.219-4.27-1.13-1.2-1.43-.043-2.944 3.798-4.963 1.71-.899 2.105-1.037 1.826-.637-.792 1.134-.098 2.768 1.176 2.768.725 0 .762-.282.078-.594-.95-.434-1.02-.886-.352-2.264.989-2.039 1.462-2.433 3.34-2.78.906-.166 4.032-.89 6.948-1.61 5.968-1.47 7.679-1.64 8.954-.894 1.095.642 1.27 1.77.367 2.364-.752.494-.754.654-.014 1.051.352.189.589.524.589.832 0 .914-1.74 2.946-3.887 4.538-1.18.874-.286.6 1.2-.368 1.655-1.079 3.314-2.828 3.541-3.734a1.728 1.728 0 00-.193-1.272c-.324-.567-.317-.67.081-1.162.24-.297.436-.715.436-.928-.002-.772-.96-1.955-1.948-2.405-1.6-.729-3.11-.588-8.783.817-5.371 1.33-8.503 2.02-9.228 2.037-.232.005-.635.35-.895.768-.32.514-1.196 1.151-2.71 1.973-4.614 2.506-5.567 3.363-5.816 5.224-.1.752-.01 1.046.521 1.679 1.01 1.204 2.193 1.691 4.101 1.691 1.379 0 1.69.074 1.89.448.524.984 3.176 1.231 6.581.612zm5.272-7.07c1.184-.423 2.453-1.42 2.893-2.274.417-.81.148-.918-.5-.2-.246.273-1.166.925-2.043 1.447-2.222 1.324-2.366 1.75-.35 1.028zm3.475-.492c1.323-.683 2.77-2.16 3.039-3.102.406-1.42-.676-2.81-2.049-2.633-.626.08-.622.087.239.471 1.705.76 1.401 2.06-1.006 4.296-.8.742-1.416 1.387-1.369 1.433.047.046.563-.164 1.146-.465zm-24.322.14c-.113-.588-1.626-.983-2.664-.696-1.155.32-.814.574 1.136.846 1.406.196 1.591.178 1.528-.15zm1.23-.256c0-.408 1.884-2.09 3.149-2.813 1.716-.98 3.939-1.677 5.352-1.677 1.061 0 1.19-.051 1.041-.414a9.4 9.4 0 01-.28-.796c-.174-.602 1.209-1.98 2.697-2.69 1.547-.736 5.386-1.773 6.569-1.773.9 0 1.063-.345.264-.56-1.588-.427-5.001.25-7.411 1.47-1.524.772-3.133 2.366-3.133 3.105 0 .317-.209.514-.648.613-1.901.43-2.649.684-3.94 1.338-1.835.928-2.836 1.704-3.393 2.627-.6.997-.833 1.807-.517 1.807.138 0 .25-.106.25-.237zm-56.767-4.997c.166-.311.21-.929.116-1.596a95.147 95.147 0 01-.33-2.742c-.178-1.675-.62-2.718-1.151-2.718-.215 0-.231.158-.061.606.126.333.23 1.089.23 1.68 0 .59.167 1.722.372 2.516.206.794.314 1.74.242 2.102-.156.78.198.872.582.152zm-2.383-.423c.383-.717.293-1.59-.457-4.452-.805-3.07-1.454-4.307-3.04-5.794-1.415-1.328-2.461-1.88-3.623-1.91-1.395-.037-1.777 1.075-.92 2.677.558 1.044 1.05 1.254.757.323-.547-1.741-.535-1.968.11-1.968 1.36 0 3.74 1.907 4.698 3.763.407.79 1.773 5.759 1.775 6.46.002.56-.444.52-1.103-.101-.668-.63-.7-.336-.076.691.542.892 1.486 1.048 1.88.311zm66.927-.957c0-.851-1.292-1.895-2.345-1.895-.757 0-.572.29.758 1.182 1.52 1.02 1.587 1.05 1.587.713zm-61.028-.007c0-.148-.31-.58-.689-.96-.489-.491-.915-.69-1.472-.686l-.784.005.589.456c1.048.81 2.356 1.468 2.356 1.185zm113.219-1.745c2.209-.371 3.984-.835 3.821-.998-.064-.063-1.055.062-2.204.278-2.623.494-8.396.361-10.571-.244-4.055-1.127-8.465-4.28-7.153-5.114.5-.317 3.216-.237 5.033.149.907.192 1.675.35 1.708.35.032 0 .059-.135.059-.3 0-.166-.37-.501-.821-.745-1.19-.643-3.495-3.143-4.219-4.577-.972-1.924-1.04-3.085-.271-4.66 1.125-2.307 4.644-4.47 7.291-4.483 1.684-.008 1.916.349.61.94-1.108.5-2.339 1.785-3.105 3.238-.81 1.538-.727 3.896.209 5.902.389.834 1.064 1.924 1.5 2.422 1.723 1.968 4.882 3.811 7.477 4.362 1.449.307 4.427.324 5.113.028.308-.133-.331-.209-1.844-.22-1.812-.013-2.695-.144-4.071-.607-3.419-1.152-6.368-3.565-7.568-6.193-.817-1.791-.877-4.238-.136-5.64.599-1.135 2.006-2.47 3.069-2.912.935-.388 1.195-1.08.638-1.698-1.378-1.528-7.416.915-9.295 3.76-1.88 2.846-1.277 5.632 1.932 8.93l1.177 1.211-1.65-.118c-.907-.065-2.029-.047-2.492.04-1.7.32-1.618 1.8.185 3.358 1.253 1.083 4.775 2.778 6.789 3.267 2.182.53 6.467.664 8.789.274zm-28.395-2.743c.007-.845.107-1.94.221-2.434.259-1.118-.109-1.078-.728.08-.578 1.082-.565 2.617.03 3.333l.463.558.014-1.537zm-20.624.887c-.283-.95-.776-1.535-1.51-1.792-.958-.335-.908-.085.243 1.227 1.047 1.193 1.516 1.403 1.267.565zm18.057-1.135c-.779-.734-.848-.751-2.474-.637-1.538.109-4.15.96-3.856 1.256.067.067 1.156-.055 2.42-.27 2.314-.396 2.352-.394 4.358.286.195.066-.007-.22-.448-.635zm-91.601-.839c-.43-.858-.907-1.975-1.058-2.481-.405-1.357-.764-1.156-.57.319.226 1.727 1.468 3.722 2.317 3.722.051 0-.259-.702-.69-1.56zm85.316-.375c.09-.82.227-1.758.303-2.083.139-.59.138-.59-.371-.137-.646.574-.953 1.708-.704 2.603.353 1.269.604 1.144.772-.383zm-6.481-1.03c1.866-1.071 2.039-1.652.941-3.171-.4-.554-.638-1.093-.53-1.199.109-.105 1.656-.468 3.44-.807 6.574-1.252 11.693-3.747 14.943-7.284 2.754-2.997 2.82-5.716.259-10.628-2.725-5.227-5.468-6.536-13.012-6.213-5.124.22-5.132.58-.013.593 7.816.02 9.884.992 12.423 5.833 2.652 5.056 2.391 7.683-1.082 10.866-3.259 2.988-7.785 5.037-13.536 6.128-1.95.37-3.575.806-3.857 1.035-.463.376-.468.43-.102 1.09.211.382.606.974.878 1.316.659.828.347 1.4-1.271 2.331-.676.389-1.07.707-.876.707.195 0 .822-.27 1.395-.598zm-45.457-.487c3.958-.483 10.629-1.815 13.026-2.602 1.36-.447 2.526-1.38 2.526-2.021 0-.258-.302-.772-.67-1.142-.67-.672-1.513-.976-6.863-2.473-2.737-.765-4.208-1.401-4.4-1.9-.6-1.57 4.686-3.146 14.205-4.235 5.702-.653 7.232-.93 8.036-1.456.775-.507.655-1.06-.471-2.166-1.732-1.701-2.047-1.762-8.69-1.681-4.178.05-5.927-.007-6.12-.2-1.25-1.255 4.304-6.143 9.562-8.416 5.087-2.2 15.197-3.945 22.862-3.945 4.138 0 5.266.532 4.643 2.19-.259.686-.255.692.197.282 1.01-.917.255-2.462-1.444-2.95-1.826-.526-8.748-.15-15.3.83-3.084.462-7.141 1.417-9.303 2.19-6.13 2.192-12.601 7.382-12.033 9.65.263 1.054.794 1.135 7.012 1.07 4.92-.052 5.941-.003 6.609.315 1.044.497 2.361 1.72 2.241 2.08-.152.457-1.888.852-5.456 1.24-5.825.632-8.904 1.103-11.75 1.8-3.033.743-4.228 1.258-5.105 2.2-.481.517-.538.723-.349 1.263.344.98 1.861 1.673 6.447 2.943 4.197 1.162 5.315 1.673 5.315 2.432 0 .991-1.58 1.555-8.247 2.945-9.692 2.02-15.95 1.27-19.789-2.371-4.025-3.82-3.442-8.731 1.638-13.81 2.53-2.53 4.627-3.798 8.389-5.077 1.895-.644 2.822-1.096 3.404-1.662 2.17-2.11.622-4.136-3.898-5.104-2.255-.483-7.235-.31-10.14.353-3.127.713-5.854 1.852-6.878 2.872-1.492 1.488-1.164 2.301 1.419 3.512 1.39.652 1.65 1.082 1.06 1.744-2.258 2.535-10.767 4.76-15.144 3.96-3.115-.57-4.342-1.504-3.675-2.8.43-.834 1.487-1.54 4.782-3.198 2.678-1.347 3.37-1.991 3.37-3.137 0-.85-1.445-2.205-2.958-2.771-1.553-.581-4.734-.755-7.251-.397-1.125.16-2.088.36-2.14.444-.052.084 1.778.153 4.066.153 3.842 0 4.25.041 5.335.543 2.184 1.01 2.787 2.1 1.741 3.149-.275.276-1.362.907-2.415 1.403-4.178 1.965-5.897 3.578-5.35 5.02.857 2.26 7.028 3.14 12.288 1.754 4.048-1.067 7.195-2.632 8.111-4.036.587-.897.097-1.617-1.733-2.547-1.099-.559-1.586-.946-1.637-1.3-.16-1.13 2.908-2.719 7.133-3.693 3.186-.734 9.014-.736 11.337-.003 1.793.565 2.926 1.407 2.926 2.172 0 .262-.328.852-.73 1.31-.586.67-1.138.96-2.77 1.457-5.478 1.67-10.023 5.192-12.236 9.484-1.677 3.252-1.814 5.427-.507 8.05 1.337 2.683 4.252 4.787 7.947 5.735 1.744.447 6.13.754 7.825.548zm-27.723-.526c.407-.45.52-.985.21-.985-.224 0-1.94 1.157-1.94 1.308 0 .31 1.394.05 1.73-.323zm-1.966-.694c0-.795-.914-2.204-1.679-2.588-.308-.155-1.248-.6-2.09-.988-.843-.39-1.975-1.046-2.516-1.46-.837-.638-1.11-.727-1.827-.592-1 .188-1.124.61-.18.61.409 0 1.201.392 2.063 1.02.77.561 2.12 1.32 3.003 1.687 1.186.492 1.753.888 2.18 1.516.316.467.575.985.575 1.15 0 .164.106.3.235.3.13 0 .236-.295.236-.655zm125.825.103c0-.077-.45-.26-1.001-.406-3.682-.981-7.166-4.821-7.611-8.389-.583-4.683 3.574-9.883 10.908-13.647 1.948-.999 2.232-1.348 1.285-1.58-1.5-.37-1.969-1.982-.812-2.794.356-.25.966-.559 1.355-.686.702-.229 1.03-.981.353-.811-1.588.4-5.616-.616-8.585-2.166-3.797-1.982-4.701-3.884-2.671-5.625.838-.72 4.138-2.258 5.954-2.776.908-.259 2.259-.643 3.005-.853 1.146-.323 1.355-.465 1.355-.925 0-.51-.614-1.248-1.414-1.7-.195-.11.004.212.441.715.748.861.769.933.367 1.228-.235.172-.605.314-.823.314-1.031 0-5.193 1.267-6.927 2.109-3.418 1.66-4.443 3.482-3.085 5.486 1.13 1.668 5.031 3.721 8.746 4.602l1.665.395-.546.547c-.764.767-.709 1.783.149 2.763l.693.793-1.341.656c-2.466 1.205-5.15 3.181-7.032 5.176-3.81 4.037-4.713 7.942-2.74 11.847.85 1.684 3.173 3.916 5.019 4.825 1.44.709 3.293 1.216 3.293.902zM26.018 73.655c.808-.867 1.037-1.972.71-3.431-.819-3.67-4.026-6.13-5.98-4.588-1.274 1.005-1.674 2.748-.987 4.3.185.418 1.118 1.585 2.074 2.592 1.572 1.658 1.822 1.832 2.632 1.832.69 0 1.046-.162 1.551-.705zm-13.428-.472c.3-.728.16-1.896-.228-1.896-.121 0-.284.4-.362.887a44.887 44.887 0 01-.224 1.3c-.138.69.503.462.814-.291zm12.866-.266c1.274-1.414-.364-5.707-2.52-6.603-1.398-.58-2.569.418-2.569 2.191 0 .85.26 1.313 1.462 2.601a49.625 49.625 0 011.398 1.57c.732.872 1.578.963 2.229.24zm122.028-2.094c.332-.645.333-.787.01-1.414-.662-1.285-.347-2.893.895-4.562.938-1.26 1.179-1.832.775-1.832-.566 0-1.833 1.448-2.449 2.798-.471 1.03-.551 1.49-.435 2.483.382 3.254.597 3.704 1.204 2.527zM3.705 46.89c.238-.883.951-1.504 2.814-2.451 1.816-.924 2.475-1.694 2.082-2.432-.14-.263-1.007-.873-1.926-1.358-2.691-1.418-2.741-2.382-.253-4.825 3.923-3.85 12.106-6.208 23.842-6.871 5.462-.31 7.038-.14 8.13.876.992.922.676 1.535-2.235 4.35-3.032 2.933-3.467 3.806-2.667 5.36 1.747 3.393 9.573 5.229 18.567 4.354 13.746-1.336 26.25-6.197 28.427-11.052.53-1.18.355-1.836-.732-2.754-1.538-1.298-4.543-1.744-12.744-1.893-5.398-.098-6.434-.286-5.844-1.063.167-.218.849-.946 1.517-1.618 2.116-2.128 1.908-3.263-.751-4.087-1.733-.537-2.07-.584-1.873-.264.074.12.478.292.898.383.42.091 1.16.367 1.646.614 1.355.688 1.221 1.353-.648 3.218-1.023 1.022-1.531 1.714-1.531 2.087 0 1.122.556 1.226 8.011 1.493 8.417.3 10.425.7 11.454 2.274.497.76.168 1.623-1.128 2.963-2.614 2.703-8.13 5.242-15.156 6.977-10.185 2.517-19.01 2.929-24.614 1.15-2.271-.72-4.222-1.899-4.802-2.9-.78-1.348-.328-2.215 2.545-4.884 2.759-2.563 3.232-3.388 2.621-4.573-.216-.419-.813-.923-1.486-1.256-1.07-.528-1.334-.553-5.324-.5-9.178.12-17.722 1.821-23.086 4.594-2.445 1.264-5.228 3.911-5.47 5.202-.248 1.331.306 2.112 2.22 3.12.908.48 1.726.991 1.816 1.138.202.327-.823 1.224-2.6 2.276-1.488.881-2.1 1.64-1.976 2.45.08.522.09.517.256-.098zm138.39-10.797c1.863-1.14 2.524-3.703 1.501-5.823-1.078-2.232-2.946-2.569-4.518-.814-2.893 3.23-.396 8.724 3.017 6.637zm.103-1.397c.853-.856.931-1.04.93-2.202-.001-2.283-1.34-3.695-2.79-2.942-1.004.52-1.498 1.583-1.513 3.257-.016 1.716.546 2.632 1.688 2.745.616.061.926-.096 1.685-.858zm-31.232-4.68c6.182-.646 11.543-2.181 10.671-3.056-.059-.059-.701.012-1.426.158-.726.146-1.724.189-2.219.095l-.9-.17 1.06-.54c2.003-1.021 4.403-1.382 8.221-1.236 2.924.112 4.062.279 7.543 1.106 2.255.535 4.289 1.075 4.52 1.2.556.298.752.284.553-.038-.308-.5-2.242-1.183-5.701-2.013-6.16-1.477-11.956-1.35-15.371.336-1.826.902-1.895 1.927-.13 1.936 1.417.008.192.474-2.587.986-2.436.448-3.656.52-8.947.52-4.818.002-6.48-.08-7.781-.381-2.979-.69-4.581-1.603-4.265-2.43.298-.778 2.205-1.281 8.004-2.11 8.548-1.223 11.658-1.943 12.382-2.866.653-.832.313-1.476-1.294-2.453-6.134-3.73-17.586-4.198-40.27-1.65-6.883.773-9.227 1.115-9.778 1.428-.599.34 1.503.244 5.655-.258 12.655-1.53 18.8-1.982 26.862-1.978 7.356.003 10.217.336 14.075 1.635 1.909.643 4.216 1.9 4.409 2.404.359.94-4.404 2.071-14.125 3.352-3.804.502-5.332.93-6.179 1.727-1.482 1.397.407 3.033 4.474 3.873 1.666.344 10.458.64 12.544.422zm-105.09-7.32c1.505-1.356 3.788-2.697 8.365-4.912 3.973-1.923 13.871-6.005 16.14-6.657 1.616-.464 3.181-1.205 3.181-1.506 0-.907-7.274-.601-16.611.699-2.851.397-5.45.787-5.773.867-1.169.287-.009-.618 2.346-1.83 1.251-.646 2.587-1.501 2.969-1.902l.693-.73-.536-.438c-.554-.452-2.6-.823-3.604-.654-.602.102-.38.164 1.902.531 2.141.345 1.816.862-1.637 2.606-2.507 1.265-4.185 2.603-3.526 2.81.899.282 1.44.312 2.388.135 3.856-.723 12.346-1.673 15.852-1.774l4.006-.116-2.357.8c-3.688 1.252-12.407 4.897-15.838 6.622-5.042 2.534-7.702 4.299-8.79 5.83-.273.387-.464.698-.423.692.041-.005.605-.488 1.253-1.073zM147.96 19.41c-.903-.76-3.738-2.244-6.008-3.145-.972-.386-4.468-1.521-7.768-2.524-5.795-1.76-8.255-2.713-8.255-3.2 0-.128.451-.245 1.002-.26 3.508-.1 6.197.365 11.943 2.067 4.419 1.31 4.746 1.391 4.244 1.064-1.24-.808-8.064-2.876-11.388-3.45-6.202-1.073-8.812.483-3.937 2.347.854.326 4.034 1.345 7.067 2.264 6.021 1.824 9.318 3.055 12.04 4.496 1.355.717 1.602.796 1.06.34zm-40.287-9.897c-.463-2.152-.463-2.132.017-1.931.247.104.987.24 1.645.302 1.347.127 2.625-.386 3.616-1.451.852-.916.459-.973-.904-.132-.843.52-1.476.737-2.087.716-.483-.018-1.903-.055-3.155-.084-1.96-.044-2.354-.122-2.828-.56-.476-.439-.892-.52-3.083-.596-1.393-.049-2.533-.024-2.533.056 0 .353 1.279.672 2.869.715 1.541.042 1.811.122 2.529.748.69.602.947.686 1.804.59.931-.106 1.007-.071 1.125.52.069.347.352.891.628 1.208l.503.577-.146-.678zM96.239 8.101c0-.18-2.893-.793-5.655-1.199-5.114-.75-9.802-.91-18.025-.612-4.277.154-9.526.244-11.664.2l-3.888-.081 3.181-.684C68.873 3.858 78.147 1.259 79.65.27c.312-.204.566-.565.566-.802 0-1.367-2.647-1.884-10.639-2.08C59.52-2.86 52.567-1.76 50.565.396c-1.077 1.16-.488 2.197 2.197 3.876 2.817 1.76 2.301 2.255-2.356 2.255-6.615 0-15.48-1.922-16.454-3.568-.123-.207-.153-.658-.067-1.001.218-.87 1.928-1.796 5.8-3.14 3.52-1.22 4.245-1.582 4.245-2.117 0-.604-1.35-.974-5.42-1.488-4.55-.576-6.18-.961-8.179-1.937-1.594-.778-2.424-1.63-2.424-2.49 0-.796 1.19-2.036 2.76-2.875 1.321-.706 7.145-2.595 9.676-3.14 1.124-.24 2.644-1.176 2.644-1.626 0-.685-2.792-.883-7.068-.5-1.74.156-1.48.181 1.966.189 2.35.005 4.066.106 4.208.247.363.365-.64.908-2.447 1.324-2.687.62-7.318 2.034-8.66 2.645-2.511 1.143-4.03 2.872-3.695 4.21.2.797 1.397 1.941 2.752 2.63 1.697.863 4.164 1.46 8.232 1.994 4.587.601 5.132.713 4.69.96-.186.105-1.237.505-2.337.889-4.32 1.51-5.833 2.194-6.682 3.02-1.133 1.105-1.156 2.006-.075 3.028 1.981 1.874 10.941 3.62 17.559 3.421 2.365-.07 2.898-.156 3.314-.534.273-.248.496-.632.496-.854 0-.557-.989-1.497-2.437-2.32-2.506-1.424-2.661-2.42-.54-3.461 2.97-1.458 8.72-2.119 16.95-1.948 6.918.144 10.297.576 10.297 1.317 0 .755-7.472 2.955-18.125 5.338-5.115 1.144-6.162 1.551-5.636 2.188.322.388 1.82.383 22.057-.077 7.144-.163 13.063.248 17.785 1.233.356.074.648.082.648.017zm-1.275-1.784c.758-.464 1.831-1.675 1.647-1.86-.129-.128-.725.285-1.867 1.295-1.237 1.093-1.122 1.386.22.565zm23.187-.766c0-.048-.253-.71-.562-1.47-.502-1.236-.527-1.45-.236-2.01.432-.83.416-2.676-.033-3.754-.623-1.494-2.125-3.25-3.98-4.65-.983-.742-1.936-1.638-2.118-1.99-.891-1.729-2.504-2.667-5.766-3.353a89.501 89.501 0 01-3.556-.83c-1.062-.28-2.087-.37-3.373-.295-1.72.1-2.056.215-4.836 1.653-2.122 1.098-3.126 1.757-3.46 2.274-.38.588-.688.759-1.59.887-.617.087-1.12.237-1.12.334 0 .233 1.322.492 1.724.337.208-.08.41.192.59.796.15.504.474 1.098.718 1.32.434.393.436.377.094-.665-.323-.985-.316-1.134.088-1.914.378-.73.85-1.041 3.45-2.28 3.651-1.736 5.06-1.957 7.626-1.194.888.264 2.357.604 3.264.756 2.764.462 4.161 1.235 5.202 2.877.3.474 1.373 1.506 2.384 2.295 2.03 1.582 2.933 2.61 3.615 4.116.612 1.353.608 3.232-.009 4.019-.543.693-.593.91-.176.76.162-.06.458.226.658.635.296.604 1.406 1.67 1.402 1.346zm-7.602-.541c2.585-.964 4.076-2.593 4.064-4.441-.006-.973-.7-2.52-1.41-3.141-.296-.26-.491-.367-.433-.237l.53 1.175c.541 1.195.422 3.202-.232 3.928-1.057 1.171-3.888 2.333-5.702 2.34-.425.001-1.399-.315-2.165-.702-.99-.502-1.971-.771-3.404-.935-2.358-.269-2.729-.435-3.597-1.614-.358-.486-1.367-1.651-2.242-2.59-1.761-1.89-1.945-2.326-1.788-4.229.133-1.617.863-2.44 2.905-3.283l1.403-.578-.891-.006c-1.794-.011-3.436 1.049-4.201 2.713-.902 1.959-.359 3.74 1.861 6.102.756.803 1.724 1.917 2.152 2.474 1.023 1.331 2.195 1.9 4.303 2.09 1.19.107 2.142.364 3.072.83 1.729.866 3.637.9 5.775.104zm-89.475.196c1.916-.83 4.005-3.876 4.005-5.84 0-1.91-1.236-2.972-2.915-2.507-1.787.495-4.34 3.673-4.73 5.887-.247 1.405.997 2.86 2.418 2.827.219-.006.768-.17 1.222-.367zM21 4.176c1.022-.465 2.198-1.846 2.803-3.291.79-1.884.106-3.512-1.304-3.106-2.541.73-5.175 5.423-3.665 6.53.587.431.982.407 2.166-.132zm73.827-1.192c-.138-.259-.841-.908-1.562-1.442C91.903.533 91.462-.2 91.179-1.922c-.186-1.134-.51-1.306-.74-.393-.185.744.261 2.335.915 3.258.456.642 3.072 2.512 3.516 2.512.114 0 .095-.212-.043-.471zm13.076-.228c.259-.107.736-.481 1.06-.83.501-.542.589-.863.589-2.15 0-1.431-.048-1.56-.876-2.392-.923-.926-1.532-.963-.675-.041 1.285 1.383 1.101 3.682-.393 4.917-.836.691-.705.911.295.496zM121.094.068c2.696-2.6 8.689-3.059 12.334-.945.561.325 1.063.548 1.116.495.054-.054-.21-.583-.585-1.176-1.126-1.782-3.483-3.158-8.566-5.002-5.053-1.833-6.307-2.66-5.782-3.817.363-.798 2.19-1.691 4.698-2.296 1.219-.295 2.253-.642 2.296-.772.103-.302-1.973-1.04-2.962-1.053-1.137-.015-5.492-.9-7.009-1.424-3.138-1.082-6.119-3.034-6.41-4.195-.118-.471-.029-.718.379-1.049.446-.362.983-.435 3.275-.448 2.104-.011 2.606-.071 2.154-.256-.324-.132-1.667-.203-2.986-.157-2.721.096-3.376.424-3.376 1.69 0 .549.272.98 1.162 1.84 2.224 2.15 6.713 3.83 12 4.492 1.314.165 2.389.385 2.389.489 0 .104-.216.19-.479.19-.264 0-1.336.283-2.382.63-2.834.94-4.003 2.242-3.261 3.632.383.717 2.069 1.58 5.572 2.85 3.834 1.39 6.385 2.627 7.582 3.674l.862.753-1.414-.481c-1.611-.549-4.469-.64-6.334-.203-1.629.381-3.515 1.36-4.412 2.288-.945.978-.83 1.186.139.25zM89.387-2.99c1.056-.54.852-.845-.384-.574-1.353.297-1.453.361-1.004.646.458.29.705.278 1.388-.072zm7.08-.915c.01-1.328.477-1.966 1.775-2.422.743-.26.855-.367.528-.5-.705-.289-2.01.1-2.52.75-.57.725-.638 2.144-.136 2.81.32.424.346.377.353-.638zm-6.59-12.914c0-.307-.718-1.234-.956-1.234-.317 0-.275.797.06 1.134.318.318.896.382.896.1zm-6.126-1.018c0-.576-.55-.494-.665.099-.046.233.075.394.294.394.219 0 .37-.203.37-.493zm19.086-.606c.675-.276 1.178-.868 1.178-1.386 0-.732-1.695-2.58-2.905-3.168-.572-.278-1.481-.492-2.086-.492-3.02 0-3.1 3.002-.122 4.527.954.488 3.266.793 3.935.519zm-9.78-1.512c-.418-2.005-1.374-3.047-4.005-4.36-2.225-1.112-4.292-1.604-6.833-1.625-3.05-.026-3.631.147-5.048 1.51-.673.647-1.085 1.18-.915 1.184.2.005.158.122-.118.332-.504.383-.156.71.524.494.603-.191.837-.831.307-.838-.223-.003.178-.349.891-.768 1.274-.75 1.346-.764 4.242-.762 3.173.003 4.28.254 6.833 1.55 1.773.9 2.712 1.838 3.398 3.394.767 1.74 1.097 1.689.723-.11zm-3.111.827c1.407-.453 1.85-1.196 1.255-2.107-.605-.926-1.134-.813-.558.12.393.636.06.832-2.02 1.183-3.789.642-8.245-.609-9.452-2.652-.362-.614-.351-.648.395-1.239l.768-.607-.658-.002c-.911-.004-1.901 1.007-1.68 1.715.4 1.28 1.837 2.5 3.857 3.275 1.757.674 6.415.854 8.093.314zm12.969-.265c.668-.67-1.25-2.653-3.056-3.16-.931-.262-1.191-.256-1.71.036-.336.189-.642.507-.68.706-.108.564.873 1.645 1.933 2.128.93.424 3.194.61 3.513.29zm-24.118-.9c.17-.204.252-.428.183-.498-.2-.2-1.714.263-1.657.507.09.386 1.154.38 1.475-.009zm-40.404-.096c2.3-.668 3.18-1.379 3.18-2.57 0-.52-.038-.508-.802.26-.917.918-2.47 1.523-4.453 1.734-1.168.124-1.467.071-2.052-.362-.377-.28-.798-.508-.936-.508-.374 0 .39 1.36.926 1.647.666.358 2.524.268 4.137-.2zm8.016-4.968c1.312-.754 1.84-1.514 1.723-2.474-.108-.872-.463-.887-.739-.031-.33 1.026-.571 1.26-2.094 2.032-.753.38-1.37.798-1.37.926 0 .457 1.316.217 2.48-.453z" fill="#fff"/></svg><svg fill="none" viewBox="0 0 61 22" id="pt-01" xmlns="http://www.w3.org/2000/svg"><g clip-path="url(#rclip0_3010_2741)"><mask id="ra" style="mask-type:luminance" maskUnits="userSpaceOnUse" x="0" y="0" width="61" height="22"><path d="M61 0H0v22h61V0z" fill="#fff"/></mask><g mask="url(#ra)" fill-rule="evenodd" clip-rule="evenodd"><path d="M4.153 0l-1.04 2.878H17.51L18.548 0H4.153zM2.594 4.316L1.555 7.194h14.396l1.038-2.878H2.594zM1.04 8.633L0 11.51h14.395l1.039-2.877H1.039z" fill="#0AF"/><path d="M30.604 12.607v.06a6.054 6.054 0 011.615.947c1.017.854 1.466 1.982 1.466 3.446 0 2.41-1.256 4.149-3.321 4.698-.628.183-1.286.244-2.514.244h-6.252V4.372h5.535c1.137 0 1.915.06 2.603.243 2.005.55 3.321 1.953 3.321 4.18 0 1.189-.419 2.196-1.107 2.867-.299.304-.718.67-1.346.945zm-5.536 1.86v4.637h2.394c.718 0 1.376-.06 1.855-.518.479-.458.688-1.037.688-1.8 0-.58-.15-1.129-.449-1.525-.508-.64-1.137-.793-2.214-.793h-2.274zm-.03-3.05h1.945c.598 0 .898 0 1.197-.091.808-.244 1.317-.976 1.317-1.983 0-1.189-.539-1.708-1.317-1.952-.33-.091-.658-.122-1.317-.122h-1.825v4.148zm13.854 10.585V7.33h-4.997V4.372h13.883l-.987 2.958h-4.429v14.672h-3.47zm9.963 0V4.372h11.25L59.12 7.33h-6.823v3.905h2.783c2.244 0 3.411.549 4.219 1.25.628.55 1.705 1.77 1.705 4.18 0 2.378-1.107 3.69-2.034 4.361-1.077.762-2.214.976-4.518.976h-5.596zm3.441-2.959H54.9c.987 0 1.585-.244 2.004-.793.21-.274.509-.763.509-1.678 0-.914-.3-1.555-.898-2.013-.358-.274-.838-.426-1.645-.426h-2.574v4.91z" fill="#0A2896"/></g></g><defs><clipPath id="rclip0_3010_2741"><path fill="#fff" d="M0 0h61v22H0z"/></clipPath></defs></svg><svg fill="none" viewBox="0 0 183 252" id="rocket" xmlns="http://www.w3.org/2000/svg"><path fill-rule="evenodd" clip-rule="evenodd" d="M164.88 75.046c-.515.298-1.362-.16-1.517-.821-.188-.807.858-1.584 1.504-1.115.219.16.456.305.526.324.21.057-.234 1.45-.513 1.612zm-9.804-4.442c-1.149.664-2.236-.642-1.275-1.53.626-.58 1.089-.52 1.498.188.432.75.393.986-.223 1.342zm-8.668-5.88c-1.218.56-2.049-1.13-.886-1.8.494-.286.743-.262 1.082.104.589.637.504 1.373-.196 1.696zm-7.562-7.273c-.79.364-1.6-.146-1.504-.945.116-.968 1.345-1.242 1.828-.407.435.756.369 1.034-.324 1.352zm-5.964-8.854c-.203.187-.685.205-1.072.04-.526-.223-.651-.49-.497-1.063.153-.574.395-.742.963-.673.648.08 1.156.68 1.016 1.203-.023.084-.207.306-.41.493z" fill="#fff"/><path fill-rule="evenodd" clip-rule="evenodd" d="M155.961 105.676c5.342-7.215 10.187-16.401 14.173-26.871 3.209-8.428 6.311-21.689 6.722-28.731.576-9.889-1.306-17.782-4.718-19.79-1.536-.905-5.565-1.525-8.782-1.351-9.696.521-24.422 6.144-36.787 14.047-4.755 3.04-10.922 7.505-14.681 10.631-13.179 10.959-30.097 34.257-49.195 67.747a986.295 986.295 0 01-3.673 6.411c-.101.161-3.706.846-8.009 1.522-10.64 1.671-11.139 1.737-10.813 1.43.507-.477.462-2.371-.08-3.399-.777-1.473-2.017-1.694-3.596-.639-.286.191-.513.331-.726.49-1.104.821-1.843 2.132-8.612 13.536a6570.803 6570.803 0 01-6.949 11.68c-2.71 4.539-3.002 5.397-2.113 6.231.524.491 3.017.37 4.857-.237 1.04-.343 2.678-1.761 3.274-2.835.339-.611 1.799-.967 10.108-2.461 5.341-.961 9.754-1.673 9.806-1.583.051.09-1.166 2.619-2.706 5.621-1.54 3.002-2.904 5.859-3.032 6.35-.435 1.674.234 3.895 2.141 7.107l1.866 3.142.418.584c.361.097-1.931 2.933-2.507 3.101l-1.595 2.768c-3.857 4.789-3.996 6.676-.41 5.561 1.97-.613 3.311-1.489 4.64-3.031.631-.733 1.931-1.851 2.888-2.484l1.74-1.153 2.87 2.142c1.579 1.177 3.023 2.182 3.21 2.232l1.392.862c.202.147.883.497 1.512.779l1.146.512.825.593 3.023.81c4.517 1.211 4.985 1.044 11.4-4.06l5.183-4.123.066 2.249c.037 1.237.129 5.7.205 9.918l.137 7.669-1.05 1.332c-1.255 1.591-1.808 3.448-1.665 5.595.199 2.987 1.665 3.545 3.883 1.478.633-.589 3.532-3.238 6.442-5.886 16.207-14.745 17.333-15.732 17.92-16.973.075-.159.141-.321.229-.517 1.103-2.469-1.28-4.473-3.875-3.257-.847.396-1.163.42-1.189.091-.02-.246-.135-2.615-.255-5.263-.121-2.648-.312-6.704-.424-9.013l-.204-4.198 7.088-6.258c9.483-8.371 21.559-19.737 26.958-25.37.757-.79 2.402-2.501 3.658-3.802 5.941-6.16 13.39-14.89 17.866-20.936zm13.335-28.08c-1.181 3.064-3.685 9.034-4.024 9.591-.223.368-.694.28-3.185-.593-1.608-.563-3.965-1.542-5.237-2.176-1.273-.633-2.493-1.224-2.71-1.314-.217-.09-.703.272-1.081.802-.377.53-2.298 3.263-4.268 6.072-5.129 7.315-10.638 14.596-13.968 18.46-1.584 1.838-2.825 3.438-2.757 3.555.264.458 5.546 3.22 8.828 4.617l3.455 1.471-.97 1.084c-5.977 6.679-16.523 17.235-17.56 17.577-2.558.843-8.685-.313-13.456-2.538-10.203-4.759-20.662-13.135-27.84-22.295l-1.742-2.224 3.265-4.948c13.869-21.016 32.561-41.011 50.304-53.811 2.13-1.537.431-.736-2.177 1.025-3.46 2.338-9.891 7.391-13.817 10.856C106.439 75.091 94.108 90 84.688 105.931c-1.059 1.791-1.96 3.28-2.002 3.308-.187.127-2.527-4.102-3.215-5.811-.418-1.037-.817-2.808-.886-3.933l-.126-2.048 3.767-5.67c9.309-14.008 18.449-25.749 25.57-32.84 5.215-5.195 13.878-11.658 22.035-16.442l4.136-2.425.11 1.665c.336 5.106 5.201 12.245 12.724 18.672 6.282 5.367 11.216 8.196 17.13 9.82 3.686 1.013 4.1 1.065 5.789.727l1.819-.365-.664 2.314a67.326 67.326 0 01-1.579 4.693zm-5.22 12.214c-.301.55-1.213 2.299-2.028 3.885-2.718 5.29-7.802 12.65-12.906 18.682-1.306 1.544-2.85 3.372-3.431 4.062-1.043 1.238-1.07 1.247-2.235.759-3.527-1.477-10.352-5.343-10.041-5.687 6.925-7.683 11.71-13.885 17.293-22.416l3.247-4.961 1.031.434c.567.239 3.016 1.15 5.441 2.024 2.69.97 4.364 1.713 4.293 1.903-.065.172-.364.764-.664 1.315zm-45.329 54.112c-12.158 11.295-27.477 24.486-40.135 34.558-4.38 3.485-5.153 3.676-9.738 2.396-3.714-1.036-6.898-2.677-11.043-5.69l-.776-.564 2.195-1.466c2.175-1.452 2.265-1.566 9.45-11.919 3.989-5.748 7.288-10.582 7.33-10.74.233-.871-1.353-.153-6.847 3.098-4.799 2.839-6.057 3.458-5.909 2.906.194-.723-.461-2.31-1.015-2.458-.703-.188-1.65.276-2.91 1.424-1.038.947-5.304 6.498-9.103 11.846-.297.418-.575.169-1.93-1.732-1.86-2.612-2.92-5.026-3.14-7.159-.152-1.483-.105-1.645 1.364-4.614 5.29-10.695 17.266-32.343 24.655-44.571.789-1.304 1.495-2.407 1.569-2.45.075-.043.405.769.736 1.805 1.305 4.091 6.685 12.098 9.904 14.739.412.338.65.746.529.907-.122.161-3.212 4.288-6.867 9.172-6.02 8.044-8.163 10.93-9.814 13.22l-.56.776-1.492-1.46c-3.357-3.28-6.353-7.575-7.336-10.517-.257-.769-.555-1.349-.662-1.287-.634.366 2.19 6.185 4.393 9.049 1.46 1.899 5.007 5.619 5.22 5.475.459-.312 2.186-2.55 9.896-12.826 4.741-6.319 8.66-11.642 8.71-11.828.05-.186-.596-.937-1.437-1.668-3.954-3.437-8.949-10.518-10.38-14.715l-.526-1.542 2.215-3.582c2.166-3.5 3.025-4.598 2.725-3.477-.331 1.237 1.018 5.574 2.704 8.689 5.333 9.857 17.187 20.613 29.152 26.453 5.142 2.51 11.091 3.901 14.443 3.378.81-.127 1.46-.205 1.445-.174-.015.031-3.172 2.977-7.015 6.548zm-14.113 40.305c-.313.441-3.018 3.037-6.011 5.77a18024.446 18024.446 0 01-15.45 14.096c-1.836 1.672-3.499 2.998-3.695 2.946-.919-.247-.26-4.858.873-6.101.53-.581 11.457-10.083 20.816-18.101 1.797-1.539 1.959-1.607 3.111-1.298 1.077.288 1.199.414 1.07 1.106-.081.43-.402 1.142-.714 1.582zm-8.802 1.609a2397.185 2397.185 0 00-9.062 7.79l-4.968 4.295-.178-9.282c-.098-5.105-.169-9.649-.156-10.098.018-.67.857-1.499 4.7-4.645a952.616 952.616 0 008.742-7.254c2.235-1.884 4.13-3.295 4.212-3.135.082.159.178 1.035.213 1.947.036.911.221 4.966.413 9.01.192 4.044.31 7.47.263 7.614-.047.144-1.928 1.835-4.18 3.758zm-24.621-1.468c-1.631 1.242-2.79 1.88-3.513 1.934-3.516.259-8.18-1.624-13.756-5.554l-.575-.403c-1.405-.985-2.06-1.444-2.038-1.867.02-.369.556-.71 1.56-1.348l.47-.3 2.434-1.566 2.356 1.596c4.972 3.366 10.636 5.52 14.057 5.345.869-.044 1.548.007 1.509.115-.038.107-1.165 1.029-2.504 2.048zm-.542-28.071a745.693 745.693 0 01-3.386 4.832c-.54.758-2.31 3.287-3.934 5.62l-2.952 4.243-4.245 2.648a1514.87 1514.87 0 00-6.288 3.941l-2.043 1.294 6.83-9.65 6.831-9.65 3.622-2.146a515.136 515.136 0 005.848-3.517c1.225-.754 2.204-1.304 2.175-1.221-.03.082-1.135 1.705-2.458 3.606zm-13.096 6.659a4705.838 4705.838 0 00-8.646 12.209c-2.438 3.458-4.904 6.775-5.48 7.373-.944.979-4.143 2.635-4.36 2.257-.05-.084 1.674-2.543 3.83-5.465 2.154-2.921 4.916-6.667 6.135-8.325l1.14-1.549c8.76-11.904 9.454-12.847 10.368-13.464l.113-.074.134-.085.131-.084c.92-.588 1.327-.347 1.043.617-.107.366-2.091 3.332-4.408 6.59zm-10.098 8.191c-1.41 1.914-1.605 2.07-2.066 1.638-.973-.912-3.349-5.302-3.657-6.757-.37-1.751-.204-2.412 1.415-5.62l1.24-2.456.38 2.07c.27 1.468.959 3.053 2.368 5.454 1.094 1.86 1.963 3.422 1.932 3.469-.03.048-.756 1.039-1.612 2.202zm8.212-37.233c-2.453 4.408-7.091 13.09-7.85 14.695-.281.595-.701 1.158-.933 1.253-.232.094-3.365.696-6.963 1.338a824.536 824.536 0 00-9.483 1.739c-1.617.315-2.954.55-2.971.522-.11-.179 11.575-20.755 11.883-20.925.426-.235 18.017-3.087 18.404-2.983l.043.01c.041.009.076.017.097.039.111.113-.162.604-1.884 3.696l-.343.616zm-23.044 7.765c-8.014 14.34-8.054 14.403-9.362 15.118-1.262.69-4.238 1.177-4.377.715-.053-.178 1.673-3.288 3.837-6.91 2.163-3.622 5.919-9.929 8.345-14.015 2.426-4.086 4.654-7.696 4.951-8.022.872-.957 1.722-1.423 2.308-1.266.614.164 1.214 1.519.985 2.223-.083.253-3.092 5.724-6.688 12.157zm116.046-81.255c8.455 6.911 17.406 10.966 21.988 9.963.941-.207.994-.292 1.627-2.654.359-1.342.606-2.453.548-2.469l.71-2.436c.714-2.213 1.638-7.632 1.944-11.398.659-8.133-.191-14.697-2.376-18.346-.785-1.31-1.121-1.58-2.689-2.156-5.839-2.146-18.428.354-30.42 6.042-4.993 2.368-5.381 2.62-5.462 3.538-.41 4.65 5.3 12.698 14.13 19.916z" fill="#fff"/><path fill-rule="evenodd" clip-rule="evenodd" d="M58.001 190.787c-3.515 8.958-10.434 16.076-23.598 24.279a813.823 813.823 0 00-8.752 5.527c-4.992 3.227-14.884 11.191-21.532 17.334-2.007 1.856-3.475 3.126-3.261 2.823 1.68-2.381 7.016-10.373 7.988-11.964 7.283-11.928 9.704-16.859 13.663-27.828 4.809-13.326 8.83-19.514 15.563-23.941 1.427-.939 6.23-2.857 6.782-2.709.362.097-1.931 2.933-2.507 3.101-1.802.524-4.266 2.172-5.681 3.8-1.63 1.877-3.953 6.394-7.565 14.713-2.22 5.114-3.652 7.953-5.175 10.263-.686 1.039-1.147 1.874-1.026 1.857.863-.127 4.92-3.294 6.876-5.369 1.876-1.99 1.832-1.648-.245 1.916-2.513 4.312-4.735 7.28-10.21 13.636-1.671 1.942-3.067 3.634-3.1 3.761-.033.128.482-.248 1.145-.834 2.218-1.958 8.06-5.911 14.503-9.814 10.389-6.292 13.706-8.773 17.757-13.283 3.212-3.575 5.034-6.75 6.16-10.734.736-2.601 1.005-3.226 1.296-3.015.202.147.883.497 1.512.779l1.146.512-.462 1.556c-.253.856-.828 2.492-1.277 3.634zm-3.938-1.163c-2.236 4.89-6.028 9.366-11.505 13.583-2.98 2.294-5.316 3.859-11.374 7.619-5.195 3.225-7.704 4.87-9.425 6.182-.69.525-.003-.404 1.835-2.484 3.662-4.143 6.691-8.798 8.358-12.84.703-1.706 1.663-3.699 2.134-4.43 1.332-2.068.634-1.672-1.57.891-2.22 2.582-6.536 6.959-6.657 6.75-.042-.074.257-.629.664-1.234.408-.606 1.514-2.813 2.457-4.905 7.03-15.587 8.262-17.649 11.898-19.918 1.442-.9 1.411-.57-.126 1.338-3.857 4.79-3.996 6.677-.41 5.562 1.97-.613 3.311-1.489 4.64-3.031.631-.733 1.931-1.851 2.888-2.485l1.74-1.152 2.87 2.142c1.579 1.177 3.023 2.182 3.21 2.232.393.105-.636 4.014-1.627 6.18zM162.048 93.695a265.52 265.52 0 012.028-3.885c.3-.551.599-1.143.664-1.315.072-.19-1.603-.933-4.292-1.903-2.426-.874-4.874-1.786-5.441-2.024l-1.032-.434-3.246 4.96c-5.584 8.532-10.369 14.734-17.294 22.417-.311.344 6.514 4.21 10.041 5.687 1.165.488 1.193.479 2.235-.759.581-.69 2.125-2.518 3.432-4.062 5.103-6.033 10.188-13.393 12.905-18.682z" fill="#fff"/><path d="M71.195 109.237c.789-1.304 1.494-2.407 1.569-2.45.074-.043.405.769.736 1.805 1.305 4.092 6.685 12.098 9.904 14.739.412.338.65.746.529.907-.122.161-3.212 4.288-6.867 9.172-6.02 8.044-8.163 10.93-9.814 13.22l-.56.776-1.493-1.459c-3.356-3.281-6.352-7.576-7.335-10.518-.258-.769-.555-1.349-.662-1.287l-.123-.228c4.865-8.84 10.15-18.115 14.116-24.677z" fill="#fff"/><path fill-rule="evenodd" clip-rule="evenodd" d="M148.689 60.424c8.456 6.911 17.406 10.966 21.989 9.963.941-.207.993-.292 1.626-2.654.36-1.342.606-2.453.548-2.469-.058-.015-.639.088-1.29.229-1.632.353-6.127-.949-9.6-2.78-10.931-5.763-22.474-17.78-22.855-23.793-.091-1.45.362-1.277.486.185.12 1.399 2.427 5.183 4.882 8.005 8.154 9.374 22.617 18.805 27.417 17.877.973-.187 1.077-.322 1.67-2.16.715-2.212 1.639-7.63 1.944-11.396.659-8.134-.191-14.698-2.375-18.347-.785-1.31-1.121-1.58-2.689-2.156-5.839-2.146-18.428.354-30.421 6.042-4.992 2.368-5.381 2.62-5.462 3.538-.409 4.65 5.3 12.698 14.13 19.916z" fill="#fff"/></svg><svg fill="none" viewBox="0 0 236 312" id="rocket-big" xmlns="http://www.w3.org/2000/svg"><path fill-rule="evenodd" clip-rule="evenodd" d="M206.133 86.87c-.594.344-1.57-.184-1.747-.946-.218-.93.988-1.825 1.732-1.284.253.183.526.351.607.373.242.065-.269 1.671-.592 1.858zm-11.299-5.119c-1.325.765-2.577-.74-1.469-1.764.72-.667 1.254-.6 1.726.218.498.863.453 1.136-.257 1.546zm-9.991-6.777c-1.403.645-2.361-1.301-1.021-2.075.569-.329.857-.301 1.247.12.68.735.581 1.583-.226 1.955zm-8.715-8.382c-.91.419-1.844-.168-1.734-1.09.135-1.115 1.551-1.43 2.107-.468.502.87.425 1.19-.373 1.558zm-6.874-10.205c-.234.215-.79.237-1.235.047-.607-.258-.75-.565-.573-1.226.177-.661.455-.855 1.109-.775.747.09 1.333.784 1.171 1.386-.026.097-.238.353-.472.568z" fill="#fff"/><path fill-rule="evenodd" clip-rule="evenodd" d="M195.854 122.173c6.156-8.316 11.741-18.903 16.335-30.97 3.698-9.713 7.274-24.997 7.747-33.114.664-11.397-1.505-20.495-5.437-22.81-1.77-1.042-6.414-1.756-10.122-1.556-11.175.601-28.147 7.082-42.398 16.19-5.481 3.503-12.589 8.65-16.921 12.253-15.189 12.63-34.689 39.483-56.7 78.082a1159.539 1159.539 0 01-4.234 7.389c-.116.185-4.27.975-9.23 1.754-12.263 1.926-12.838 2.002-12.462 1.648.584-.55.532-2.733-.093-3.918-.895-1.698-2.324-1.952-4.144-.736-.33.22-.591.382-.837.564-1.272.947-2.124 2.458-9.926 15.601a7537.107 7537.107 0 01-8.009 13.462c-3.124 5.232-3.46 6.221-2.436 7.181.604.567 3.478.427 5.598-.272 1.2-.396 3.087-2.03 3.774-3.268.39-.704 2.073-1.114 11.65-2.836 6.156-1.108 11.242-1.929 11.302-1.825.06.104-1.344 3.019-3.119 6.478-1.774 3.46-3.347 6.754-3.494 7.32-.501 1.929.27 4.488 2.468 8.191l2.15 3.621.481.673c.418.112-2.225 3.381-2.888 3.574l-1.839 3.19c-4.445 5.52-4.606 7.695-.473 6.409 2.27-.706 3.817-1.716 5.348-3.493.728-.845 2.226-2.133 3.329-2.863l2.006-1.328 3.308 2.468c1.819 1.357 3.484 2.515 3.699 2.573l1.604.993c.233.169 1.017.573 1.743.898l1.32.59.951.684 3.484.934c5.206 1.395 5.746 1.202 13.141-4.68l5.972-4.752.077 2.592c.042 1.426.148 6.569.235 11.431l.159 8.839-1.211 1.534c-1.446 1.834-2.083 3.975-1.918 6.449.229 3.443 1.918 4.086 4.475 1.704.729-.679 4.07-3.732 7.424-6.784 18.68-16.994 19.978-18.132 20.654-19.562.086-.183.163-.37.264-.596 1.272-2.846-1.475-5.155-4.467-3.754-.975.457-1.339.485-1.37.105-.023-.284-.155-3.014-.294-6.066-.139-3.052-.358-7.727-.488-10.388l-.235-4.839 8.17-7.212c10.928-9.648 24.847-22.747 31.07-29.24.871-.91 2.768-2.882 4.215-4.382 6.848-7.1 15.433-17.161 20.592-24.13zm15.369-32.363c-1.36 3.531-4.247 10.412-4.637 11.054-.257.423-.801.322-3.671-.684-1.853-.649-4.57-1.777-6.037-2.507-1.467-.73-2.872-1.412-3.123-1.515-.25-.103-.811.313-1.245.924-.435.611-2.649 3.761-4.919 6.999-5.912 8.431-12.262 16.822-16.1 21.276-1.825 2.118-3.255 3.962-3.177 4.097.304.528 6.392 3.711 10.175 5.322l3.982 1.695-1.118 1.249c-6.889 7.698-19.044 19.864-20.24 20.258-2.947.971-10.009-.361-15.508-2.925-11.759-5.485-23.814-15.139-32.086-25.696l-2.008-2.563 3.763-5.702c15.984-24.222 37.528-47.269 57.977-62.02 2.455-1.772.497-.849-2.508 1.181-3.988 2.694-11.401 8.518-15.926 12.512-16.039 14.158-30.251 31.341-41.108 49.702-1.221 2.064-2.259 3.78-2.308 3.813-.216.146-2.913-4.728-3.706-6.697-.481-1.196-.941-3.237-1.02-4.534l-.145-2.36 4.341-6.534c10.729-16.146 21.263-29.677 29.471-37.852 6.01-5.986 15.994-13.435 25.396-18.949l4.767-2.795.126 1.919c.387 5.885 5.995 14.114 14.665 21.52 7.241 6.187 12.928 9.446 19.743 11.32 4.249 1.166 4.726 1.226 6.672.836l2.097-.42-.764 2.667a78.354 78.354 0 01-1.821 5.409zm-6.017 14.077c-.346.635-1.397 2.65-2.336 4.477-3.133 6.097-8.992 14.58-14.875 21.533-1.505 1.78-3.285 3.886-3.955 4.681-1.202 1.427-1.233 1.437-2.576.875-4.065-1.702-11.931-6.158-11.572-6.555 7.981-8.854 13.496-16.002 19.931-25.836l3.742-5.717 1.189.5c.653.275 3.475 1.325 6.271 2.333 3.099 1.118 5.029 1.974 4.947 2.194-.075.198-.419.88-.766 1.515zm-52.243 62.367c-14.012 13.018-31.669 28.221-46.258 39.83-5.048 4.017-5.938 4.236-11.223 2.761-4.281-1.194-7.95-3.085-12.727-6.558l-.895-.65 2.53-1.69c2.506-1.673 2.61-1.805 10.89-13.737 4.599-6.625 8.401-12.196 8.45-12.378.269-1.004-1.56-.177-7.892 3.57-5.53 3.272-6.98 3.985-6.81 3.35.223-.834-.532-2.662-1.17-2.833-.81-.217-1.902.317-3.354 1.641-1.197 1.092-6.114 7.49-10.492 13.653-.342.482-.663.194-2.224-1.997-2.145-3.01-3.365-5.792-3.618-8.251-.177-1.709-.122-1.895 1.571-5.317 6.098-12.327 19.9-37.277 28.417-51.371.908-1.503 1.721-2.773 1.807-2.823.086-.049.468.886.848 2.08 1.505 4.716 7.706 13.944 11.416 16.987.475.39.749.86.609 1.046-.14.185-3.702 4.942-7.914 10.571-6.939 9.271-9.408 12.597-11.311 15.237l-.645.894-1.721-1.682c-3.869-3.781-7.321-8.731-8.455-12.122-.296-.887-.64-1.554-.763-1.483-.73.422 2.526 7.128 5.063 10.429 1.683 2.189 5.772 6.476 6.017 6.31.529-.359 2.519-2.939 11.405-14.782 5.465-7.283 9.983-13.418 10.04-13.632.058-.215-.688-1.08-1.658-1.923-4.556-3.961-10.313-12.122-11.963-16.96l-.606-1.776 2.554-4.129c2.495-4.035 3.486-5.3 3.14-4.008-.382 1.426 1.174 6.425 3.116 10.015 6.147 11.36 19.809 23.757 33.599 30.488 5.927 2.893 12.784 4.496 16.647 3.893.934-.146 1.683-.236 1.665-.2-.017.035-3.656 3.431-8.085 7.547zm-16.266 46.453c-.361.508-3.478 3.5-6.928 6.65a17839.515 17839.515 0 01-17.806 16.246c-2.117 1.928-4.033 3.456-4.259 3.396-1.06-.284-.299-5.599 1.006-7.032.61-.669 13.204-11.62 23.992-20.862 2.071-1.774 2.258-1.852 3.585-1.496 1.241.332 1.382.478 1.232 1.275-.092.495-.463 1.315-.822 1.823zm-10.145 1.854a2788.86 2788.86 0 00-10.444 8.979l-5.726 4.95-.205-10.698c-.113-5.884-.194-11.121-.18-11.638.021-.773.988-1.728 5.417-5.353 2.966-2.428 7.5-6.19 10.076-8.361 2.576-2.172 4.76-3.798 4.855-3.614.094.184.204 1.193.245 2.244.041 1.051.255 5.723.476 10.384.221 4.661.357 8.611.303 8.777-.055.166-2.222 2.114-4.817 4.33zm-28.377-1.691c-1.88 1.431-3.216 2.167-4.048 2.228-4.053.3-9.43-1.871-15.855-6.4l-.662-.466c-1.62-1.135-2.376-1.664-2.35-2.151.023-.425.641-.818 1.798-1.554.169-.107.35-.222.542-.346l2.805-1.804 2.716 1.839c5.73 3.88 12.259 6.362 16.201 6.161 1.001-.051 1.784.008 1.739.132-.044.124-1.343 1.186-2.886 2.361zm-.624-32.354a847.038 847.038 0 01-3.903 5.57c-.623.873-2.663 3.788-4.534 6.477l-3.403 4.89-4.892 3.052a1659.366 1659.366 0 00-7.247 4.543l-2.355 1.491 7.873-11.122 7.873-11.122 4.173-2.473a608.236 608.236 0 006.74-4.054c1.413-.869 2.541-1.503 2.508-1.408-.034.095-1.308 1.966-2.833 4.156zm-15.094 7.675a5286.147 5286.147 0 00-9.965 14.072c-2.81 3.985-5.652 7.809-6.316 8.497-1.087 1.129-4.775 3.037-5.026 2.602-.056-.097 1.93-2.931 4.415-6.298 2.483-3.367 5.666-7.685 7.072-9.596l1.313-1.785c10.096-13.72 10.896-14.807 11.95-15.519l.13-.085.154-.098.152-.096c1.06-.678 1.529-.4 1.202.711-.124.422-2.41 3.84-5.081 7.595zm-11.639 9.441c-1.624 2.206-1.85 2.386-2.38 1.888-1.121-1.052-3.86-6.112-4.215-7.788-.428-2.018-.236-2.78 1.63-6.478l1.43-2.83.438 2.386c.31 1.692 1.104 3.519 2.73 6.285 1.26 2.145 2.261 3.944 2.226 3.999-.036.055-.872 1.197-1.859 2.538zm9.466-42.913c-2.829 5.081-8.174 15.087-9.048 16.936-.324.686-.808 1.336-1.075 1.445-.268.108-3.879.802-8.026 1.542a957.06 957.06 0 00-10.929 2.004c-1.864.364-3.405.634-3.425.602-.126-.207 13.341-23.921 13.696-24.117.49-.271 20.766-3.558 21.212-3.439a.529.529 0 00.049.012c.048.011.088.02.112.045.128.131-.187.697-2.171 4.26l-.395.71zm-26.56 8.95c-9.237 16.527-9.282 16.6-10.79 17.424-1.455.795-4.885 1.356-5.045.824-.061-.205 1.928-3.79 4.422-7.964a9029.21 9029.21 0 009.618-16.153c2.796-4.71 5.365-8.87 5.707-9.246 1.005-1.103 1.984-1.641 2.66-1.46.707.19 1.399 1.751 1.135 2.563-.096.292-3.564 6.597-7.708 14.012zm133.749-93.651c9.745 7.966 20.06 12.64 25.342 11.483 1.085-.238 1.145-.336 1.875-3.059.414-1.547.698-2.827.631-2.845l.819-2.808c.823-2.551 1.888-8.796 2.24-13.136.76-9.374-.22-16.94-2.738-21.145-.904-1.51-1.291-1.821-3.099-2.486-6.729-2.473-21.239.409-35.061 6.964-5.754 2.73-6.202 3.02-6.295 4.078-.472 5.36 6.108 14.636 16.286 22.954z" fill="#fff"/><path fill-rule="evenodd" clip-rule="evenodd" d="M76.776 230.266c-4.708 11.995-13.972 21.527-31.6 32.511-4.146 2.584-9.42 5.915-11.72 7.401-6.684 4.322-19.93 14.986-28.831 23.212-2.688 2.485-4.654 4.186-4.367 3.779 2.25-3.187 9.394-13.889 10.696-16.02 9.752-15.972 12.994-22.575 18.295-37.264 6.44-17.844 11.826-26.13 20.84-32.058 1.911-1.257 8.342-3.826 9.082-3.627.484.129-2.586 3.927-3.356 4.151-2.414.702-5.713 2.909-7.608 5.09-2.183 2.512-5.294 8.562-10.13 19.7-2.974 6.849-4.89 10.651-6.93 13.744-.918 1.391-1.536 2.51-1.374 2.486 1.156-.169 6.588-4.411 9.207-7.189 2.513-2.665 2.454-2.206-.327 2.566-3.365 5.774-6.34 9.748-13.671 18.259-2.24 2.6-4.108 4.866-4.152 5.037-.045.17.645-.332 1.533-1.117 2.97-2.622 10.793-7.916 19.42-13.142 13.912-8.425 18.354-11.748 23.778-17.786 4.301-4.788 6.74-9.039 8.25-14.375.984-3.482 1.344-4.319 1.734-4.036.27.196 1.182.665 2.025 1.042l1.534.686-.618 2.084c-.34 1.147-1.11 3.336-1.71 4.866zm-5.273-1.558c-2.994 6.548-8.072 12.543-15.407 18.189-3.99 3.072-7.118 5.168-15.23 10.203-6.956 4.318-10.316 6.521-12.62 8.277-.923.703-.004-.541 2.457-3.326 4.903-5.547 8.96-11.78 11.191-17.193.942-2.285 2.228-4.954 2.858-5.933 1.783-2.769.849-2.238-2.101 1.194-2.973 3.458-8.754 9.319-8.915 9.038-.057-.098.343-.842.89-1.652.545-.811 2.026-3.767 3.289-6.569 9.413-20.87 11.063-23.633 15.932-26.671 1.931-1.205 1.89-.763-.168 1.793-5.166 6.413-5.352 8.94-.55 7.447 2.638-.821 4.434-1.994 6.213-4.059.846-.981 2.586-2.478 3.868-3.327l2.33-1.542 3.843 2.867c2.114 1.577 4.048 2.922 4.298 2.989.526.141-.852 5.375-2.178 8.275zM216.1 100.253a364.37 364.37 0 012.715-5.202c.402-.738.802-1.53.889-1.76.096-.255-2.146-1.25-5.748-2.548-3.248-1.171-6.526-2.391-7.285-2.711l-1.381-.581-4.348 6.643c-7.477 11.424-13.884 19.729-23.156 30.016-.417.461 8.722 5.638 13.445 7.616 1.559.653 1.596.641 2.993-1.017.778-.924 2.845-3.371 4.594-5.439 6.835-8.078 13.643-17.933 17.282-25.017z" fill="#fff"/><path d="M94.444 121.066c1.055-1.747 2-3.223 2.1-3.28.1-.058.543 1.029.985 2.416 1.748 5.479 8.953 16.201 13.263 19.736.551.453.87 1 .708 1.215-.163.215-4.301 5.742-9.195 12.282-8.062 10.771-10.93 14.636-13.142 17.703l-.749 1.039-2-1.955c-4.494-4.393-8.506-10.144-9.823-14.083-.344-1.03-.743-1.806-.886-1.724l-.165-.305c6.515-11.837 13.593-24.257 18.904-33.044z" fill="#fff"/><path fill-rule="evenodd" clip-rule="evenodd" d="M192.211 64.702c11.323 9.255 23.308 14.685 29.444 13.34 1.26-.276 1.331-.39 2.178-3.553.482-1.797.812-3.285.734-3.305-.078-.021-.856.116-1.728.305-2.185.473-8.205-1.27-12.855-3.722-14.637-7.717-30.094-23.81-30.604-31.86-.122-1.942.485-1.71.651.248.16 1.873 3.25 6.94 6.537 10.718 10.918 12.553 30.285 25.181 36.714 23.94 1.302-.252 1.441-.433 2.236-2.892.956-2.964 2.193-10.22 2.602-15.262.883-10.89-.255-19.68-3.18-24.566-1.051-1.755-1.501-2.116-3.601-2.888-7.818-2.874-24.676.474-40.735 8.09-6.685 3.171-7.205 3.508-7.314 4.738-.548 6.228 7.097 17.004 18.921 26.669z" fill="#fff"/></svg><svg fill="none" viewBox="0 0 183 252" id="rocket-sm" xmlns="http://www.w3.org/2000/svg"><path fill-rule="evenodd" clip-rule="evenodd" d="M164.88 75.046c-.515.298-1.362-.16-1.517-.821-.188-.807.858-1.584 1.504-1.115.219.16.456.305.526.324.21.057-.234 1.45-.513 1.612zm-9.804-4.442c-1.149.664-2.236-.642-1.275-1.53.626-.58 1.089-.52 1.498.188.432.75.393.986-.223 1.342zm-8.668-5.88c-1.218.56-2.049-1.13-.886-1.8.494-.286.743-.262 1.082.104.589.637.504 1.373-.196 1.696zm-7.562-7.273c-.79.364-1.6-.146-1.504-.945.116-.968 1.345-1.242 1.828-.407.435.756.369 1.034-.324 1.352zm-5.964-8.854c-.203.187-.685.205-1.072.04-.526-.223-.651-.49-.497-1.063.153-.574.395-.742.963-.673.648.08 1.156.68 1.016 1.203-.023.084-.207.306-.41.493z" fill="#fff"/><path fill-rule="evenodd" clip-rule="evenodd" d="M155.961 105.676c5.342-7.215 10.187-16.401 14.173-26.871 3.209-8.428 6.311-21.689 6.722-28.731.576-9.889-1.306-17.782-4.718-19.79-1.536-.905-5.565-1.525-8.782-1.351-9.696.521-24.422 6.144-36.787 14.047-4.755 3.04-10.922 7.505-14.681 10.631-13.179 10.959-30.097 34.257-49.195 67.747a986.295 986.295 0 01-3.673 6.411c-.101.161-3.706.846-8.009 1.522-10.64 1.671-11.139 1.737-10.813 1.43.507-.477.462-2.371-.08-3.399-.777-1.473-2.017-1.694-3.596-.639-.286.191-.513.331-.726.49-1.104.821-1.843 2.132-8.612 13.536a6570.803 6570.803 0 01-6.949 11.68c-2.71 4.539-3.002 5.397-2.113 6.231.524.491 3.017.37 4.857-.237 1.04-.343 2.678-1.761 3.274-2.835.339-.611 1.799-.967 10.108-2.461 5.341-.961 9.754-1.673 9.806-1.583.051.09-1.166 2.619-2.706 5.621-1.54 3.002-2.904 5.859-3.032 6.35-.435 1.674.234 3.895 2.141 7.107l1.866 3.142.418.584c.361.097-1.931 2.933-2.507 3.101l-1.595 2.768c-3.857 4.789-3.996 6.676-.41 5.561 1.97-.613 3.311-1.489 4.64-3.031.631-.733 1.931-1.851 2.888-2.484l1.74-1.153 2.87 2.142c1.579 1.177 3.023 2.182 3.21 2.232l1.392.862c.202.147.883.497 1.512.779l1.146.512.825.593 3.023.81c4.517 1.211 4.985 1.044 11.4-4.06l5.183-4.123.066 2.249c.037 1.237.129 5.7.205 9.918l.137 7.669-1.05 1.332c-1.255 1.591-1.808 3.448-1.665 5.595.199 2.987 1.665 3.545 3.883 1.478.633-.589 3.532-3.238 6.442-5.886 16.207-14.745 17.333-15.732 17.92-16.973.075-.159.141-.321.229-.517 1.103-2.469-1.28-4.473-3.875-3.257-.847.396-1.163.42-1.189.091-.02-.246-.135-2.615-.255-5.263-.121-2.648-.312-6.704-.424-9.013l-.204-4.198 7.088-6.258c9.483-8.371 21.559-19.737 26.958-25.37.757-.79 2.402-2.501 3.658-3.802 5.941-6.16 13.39-14.89 17.866-20.936zm13.335-28.08c-1.181 3.064-3.685 9.034-4.024 9.591-.223.368-.694.28-3.185-.593-1.608-.563-3.965-1.542-5.237-2.176-1.273-.633-2.493-1.224-2.71-1.314-.217-.09-.703.272-1.081.802-.377.53-2.297 3.263-4.268 6.072-5.129 7.315-10.638 14.596-13.968 18.46-1.584 1.838-2.825 3.438-2.757 3.555.264.458 5.546 3.22 8.828 4.617l3.455 1.471-.97 1.084c-5.977 6.679-16.523 17.235-17.56 17.577-2.558.843-8.685-.313-13.456-2.538-10.203-4.759-20.662-13.135-27.84-22.295l-1.742-2.224 3.265-4.948c13.869-21.016 32.561-41.011 50.304-53.811 2.13-1.537.431-.736-2.177 1.025-3.46 2.338-9.891 7.391-13.817 10.856C106.439 75.091 94.108 90 84.688 105.931c-1.059 1.791-1.96 3.28-2.002 3.308-.187.127-2.527-4.102-3.215-5.811-.418-1.037-.817-2.808-.886-3.933l-.126-2.048 3.767-5.67c9.309-14.008 18.449-25.749 25.57-32.84 5.215-5.195 13.878-11.658 22.035-16.442l4.136-2.425.11 1.665c.336 5.106 5.201 12.245 12.724 18.672 6.282 5.367 11.216 8.196 17.13 9.82 3.686 1.013 4.1 1.065 5.789.727l1.819-.365-.664 2.314a67.326 67.326 0 01-1.579 4.693zm-5.22 12.214c-.301.55-1.213 2.299-2.028 3.885-2.718 5.29-7.802 12.65-12.906 18.682-1.306 1.544-2.85 3.372-3.431 4.062-1.043 1.238-1.07 1.247-2.235.759-3.527-1.477-10.352-5.343-10.041-5.687 6.925-7.683 11.71-13.885 17.293-22.416l3.247-4.961 1.031.434c.567.239 3.016 1.15 5.441 2.024 2.69.97 4.364 1.713 4.293 1.903-.065.172-.364.764-.664 1.315zm-45.329 54.112c-12.158 11.295-27.477 24.486-40.135 34.558-4.38 3.485-5.153 3.676-9.738 2.396-3.714-1.036-6.898-2.677-11.043-5.69l-.776-.564 2.195-1.466c2.175-1.452 2.265-1.566 9.45-11.919 3.989-5.748 7.288-10.582 7.33-10.74.233-.871-1.353-.153-6.847 3.098-4.799 2.839-6.057 3.458-5.909 2.906.194-.723-.461-2.31-1.015-2.458-.703-.188-1.65.276-2.91 1.424-1.038.947-5.304 6.498-9.103 11.846-.297.418-.575.169-1.93-1.732-1.86-2.612-2.92-5.026-3.14-7.159-.152-1.483-.105-1.645 1.364-4.614 5.29-10.695 17.266-32.343 24.655-44.571.789-1.304 1.495-2.407 1.569-2.45.075-.043.405.769.736 1.805 1.305 4.091 6.685 12.098 9.904 14.739.412.338.65.746.529.907-.122.161-3.212 4.288-6.867 9.172-6.02 8.044-8.163 10.93-9.814 13.22l-.56.776-1.492-1.46c-3.357-3.28-6.353-7.575-7.336-10.517-.257-.769-.555-1.349-.662-1.287-.634.366 2.19 6.185 4.393 9.049 1.46 1.899 5.007 5.619 5.22 5.475.459-.312 2.186-2.55 9.896-12.826 4.741-6.319 8.66-11.642 8.71-11.828.05-.186-.596-.937-1.437-1.668-3.954-3.437-8.949-10.518-10.38-14.715l-.526-1.542 2.215-3.582c2.166-3.5 3.025-4.598 2.725-3.477-.331 1.237 1.018 5.574 2.704 8.689 5.333 9.857 17.187 20.613 29.152 26.453 5.142 2.51 11.091 3.901 14.443 3.378.81-.127 1.46-.205 1.445-.174-.015.031-3.172 2.977-7.015 6.548zm-14.113 40.305c-.313.441-3.018 3.037-6.011 5.77a18024.446 18024.446 0 01-15.45 14.096c-1.836 1.672-3.499 2.998-3.695 2.946-.919-.247-.26-4.858.873-6.101.53-.581 11.457-10.083 20.816-18.101 1.797-1.539 1.959-1.607 3.111-1.298 1.077.288 1.199.414 1.07 1.106-.081.43-.402 1.142-.714 1.582zm-8.802 1.609a2397.185 2397.185 0 00-9.062 7.79l-4.968 4.295-.178-9.282c-.098-5.105-.169-9.649-.156-10.098.018-.67.857-1.499 4.7-4.645a952.616 952.616 0 008.742-7.254c2.235-1.884 4.13-3.295 4.212-3.135.082.159.178 1.035.213 1.947.036.911.221 4.966.413 9.01.192 4.044.31 7.47.263 7.614-.047.144-1.928 1.835-4.18 3.758zm-24.621-1.468c-1.631 1.242-2.79 1.88-3.513 1.934-3.516.259-8.18-1.624-13.756-5.554l-.575-.403c-1.405-.985-2.06-1.444-2.038-1.867.02-.369.556-.71 1.56-1.348l.47-.3 2.434-1.566 2.356 1.596c4.972 3.366 10.636 5.52 14.057 5.345.869-.044 1.548.007 1.509.115-.038.107-1.165 1.029-2.504 2.048zm-.542-28.071a745.693 745.693 0 01-3.386 4.832c-.54.758-2.31 3.287-3.934 5.62l-2.952 4.243-4.245 2.648a1514.87 1514.87 0 00-6.288 3.941l-2.043 1.294 6.83-9.65 6.831-9.65 3.622-2.146a515.136 515.136 0 005.848-3.517c1.225-.754 2.204-1.304 2.175-1.221-.03.082-1.135 1.705-2.458 3.606zm-13.096 6.659a4705.838 4705.838 0 00-8.646 12.209c-2.438 3.458-4.904 6.775-5.48 7.373-.944.979-4.143 2.635-4.36 2.257-.05-.084 1.674-2.543 3.83-5.465 2.154-2.921 4.916-6.667 6.135-8.325l1.14-1.549c8.76-11.904 9.454-12.847 10.368-13.464l.113-.074.134-.085.131-.084c.92-.588 1.327-.347 1.043.617-.107.367-2.091 3.332-4.408 6.59zm-10.098 8.191c-1.41 1.914-1.605 2.07-2.066 1.638-.973-.912-3.349-5.302-3.657-6.757-.37-1.751-.204-2.412 1.415-5.62l1.24-2.456.38 2.07c.27 1.468.959 3.053 2.368 5.454 1.094 1.86 1.963 3.422 1.932 3.469-.03.048-.756 1.039-1.612 2.202zm8.212-37.233c-2.453 4.408-7.091 13.09-7.85 14.695-.281.595-.701 1.158-.933 1.253-.232.094-3.365.696-6.963 1.338a824.536 824.536 0 00-9.483 1.739c-1.617.315-2.954.55-2.971.522-.11-.179 11.575-20.755 11.883-20.925.426-.235 18.017-3.087 18.404-2.983l.043.01c.041.009.076.017.097.039.111.113-.162.604-1.884 3.696l-.343.616zm-23.044 7.765c-8.014 14.34-8.054 14.403-9.362 15.118-1.262.69-4.238 1.177-4.377.715-.053-.178 1.673-3.288 3.837-6.91 2.163-3.622 5.919-9.929 8.345-14.015 2.426-4.086 4.654-7.696 4.951-8.022.872-.957 1.722-1.423 2.308-1.266.614.164 1.214 1.519.985 2.223-.083.253-3.092 5.724-6.688 12.157zm116.046-81.255c8.455 6.911 17.406 10.966 21.988 9.963.941-.207.994-.292 1.627-2.654.359-1.342.606-2.453.548-2.469l.71-2.436c.714-2.213 1.638-7.632 1.944-11.398.659-8.133-.191-14.697-2.376-18.346-.785-1.31-1.121-1.58-2.689-2.156-5.839-2.146-18.428.354-30.42 6.042-4.993 2.368-5.381 2.62-5.462 3.538-.41 4.65 5.3 12.698 14.13 19.916z" fill="#fff"/><path fill-rule="evenodd" clip-rule="evenodd" d="M58.001 190.787c-3.515 8.958-10.434 16.076-23.598 24.279a813.823 813.823 0 00-8.752 5.527c-4.992 3.227-14.884 11.191-21.532 17.334-2.007 1.856-3.475 3.126-3.261 2.823 1.68-2.381 7.016-10.373 7.988-11.964 7.283-11.928 9.704-16.859 13.663-27.828 4.809-13.326 8.83-19.514 15.563-23.941 1.427-.939 6.23-2.857 6.782-2.709.362.097-1.931 2.933-2.507 3.101-1.802.524-4.266 2.172-5.681 3.8-1.63 1.877-3.953 6.394-7.565 14.713-2.22 5.114-3.652 7.953-5.175 10.263-.686 1.039-1.147 1.874-1.026 1.857.863-.127 4.92-3.294 6.876-5.369 1.876-1.99 1.832-1.648-.245 1.916-2.513 4.312-4.735 7.28-10.21 13.636-1.671 1.942-3.067 3.634-3.1 3.761-.033.128.482-.248 1.145-.834 2.218-1.958 8.06-5.911 14.503-9.814 10.389-6.292 13.706-8.773 17.757-13.283 3.212-3.575 5.034-6.75 6.16-10.734.736-2.601 1.005-3.226 1.296-3.015.202.147.883.497 1.512.779l1.146.512-.462 1.556c-.253.856-.828 2.492-1.277 3.634zm-3.938-1.163c-2.236 4.89-6.028 9.366-11.505 13.583-2.98 2.294-5.316 3.859-11.374 7.619-5.195 3.225-7.704 4.87-9.425 6.182-.69.525-.003-.404 1.835-2.484 3.662-4.143 6.691-8.798 8.358-12.84.703-1.706 1.663-3.699 2.134-4.43 1.332-2.068.634-1.672-1.57.891-2.22 2.582-6.536 6.959-6.657 6.75-.042-.074.257-.629.664-1.234.408-.606 1.514-2.813 2.457-4.905 7.03-15.587 8.262-17.649 11.898-19.918 1.442-.9 1.411-.57-.126 1.338-3.857 4.79-3.996 6.677-.41 5.562 1.97-.613 3.311-1.489 4.64-3.031.631-.733 1.931-1.851 2.888-2.485l1.74-1.152 2.87 2.142c1.579 1.177 3.023 2.182 3.21 2.232.393.105-.636 4.014-1.627 6.18zM162.048 93.695a265.52 265.52 0 012.028-3.885c.3-.551.599-1.143.664-1.315.072-.19-1.603-.933-4.292-1.903-2.426-.874-4.874-1.786-5.441-2.024l-1.032-.434-3.246 4.96c-5.584 8.532-10.369 14.734-17.294 22.417-.311.344 6.514 4.21 10.041 5.687 1.165.488 1.193.479 2.235-.759.581-.69 2.125-2.518 3.432-4.062 5.103-6.033 10.188-13.393 12.905-18.682z" fill="#fff"/><path d="M71.195 109.237c.789-1.304 1.494-2.407 1.569-2.45.074-.043.405.769.736 1.805 1.305 4.092 6.685 12.098 9.904 14.739.412.338.65.746.529.907-.122.161-3.212 4.288-6.867 9.172-6.02 8.044-8.163 10.93-9.814 13.22l-.56.776-1.493-1.459c-3.356-3.281-6.352-7.576-7.335-10.518-.258-.769-.555-1.349-.662-1.287l-.123-.228c4.865-8.84 10.15-18.115 14.116-24.677z" fill="#fff"/><path fill-rule="evenodd" clip-rule="evenodd" d="M148.689 60.424c8.456 6.911 17.406 10.966 21.989 9.963.941-.207.993-.292 1.626-2.654.36-1.342.606-2.453.548-2.469-.058-.015-.639.088-1.29.229-1.632.353-6.127-.949-9.6-2.78-10.931-5.763-22.474-17.78-22.855-23.793-.091-1.45.362-1.277.486.185.12 1.399 2.427 5.183 4.882 8.005 8.154 9.374 22.617 18.805 27.417 17.877.973-.187 1.077-.322 1.67-2.16.715-2.212 1.639-7.63 1.944-11.396.659-8.134-.191-14.698-2.375-18.347-.785-1.31-1.121-1.58-2.689-2.156-5.839-2.146-18.428.354-30.421 6.042-4.992 2.368-5.38 2.62-5.462 3.538-.409 4.65 5.3 12.698 14.13 19.916z" fill="#fff"/></svg></svg>