<svg width="398" height="249" viewBox="0 0 398 249" fill="none" xmlns="http://www.w3.org/2000/svg">
<path fill-rule="evenodd" clip-rule="evenodd" d="M209.415 217.336C212.744 218.24 215.479 220.713 215.479 222.819C215.479 223.292 215.536 223.678 215.606 223.678C215.675 223.678 216.239 223.475 216.858 223.227C218.569 222.54 222.06 222.627 223.848 223.4C226.344 224.48 227.83 226.73 227.518 228.957L227.366 230.042L228.694 229.398C231.547 228.016 235.536 228.772 237.622 231.092L238.654 232.239L240.673 231.831C246.495 230.652 253.413 231.939 255.317 234.556C255.958 235.438 256.125 237.33 255.615 237.931C255.378 238.211 255.766 238.274 257.746 238.277C259.885 238.28 260.321 238.363 261.486 238.987C263.982 240.326 264.738 242.524 263.216 244.014C260.832 246.348 253.283 247.866 245.403 247.597C240.109 247.416 237.807 247.026 232.443 245.404C231.736 245.19 231.462 245.25 230.635 245.8C229.225 246.738 225.93 247.85 223.087 248.348C221.343 248.653 218.959 248.789 214.952 248.812C208.653 248.848 207.313 248.637 205.953 247.394L205.153 246.662L204.131 247.173C202.725 247.875 199.859 247.879 198.69 247.181L197.851 246.68L196.053 247.572C191.321 249.921 185.368 249.332 181.197 246.104L179.902 245.102L177.06 245.52C173.841 245.992 170.261 245.885 168.154 245.254C165.117 244.344 162.486 241.967 162.061 239.749C161.498 236.81 164.917 233.745 169.627 232.967C170.627 232.802 172.752 232.706 174.351 232.754C176.781 232.827 177.278 232.777 177.385 232.447C177.619 231.721 179.883 229.69 181.209 229.017C183.846 227.677 187.206 227.488 190.169 228.512L191.619 229.013L191.623 227.443C191.629 225.294 192.228 224.2 194.711 221.807C196.372 220.205 197.27 219.579 199.212 218.667C200.546 218.04 202.266 217.401 203.035 217.247C204.846 216.885 207.91 216.927 209.415 217.336ZM209.02 218.23C212.276 219.09 214.329 221.124 214.502 223.662C214.541 224.224 214.65 224.76 214.746 224.853C214.841 224.947 215.608 224.691 216.451 224.286C217.784 223.645 218.276 223.551 220.225 223.564C222.002 223.576 222.724 223.702 223.715 224.172C227.023 225.742 227.964 229.135 225.846 231.853C225.202 232.678 225.099 232.922 225.475 232.724C225.762 232.574 226.21 232.098 226.471 231.667C227.056 230.697 229.153 229.656 230.941 229.449C232.962 229.214 235.117 229.923 236.433 231.253C237.016 231.844 237.617 232.547 237.768 232.815C238.034 233.287 238.098 233.288 239.746 232.858C240.682 232.614 242.813 232.354 244.481 232.28C250.573 232.011 255.026 233.791 255.026 236.495C255.026 237.532 253.844 238.907 252.953 238.907C252.66 238.907 252.347 239.024 252.257 239.167C251.936 239.675 252.912 239.718 254.908 239.283C257.4 238.74 260.133 238.872 261.398 239.595C262.396 240.166 263.463 241.578 263.463 242.327C263.463 243.112 261.897 244.449 260.293 245.036C259.491 245.328 257.534 245.841 255.942 246.174C253.361 246.715 252.382 246.779 246.853 246.77C240.226 246.759 237.684 246.431 233.451 245.038L231.686 244.457L230.372 245.163C226.386 247.305 222.508 248.018 214.688 248.048C209.113 248.069 208.682 248.036 207.521 247.506C206.841 247.195 206.084 246.64 205.837 246.272C205.419 245.647 205.357 245.63 204.915 246.022C203.675 247.121 201.166 247.443 199.361 246.736L198.261 246.305L198.895 245.76C200.12 244.705 200.305 244.223 199.133 245.139C198.48 245.649 197.782 246.008 197.58 245.937C197.377 245.866 197.287 245.926 197.379 246.071C197.557 246.353 195.693 247.217 193.992 247.639C189.755 248.69 185.117 247.823 181.794 245.36L180.407 244.331L178.631 244.582C175.893 244.97 171.258 244.901 169.462 244.446C163.751 243 161.536 239.021 164.769 236.018C166.72 234.206 170.442 233.386 175.423 233.672L177.946 233.817L178.29 233.005C179.555 230.014 184.641 227.813 188.499 228.588C190.646 229.019 191.765 229.517 192.602 230.413C193.235 231.092 193.267 231.201 192.866 231.327C190.577 232.046 189.438 232.782 188.634 234.062C188.007 235.061 187.676 236.581 187.92 237.336C188.203 238.207 188.523 237.955 188.539 236.851C188.559 235.415 189.288 234.07 190.517 233.198C191.871 232.238 193.291 231.874 195.264 231.981L196.847 232.067L197.133 230.93C197.338 230.117 197.7 229.572 198.405 229.016C199.744 227.96 201.933 227.91 203.639 228.896L204.776 229.553L205.486 229.039C206.389 228.385 208.366 228.157 209.42 228.584C210.998 229.224 211.747 231.082 210.988 232.471C210.647 233.094 210.949 233.127 211.421 232.519C211.614 232.271 211.775 231.589 211.78 231.005C211.789 229.802 211.129 228.796 209.932 228.19C208.943 227.69 206.155 227.689 205.374 228.19C204.837 228.534 204.669 228.518 203.64 228.019C202.135 227.291 199.885 227.295 198.413 228.031C197.342 228.566 196.233 229.946 196.233 230.743C196.233 231.05 195.989 231.164 195.333 231.164C193.593 231.164 192.229 228.613 192.82 226.464C193.596 223.642 197.337 220.281 201.374 218.779C203.081 218.144 207.494 217.827 209.02 218.23Z" fill="white"/>
<path fill-rule="evenodd" clip-rule="evenodd" d="M44.0331 134.078C44.324 134.147 45.2165 134.339 46.0165 134.506C47.7929 134.876 50.2389 136.105 51.8347 137.43C53.4162 138.743 53.8843 139.304 54.4809 140.601L54.9818 141.69L56.6836 141.6C57.8713 141.537 58.633 141.641 59.2048 141.946C60.1087 142.428 60.8265 143.621 60.8265 144.642C60.8265 145.163 60.9999 145.338 61.6444 145.471C62.8594 145.722 64 147.109 64 148.337C64 150.21 63.0117 151.018 59.7369 151.824C57.6505 152.337 50.6544 152.517 48.4705 152.114C47.547 151.943 47.3796 151.976 47.5026 152.306C47.7779 153.045 46.4114 154.033 44.1288 154.744C38.3852 156.532 32.37 156.409 27.0099 154.393C24.9827 153.631 24.8629 153.617 23.3661 153.98C21.4675 154.44 19.4147 154.466 17.77 154.05C16.3105 153.681 15.0744 152.865 15.0744 152.27C15.0744 151.941 14.8869 151.887 14.2149 152.024C11.9138 152.49 7.69506 152.517 5.78009 152.077C1.88217 151.181 3.8147e-06 149.797 3.8147e-06 147.827C3.8147e-06 145.836 2.26594 143.636 5.23242 142.748C6.67163 142.317 10.1591 142.333 11.5197 142.777C11.9355 142.913 12.1362 142.792 12.3679 142.268C12.7741 141.349 14.0983 140.683 15.3354 140.775C15.89 140.816 16.5046 140.717 16.7008 140.555C18.7597 138.851 22.1356 138.491 24.4866 139.724C25.2271 140.113 26.1921 140.852 26.6311 141.368C27.1886 142.022 27.7123 142.339 28.3663 142.417C29.2292 142.521 29.3366 142.452 29.7264 141.541C30.1689 140.508 31.0453 139.921 32.1447 139.921C32.6212 139.921 32.7934 139.773 32.7934 139.365C32.7934 137.515 34.684 135.741 37.774 134.69C39.209 134.203 42.9929 133.833 44.0331 134.078ZM45.6669 135.286C48.3761 136.018 50.2932 137.029 51.9794 138.617C53.6447 140.186 54.2149 141.148 54.2149 142.389C54.2149 143.199 54.1715 143.237 53.4876 143.034C53.0875 142.916 52.435 142.81 52.0378 142.8C51.5158 142.787 51.2352 142.583 51.0268 142.065C50.6555 141.141 49.5262 140.035 48.5778 139.666C47.0183 139.058 44.7291 139.551 43.8469 140.683C43.6134 140.983 43.8088 140.932 44.461 140.522C45.7074 139.739 47.616 139.716 48.8003 140.47C49.5593 140.953 50.2006 141.937 50.5621 143.171C50.6404 143.438 51.0985 143.567 52.0238 143.58C53.1462 143.597 53.486 143.728 54.0575 144.363C54.8123 145.203 54.9049 145.641 54.431 146.129C53.9896 146.584 54.381 146.884 54.8697 146.466C55.369 146.039 55.3788 144.857 54.889 144.191C54.6068 143.807 54.5862 143.501 54.8007 142.868L55.0794 142.044L56.9269 142.151C58.5724 142.247 58.8464 142.345 59.4322 143.046C59.9556 143.673 60.0629 144.04 59.9585 144.843C59.8281 145.845 59.8352 145.853 60.896 146C62.963 146.286 64.0304 148.458 62.7512 149.777C61.252 151.321 52.0214 152.177 46.8385 151.251C44.4882 150.832 43.2783 150.81 44.8801 151.216C45.8068 151.45 46.8099 152.107 46.8099 152.478C46.8099 152.876 44.8286 153.73 42.401 154.378C39.744 155.087 34.9242 155.346 31.9683 154.939C29.271 154.568 25.3972 153.457 25.1057 152.971C24.9418 152.697 24.668 152.707 23.7556 153.019C22.1144 153.58 17.5857 153.516 16.4795 152.917C15.4047 152.334 15.1532 151.907 15.6599 151.526C15.9915 151.276 16.0008 151.164 15.7128 150.887C15.4341 150.619 15.3151 150.641 15.122 150.996C14.62 151.92 9.52568 152.198 6.17255 151.485C1.22895 150.432 -0.480782 148.63 1.129 146.169C2.85039 143.537 8.51094 142.108 11.5541 143.536C12.123 143.803 12.2782 143.796 12.3756 143.495C12.4417 143.291 12.828 142.74 13.2345 142.271C13.8663 141.543 14.158 141.418 15.251 141.412C16.1843 141.407 16.8841 141.188 17.8462 140.6C20.3811 139.051 24.1172 139.478 26.0298 141.534L26.7332 142.291L25.9285 143.179C25.486 143.667 25.124 144.178 25.124 144.314C25.124 144.451 24.5329 144.254 23.8104 143.877C20.9256 142.37 17.9835 143.606 17.9835 146.324C17.9835 147.224 19.1574 148.37 20.0717 148.362C20.6672 148.357 20.6083 148.285 19.6364 147.831C18.5891 147.341 18.5124 147.231 18.5124 146.226C18.5124 145.346 18.669 145.011 19.36 144.412C20.5072 143.417 22.1511 143.56 24.0555 144.819C24.7997 145.311 25.4337 145.667 25.4646 145.61C25.4956 145.553 25.7587 145.017 26.0496 144.417C26.5386 143.409 26.67 143.321 27.7919 143.246C28.6397 143.189 29.1073 143.292 29.3448 143.586C29.9642 144.356 30.455 144.107 30.2746 143.115C29.9002 141.059 32.124 139.967 33.673 141.447C34.6132 142.345 34.9215 142.075 34.163 141.018C32.4766 138.668 34.6621 136.143 39.2727 135.116C41.4585 134.629 43.428 134.681 45.6669 135.286Z" fill="white"/>
<path fill-rule="evenodd" clip-rule="evenodd" d="M361.641 82.4288C363.663 83.0824 366.594 85.0343 368.191 86.7908C370.639 89.4819 371.99 92.8173 371.433 94.7949L371.166 95.742L371.775 95.3509C372.11 95.1354 373.078 94.7622 373.925 94.5208C377.59 93.4766 381.661 95.1362 383.716 98.5126L384.511 99.8182L386.646 99.6718C393.256 99.2196 398 102.224 398 106.864C398 108.877 397.427 110.1 395.724 111.717C393.156 114.156 389.286 114.935 384.294 114.018L381.958 113.589L380.42 114.984C376.595 118.455 371.754 118.959 367.329 116.348C365.875 115.49 365.763 115.464 365.159 115.852C363.625 116.837 361.202 116.786 359.755 115.737L359.056 115.231L358.646 115.93C357.633 117.66 354.375 118.254 348.261 117.826C342.243 117.404 338.436 116.308 335.994 114.295L335.21 113.648L332.842 114.517C329.361 115.794 326.969 116.226 322.528 116.38C317.932 116.539 314.797 116.144 311.154 114.944C307.225 113.65 305.766 112.221 306.03 109.926C306.195 108.495 306.991 107.391 308.447 106.576C309.346 106.073 309.929 105.959 311.605 105.957C313.211 105.956 313.63 105.879 313.524 105.608C312.728 103.567 313.464 101.405 315.4 100.1C316.921 99.0735 318.228 98.6398 320.881 98.2792C322.693 98.0329 323.474 98.0542 325.542 98.4062C326.908 98.6385 328.209 98.9287 328.431 99.0509C328.738 99.2191 329.035 98.9832 329.656 98.0799C330.776 96.4483 332.277 95.4708 333.962 95.2751C335.712 95.0721 336.949 95.306 338.071 96.0519L338.966 96.6468L338.974 94.812C338.981 93.4514 339.131 92.6994 339.554 91.9018C340.306 90.4854 342 89.0933 343.458 88.6934C344.931 88.2892 347.412 88.4525 348.594 89.0316C349.09 89.2742 349.521 89.4731 349.552 89.4731C349.583 89.4731 349.671 89.0225 349.746 88.4717C350.059 86.1836 352.06 83.6807 354.395 82.6562C356.155 81.8837 359.619 81.775 361.641 82.4288ZM360.64 83.2563C363.772 84.0269 367.929 87.4231 369.491 90.488C370.169 91.8167 370.339 92.4718 370.339 93.7423C370.339 95.9138 369.502 97.5722 368.288 97.8066C367.468 97.9649 367.415 97.9257 367.155 96.9791C366.365 94.1042 362.653 92.7192 360.398 94.458C359.704 94.9924 359.672 94.994 358.873 94.5314C357.896 93.9661 356.192 93.9186 355.114 94.4263C353.268 95.2963 352.446 98.2683 353.674 99.6321C354.149 100.16 354.198 100.173 354.027 99.7258C353.599 98.6141 353.606 97.0616 354.043 96.2339C354.872 94.6622 357.235 94.27 358.766 95.4497C359.598 96.0911 359.809 96.0901 360.408 95.442C360.672 95.1557 361.32 94.8079 361.847 94.6685C363.97 94.1083 366.053 95.4939 366.298 97.6295L366.435 98.8173H368.131C371.751 98.8173 373.984 100.802 374.122 104.14C374.189 105.775 374.471 105.996 374.735 104.621C375.156 102.419 373.317 99.324 371.038 98.4004L369.906 97.9415L370.566 96.9537C371.772 95.1479 375.681 94.351 378.582 95.3194C380.235 95.8715 382.35 97.7627 383.143 99.3992L383.799 100.751L387.466 100.763C391.48 100.776 392.929 101.134 394.885 102.596C395.936 103.382 397.087 105.545 397.087 106.734C397.087 107.829 395.998 109.957 394.94 110.929C392.682 113.004 389.875 113.615 384.697 113.157L381.356 112.862L380.121 113.994C376.775 117.061 372.119 117.811 367.993 115.947C366.861 115.436 366.101 114.935 366.101 114.699C366.101 114.482 366.02 114.385 365.919 114.483C365.819 114.581 365.283 114.226 364.727 113.695C364.172 113.163 363.717 112.847 363.717 112.992C363.717 113.137 364.075 113.591 364.512 114.002C364.949 114.412 365.307 114.833 365.307 114.937C365.307 115.041 364.772 115.327 364.119 115.571C362.624 116.131 361.032 115.921 359.802 115.002C359.314 114.637 358.879 114.38 358.836 114.43C358.792 114.48 358.611 114.795 358.433 115.129C358.255 115.464 357.451 116.033 356.646 116.394C355.198 117.044 355.131 117.049 349.848 116.918C345.482 116.809 344.105 116.679 342.262 116.204C339.94 115.606 337.428 114.502 336.037 113.468L335.243 112.877L333.692 113.497C332.839 113.838 330.873 114.442 329.322 114.838C326.702 115.508 326.135 115.559 321.336 115.556C316.519 115.554 315.973 115.504 313.223 114.811C311.602 114.402 309.699 113.761 308.994 113.385C307.555 112.62 306.503 111.291 306.503 110.238C306.503 108.46 308.942 106.604 311.279 106.604C311.95 106.604 313.35 106.823 314.39 107.091C315.431 107.358 316.346 107.514 316.425 107.437C316.749 107.12 316.524 106.821 315.766 106.563C314.222 106.035 313.57 103.385 314.638 101.976C315.39 100.983 317.246 99.9363 319.074 99.475C321.856 98.7734 326.512 99.12 329.046 100.217C329.375 100.359 329.638 100.069 330.195 98.9528C330.773 97.7951 331.194 97.3464 332.286 96.7206C333.473 96.0405 333.864 95.9486 335.248 96.0231C337.366 96.1371 338.75 96.8602 339.746 98.3737C340.183 99.0377 340.697 99.6419 340.888 99.7164C341.085 99.793 340.996 99.5212 340.684 99.0922C339.953 98.0869 339.348 96.3644 339.348 95.2904C339.348 94.8141 339.587 93.7989 339.879 93.0348C340.727 90.8148 342.469 89.5486 345.035 89.289C346.603 89.1305 347.876 89.4635 349.287 90.4018C349.814 90.7522 350.356 90.9718 350.492 90.8898C350.627 90.8075 350.738 90.1594 350.738 89.4492C350.738 87.1425 352.251 84.9624 354.68 83.7687C356.013 83.1133 359.012 82.8555 360.64 83.2563Z" fill="white"/>
<path fill-rule="evenodd" clip-rule="evenodd" d="M112.29 0.619433C114.702 1.32987 116.696 2.32737 118.602 3.77723C120.258 5.03545 121.794 6.93266 122.004 7.97709L122.151 8.70835L124.171 8.55387C125.862 8.4247 126.341 8.48217 127.11 8.90685C128.354 9.59356 129.062 10.605 129.086 11.7322C129.104 12.5734 129.201 12.6947 130.034 12.9195C131.856 13.4114 132.932 14.6826 132.998 16.4221C133.092 18.9315 130.384 20.2174 123.615 20.8761C120.64 21.1658 115.053 20.8985 113.759 20.4048C113.46 20.2904 113.338 20.3982 113.338 20.7778C113.338 22.1233 112.89 22.4554 109.585 23.5578C106.129 24.7109 102.892 25.1284 98.6598 24.9668C94.3864 24.8039 91.89 24.3281 88.7251 23.0733C86.6266 22.2414 86.4482 22.2129 85.4762 22.554C83.9657 23.0841 80.8476 23.2861 78.9616 22.9758C76.7221 22.6075 75.4252 21.9564 75.0708 21.023C74.8329 20.3956 74.6675 20.2883 74.1189 20.4058C68.5775 21.5931 62.7503 20.9995 59.243 18.8903C56.1703 17.0427 56.2625 14.1348 59.4709 11.7003C61.8851 9.86876 66.2738 9.01888 69.6258 9.73406C71.038 10.0354 71.046 10.0335 71.6764 9.23188C72.5657 8.10178 73.6783 7.5996 75.1342 7.67104C76.1256 7.71981 76.623 7.57113 77.6456 6.92106C81.0814 4.73625 85.4566 5.20443 88.3313 8.06435C89.1025 8.83119 89.8551 9.33522 90.2788 9.36843C90.6589 9.39822 91.2355 9.50657 91.5604 9.60911C91.8855 9.71165 92.1344 9.69768 92.1135 9.578C91.9873 8.8565 92.2417 8.28209 93.0391 7.48888C93.7708 6.76105 94.1445 6.5926 95.0266 6.5926C96.0612 6.5926 96.1132 6.55412 96.1132 5.78859C96.1132 3.53972 98.6786 1.46984 102.828 0.370847C105.039 -0.214898 109.891 -0.0873096 112.29 0.619433ZM110.403 1.0797C116.092 2.19003 121.275 6.12048 121.368 9.39558C121.382 9.87483 121.328 10.3314 121.249 10.4102C121.17 10.4893 120.652 10.3657 120.099 10.1355C119.546 9.90567 118.837 9.78151 118.524 9.8598C118.058 9.97606 117.86 9.80207 117.435 8.90289C117.15 8.29843 116.464 7.4475 115.912 7.01227C114.073 5.56215 110.482 5.84078 109.081 7.54239C108.821 7.85794 109.085 7.7807 109.917 7.29803C112.83 5.60722 116.293 6.978 116.959 10.0855C117.107 10.774 117.191 10.8104 118.636 10.8104C119.928 10.8104 120.286 10.9229 121.021 11.5609C121.898 12.3227 122.23 13.7056 121.587 13.9189C121.153 14.0626 121.221 14.5009 121.677 14.5009C122.571 14.5009 122.905 12.6594 122.194 11.6495C121.869 11.1879 121.834 10.8824 122.039 10.2953C122.186 9.87826 122.235 9.46781 122.15 9.38293C121.977 9.21026 123.778 9.12037 125.396 9.22081C127.347 9.34233 128.869 11.1209 128.226 12.5262C127.884 13.2712 127.948 13.326 129.434 13.5704C131.061 13.8382 132.154 14.9351 132.154 16.3014C132.154 17.9801 131.186 18.6589 127.807 19.3498C124.712 19.9827 119.891 20.3526 117.181 20.1649C114.768 19.998 110.53 19.3712 109.718 19.0614C109.435 18.9533 109.341 18.9963 109.455 19.1808C109.554 19.3393 110.021 19.5491 110.492 19.6469C111.626 19.882 112.543 20.4783 112.543 20.98C112.543 21.5054 110.375 22.4499 107.508 23.173C102.869 24.3431 97.5672 24.4813 92.9408 23.5523C90.2897 23.0201 86.838 21.9198 86.838 21.6069C86.838 21.2736 85.6919 21.2823 85.3543 21.6182C84.8773 22.0927 81.2282 22.4006 79.2995 22.1288C76.6497 21.7555 76.2848 21.6293 75.692 20.8793L75.1543 20.1997L75.7625 19.8639C76.2681 19.5847 76.2898 19.5267 75.891 19.5188C75.6273 19.5138 75.4853 19.3909 75.5754 19.246C75.8656 18.7786 75.3099 18.9657 74.862 19.4861C74.0336 20.4485 68.0748 20.7064 64.4045 19.9385C57.8297 18.5627 55.9522 15.9076 59.3214 12.75C61.8925 10.3404 66.8684 9.43644 70.5157 10.7163C71.585 11.0917 71.983 10.9282 71.9939 10.1089C72.0005 9.59435 73.5508 8.46873 74.4953 8.29237C74.9858 8.2009 75.6109 8.24518 75.8844 8.3907C76.2755 8.59895 76.5999 8.49377 77.4034 7.89774C78.9815 6.72731 80.7602 6.24358 82.9634 6.38593C85.0183 6.51853 86.0878 6.95138 87.8318 8.35643C89.09 9.37028 89.1979 9.6447 88.4334 9.88617C88.145 9.97711 87.6262 10.5231 87.2809 11.099C86.7442 11.9943 86.6051 12.0892 86.3239 11.752C85.8671 11.2047 83.2862 10.2805 82.2566 10.2958C80.4173 10.3232 78.3579 12.0907 78.3579 13.6426C78.3579 15.131 80.0993 16.6934 81.2019 16.1944C81.5822 16.0222 81.521 15.9629 80.8755 15.8796C78.9158 15.6263 78.2588 13.6279 79.6323 12.0987C80.9836 10.5945 83.4921 10.774 86.0936 12.5613C87.1396 13.2796 87.633 13.214 87.633 12.3562C87.633 12.0636 87.9815 11.4776 88.4076 11.0537C89.3654 10.101 90.7519 10.0161 91.9136 10.8391C92.8698 11.5163 93.0664 11.3613 92.9684 10.0082C92.905 9.13804 93.0296 8.82856 93.7186 8.14343C94.4126 7.45277 94.6784 7.34838 95.3855 7.48915C95.8479 7.58115 96.5356 7.95099 96.9132 8.31082C97.2908 8.67065 97.6825 8.96511 97.784 8.96511C98.1425 8.96511 97.9613 8.23648 97.4382 7.57508C96.5433 6.4434 96.8157 4.86305 98.1319 3.55395C100.255 1.44164 106.159 0.251432 110.403 1.0797Z" fill="white"/>
</svg>
