<svg width="30" height="30" viewBox="0 0 30 30" fill="none" xmlns="http://www.w3.org/2000/svg">
<g clip-path="url(#clip0_1271_6088)">
<path d="M0.125034 14.8648C0.124305 17.4845 0.81187 20.0423 2.11926 22.2969L0 30L7.91865 27.933C10.1089 29.12 12.5628 29.7419 15.0565 29.7421H15.0631C23.2953 29.7421 29.9965 23.0733 30 14.8766C30.0016 10.9046 28.4492 7.16969 25.6288 4.35972C22.8089 1.55 19.0584 0.00181273 15.0625 0C6.82928 0 0.128554 6.66841 0.125155 14.8648" fill="url(#paint0_linear_1271_6088)"/>
<path d="M11.0678 8.65037C10.7729 8.03196 10.4625 8.01949 10.182 8.00864C9.95238 7.99931 9.68985 8.00001 9.42756 8.00001C9.16503 8.00001 8.73848 8.09319 8.37793 8.4646C8.01701 8.83637 7 9.73477 7 11.562C7 13.3892 8.41068 15.1553 8.60733 15.4033C8.80423 15.6509 11.3307 19.5206 15.332 21.0093C18.6574 22.2465 19.3341 22.0004 20.0558 21.9384C20.7777 21.8766 22.385 21.0402 22.7129 20.1729C23.0411 19.3058 23.0411 18.5625 22.9427 18.4072C22.8443 18.2524 22.5818 18.1595 22.1881 17.9738C21.7944 17.7882 19.8589 16.8895 19.4981 16.7656C19.1372 16.6417 18.8748 16.5799 18.6123 16.9518C18.3497 17.3231 17.5959 18.1595 17.3661 18.4072C17.1366 18.6554 16.9068 18.6863 16.5132 18.5006C16.1193 18.3142 14.8515 17.9225 13.3474 16.6574C12.1771 15.6729 11.387 14.4572 11.1574 14.0853C10.9277 13.714 11.1328 13.5127 11.3302 13.3277C11.5071 13.1613 11.724 12.894 11.921 12.6772C12.1173 12.4603 12.1828 12.3055 12.3141 12.0578C12.4455 11.8099 12.3797 11.593 12.2814 11.4073C12.1828 11.2215 11.4178 9.38469 11.0678 8.65037Z" fill="white"/>
</g>
<defs>
<linearGradient id="paint0_linear_1271_6088" x1="1500" y1="3000" x2="1500" y2="0" gradientUnits="userSpaceOnUse">
<stop stop-color="#1FAF38"/>
<stop offset="1" stop-color="#60D669"/>
</linearGradient>
<clipPath id="clip0_1271_6088">
<rect width="30" height="30" fill="white"/>
</clipPath>
</defs>
</svg>
