<svg width="83" height="66" viewBox="0 0 83 66" fill="none" xmlns="http://www.w3.org/2000/svg">
<mask id="path-1-outside-1_989_2143" maskUnits="userSpaceOnUse" x="-1" y="-1" width="85" height="68" fill="black">
<rect fill="white" x="-1" y="-1" width="85" height="68"/>
<path d="M9.2 65.45L13.75 34.65H0.450001V-1.66893e-05H34.75V34.65L23.2 65.45H9.2ZM57.15 65.45L61.7 34.65H48.4V-1.66893e-05H82.7V34.65L71.15 65.45H57.15Z"/>
</mask>
<path d="M9.2 65.45L8.21074 65.3039L8.04142 66.45H9.2V65.45ZM13.75 34.65L14.7393 34.7961L14.9086 33.65H13.75V34.65ZM0.450001 34.65H-0.549999V35.65H0.450001V34.65ZM0.450001 -1.66893e-05V-1.00002H-0.549999V-1.66893e-05H0.450001ZM34.75 -1.66893e-05H35.75V-1.00002H34.75V-1.66893e-05ZM34.75 34.65L35.6863 35.0011L35.75 34.8313V34.65H34.75ZM23.2 65.45V66.45H23.893L24.1363 65.8011L23.2 65.45ZM57.15 65.45L56.1607 65.3039L55.9914 66.45H57.15V65.45ZM61.7 34.65L62.6893 34.7961L62.8586 33.65H61.7V34.65ZM48.4 34.65H47.4V35.65H48.4V34.65ZM48.4 -1.66893e-05V-1.00002H47.4V-1.66893e-05H48.4ZM82.7 -1.66893e-05H83.7V-1.00002H82.7V-1.66893e-05ZM82.7 34.65L83.6363 35.0011L83.7 34.8313V34.65H82.7ZM71.15 65.45V66.45H71.843L72.0863 65.8011L71.15 65.45ZM10.1893 65.5961L14.7393 34.7961L12.7607 34.5039L8.21074 65.3039L10.1893 65.5961ZM13.75 33.65H0.450001V35.65H13.75V33.65ZM1.45 34.65V-1.66893e-05H-0.549999V34.65H1.45ZM0.450001 0.999983H34.75V-1.00002H0.450001V0.999983ZM33.75 -1.66893e-05V34.65H35.75V-1.66893e-05H33.75ZM33.8137 34.2989L22.2637 65.0989L24.1363 65.8011L35.6863 35.0011L33.8137 34.2989ZM23.2 64.45H9.2V66.45H23.2V64.45ZM58.1393 65.5961L62.6893 34.7961L60.7107 34.5039L56.1607 65.3039L58.1393 65.5961ZM61.7 33.65H48.4V35.65H61.7V33.65ZM49.4 34.65V-1.66893e-05H47.4V34.65H49.4ZM48.4 0.999983H82.7V-1.00002H48.4V0.999983ZM81.7 -1.66893e-05V34.65H83.7V-1.66893e-05H81.7ZM81.7637 34.2989L70.2137 65.0989L72.0863 65.8011L83.6363 35.0011L81.7637 34.2989ZM71.15 64.45H57.15V66.45H71.15V64.45Z" fill="white" mask="url(#path-1-outside-1_989_2143)"/>
</svg>
