<svg width="32" height="52" viewBox="0 0 32 52" fill="none" xmlns="http://www.w3.org/2000/svg">
<g clip-path="url(#clip0_963_6059)">
<path d="M15.5528 1.4016L15.9998 1.16377L16.4446 1.4016L16.3588 0.895915L16.7201 0.535702L16.2211 0.461812L15.9998 0L15.7763 0.461812L15.2773 0.535702L15.6386 0.895915L15.5528 1.4016Z" fill="url(#paint0_linear_963_6059)"/>
<path d="M15.3535 9.4671H16.4124C16.4328 9.4671 16.5276 9.4671 16.6698 9.48326L16.3266 4.68042L15.6132 5.58557L15.3535 9.4671Z" fill="url(#paint1_linear_963_6059)"/>
<path d="M18.37 16.9693V15.316H17.6498V13.007L16.2951 11.7485L16.6405 10.7256H16.9905V10.1599C16.793 10.1289 16.594 10.1089 16.3944 10.0999H15.0081V10.7164H15.3536L15.699 11.7393L14.3443 12.9977V15.3068H13.6309V16.9601L11.373 19.9618V23.2361C14.7891 22.1 18.0291 20.6592 19.8444 18.9343L18.37 16.9693Z" fill="url(#paint2_linear_963_6059)"/>
<path d="M0 25.8777V26.0924C0.313836 26.0347 0.677344 25.9677 1.06569 25.8892L0 25.8777Z" fill="url(#paint3_linear_963_6059)"/>
<path d="M4.32924 24.2219H2.12109V25.6651C2.79844 25.5242 3.53674 25.3649 4.32924 25.1825V24.2219Z" fill="url(#paint4_linear_963_6059)"/>
<path d="M15.2082 29.1196C14.6754 29.0827 14.1485 29.0642 13.6277 29.0642C7.70549 29.0642 3.17857 31.4702 -0.0117188 34.1118V39.7344C4.61454 38.6537 10.8958 35.9337 15.2082 29.1196Z" fill="url(#paint5_linear_963_6059)"/>
<path d="M26.5376 25.5544H25.9258V26.1871C26.142 25.9891 26.3464 25.7778 26.5376 25.5544Z" fill="url(#paint6_linear_963_6059)"/>
<path d="M15.82 2.57218L15.6868 4.4887L16.2625 3.76134L16.179 2.57218L17.0889 1.49154L17.1318 0.879639L16.0164 2.0688H15.9848L14.8672 0.879639L14.9101 1.49154L15.82 2.57218Z" fill="url(#paint7_linear_963_6059)"/>
<path d="M15.7708 28.5331C18.3673 28.764 20.5845 28.6209 22.4111 28.0898H20.6251V19.9619L20.2097 19.4077C18.2454 21.255 14.8767 22.7443 11.3749 23.9058V28.0898H6.07352V25.5498H5.55197C3.25125 26.1063 1.26212 26.4965 0 26.7228V33.3036C3.6396 30.4127 8.87321 27.8958 15.7708 28.5331Z" fill="url(#paint8_linear_963_6059)"/>
<path d="M24.7669 35.026C25.0694 33.7422 25.9229 32.717 27.3047 31.955C26.0092 31.2541 24.5764 30.8596 23.1119 30.8005C19.1901 30.6804 16.4175 33.2504 16.2098 33.449L11.6738 39.2008H15.5279C15.6363 39.2008 17.8015 39.2585 19.4294 40.6347H26.2029C25.4826 39.5287 24.2521 37.215 24.7669 35.026Z" fill="url(#paint9_linear_963_6059)"/>
<path d="M29.8799 25.8775V24.2219H28.1595C28.0126 24.518 27.8498 24.8056 27.6718 25.0832V25.545H27.3421C26.9322 26.0905 26.4566 26.5808 25.9265 27.0043V28.0804H24.1993C22.0679 29.094 19.2953 29.4658 15.904 29.1679C11.4358 36.4438 4.80914 39.277 0 40.3784V40.6393H9.75601L15.7686 33.0194C15.8905 32.8994 18.7963 30.0546 23.1223 30.1885C26.211 30.2809 29.1958 31.8741 32 34.9175V25.8891L29.8799 25.8775Z" fill="url(#paint10_linear_963_6059)"/>
<path d="M11.1771 39.8335L10.5449 40.6394H18.3344C17.4657 40.1658 16.5063 39.8923 15.5234 39.8381L11.1771 39.8335Z" fill="url(#paint11_linear_963_6059)"/>
<path d="M27.2988 40.6394H31.9996V35.7673C30.2543 37.1528 27.7978 39.418 27.2988 40.6394Z" fill="url(#paint12_linear_963_6059)"/>
<path d="M31.5458 35.3287C30.4952 34.1628 29.2907 33.1524 27.9672 32.3269C26.5289 33.0196 25.6529 33.971 25.3684 35.174C24.9011 37.1551 26.1112 39.358 26.7615 40.3555C27.4975 38.6768 30.4372 36.213 31.5458 35.3287Z" fill="url(#paint13_linear_963_6059)"/>
<path d="M15.5548 1.4016L16.0018 1.16377L16.4466 1.4016L16.3608 0.895915L16.722 0.535702L16.2231 0.461812L16.0018 0L15.7783 0.461812L15.2793 0.535702L15.6405 0.895915L15.5548 1.4016Z" fill="#002D99"/>
<path d="M16.0008 0.521847L16.0211 0.56341L16.073 0.671936L16.1904 0.690409H16.2356L16.2017 0.722735L16.1182 0.80817L16.1385 0.928242V0.974423L16.0978 0.951332L15.994 0.895915L15.8879 0.951332L15.8472 0.974423V0.928242L15.8653 0.80817L15.8043 0.729663L15.7637 0.692718H15.8043L15.9217 0.674245L15.9759 0.565719L15.9962 0.524156M15.9962 0.00230906L15.7705 0.464121L15.2715 0.538011L15.6327 0.898224L15.5469 1.40391L15.9985 1.173L16.4501 1.40391L16.3643 0.898224L16.7255 0.538011L16.222 0.461812L15.9962 0V0.00230906Z" fill="#002D99"/>
<path d="M15.3535 9.4671H16.4124C16.4328 9.4671 16.5276 9.4671 16.6698 9.48326L16.3266 4.68042L15.6132 5.58557L15.3535 9.4671Z" fill="#002D99"/>
<path d="M16.1415 5.28306L16.4147 9.23617H15.5793L15.8254 5.67099L16.1347 5.27845M16.3199 4.67578L15.6064 5.58093L15.3535 9.46708H16.4124C16.4328 9.46708 16.5276 9.46708 16.6698 9.48324L16.3266 4.6804L16.3199 4.67578Z" fill="#002D99"/>
<path d="M18.37 16.9693V15.316H17.6498V13.007L16.2951 11.7485L16.6405 10.7256H16.9905V10.1599C16.793 10.1289 16.594 10.1089 16.3944 10.0999H15.0081V10.7164H15.3536L15.699 11.7393L14.3443 12.9977V15.3068H13.6309V16.9601L11.373 19.9618V23.2361C14.7891 22.1 18.0291 20.6592 19.8444 18.9343L18.37 16.9693Z" fill="#002D99"/>
<path d="M16.3944 10.3354C16.4102 10.3354 16.548 10.3354 16.767 10.3677V10.4901H16.4825L16.4306 10.6448L16.0828 11.67L16.0354 11.8132L16.1461 11.9148L17.424 13.1062V15.5469H18.1442V17.0478L18.1916 17.1102L19.5463 18.8974C17.9907 20.3059 15.3242 21.6682 11.6079 22.9174V20.0404L13.8092 17.1102L13.8566 17.0478V15.5469H14.5769V13.1062L15.8571 11.9148L15.9654 11.8132L15.918 11.67L15.5794 10.6448L15.5274 10.4901H15.2339V10.3354H16.3944ZM16.3944 10.1045H15.0081V10.721H15.3536L15.699 11.7439L14.3443 13.0023V15.3114H13.6309V16.9647L11.373 19.9665V23.2407C14.7891 22.1 18.0291 20.6592 19.8444 18.9343L18.37 16.9785V15.316H17.6498V13.007L16.2951 11.7485L16.6405 10.7256H16.9905V10.1599C16.793 10.1289 16.594 10.1089 16.3944 10.0999V10.1045Z" fill="#002D99"/>
<path d="M0 25.8777V26.0924C0.313836 26.0347 0.677344 25.9677 1.06569 25.8892L0 25.8777Z" fill="#002D99"/>
<path d="M1.06569 25.8777H0V26.0924C0.313836 26.0347 0.677344 25.9677 1.06569 25.8892V25.8777Z" fill="#002D99"/>
<path d="M4.32924 24.2219H2.12109V25.6651C2.79844 25.5242 3.53674 25.3649 4.32924 25.1825V24.2219Z" fill="#002D99"/>
<path d="M4.10345 24.4528V24.9978C3.52545 25.1294 2.93616 25.2587 2.34688 25.3811V24.4574H4.10345M4.32924 24.2265H2.12109V25.6697C2.79844 25.5289 3.53674 25.3695 4.32924 25.1871V24.2219V24.2265Z" fill="#002D99"/>
<path d="M15.2082 29.1196C14.6754 29.0827 14.1485 29.0642 13.6277 29.0642C7.70549 29.0642 3.17857 31.4702 -0.0117188 34.1118V39.7344C4.61454 38.6537 10.8958 35.9337 15.2082 29.1196Z" fill="#002D99"/>
<path d="M13.6395 29.295C14.0255 29.295 14.4161 29.295 14.8045 29.3273C10.6117 35.728 4.63304 38.3626 0.225781 39.4433V34.2225C4.20857 30.9529 8.72194 29.295 13.6395 29.295ZM13.6395 29.0641C7.71721 29.0641 3.19029 31.4701 0 34.1117V39.7342C4.61497 38.6536 10.8962 35.9335 15.2086 29.1125C14.6758 29.0756 14.149 29.0571 13.6282 29.0571L13.6395 29.0641Z" fill="#002D99"/>
<path d="M26.5376 25.5544H25.9258V26.1871C26.142 25.9891 26.3464 25.7778 26.5376 25.5544Z" fill="#002D99"/>
<path d="M26.5376 25.5544H25.9258V26.1871C26.142 25.9891 26.3464 25.7778 26.5376 25.5544Z" fill="#002D99"/>
<path d="M15.82 2.57218L15.6868 4.4887L16.2625 3.76134L16.179 2.57218L17.0889 1.49154L17.1318 0.879639L16.0164 2.0688H15.9848L14.8672 0.879639L14.9101 1.49154L15.82 2.57218Z" fill="#002D99"/>
<path d="M16.1131 2.30895L16.007 2.43363L15.885 2.30895H16.1108M15.9979 3.26028L16.0295 3.69438L15.9641 3.77982L16.0002 3.25797M17.1291 0.888875L16.016 2.07804H15.9844L14.8555 0.888875L14.9006 1.49154L15.8038 2.57218L15.6705 4.4887L16.2553 3.76134L16.1718 2.57218L17.0749 1.49154L17.1155 0.879639L17.1291 0.888875Z" fill="#002D99"/>
<path d="M15.7708 28.5331C18.3673 28.764 20.5845 28.6209 22.4111 28.0898H20.6251V19.9619L20.2097 19.4077C18.2454 21.255 14.8767 22.7443 11.3749 23.9058V28.0898H6.07352V25.5498H5.55197C3.25125 26.1063 1.26212 26.4965 0 26.7228V33.3036C3.6396 30.4127 8.87321 27.8958 15.7708 28.5331Z" fill="#002D99"/>
<path d="M20.1781 19.7448L20.4039 20.0404V28.2676C19.628 28.3672 18.8467 28.4157 18.0648 28.413C17.3468 28.413 16.5836 28.3761 15.807 28.3022C15.0867 28.2352 14.362 28.2029 13.653 28.2029C12.944 28.2029 12.2983 28.2329 11.621 28.2953V24.0743C15.5721 22.7512 18.4554 21.3035 20.2007 19.7448M5.84774 25.7853V28.3253H11.341C7.29922 28.7523 3.45199 30.3155 0.225781 32.8418V26.9191C1.49693 26.6882 3.40253 26.3118 5.5768 25.7853H5.84774ZM20.2097 19.4077C18.2454 21.255 14.8767 22.7443 11.3749 23.9058V28.0898H6.07352V25.5498H5.55197C3.25125 26.1063 1.26212 26.4965 0 26.7228V33.3036C3.25351 30.7106 7.78494 28.4338 13.6372 28.4338C14.3296 28.4338 15.0408 28.4669 15.7708 28.5331C16.5701 28.607 17.3332 28.6439 18.0603 28.6439C19.5285 28.6647 20.9926 28.4782 22.4111 28.0898H20.6251V19.9619L20.2097 19.4077Z" fill="#002D99"/>
<path d="M24.7669 35.026C25.0694 33.7422 25.9229 32.717 27.3047 31.955C26.0092 31.2541 24.5764 30.8596 23.1119 30.8005C19.1901 30.6804 16.4175 33.2504 16.2098 33.449L11.6738 39.2008H15.5279C15.6363 39.2008 17.8015 39.2585 19.4294 40.6347H26.2029C25.4826 39.5287 24.2521 37.215 24.7669 35.026Z" fill="#002D99"/>
<path d="M22.8297 31.0337H23.1051C24.393 31.081 25.6581 31.3952 26.8238 31.9573C25.6 32.7262 24.8346 33.733 24.5479 34.9591C24.067 37.0049 25.0265 39.1154 25.7852 40.3923H19.5084C17.8241 39.0069 15.625 38.9607 15.5279 38.9584H12.1412L16.3701 33.5945C16.5959 33.389 19.1946 31.0222 22.8252 31.0222M22.8252 30.7913C19.0546 30.7913 16.4085 33.2435 16.2053 33.4374L11.6738 39.2009H15.5279C15.6363 39.2009 17.8015 39.2586 19.4294 40.6348H26.2029C25.4871 39.5287 24.2566 37.2151 24.7714 35.0261C25.074 33.7422 25.9274 32.717 27.3092 31.955C26.0137 31.2541 24.5809 30.8596 23.1164 30.8005H22.8342L22.8252 30.7913Z" fill="#002D99"/>
<path d="M29.8799 25.8775V24.2219H28.1595C28.0126 24.518 27.8498 24.8056 27.6718 25.0832V25.545H27.3421C26.9322 26.0905 26.4566 26.5808 25.9265 27.0043V28.0804H24.1993C22.0679 29.094 19.2953 29.4658 15.904 29.1679C11.4358 36.4438 4.80914 39.277 0 40.3784V40.6393H9.75601L15.7686 33.0194C15.8905 32.8994 18.7963 30.0546 23.1223 30.1885C26.211 30.2809 29.1958 31.8741 32 34.9175V25.8891L29.8799 25.8775Z" fill="#002D99"/>
<path d="M29.6541 24.4528V26.1084H31.7742V34.3333C29.04 31.5116 26.1297 30.0361 23.129 29.9461H22.8288C18.5818 29.9461 15.7302 32.7285 15.6038 32.8463H15.5925L9.64764 40.4084H0.869258C5.58809 39.18 11.761 36.2706 16.0237 29.4242C16.7281 29.482 17.4145 29.5097 18.0557 29.5097C20.4806 29.5097 22.5714 29.1102 24.2376 28.3251H26.141V27.129C26.6224 26.7341 27.0586 26.2848 27.4415 25.7898H27.893V25.1571C28.0308 24.94 28.1617 24.7114 28.2927 24.4644H29.6474M29.8731 24.2335H28.1527C28.0059 24.5296 27.8431 24.8171 27.665 25.0947V25.5566H27.3421C26.9322 26.102 26.4566 26.5923 25.9265 27.0159V28.0919H24.1993C22.5435 28.8785 20.4994 29.2734 18.067 29.2765C17.3761 29.2765 16.6551 29.2441 15.904 29.1795C11.4358 36.4438 4.80914 39.277 0 40.3784V40.6393H9.75601L15.7686 33.0194C15.8882 32.9017 18.6653 30.1839 22.8288 30.1839H23.1223C26.211 30.2763 29.1958 31.8695 32 34.9129V25.8844H29.8799V24.2219L29.8731 24.2335Z" fill="#002D99"/>
<path d="M11.1771 39.8335L10.5449 40.6394H18.3344C17.4657 40.1658 16.5063 39.8923 15.5234 39.8381L11.1771 39.8335Z" fill="#002D99"/>
<path d="M15.5189 40.0644C16.1094 40.0985 16.6927 40.2142 17.2529 40.4085H11.0168L11.2877 40.0644H15.5189ZM15.5189 39.8335H11.1771L10.5449 40.6394H18.3344C17.4657 40.1658 16.5063 39.8923 15.5234 39.8381L15.5189 39.8335Z" fill="#002D99"/>
<path d="M27.2988 40.6394H31.9996V35.7673C30.2543 37.1528 27.7978 39.418 27.2988 40.6394Z" fill="#002D99"/>
<path d="M31.7738 36.2524V40.4087H27.6691C28.3148 39.3234 30.1234 37.5986 31.7738 36.2524ZM31.9996 35.7744C30.2588 37.1598 27.7978 39.4297 27.2988 40.6465H31.9996V35.7744Z" fill="#002D99"/>
<path d="M31.5458 35.3289C30.4952 34.163 29.2907 33.1527 27.9672 32.3271C26.5289 33.0199 25.6529 33.9712 25.3684 35.1742C24.9011 37.1554 26.1112 39.3582 26.7615 40.3557C27.4975 38.6771 30.4372 36.2133 31.5458 35.3289Z" fill="#002D99"/>
<path d="M27.9536 32.5877C29.1492 33.345 30.2435 34.2578 31.2094 35.3031C30.006 36.2799 27.6466 38.3049 26.7412 39.8936C26.1316 38.8799 25.1833 36.9403 25.5874 35.2246C25.8471 34.1278 26.6418 33.2412 27.9536 32.5877ZM27.9672 32.3245C26.5289 33.0172 25.6529 33.9685 25.3684 35.1715C24.9011 37.1527 26.1112 39.3555 26.7615 40.3531C27.4975 38.6767 30.4372 36.2129 31.5458 35.3262C30.4952 34.1603 29.2907 33.15 27.9672 32.3245Z" fill="#002D99"/>
<path d="M0.078125 43.3179H0.818688V46.2573L2.99296 43.3179H3.69289V47.458H2.95232V44.5232L0.778047 47.458H0.078125V43.3179Z" fill="#002D99"/>
<path d="M8.42708 43.3179V47.458H7.67749V45.6847H5.57998V47.458H4.82812V43.3179H5.57998V45.0266H7.67749V43.3179H8.42708Z" fill="#002D99"/>
<path d="M12.4993 43.969H11.1446V47.458H10.3996V43.969H9.07422V43.3179H12.4993V43.969Z" fill="#002D99"/>
<path d="M17.2841 46.8069V48.3701H16.5887V47.458H13.1523V43.3179H13.8929V46.8069H15.9249V43.3179H16.67V46.8069H17.2841Z" fill="#002D99"/>
<path d="M23.288 47.458V44.7125L21.9582 46.9847H21.6172L20.2874 44.7495V47.458H19.5762V43.3179H20.1948L21.7956 46.0564L23.3761 43.3179H23.9879V47.458H23.288Z" fill="#002D99"/>
<path d="M27.8864 43.969H25.8792V47.458H25.1387V43.3179H27.8864V43.969Z" fill="#002D99"/>
<path d="M31.9991 43.3179L30.2403 46.6591C30.1136 46.9273 29.9244 47.1596 29.6894 47.3356C29.4854 47.4837 29.2419 47.5643 28.9917 47.5665C28.7863 47.5656 28.5832 47.5207 28.3957 47.4349L28.5808 46.8323C28.7074 46.8774 28.8398 46.9031 28.9737 46.9085C29.0985 46.9056 29.2203 46.8685 29.3263 46.8011C29.4324 46.7337 29.5188 46.6384 29.5765 46.5252L29.6397 46.4236L28.0254 43.3363H28.8292L30.0258 45.7678L31.2586 43.3363L31.9991 43.3179Z" fill="#002D99"/>
<path d="M1.85818 50.9446C1.93708 51.0487 1.97783 51.1778 1.97333 51.3094C1.97752 51.403 1.95912 51.4962 1.91974 51.5808C1.88036 51.6653 1.82122 51.7387 1.74755 51.7943C1.5548 51.9224 1.32665 51.9832 1.0973 51.9675H0V49.6007H1.03408C1.24814 49.5888 1.46071 49.6435 1.64369 49.7578C1.71558 49.8071 1.77402 49.8743 1.81351 49.953C1.85301 50.0318 1.87227 50.1195 1.86947 50.208C1.8736 50.3215 1.84296 50.4335 1.78184 50.5283C1.72071 50.6231 1.63216 50.696 1.52854 50.7368C1.65759 50.7676 1.77331 50.8405 1.85818 50.9446ZM0.422211 50.6098H0.997954C1.11 50.6172 1.22146 50.5881 1.31631 50.5267C1.35038 50.4947 1.37759 50.4558 1.3962 50.4124C1.41481 50.3691 1.42442 50.3223 1.42442 50.275C1.42442 50.2277 1.41481 50.1809 1.3962 50.1375C1.37759 50.0942 1.35038 50.0553 1.31631 50.0233C1.22219 49.96 1.11035 49.9299 0.997954 49.9379H0.422211V50.6098ZM1.55112 51.2771C1.55112 51.0462 1.39984 50.9331 1.09956 50.9331H0.422211V51.6258H1.08375C1.38856 51.6281 1.53983 51.5103 1.53983 51.2771H1.55112Z" fill="#002D99"/>
<path d="M2.73335 51.843C2.54588 51.7436 2.38944 51.5924 2.28179 51.4066C2.17522 51.2169 2.11914 51.0019 2.11914 50.7832C2.11914 50.5644 2.17522 50.3494 2.28179 50.1597C2.38944 49.9739 2.54588 49.8227 2.73335 49.7233C2.92943 49.6174 3.14833 49.5634 3.37006 49.5663C3.59253 49.5631 3.81223 49.6171 4.00902 49.7233C4.19619 49.8221 4.3526 49.9725 4.46058 50.1574C4.56561 50.3485 4.62078 50.564 4.62078 50.7832C4.62078 51.0024 4.56561 51.2179 4.46058 51.4089C4.3526 51.5939 4.19619 51.7442 4.00902 51.843C3.81223 51.9492 3.59253 52.0032 3.37006 52C3.14833 52.0029 2.92943 51.9489 2.73335 51.843ZM3.78775 51.5082C3.91006 51.4386 4.01093 51.3354 4.07901 51.2103C4.14857 51.0792 4.185 50.9324 4.185 50.7832C4.185 50.634 4.14857 50.4871 4.07901 50.356C4.01093 50.2309 3.91006 50.1277 3.78775 50.0581C3.65949 49.9884 3.51645 49.9519 3.37119 49.9519C3.22592 49.9519 3.08288 49.9884 2.95462 50.0581C2.83231 50.1277 2.73144 50.2309 2.66336 50.356C2.5938 50.4871 2.55737 50.634 2.55737 50.7832C2.55737 50.9324 2.5938 51.0792 2.66336 51.2103C2.73144 51.3354 2.83231 51.4386 2.95462 51.5082C3.08288 51.578 3.22592 51.6144 3.37119 51.6144C3.51645 51.6144 3.65949 51.578 3.78775 51.5082Z" fill="#002D99"/>
<path d="M6.4063 49.7024C6.54615 49.7617 6.66562 49.8621 6.74949 49.991C6.82635 50.1277 6.86681 50.2825 6.86681 50.4402C6.86681 50.5978 6.82635 50.7526 6.74949 50.8893C6.6665 51.0201 6.54691 51.1223 6.4063 51.1825C6.2405 51.2533 6.0621 51.2879 5.88248 51.2841H5.36093V51.9768H4.92969V49.6008H5.88248C6.06219 49.5959 6.24084 49.6305 6.4063 49.7024ZM6.28889 50.7992C6.33825 50.7568 6.37723 50.7032 6.40271 50.6427C6.42819 50.5821 6.43947 50.5163 6.43565 50.4505C6.43895 50.3848 6.42743 50.3192 6.40198 50.2587C6.37653 50.1983 6.33784 50.1446 6.28889 50.1019C6.16427 50.0131 6.01365 49.9707 5.86216 49.9818H5.36093V50.9216H5.86894C6.01841 50.9304 6.16641 50.8873 6.28889 50.7992Z" fill="#002D99"/>
<path d="M7.57906 51.8428C7.39094 51.7444 7.23426 51.5929 7.12749 51.4064C7.02092 51.2167 6.96484 51.0018 6.96484 50.783C6.96484 50.5642 7.02092 50.3492 7.12749 50.1595C7.23426 49.973 7.39094 49.8216 7.57906 49.7231C7.77654 49.62 7.99513 49.5662 8.21689 49.5662C8.43864 49.5662 8.65724 49.62 8.85472 49.7231C9.04189 49.8219 9.19831 49.9723 9.30628 50.1572C9.41281 50.3478 9.46885 50.5635 9.46885 50.783C9.46885 51.0025 9.41281 51.2182 9.30628 51.4087C9.19831 51.5937 9.04189 51.7441 8.85472 51.8428C8.65724 51.946 8.43864 51.9998 8.21689 51.9998C7.99513 51.9998 7.77654 51.946 7.57906 51.8428ZM8.63346 51.508C8.75576 51.4384 8.85663 51.3352 8.92471 51.2102C8.99427 51.079 9.0307 50.9322 9.0307 50.783C9.0307 50.6338 8.99427 50.487 8.92471 50.3558C8.85663 50.2307 8.75576 50.1276 8.63346 50.0579C8.50659 49.9856 8.36324 49.949 8.21802 49.9517C8.07212 49.9493 7.92813 49.9859 7.80032 50.0579C7.67913 50.1283 7.57917 50.2313 7.51132 50.3558C7.44176 50.487 7.40533 50.6338 7.40533 50.783C7.40533 50.9322 7.44176 51.079 7.51132 51.2102C7.57917 51.3346 7.67913 51.4377 7.80032 51.508C7.92813 51.58 8.07212 51.6166 8.21802 51.6142C8.36324 51.617 8.50659 51.5804 8.63346 51.508Z" fill="#002D99"/>
<path d="M9.78125 49.6008H11.5875V49.961H10.2057V50.5429H10.8831C11.1074 50.5275 11.3302 50.5902 11.5153 50.7207C11.5899 50.7817 11.6493 50.86 11.6886 50.9492C11.7279 51.0383 11.7458 51.1357 11.741 51.2333C11.7465 51.3365 11.7278 51.4396 11.6866 51.5339C11.6453 51.6283 11.5827 51.7112 11.504 51.776C11.3053 51.915 11.0669 51.9825 10.8266 51.9676H9.78125V49.6008ZM10.7995 51.6282C10.9321 51.6375 11.0641 51.6035 11.1766 51.5312C11.2189 51.498 11.2527 51.4549 11.2751 51.4054C11.2975 51.3559 11.3079 51.3016 11.3053 51.2472C11.3053 51.0024 11.1382 50.8824 10.7995 50.8824H10.2057V51.6282H10.7995Z" fill="#002D99"/>
<path d="M13.7553 50.5914C13.8322 50.6627 13.8924 50.7507 13.9315 50.8491C13.9706 50.9474 13.9875 51.0535 13.981 51.1594C13.9877 51.2719 13.9692 51.3844 13.9269 51.4884C13.8846 51.5925 13.8198 51.6853 13.7372 51.7598C13.5418 51.9073 13.3024 51.9807 13.0598 51.9676H12.0664V49.6008H12.4886V50.4021H13.1298C13.3534 50.3901 13.5741 50.4569 13.7553 50.5914ZM13.4121 51.515C13.4587 51.4714 13.495 51.4177 13.5185 51.3577C13.5419 51.2977 13.5519 51.2331 13.5475 51.1687C13.5475 50.8847 13.3737 50.7415 13.026 50.7415H12.4728V51.6328H13.026C13.1649 51.6407 13.3019 51.5972 13.4121 51.5104V51.515Z" fill="#002D99"/>
<path d="M15.9902 51.5982V51.9676H14.2539V49.6008H15.9428V49.968H14.6761V50.5845H15.805V50.9447H14.6761V51.5982H15.9902Z" fill="#002D99"/>
<path d="M18.1687 50.9446C18.2476 51.0487 18.2884 51.1778 18.2839 51.3094C18.2879 51.403 18.2694 51.4961 18.23 51.5806C18.1907 51.6652 18.1316 51.7386 18.0581 51.7943C17.8644 51.9221 17.6356 51.9829 17.4056 51.9675H16.3105V49.6007H17.3446C17.5587 49.5888 17.7713 49.6435 17.9542 49.7578C18.0261 49.8071 18.0846 49.8743 18.1241 49.953C18.1636 50.0318 18.1828 50.1195 18.18 50.208C18.1853 50.3214 18.1555 50.4337 18.0946 50.5286C18.0338 50.6236 17.9451 50.6965 17.8413 50.7368C17.9696 50.768 18.0844 50.841 18.1687 50.9446ZM16.7328 50.6098H17.3085C17.4206 50.6176 17.5321 50.5884 17.6269 50.5267C17.6609 50.4947 17.6881 50.4558 17.7067 50.4124C17.7254 50.3691 17.735 50.3223 17.735 50.275C17.735 50.2277 17.7254 50.1809 17.7067 50.1375C17.6881 50.0942 17.6609 50.0553 17.6269 50.0233C17.5329 49.9596 17.4209 49.9296 17.3085 49.9379H16.7328V50.6098ZM17.8617 51.2771C17.8617 51.0462 17.7104 50.9331 17.4101 50.9331H16.7328V51.6258H17.3853C17.6991 51.6281 17.8504 51.5103 17.8504 51.2771H17.8617Z" fill="#002D99"/>
<path d="M20.3212 50.5914C20.399 50.662 20.4598 50.75 20.4989 50.8485C20.5381 50.947 20.5545 51.0534 20.547 51.1594C20.5536 51.2719 20.5351 51.3844 20.4929 51.4884C20.4506 51.5925 20.3857 51.6853 20.3032 51.7598C20.1047 51.9099 19.8608 51.9835 19.6145 51.9676H18.6211V49.6008H19.0433V50.4021H19.6845C19.9119 50.3868 20.1373 50.4538 20.3212 50.5914ZM19.9803 51.515C20.0269 51.4714 20.0633 51.4177 20.0867 51.3577C20.1102 51.2977 20.1201 51.2331 20.1158 51.1687C20.1158 50.8847 19.9419 50.7415 19.592 50.7415H19.0388V51.6328H19.5897C19.7293 51.641 19.8672 51.5976 19.978 51.5104L19.9803 51.515ZM20.8834 49.6054H21.3056V51.9722H20.8766L20.8834 49.6054Z" fill="#002D99"/>
<path d="M24.1099 49.9726H22.9629V51.9676H22.543V49.6008H24.1234L24.1099 49.9726Z" fill="#002D99"/>
<path d="M24.479 51.8428C24.2915 51.7434 24.1351 51.5922 24.0275 51.4064C23.9224 51.2162 23.8672 51.0014 23.8672 50.783C23.8672 50.5645 23.9224 50.3498 24.0275 50.1595C24.1351 49.9737 24.2915 49.8225 24.479 49.7231C24.6765 49.62 24.8951 49.5662 25.1168 49.5662C25.3386 49.5662 25.5572 49.62 25.7547 49.7231C25.9419 49.8219 26.0983 49.9723 26.2062 50.1572C26.3113 50.3483 26.3664 50.5638 26.3664 50.783C26.3664 51.0022 26.3113 51.2177 26.2062 51.4087C26.0983 51.5937 25.9419 51.7441 25.7547 51.8428C25.5572 51.946 25.3386 51.9998 25.1168 51.9998C24.8951 51.9998 24.6765 51.946 24.479 51.8428ZM25.5334 51.508C25.6557 51.4384 25.7566 51.3352 25.8247 51.2102C25.8942 51.079 25.9307 50.9322 25.9307 50.783C25.9307 50.6338 25.8942 50.487 25.8247 50.3558C25.7566 50.2307 25.6557 50.1276 25.5334 50.0579C25.4052 49.9882 25.2621 49.9517 25.1168 49.9517C24.9716 49.9517 24.8285 49.9882 24.7003 50.0579C24.578 50.1276 24.4771 50.2307 24.409 50.3558C24.3395 50.487 24.303 50.6338 24.303 50.783C24.303 50.9322 24.3395 51.079 24.409 51.2102C24.4771 51.3352 24.578 51.4384 24.7003 51.508C24.8285 51.5778 24.9716 51.6142 25.1168 51.6142C25.2621 51.6142 25.4052 51.5778 25.5334 51.508Z" fill="#002D99"/>
<path d="M28.154 49.7024C28.2939 49.7617 28.4134 49.8621 28.4972 49.991C28.5757 50.1271 28.617 50.2822 28.617 50.4402C28.617 50.5981 28.5757 50.7532 28.4972 50.8893C28.4142 51.0201 28.2946 51.1223 28.154 51.1825C27.9882 51.2533 27.8098 51.2879 27.6302 51.2841H27.1087V51.9768H26.6797V49.6008H27.6302C27.8099 49.5959 27.9886 49.6305 28.154 49.7024ZM28.0366 50.79C28.086 50.7476 28.125 50.694 28.1504 50.6334C28.1759 50.5729 28.1872 50.5071 28.1834 50.4413C28.1867 50.3756 28.1752 50.3099 28.1497 50.2495C28.1243 50.189 28.0856 50.1354 28.0366 50.0926C27.912 50.0039 27.7614 49.9615 27.6099 49.9726H27.1087V50.9124H27.6099C27.7606 50.9255 27.9111 50.8855 28.0366 50.7992V50.79Z" fill="#002D99"/>
<path d="M30.5661 50.5914C30.6438 50.662 30.7046 50.75 30.7438 50.8485C30.7829 50.947 30.7994 51.0534 30.7919 51.1594C30.7985 51.2719 30.78 51.3844 30.7378 51.4884C30.6955 51.5925 30.6306 51.6853 30.548 51.7598C30.3525 51.9069 30.1132 51.9803 29.8707 51.9676H28.875V49.6008H29.2995V50.4021H29.9407C30.1643 50.3895 30.3852 50.4564 30.5661 50.5914ZM30.2252 51.515C30.2718 51.4714 30.3081 51.4177 30.3316 51.3577C30.3551 51.2977 30.365 51.2331 30.3606 51.1687C30.3606 50.8847 30.1868 50.7415 29.8368 50.7415H29.2859V51.6328H29.8368C29.9764 51.6406 30.1141 51.5972 30.2252 51.5104V51.515ZM31.1283 49.6054H31.5505V51.9722H31.1283V49.6054Z" fill="#002D99"/>
</g>
<defs>
<linearGradient id="paint0_linear_963_6059" x1="15.9998" y1="0.300178" x2="15.9998" y2="1.57478" gradientUnits="userSpaceOnUse">
<stop offset="0.15" stop-color="#2A3C90"/>
<stop offset="0.62" stop-color="#252351"/>
<stop offset="1" stop-color="#110E23"/>
</linearGradient>
<linearGradient id="paint1_linear_963_6059" x1="16.0015" y1="5.71026" x2="16.0015" y2="10.0813" gradientUnits="userSpaceOnUse">
<stop offset="0.15" stop-color="#2A3C90"/>
<stop offset="0.62" stop-color="#252351"/>
<stop offset="1" stop-color="#110E23"/>
</linearGradient>
<linearGradient id="paint2_linear_963_6059" x1="15.6087" y1="12.9169" x2="15.6087" y2="24.8547" gradientUnits="userSpaceOnUse">
<stop offset="0.15" stop-color="#2A3C90"/>
<stop offset="0.62" stop-color="#252351"/>
<stop offset="1" stop-color="#110E23"/>
</linearGradient>
<linearGradient id="paint3_linear_963_6059" x1="0.532844" y1="25.9216" x2="0.532844" y2="26.1063" gradientUnits="userSpaceOnUse">
<stop offset="0.15" stop-color="#2A3C90"/>
<stop offset="0.62" stop-color="#252351"/>
<stop offset="1" stop-color="#110E23"/>
</linearGradient>
<linearGradient id="paint4_linear_963_6059" x1="3.22516" y1="24.5313" x2="3.22516" y2="25.8429" gradientUnits="userSpaceOnUse">
<stop offset="0.15" stop-color="#2A3C90"/>
<stop offset="0.62" stop-color="#252351"/>
<stop offset="1" stop-color="#110E23"/>
</linearGradient>
<linearGradient id="paint5_linear_963_6059" x1="7.60389" y1="31.3502" x2="7.60389" y2="41.0505" gradientUnits="userSpaceOnUse">
<stop offset="0.15" stop-color="#2A3C90"/>
<stop offset="0.62" stop-color="#252351"/>
<stop offset="1" stop-color="#110E23"/>
</linearGradient>
<linearGradient id="paint6_linear_963_6059" x1="26.2328" y1="25.6907" x2="26.2328" y2="26.2633" gradientUnits="userSpaceOnUse">
<stop offset="0.15" stop-color="#2A3C90"/>
<stop offset="0.62" stop-color="#252351"/>
<stop offset="1" stop-color="#110E23"/>
</linearGradient>
<linearGradient id="paint7_linear_963_6059" x1="16.0006" y1="1.65317" x2="16.0006" y2="4.93204" gradientUnits="userSpaceOnUse">
<stop offset="0.15" stop-color="#2A3C90"/>
<stop offset="0.62" stop-color="#252351"/>
<stop offset="1" stop-color="#110E23"/>
</linearGradient>
<linearGradient id="paint8_linear_963_6059" x1="11.2055" y1="22.3864" x2="11.2055" y2="35.0216" gradientUnits="userSpaceOnUse">
<stop offset="0.15" stop-color="#2A3C90"/>
<stop offset="0.62" stop-color="#252351"/>
<stop offset="1" stop-color="#110E23"/>
</linearGradient>
<linearGradient id="paint9_linear_963_6059" x1="19.4904" y1="32.9086" x2="19.4904" y2="41.8447" gradientUnits="userSpaceOnUse">
<stop offset="0.15" stop-color="#2A3C90"/>
<stop offset="0.62" stop-color="#252351"/>
<stop offset="1" stop-color="#110E23"/>
</linearGradient>
<linearGradient id="paint10_linear_963_6059" x1="16.0011" y1="27.7386" x2="16.0011" y2="42.6574" gradientUnits="userSpaceOnUse">
<stop offset="0.15" stop-color="#2A3C90"/>
<stop offset="0.62" stop-color="#252351"/>
<stop offset="1" stop-color="#110E23"/>
</linearGradient>
<linearGradient id="paint11_linear_963_6059" x1="14.4397" y1="40.0044" x2="14.4397" y2="40.7317" gradientUnits="userSpaceOnUse">
<stop offset="0.15" stop-color="#2A3C90"/>
<stop offset="0.62" stop-color="#252351"/>
<stop offset="1" stop-color="#110E23"/>
</linearGradient>
<linearGradient id="paint12_linear_963_6059" x1="29.6492" y1="36.8064" x2="29.6492" y2="41.2352" gradientUnits="userSpaceOnUse">
<stop offset="0.15" stop-color="#2A3C90"/>
<stop offset="0.62" stop-color="#252351"/>
<stop offset="1" stop-color="#110E23"/>
</linearGradient>
<linearGradient id="paint13_linear_963_6059" x1="28.4052" y1="34.0448" x2="28.4052" y2="41.3438" gradientUnits="userSpaceOnUse">
<stop offset="0.15" stop-color="#2A3C90"/>
<stop offset="0.62" stop-color="#252351"/>
<stop offset="1" stop-color="#110E23"/>
</linearGradient>
<clipPath id="clip0_963_6059">
<rect width="32" height="52" fill="white"/>
</clipPath>
</defs>
</svg>
