<svg width="33" height="33" viewBox="0 0 33 33" fill="none" xmlns="http://www.w3.org/2000/svg">
<g clip-path="url(#clip0_963_6140)">
<path d="M8.25186 0C6.06333 0 3.96444 0.86939 2.41692 2.41692C0.86939 3.96444 0 6.06333 0 8.25186L0 24.75C0 26.9385 0.86939 29.0374 2.41692 30.5849C3.96444 32.1325 6.06333 33.0019 8.25186 33.0019H24.75C26.9385 33.0019 29.0374 32.1325 30.5849 30.5849C32.1325 29.0374 33.0019 26.9385 33.0019 24.75V0H8.25186Z" fill="#B1EC52"/>
<path d="M27.2677 12.3695H23.3049L19.5356 16.4973V8.25193H16.4787V10.2501C16.3789 10.121 16.2736 9.99321 16.1556 9.86827C15.0437 8.69109 13.4414 8.09668 11.3928 8.09668C9.02404 8.09668 7.67717 9.15683 6.96387 10.0459C6.07808 11.1503 5.68367 12.6567 5.95733 13.8846C6.6655 17.0632 9.61519 17.5709 11.7817 17.8525C13.4922 18.0749 15.1286 18.3854 15.0852 19.9099C15.0386 21.4922 13.2563 21.8815 12.0856 21.8815C9.03663 21.8815 8.9336 19.6278 8.9336 19.6278H5.6543C5.70092 20.474 5.95826 21.8325 6.99977 22.999C8.14105 24.2759 9.85203 24.9235 12.0856 24.9235C13.7994 24.9235 15.3598 24.364 16.4787 23.3743V24.7323H19.5365V20.8395L20.6186 19.6554L23.7077 24.7323H27.2667L22.7716 17.2963L27.2677 12.3695ZM9.01845 13.1774C8.74851 11.997 9.92615 10.9527 11.4493 10.9527C12.8213 10.9527 14.1966 11.2604 14.7197 13.1732H16.4787V16.0926C14.2857 14.2902 9.53174 15.4213 9.01845 13.1774Z" fill="#4D5759"/>
</g>
<defs>
<clipPath id="clip0_963_6140">
<rect width="33" height="33" fill="white"/>
</clipPath>
</defs>
</svg>
