<svg width="24" height="23" viewBox="0 0 24 23" fill="none" xmlns="http://www.w3.org/2000/svg">
<path d="M16.568 14.4345L15.9676 15.0341C15.9676 15.0341 14.5387 16.4582 10.6397 12.5696C6.74081 8.68107 8.16976 7.25694 8.16976 7.25694L8.54711 6.87841C9.47996 5.94929 9.56836 4.45633 8.75427 3.36574L7.09178 1.13822C6.08373 -0.211794 4.13756 -0.390471 2.98305 0.761009L0.91154 2.82573C0.340225 3.3975 -0.0424119 4.13604 0.00376831 4.95663C0.122518 7.05709 1.06987 11.5743 6.35289 16.8447C11.9565 22.4327 17.2145 22.655 19.3638 22.4538C20.0447 22.3903 20.6358 22.0435 21.1121 21.5671L22.9857 19.6982C24.2524 18.4369 23.8961 16.2729 22.2758 15.3901L19.7557 14.0149C18.6923 13.4366 17.3992 13.606 16.568 14.4345Z" fill="white"/>
</svg>
