<svg width="215" height="34" viewBox="0 0 215 34" fill="none" xmlns="http://www.w3.org/2000/svg">
<g clip-path="url(#clip0_963_2803)">
<path d="M41.4257 34H34.6982L7.01627 8.98418V34H0V0H6.72751L34.4094 24.8681V0H41.4257V34Z" fill="black"/>
<path d="M62.8796 0H55.8633V34H62.8796V0Z" fill="black"/>
<path d="M145.101 34H138.085V5.82969H118.969V0H164.218V5.82969H145.101V34Z" fill="black"/>
<mask id="mask0_963_2803" style="mask-type:luminance" maskUnits="userSpaceOnUse" x="-9" y="-9" width="232" height="52">
<path d="M222.521 -8.64697H-8.71875V42.3182H222.521V-8.64697Z" fill="white"/>
</mask>
<g mask="url(#mask0_963_2803)">
<path d="M186.883 -0.00830078H195.401C201.82 -0.00830078 206.691 1.43333 210.014 4.31659C213.336 7.19985 215.002 11.4254 215.012 16.9931C215.012 22.5664 213.346 26.7919 210.014 29.6696C206.682 32.5473 201.811 33.987 195.401 33.9889H186.883C180.463 33.9889 175.591 32.5482 172.267 29.6668C168.943 26.7854 167.281 22.5599 167.283 16.9903C167.283 11.417 168.949 7.19149 172.281 4.3138C175.613 1.43612 180.48 -0.00458524 186.883 -0.00830078ZM204.547 25.5398C206.768 23.7935 207.879 20.9446 207.879 16.9931C207.879 13.0416 206.768 10.1918 204.547 8.44363C202.326 6.69732 198.68 5.82324 193.61 5.82138H188.674C183.607 5.82138 179.962 6.69547 177.737 8.44363C175.512 10.1918 174.399 13.0407 174.397 16.9903C174.397 20.9418 175.507 23.7907 177.728 25.537C179.95 27.2833 183.595 28.1583 188.665 28.162H193.602C198.666 28.162 202.312 27.287 204.539 25.537" fill="black"/>
<path d="M103.353 34H115.403L85.7386 16.9986L115.403 0H103.353L82.1569 11.8015V0H75.1406V18.3195L82.1569 22.2208V22.1957L103.353 34Z" fill="black"/>
</g>
</g>
<defs>
<clipPath id="clip0_963_2803">
<rect width="215" height="34" fill="white"/>
</clipPath>
</defs>
</svg>
