<svg width="72" height="30" viewBox="0 0 72 30" fill="none" xmlns="http://www.w3.org/2000/svg">
<path d="M19.4512 12.9188C19.4512 14.446 18.8756 16.1215 17.725 17.9051C17.324 18.5401 16.9226 18.9592 16.5478 19.1483C15.9992 19.4188 14.9827 19.6892 14.6614 19.0401C14.5012 18.716 14.4076 18.2565 14.4076 17.7024C14.4076 17.216 14.8891 15.6888 15.1298 15.0942C15.5447 14.0806 16.2269 12.9324 16.9762 12.2024C17.4307 11.7433 18.8491 11.1483 19.264 11.7701C19.3441 11.8915 19.4512 12.2024 19.4512 12.9188ZM29.4848 12.7297C29.4848 14.716 28.2676 17.486 26.8357 18.8374C26.3677 19.2838 25.8997 19.4997 25.4447 19.4997C23.4377 19.4997 24.7621 14.4592 27.0769 12.351C27.5719 11.9056 28.0804 11.6888 28.6285 11.6888C29.0299 11.6888 29.4848 11.7969 29.4848 12.7297ZM25.9663 22.6347C25.5649 23.6619 23.7455 27.9728 22.5949 27.9728C21.7921 27.9728 22.3541 26.9183 22.5814 26.581C23.4913 25.2565 24.8156 23.8369 25.9663 22.6347ZM64.4557 13.2297C64.4557 14.3647 63.8135 15.9728 63.1583 17.0401C62.7569 17.6888 62.2885 18.2701 61.7669 18.7297C61.2584 19.1751 60.7634 19.3915 60.2284 19.3915C58.7834 19.3915 59.5327 16.3778 59.827 15.5942C60.389 14.1351 61.5262 11.5806 63.359 11.5806C64.1884 11.5942 64.4557 12.4188 64.4557 13.2297ZM70.6904 15.0269C70.5163 14.8783 70.3426 14.8106 70.1419 14.8106C69.9677 14.8106 69.8071 14.9188 69.272 15.5674C68.3491 16.6888 66.6098 18.4188 65.3255 19.2297C64.2284 19.9324 65.0177 17.4324 65.1649 17.081C65.8205 15.486 66.5698 13.986 67.252 12.5128C67.4927 11.9997 67.8541 11.2297 67.8541 10.8106C67.8541 10.216 67.2119 9.75648 66.6499 10.4456C66.3556 10.8106 66.1013 11.3783 65.9006 11.8647C65.5127 10.6888 64.2554 10.1078 63.0913 10.1078C61.9276 10.1078 60.6698 11.1488 59.8135 11.9456C58.2214 13.4319 56.0006 15.9728 54.4891 17.6483C54.0877 18.121 52.9771 19.2838 52.4956 19.2838C52.469 19.2838 52.3349 19.2838 52.3219 19.2428C52.2148 18.9188 52.2548 18.7701 52.5356 17.8783C53.0441 16.3106 54.0476 14.2565 54.7699 12.716C55.0106 12.216 55.5727 11.0401 55.5727 10.716C55.5727 10.0133 54.7834 9.79694 54.2749 10.4728C53.6062 11.3374 53.0576 13.0269 52.9505 13.1888C52.402 13.7433 51.8935 14.1888 51.4385 14.4997C50.2483 15.3106 49.5791 15.6078 48.1477 15.6078C48.5626 14.5538 49.8199 11.7024 49.8199 10.716C49.8199 10.4592 49.3519 10.081 49.2047 10.0674C49.004 10.0538 48.8699 10.2838 48.5756 10.6483C47.5591 11.8647 41.3914 19.3915 40.2277 19.3915C39.8128 19.3915 40.2142 18.3915 40.2812 18.1888C40.8833 16.4188 41.6456 14.8106 42.3683 13.0674C42.5285 12.6888 43.1977 11.1619 43.1977 10.9324C43.1977 10.5538 42.9434 10.1888 42.5285 10.1888C42.2612 10.1888 42.0605 10.4456 41.8999 10.7024C41.0435 12.0674 36.4414 19.5133 34.9699 19.5133C34.4083 19.5133 34.7561 18.6351 34.8497 18.3647L36.5485 13.7701L37.5925 11.1756C37.6856 10.9728 37.5925 10.2028 37.03 10.2028C36.8162 10.2028 36.6155 10.4324 36.3878 10.6892C34.2742 13.121 31.7857 16.1892 29.3777 18.2428C29.7656 17.4456 32.8022 10.9997 32.8022 10.6619C32.8022 10.2565 32.4683 10.2297 32.3477 10.0674C32.3254 10.0357 32.2964 10.0094 32.2628 9.99036C32.2292 9.97136 32.1918 9.96015 32.1534 9.95754C32.115 9.95493 32.0765 9.96098 32.0407 9.97527C32.0048 9.98955 31.9726 10.0117 31.9463 10.0401C31.5184 10.4997 31.09 10.986 30.7826 11.4592C30.4613 10.7024 29.632 10.1351 28.7621 10.1351C27.7991 10.1351 26.9027 10.4456 26.0999 11.0401C24.8156 12.0128 23.5313 13.2969 22.3811 14.5128C21.4046 15.5265 20.7755 16.4592 19.6384 17.4456C20.2 16.2428 20.8691 14.4592 20.8691 13.1483C20.8691 12.0133 20.722 10.9456 19.6384 10.4051C18.8626 10.0133 17.4842 10.1215 16.6819 10.4728C15.7585 10.8915 14.9692 11.6347 14.314 12.4183C13.9495 12.8548 13.5656 13.2743 13.1633 13.6756C12.2804 14.6483 11.2103 15.851 10.2599 16.7428C8.96256 17.9997 8.19981 18.3647 6.78141 18.8374C7.70481 17.5674 9.06921 14.7838 9.72486 13.2838C10.367 11.8242 10.9556 10.3647 11.5577 8.78375L13.3771 3.99966C13.7654 2.94557 13.9126 2.60784 13.5778 2.27012C13.4576 2.1483 13.297 2.08103 13.0963 2.08103C12.775 2.08103 12.4942 2.43239 12.1468 3.27012C11.2904 5.31057 10.2599 8.17557 9.41706 10.2838C8.53416 12.4728 6.87546 16.3915 5.52411 18.1215C4.97556 18.8242 4.30686 19.4456 3.43701 19.4456C2.67471 19.4456 1.91196 18.9183 1.59066 18.351C1.44351 18.0942 1.33686 17.9056 1.28331 17.7701C1.00206 17.1619 0.373412 17.3242 0.172712 17.8106C0.0791125 18.0269 0.0390625 18.1888 0.0390625 18.3106C0.0390625 19.5401 2.00556 20.986 3.24981 20.986C5.18931 20.986 8.62776 19.9319 10.1528 18.6351C11.0227 17.8783 11.6918 17.2701 12.1463 16.8106C12.6818 16.2697 13.1768 15.8378 13.7119 15.2565C13.4977 15.8647 13.1233 16.9997 13.1233 17.5269C13.1233 18.5674 13.2034 19.6888 14.0458 20.486C14.822 21.216 16.4677 20.9188 17.3776 20.5674C20.0798 19.5538 21.5648 17.4592 23.4913 15.5265C22.9427 16.9051 22.769 18.2701 23.4508 19.6483C23.9458 20.6483 24.6685 21.1483 25.7926 20.9188C24.7756 21.8915 23.5583 22.9728 22.5814 24.0269C21.4712 25.2297 19.9061 27.5406 21.217 29.0542C21.5648 29.4456 22.0463 29.6483 22.6615 29.6483C24.7225 29.6483 26.3812 25.5942 27.0634 23.9456L28.2676 20.8915C30.7291 19.1215 32.0269 17.7024 34.1135 15.5269C34.2742 15.3647 34.4348 15.1888 34.582 15.0133C34.114 16.1483 33.3242 18.1888 33.3242 19.3783C33.3242 20.3919 34.0735 20.9592 35.0234 20.9592C35.8933 20.9592 36.9499 19.9319 37.6055 19.2428L38.9434 17.7292C38.6491 18.6215 38.4619 19.5133 38.8763 20.3647C39.0635 20.7565 39.4784 20.9592 40.1071 20.9592C41.5651 20.9592 44.4284 17.5942 45.4319 16.5269L45.967 15.9188C46.034 16.1756 46.1677 16.4324 46.3414 16.581C46.0471 17.1078 44.8298 19.6756 44.8298 20.0538C44.8298 20.8242 45.7933 21.2969 46.2212 20.2833C46.3414 19.9997 46.502 19.6483 46.7297 19.1215C46.9304 18.6756 47.3849 17.4051 47.5991 17.0269C48.9505 16.9997 50.462 16.7701 51.6662 16.0674C51.2914 16.9188 50.8904 18.4592 50.8904 19.3242C50.8904 20.1756 51.6127 20.8378 52.2683 20.8378C53.8604 20.8378 57.1783 16.8783 58.342 15.6215C58.1683 16.1215 57.914 17.0538 57.914 17.4728C57.914 21.3783 61.0177 21.8915 63.3991 19.2428C63.4657 20.2428 63.8806 20.9051 64.9106 20.9051C66.4226 20.9051 69.1519 17.7297 70.262 16.6078C70.9442 15.9051 71.2385 15.486 70.6904 15.0269ZM5.13621 6.63466C5.35041 7.16194 5.75136 7.95921 6.31341 7.95921C7.12971 7.95921 7.12971 7.04012 6.84891 6.59421C6.46056 5.93239 6.17976 5.67557 6.17976 4.78375C6.17976 4.21557 6.33996 3.74284 6.68826 3.35103C7.78491 2.06784 9.84546 1.52694 11.4506 1.52694C12.829 1.52694 14.4746 1.62148 15.8786 2.05421C16.6013 2.27012 17.2034 2.60784 17.6984 3.04057C18.1664 3.45921 18.3941 4.04057 18.3941 4.79694C18.3941 5.62148 18.0062 6.25648 17.4176 6.74284C16.9496 7.13466 16.2805 7.43239 15.745 7.43239C14.9692 7.43239 14.2069 7.91875 14.7149 8.75648C14.8355 8.97284 15.0362 9.09421 15.2504 9.09421C16.5613 9.09421 17.7389 8.44557 18.5948 7.49966C19.2635 6.77012 19.8656 5.71603 19.8656 4.7833C19.8656 3.7833 19.5848 2.95921 19.0363 2.33784C17.8996 1.0533 16.1734 0.486026 14.4742 0.296481C11.7584 -0.0139737 8.88201 0.0269355 6.66126 1.55421C5.49756 2.32466 4.68126 3.52694 4.68126 4.90557C4.68126 5.35148 4.94901 6.17603 5.13576 6.63557L5.13621 6.63466Z" fill="#DB352A"/>
<path d="M65.0994 26.9865V25.5547H64.3506V25.8788C64.3506 26.0947 64.3371 26.2974 64.3101 26.5002C64.2836 26.7029 64.2435 26.8652 64.1765 27.0002H65.0994V26.9865ZM63.4808 26.9865H63.7215C63.7485 26.9461 63.7751 26.8788 63.8021 26.7974C63.8286 26.7165 63.8421 26.622 63.8687 26.5138C63.8957 26.4056 63.8957 26.2974 63.9087 26.1624C63.9222 26.0406 63.9222 25.9056 63.9222 25.7838V25.1624H65.5544V26.9865H65.8487V27.9056H65.4207V27.3783H63.8957V27.9056H63.4808V26.9865ZM61.1529 25.1624H61.6079V26.0543H62.6379V25.1624H63.0929V27.3788H62.6379V26.4456H61.6079V27.3783H61.1529V25.1624ZM59.6144 27.0274C59.6949 27.0274 59.775 27.0138 59.8421 26.9865C59.9151 26.9589 59.9796 26.9123 60.0293 26.8515C60.0959 26.7974 60.1364 26.7165 60.1629 26.622C60.1899 26.5274 60.2165 26.4193 60.2165 26.2843V26.2029C60.2165 26.0815 60.203 25.9865 60.1629 25.892C60.1327 25.8119 60.0873 25.7386 60.0293 25.6761C59.9755 25.6233 59.9119 25.5819 59.8421 25.5543C59.7693 25.5264 59.6921 25.5126 59.6144 25.5133C59.5343 25.5133 59.4537 25.527 59.3871 25.5543C59.3066 25.5815 59.253 25.622 59.1864 25.6761C59.1239 25.735 59.0778 25.8094 59.0528 25.892C59.0123 25.9865 58.9992 26.0811 58.9992 26.2029V26.2838C58.9992 26.4193 59.0123 26.5274 59.0528 26.622C59.0928 26.7165 59.1329 26.7843 59.1864 26.8515C59.253 26.9193 59.3066 26.9597 59.3871 26.9865C59.4537 27.0138 59.5343 27.0274 59.6144 27.0274ZM59.6144 27.4329C59.4672 27.4329 59.3201 27.4056 59.1864 27.3515C59.0528 27.3106 58.9457 27.2302 58.8386 27.1352C58.7402 27.0346 58.6628 26.9151 58.6109 26.7838C58.5578 26.6488 58.5308 26.4733 58.5308 26.2838V26.2029C58.5308 26.0274 58.5578 25.8652 58.6109 25.7302C58.6629 25.6028 58.7404 25.4877 58.8386 25.392C58.9322 25.2974 59.0528 25.2302 59.1864 25.1761C59.3201 25.1215 59.4672 25.1083 59.6144 25.1083C59.775 25.1083 59.9087 25.1356 60.0428 25.1761C60.1764 25.2165 60.2966 25.2974 60.3906 25.392C60.4842 25.4865 60.5643 25.6083 60.6179 25.7302C60.6714 25.8652 60.698 26.0274 60.698 26.2029V26.2838C60.698 26.4733 60.6714 26.6352 60.6179 26.7838C60.5661 26.9151 60.4888 27.0345 60.3906 27.1352C60.2938 27.2348 60.1744 27.309 60.0428 27.3515C59.9066 27.4068 59.761 27.4347 59.6144 27.4329ZM55.8821 26.2974C55.8821 26.5406 55.9487 26.7302 56.0558 26.852C56.1764 26.9733 56.3501 27.0406 56.5908 27.0406V25.5406C56.3501 25.5406 56.1629 25.5952 56.0558 25.7165C55.9356 25.8247 55.8821 26.0002 55.8821 26.2302V26.2974ZM57.7415 26.2029C57.7415 25.9733 57.6879 25.7974 57.5678 25.6893C57.4607 25.5679 57.273 25.5138 57.0323 25.5138V27.0274C57.273 27.0274 57.4607 26.9597 57.5678 26.8379C57.6879 26.7165 57.7415 26.5406 57.7415 26.2843V26.2029ZM56.5778 27.4329C56.2029 27.4329 55.9086 27.3379 55.7079 27.1356C55.5207 26.9461 55.4136 26.6624 55.4136 26.2974V26.2165C55.4136 25.8652 55.5072 25.5947 55.7079 25.4056C55.9086 25.2165 56.2029 25.122 56.5778 25.122V24.4593H57.0323V25.1215C57.4071 25.1215 57.7014 25.2161 57.9021 25.4052C58.1028 25.5943 58.1964 25.8643 58.1964 26.2161V26.297C58.1964 26.662 58.0893 26.9456 57.9021 27.1347C57.7014 27.3243 57.4206 27.432 57.0323 27.432V28.2297H56.5778V27.432V27.4329ZM52.9521 24.9056C52.7244 24.9056 52.5507 24.8647 52.4436 24.757C52.3365 24.6488 52.283 24.5138 52.283 24.3247H52.6979C52.6979 24.4324 52.7114 24.5002 52.7649 24.5406C52.805 24.5815 52.8716 24.6083 52.9521 24.6083C53.0322 24.6083 53.0858 24.5947 53.1258 24.5406C53.1659 24.5002 53.1929 24.4193 53.1929 24.3247H53.6078C53.6078 24.5138 53.5542 24.6624 53.4471 24.757C53.3535 24.8652 53.1794 24.9056 52.9521 24.9056ZM51.9756 25.1624H52.4301V26.7433L53.4872 25.1624H53.9286V27.3788H53.4737V25.8106L52.4171 27.3788H51.9756V25.1624ZM50.9451 25.1624H51.4001V27.3788H50.9451V25.1624ZM49.7814 26.9865C49.9286 26.9865 50.0357 26.9597 50.1023 26.9056C50.1693 26.8515 50.1959 26.7706 50.1959 26.6624C50.1959 26.5543 50.1693 26.4733 50.1023 26.4193C50.0357 26.3647 49.9286 26.3379 49.7814 26.3379H49.4066V26.9865H49.7814ZM48.9521 25.1624H49.4066V25.9461H49.8215C50.1023 25.9461 50.3165 26.0138 50.4371 26.1352C50.5707 26.257 50.6378 26.4324 50.6378 26.6761C50.6378 26.892 50.5707 27.0679 50.4371 27.2033C50.303 27.3247 50.0892 27.392 49.808 27.392H48.9386V25.1624H48.9521ZM46.41 25.1624H46.865V26.0543H47.9085V25.1624H48.363V27.3788H47.9085V26.4456H46.865V27.3783H46.41V25.1624ZM45.2729 26.9865V25.5547H44.5236V25.8788C44.5236 26.0947 44.5101 26.2974 44.4831 26.5002C44.4638 26.6712 44.4234 26.8392 44.363 27.0002H45.2729V26.9865ZM43.6542 26.9865H43.895C43.9292 26.927 43.9561 26.8635 43.9751 26.7974C44.0021 26.7165 44.0156 26.622 44.0286 26.5138C44.0421 26.4056 44.0691 26.2974 44.0691 26.1624C44.0822 26.0406 44.0822 25.9056 44.0822 25.7838V25.1624H45.7143V26.9865H46.0086V27.9056H45.5807V27.3783H44.0552V27.9056H43.6407V26.9865H43.6542ZM42.3429 27.0274C42.423 27.0274 42.5036 27.0138 42.5706 26.9865C42.6372 26.9597 42.7043 26.9193 42.7713 26.8515C42.8244 26.7974 42.8649 26.7165 42.905 26.622C42.945 26.5274 42.9585 26.4193 42.9585 26.2843V26.2029C42.9585 26.0815 42.945 25.9865 42.9045 25.892C42.8744 25.812 42.8291 25.7386 42.7713 25.6761C42.7038 25.6215 42.6507 25.5811 42.5702 25.5543C42.4976 25.5265 42.4205 25.5126 42.3429 25.5133C42.2628 25.5133 42.1823 25.527 42.1157 25.5543C42.0351 25.5815 41.9816 25.622 41.915 25.6761C41.8524 25.735 41.8061 25.8094 41.7809 25.892C41.7408 25.9865 41.7408 26.0811 41.7408 26.2029V26.2838C41.7408 26.4193 41.7543 26.5274 41.7813 26.622C41.8214 26.7165 41.8614 26.7843 41.915 26.8515C41.967 26.9158 42.0369 26.9628 42.1157 26.9865C42.1958 27.0138 42.2628 27.0274 42.3429 27.0274ZM42.3429 27.4329C42.1958 27.4329 42.0486 27.4056 41.915 27.3515C41.7809 27.3106 41.6742 27.2302 41.5671 27.1352C41.4687 27.0346 41.3913 26.9151 41.3394 26.7838C41.2863 26.6488 41.2593 26.4733 41.2593 26.2838V26.2029C41.2593 26.0274 41.2863 25.8652 41.3394 25.7302C41.3915 25.6029 41.4691 25.4877 41.5671 25.392C41.6607 25.2974 41.7809 25.2302 41.915 25.1761C42.0486 25.1215 42.1823 25.1083 42.3429 25.1083C42.4901 25.1083 42.6372 25.1356 42.7713 25.1761C42.905 25.2165 43.0121 25.2974 43.1187 25.392C43.2128 25.4865 43.2929 25.6083 43.3464 25.7302C43.4 25.8652 43.4265 26.0274 43.4265 26.2029V26.2838C43.4265 26.4733 43.3995 26.6352 43.3464 26.7838C43.2945 26.9151 43.2171 27.0346 43.1187 27.1352C43.0221 27.2348 42.9028 27.3091 42.7713 27.3515C42.6352 27.4068 42.4896 27.4348 42.3429 27.4329ZM39.8949 27.0274C40.0686 27.0274 40.2023 26.9597 40.3094 26.8515C40.4165 26.7302 40.47 26.5543 40.47 26.2974V26.2165C40.47 25.9733 40.4165 25.8111 40.3094 25.6893C40.2023 25.5679 40.0686 25.5274 39.8949 25.5274C39.8144 25.5274 39.7473 25.5411 39.6672 25.5679C39.6005 25.5958 39.5376 25.6322 39.48 25.6761C39.417 25.7234 39.3702 25.7896 39.3464 25.8652C39.3059 25.9324 39.2924 26.0274 39.2924 26.122V26.4193C39.2924 26.5274 39.3059 26.622 39.3464 26.6893C39.3734 26.7706 39.4265 26.8379 39.48 26.892C39.5336 26.9465 39.6002 26.9865 39.6672 27.0138C39.7473 27.0138 39.8144 27.0274 39.8949 27.0274ZM38.8374 25.1624H39.2523V25.5274C39.3198 25.4056 39.413 25.2974 39.5471 25.2302C39.6807 25.1488 39.8279 25.1083 39.9881 25.1083C40.2828 25.1083 40.5101 25.2029 40.6707 25.3788C40.8314 25.5543 40.9115 25.8243 40.9115 26.2029V26.2838C40.9115 26.4733 40.898 26.6352 40.8444 26.7838C40.8066 26.9127 40.7429 27.0323 40.6572 27.1352C40.5771 27.2302 40.47 27.2974 40.3629 27.3515C40.241 27.4068 40.1086 27.4344 39.975 27.4324C39.8258 27.432 39.679 27.395 39.5471 27.3247C39.413 27.257 39.3329 27.1624 39.2658 27.0274V28.2165H38.8113V25.162H38.8379L38.8374 25.1624ZM37.2458 27.0274C37.3259 27.0274 37.3929 27.0138 37.46 27.0002C37.5266 26.9729 37.5936 26.9461 37.6472 26.9056C37.698 26.866 37.7391 26.8152 37.7673 26.757C37.801 26.6947 37.8195 26.6252 37.8213 26.5543V26.4329H37.2192C37.0986 26.4329 37.005 26.4597 36.938 26.5002C36.9042 26.5249 36.8769 26.5575 36.8582 26.5951C36.8396 26.6328 36.8302 26.6744 36.8309 26.7165C36.8309 26.8111 36.8579 26.8788 36.9249 26.9324C36.9915 27.0006 37.0986 27.0274 37.2458 27.0274ZM37.1121 27.4329C36.9915 27.4329 36.8844 27.4193 36.7908 27.3783C36.6972 27.3379 36.6171 27.2974 36.5501 27.2302C36.4891 27.167 36.4394 27.0939 36.4029 27.0138C36.3647 26.929 36.3464 26.8365 36.3494 26.7433C36.3494 26.5274 36.4164 26.3652 36.5366 26.2433C36.6707 26.1356 36.8579 26.0815 37.1121 26.0815H37.7943V25.9597C37.7943 25.7974 37.7538 25.6761 37.6872 25.6083C37.6071 25.5543 37.5 25.5138 37.3394 25.5138C37.2057 25.5138 37.0986 25.5274 37.0316 25.5811C36.9989 25.6017 36.9711 25.6294 36.9504 25.6622C36.9296 25.695 36.9163 25.732 36.9114 25.7706H36.47C36.4835 25.6761 36.497 25.5815 36.5366 25.5138C36.5797 25.4345 36.639 25.3654 36.7107 25.3111C36.7908 25.2433 36.8714 25.2029 36.9915 25.1761C37.0986 25.1352 37.2192 25.1215 37.3529 25.1215C37.4865 25.1215 37.6071 25.1352 37.7142 25.1624C37.8209 25.1897 37.9149 25.2433 37.995 25.3111C38.0751 25.3788 38.1287 25.4597 38.1822 25.5679C38.2227 25.6624 38.2493 25.7838 38.2493 25.9324V27.122C38.2493 27.2165 38.2628 27.2974 38.2763 27.3788H37.8614C37.8479 27.3106 37.8479 27.257 37.8479 27.2165C37.8479 27.1756 37.8344 27.1083 37.8344 27.0406C37.7808 27.1488 37.6872 27.2302 37.5671 27.3111C37.46 27.392 37.3128 27.4329 37.1121 27.4329ZM33.9414 25.1624H34.3959V26.0543H35.4264V25.1624H35.8809V27.3788H35.4264V26.4456H34.3959V27.3783H33.9414V25.1624Z" fill="#333333"/>
</svg>
