<svg width="95" height="18" viewBox="0 0 95 18" fill="none" xmlns="http://www.w3.org/2000/svg">
<g clip-path="url(#clip0_1569_5302)">
<g filter="url(#filter0_bii_1569_5302)">
<path d="M8.37396 18C6.77435 18 5.3427 17.6951 4.079 17.0852C2.81531 16.4588 1.81556 15.4945 1.07974 14.1923C0.359912 12.8736 0 11.1841 0 9.12363V8.62912C0 7.11264 0.207949 5.81044 0.623848 4.72253C1.05574 3.63462 1.6476 2.74451 2.39941 2.0522C3.16723 1.34341 4.04701 0.824176 5.03877 0.494507C6.04653 0.164836 7.12626 0 8.27798 0C9.22175 0 10.1255 0.123626 10.9893 0.370879C11.8531 0.601648 12.6289 0.972527 13.3168 1.48352C14.0206 1.97802 14.5964 2.62088 15.0443 3.41209C15.5082 4.2033 15.8121 5.15934 15.9561 6.28022H10.4614C10.3655 5.83517 10.1975 5.48077 9.95757 5.21703C9.71763 4.9533 9.4457 4.77198 9.14177 4.67308C8.85384 4.55769 8.54192 4.5 8.206 4.5C7.64614 4.5 7.15825 4.63187 6.74235 4.8956C6.32646 5.15934 6.00653 5.58791 5.78259 6.18132C5.55864 6.77472 5.44667 7.59066 5.44667 8.62912V9.12363C5.44667 9.89835 5.51865 10.5659 5.66262 11.1264C5.80658 11.6703 6.00653 12.1236 6.26247 12.4863C6.53441 12.8324 6.85433 13.0879 7.22224 13.2527C7.60614 13.4176 8.03004 13.5 8.49393 13.5C8.98981 13.5 9.4297 13.4258 9.81361 13.2775C10.1975 13.1291 10.5174 12.8984 10.7734 12.5852C11.0453 12.272 11.2133 11.8929 11.2772 11.4478H8.85384V8.28297H16.316V9.61813C16.316 11.1016 16.1081 12.3791 15.6922 13.4506C15.2763 14.5055 14.7004 15.3709 13.9646 16.0467C13.2288 16.7225 12.381 17.217 11.4212 17.5302C10.4774 17.8434 9.46169 18 8.37396 18Z" fill="#262626"/>
<path d="M47.0684 18C45.4848 18 44.1571 17.8022 43.0854 17.4066C42.0137 16.9945 41.1899 16.3846 40.614 15.5769C40.0541 14.7692 39.7262 13.772 39.6302 12.5852H44.9569C45.0529 13.0797 45.2609 13.4423 45.5808 13.6731C45.9007 13.8874 46.3966 13.9945 47.0684 13.9945C47.8043 13.9945 48.3401 13.8956 48.676 13.6978C49.012 13.5 49.1799 13.2033 49.1799 12.8077C49.1799 12.4945 49.0599 12.239 48.82 12.0412C48.5961 11.8434 48.2121 11.6703 47.6683 11.522C47.1404 11.3571 46.4366 11.1758 45.5568 10.978C44.4691 10.7308 43.5173 10.4011 42.7015 9.98901C41.8857 9.56044 41.2458 8.98352 40.782 8.25824C40.3341 7.51648 40.1101 6.56044 40.1101 5.39011C40.1101 4.2033 40.3981 3.21428 40.9739 2.42308C41.5498 1.63187 42.3576 1.03022 43.3973 0.618133C44.4531 0.206045 45.6768 0 47.0684 0C48.5721 0 49.8198 0.206045 50.8115 0.618133C51.8193 1.03022 52.5951 1.62363 53.139 2.39835C53.6988 3.17308 54.0347 4.09615 54.1467 5.16758H48.82C48.756 4.78846 48.5881 4.5 48.3161 4.3022C48.0442 4.1044 47.6283 4.00549 47.0684 4.00549C46.4926 4.00549 46.0767 4.1044 45.8207 4.3022C45.5648 4.5 45.4368 4.78022 45.4368 5.14286C45.4368 5.6044 45.6848 5.94231 46.1806 6.15659C46.6765 6.37088 47.4923 6.58516 48.6281 6.79945C49.4119 6.96428 50.1557 7.17033 50.8595 7.41758C51.5633 7.64835 52.1872 7.96978 52.7311 8.38187C53.2909 8.79395 53.7228 9.32143 54.0267 9.96428C54.3467 10.5907 54.5066 11.3654 54.5066 12.2885C54.5066 13.5247 54.2027 14.5714 53.5948 15.4286C53.003 16.2857 52.1472 16.9286 51.0275 17.3571C49.9237 17.7857 48.6041 18 47.0684 18Z" fill="#262626"/>
<path d="M18.3596 17.6538V0.346154H23.7583L27.9092 8.38187L32.0602 0.346154H37.3149V17.6538H31.9882V9.22253L29.2769 14.4396H26.3976L23.6863 9.22253V17.6538H18.3596Z" fill="#262626"/>
<path d="M61.1882 13.4325V5.35554H66.227V6.30169H62.2407V8.80554H65.891V9.75169H62.2407V12.4863H66.227V13.4325H61.1882Z" fill="#262626"/>
<path d="M67.1827 13.4325L69.4109 10.3286L67.2946 7.31707H68.4368L70.0044 9.544L71.572 7.31707H72.6693L70.553 10.2709L72.7813 13.4325H71.6168L69.9596 11.044L68.3024 13.4325H67.1827Z" fill="#262626"/>
<path d="M73.9548 15.7402V7.31707H74.873V8.47092C75.0745 8.06323 75.3545 7.75169 75.7128 7.5363C76.0786 7.31323 76.5003 7.20169 76.9781 7.20169C77.7246 7.20169 78.3218 7.45554 78.7696 7.96323C79.2175 8.46323 79.4415 9.20938 79.4415 10.2017V10.4325C79.4415 11.1248 79.337 11.7017 79.128 12.1632C78.9264 12.6248 78.639 12.9709 78.2658 13.2017C77.9 13.4325 77.4708 13.5478 76.9781 13.5478C76.4705 13.5478 76.045 13.4325 75.7016 13.2017C75.3657 12.9709 75.1119 12.6825 74.9402 12.3363V15.7402H73.9548ZM76.7541 12.6478C77.2394 12.6478 77.6425 12.4594 77.9634 12.0825C78.2919 11.7055 78.4561 11.1555 78.4561 10.4325V10.2017C78.4561 9.53246 78.2919 9.01707 77.9634 8.65553C77.6425 8.2863 77.2394 8.10169 76.7541 8.10169C76.3958 8.10169 76.0786 8.17861 75.8024 8.33246C75.5336 8.4863 75.3209 8.69784 75.1641 8.96707C75.0148 9.22861 74.9402 9.52477 74.9402 9.85554V10.7786C74.9402 11.1478 75.0148 11.4748 75.1641 11.7594C75.3209 12.0363 75.5336 12.2555 75.8024 12.4171C76.0786 12.5709 76.3958 12.6478 76.7541 12.6478Z" fill="#262626"/>
<path d="M83.3072 13.5478C82.807 13.5478 82.3367 13.4363 81.8963 13.2132C81.4633 12.9902 81.1125 12.6478 80.8438 12.1863C80.5825 11.7248 80.4519 11.1402 80.4519 10.4325V10.2017C80.4519 9.52477 80.5788 8.96707 80.8326 8.52861C81.0864 8.08246 81.4223 7.75169 81.8403 7.5363C82.2584 7.31323 82.71 7.20169 83.1952 7.20169C84.0686 7.20169 84.7441 7.44784 85.2219 7.94015C85.6996 8.43246 85.9385 9.12861 85.9385 10.0286V10.6748H81.4372C81.4372 11.1517 81.5305 11.5325 81.7171 11.8171C81.9112 12.1017 82.1501 12.3094 82.4338 12.4402C82.7249 12.5632 83.016 12.6248 83.3072 12.6248C83.7551 12.6248 84.0984 12.5478 84.3373 12.394C84.5837 12.2402 84.7591 12.0286 84.8636 11.7594H85.8266C85.7071 12.344 85.4123 12.7902 84.942 13.0978C84.4791 13.3978 83.9342 13.5478 83.3072 13.5478ZM83.2512 8.12477C82.9451 8.12477 82.654 8.1863 82.3778 8.30938C82.1016 8.42477 81.8739 8.60938 81.6948 8.86323C81.5231 9.11707 81.4372 9.444 81.4372 9.844H85.0091C85.0017 9.42092 84.9158 9.0863 84.7516 8.84015C84.5948 8.5863 84.3858 8.40553 84.1246 8.29784C83.8633 8.18246 83.5722 8.12477 83.2512 8.12477Z" fill="#262626"/>
<path d="M87.3391 13.4325V7.31707H88.2572V8.47092C88.3468 8.22477 88.47 8.00938 88.6267 7.82477C88.7835 7.63246 88.9739 7.48246 89.1978 7.37477C89.4292 7.25938 89.6868 7.20169 89.9704 7.20169C90.1197 7.20169 90.2392 7.20938 90.3287 7.22477C90.4258 7.24015 90.5116 7.25938 90.5863 7.28246V8.22861C90.4892 8.19015 90.3922 8.16323 90.2951 8.14784C90.2056 8.13246 90.0787 8.12477 89.9144 8.12477C89.6158 8.12477 89.3471 8.19784 89.1082 8.344C88.8694 8.49015 88.679 8.694 88.5372 8.95553C88.3953 9.20938 88.3244 9.50938 88.3244 9.85554V13.4325H87.3391Z" fill="#262626"/>
<path d="M94.1042 13.4902C93.6862 13.4902 93.3428 13.4248 93.0741 13.294C92.8128 13.1632 92.6187 12.9671 92.4918 12.7055C92.3724 12.4363 92.3127 12.1017 92.3127 11.7017V8.21707H91.4169V7.31707H92.3127V5.93246H93.298V7.31707H94.888V8.21707H93.298V11.5863C93.298 11.9325 93.3689 12.1825 93.5108 12.3363C93.6526 12.4902 93.9251 12.5671 94.3282 12.5671C94.5521 12.5671 94.7761 12.5555 95 12.5325V13.4325C94.8582 13.4478 94.7163 13.4594 94.5745 13.4671C94.4327 13.4825 94.2759 13.4902 94.1042 13.4902Z" fill="#262626"/>
</g>
</g>
<defs>
<filter id="filter0_bii_1569_5302" x="-12.812" y="-12.812" width="120.624" height="43.6239" filterUnits="userSpaceOnUse" color-interpolation-filters="sRGB">
<feFlood flood-opacity="0" result="BackgroundImageFix"/>
<feGaussianBlur in="BackgroundImageFix" stdDeviation="6.40598"/>
<feComposite in2="SourceAlpha" operator="in" result="effect1_backgroundBlur_1569_5302"/>
<feBlend mode="normal" in="SourceGraphic" in2="effect1_backgroundBlur_1569_5302" result="shape"/>
<feColorMatrix in="SourceAlpha" type="matrix" values="0 0 0 0 0 0 0 0 0 0 0 0 0 0 0 0 0 0 127 0" result="hardAlpha"/>
<feOffset dx="-6.40598" dy="6.40598"/>
<feGaussianBlur stdDeviation="3.20299"/>
<feComposite in2="hardAlpha" operator="arithmetic" k2="-1" k3="1"/>
<feColorMatrix type="matrix" values="0 0 0 0 1 0 0 0 0 1 0 0 0 0 1 0 0 0 0.034 0"/>
<feBlend mode="normal" in2="shape" result="effect2_innerShadow_1569_5302"/>
<feColorMatrix in="SourceAlpha" type="matrix" values="0 0 0 0 0 0 0 0 0 0 0 0 0 0 0 0 0 0 127 0" result="hardAlpha"/>
<feOffset dx="6.40598" dy="-6.40598"/>
<feGaussianBlur stdDeviation="3.20299"/>
<feComposite in2="hardAlpha" operator="arithmetic" k2="-1" k3="1"/>
<feColorMatrix type="matrix" values="0 0 0 0 0.0981667 0 0 0 0 0.0981667 0 0 0 0 0.0981667 0 0 0 0.034 0"/>
<feBlend mode="normal" in2="effect2_innerShadow_1569_5302" result="effect3_innerShadow_1569_5302"/>
</filter>
<clipPath id="clip0_1569_5302">
<rect width="95" height="18" fill="white"/>
</clipPath>
</defs>
</svg>
