<svg width="96" height="30" viewBox="0 0 96 30" fill="none" xmlns="http://www.w3.org/2000/svg">
<g clip-path="url(#clip0_1581_5976)">
<path fill-rule="evenodd" clip-rule="evenodd" d="M94.7422 17.4019C94.0535 17.8158 93.162 19.4395 92.5278 21.4345L92.3072 22.1288L92.186 21.5337C91.7551 19.4169 91.3935 18.4391 90.8253 17.8546C90.4757 17.4949 90.3357 17.4176 90.0346 17.4176C89.5623 17.4176 89.0358 17.8592 88.8742 18.3914C88.535 19.5072 88.9276 21.5594 89.9331 23.9272C90.245 24.6615 90.3555 24.8177 90.7271 25.0502L91.1591 25.3202L90.7944 25.9064C90.1396 26.9591 89.7659 27.9929 89.764 28.7568C89.7624 29.3803 89.7866 29.4579 90.0688 29.7361C90.3278 29.9914 90.4295 30.0296 90.7244 29.9824C91.6552 29.8336 92.4659 28.658 94.0136 25.2133C95.4574 21.9998 95.9987 20.273 96 18.8774C96.0008 18.0309 95.8324 17.495 95.5127 17.3263C95.2315 17.178 95.0919 17.1916 94.7422 17.4019ZM46.4458 17.4859C45.0131 17.6689 43.0867 18.1885 42.5711 18.531C41.5951 19.1795 41.2016 21.1497 41.2982 24.9059C41.3676 27.6078 41.4477 28.1447 41.8433 28.5555C42.1714 28.8964 42.8965 29.2776 43.391 29.3689C44.0004 29.4817 46.5061 28.5001 47.4821 27.7663C48.2953 27.1548 48.2142 26.0483 47.3295 25.684C46.9577 25.5308 46.489 25.61 44.9434 26.0871C44.5045 26.2227 44.1084 26.311 44.063 26.2833C43.9301 26.2024 43.9667 25.1886 44.1064 25.0829C44.1756 25.0307 44.5265 24.8846 44.8862 24.7584C45.9608 24.3814 46.9061 23.8569 47.1128 23.523C47.4999 22.8972 47.2648 22.0817 46.6388 21.8781C46.1909 21.7324 45.3303 21.8766 44.5082 22.235C44.1413 22.395 43.9769 22.4303 44.0113 22.3417C44.0397 22.269 44.0937 21.9655 44.1315 21.6674L44.2003 21.1252L45.323 20.6619C46.776 20.0624 47.683 19.5297 47.8756 19.1626C48.0632 18.8049 47.9949 18.1774 47.7372 17.8921C47.5568 17.6924 46.983 17.4029 46.8263 17.4325C46.7831 17.4406 46.6118 17.4647 46.4458 17.4859ZM18.3528 17.8103C17.7059 18.199 17.6567 18.4568 17.5187 22.1784C17.4672 23.5694 17.3703 25.3637 17.3034 26.1657C17.2083 27.3052 17.2083 27.7408 17.3033 28.1592C17.5021 29.0347 18.1319 29.4624 18.8691 29.2226C19.5389 29.0047 19.8573 28.2178 20.0044 26.4157L20.0836 25.446L20.5086 25.1967L20.9336 24.9473L21.8455 26.7429C22.8475 28.716 23.3472 29.3527 23.9866 29.471C24.3759 29.5429 24.8972 29.3355 25.0017 29.0671C25.1281 28.7426 25.0586 27.9083 24.8558 27.3149C24.6717 26.7762 23.0577 23.6558 22.8468 23.4308C22.8022 23.3833 23.01 23.0526 23.3085 22.6958C24.298 21.5132 24.9899 19.934 25.0053 18.8228C25.0131 18.2526 24.9879 18.1727 24.7316 17.955C23.9846 17.3204 23.2513 17.8552 22.0842 19.8858C21.5521 20.8118 20.3407 22.3767 20.156 22.3767C20.1162 22.3767 20.0836 21.5845 20.0836 20.6162C20.0836 18.6569 20.0041 18.2722 19.5158 17.8672C19.153 17.5663 18.7884 17.5485 18.3528 17.8103ZM51.9594 17.7622C51.2661 17.954 50.3392 18.3428 49.7773 18.6773C49.3509 18.9312 49.3175 18.9823 49.2433 19.497C49.1997 19.7989 49.1637 21.8312 49.1633 24.0132C49.1626 27.616 49.1797 28.0322 49.3498 28.5429C49.5827 29.242 49.9718 29.6326 50.4488 29.6459C51.3713 29.6717 51.8519 28.7196 51.9916 26.5894L52.0586 25.5689L52.4918 25.5048C53.4893 25.3574 54.8091 24.4397 55.5007 23.4129C56.044 22.6058 56.2687 21.8949 56.2667 20.9889C56.2637 19.6237 55.6145 18.4993 54.5077 17.9422C53.8701 17.6212 52.7541 17.5424 51.9594 17.7622ZM83.9264 17.7681C83.225 17.9591 81.6655 18.6828 81.4505 18.9171C81.2121 19.1767 81.0784 21.8947 81.1388 25.253C81.1926 28.2423 81.2758 28.7587 81.7961 29.3328C82.3054 29.8947 83.1196 29.7039 83.5208 28.9288C83.7636 28.4596 84.027 27.041 84.027 26.2021V25.5902L84.6059 25.4724C86.2617 25.1353 87.9232 23.4103 88.2565 21.6824C88.5445 20.19 87.7926 18.5906 86.4962 17.938C85.8594 17.6173 84.7494 17.5439 83.9264 17.7681ZM37.8298 17.8678C35.4808 18.2285 34.0826 18.8889 33.8301 19.7568C33.6994 20.2057 33.8603 20.4778 34.3952 20.7126C34.7468 20.867 35.0795 20.9234 35.6437 20.9243L36.4128 20.9255L36.4191 24.3916C36.4261 28.2419 36.4812 28.7427 36.9561 29.2759C37.523 29.9123 38.3756 29.6755 38.7628 28.774C38.8556 28.558 38.8834 27.9059 38.8644 26.3945C38.837 24.2056 39.0087 20.915 39.1601 20.7315C39.209 20.6721 39.4421 20.5674 39.6779 20.4988C40.7253 20.194 41.767 19.3721 41.767 18.8505C41.767 18.4181 41.5001 18.048 41.0645 17.8762C40.562 17.678 39.09 17.6742 37.8298 17.8678ZM2.63067 17.9165C2.13975 18.0181 1.28771 18.4099 0.957076 18.686C0.841565 18.7825 0.581162 19.0756 0.378515 19.3374C-0.170765 20.0466 -0.118543 20.7157 0.511131 21.0368C1.05548 21.3142 1.54801 21.1903 2.34059 20.5765C2.69316 20.3033 3.3178 19.9963 3.52075 19.9963C3.57368 19.9963 3.7562 20.1119 3.92645 20.2531C4.1791 20.4626 4.23605 20.5844 4.23605 20.9148C4.23605 21.2655 4.17518 21.3773 3.78166 21.7489C3.50395 22.0111 2.91804 22.3727 2.27509 22.6783C1.69643 22.9535 1.15379 23.2759 1.06927 23.3948C0.85374 23.6981 0.87819 24.1875 1.1242 24.4958C1.38229 24.8193 1.75941 24.8357 2.57584 24.5587C3.63324 24.2002 4.02505 24.3342 4.38215 25.1768C4.72727 25.9908 4.48186 26.7107 3.71424 27.1359C3.2366 27.4005 2.65824 27.4422 1.4974 27.2954C0.709451 27.1958 0.299127 27.3149 0.123748 27.6944C-0.302978 28.6175 0.537695 29.3809 2.17336 29.5559C5.01857 29.8601 7.45858 27.2608 6.71018 24.723C6.52604 24.099 5.9831 23.4164 5.51683 23.2227L5.23792 23.107L5.61423 22.8658C6.11642 22.5439 6.41325 22.0851 6.55512 21.4115C6.86754 19.928 6.14379 18.5037 4.85315 18.0624C4.27107 17.8633 3.2207 17.7944 2.63067 17.9165ZM11.4806 18.0146C10.1481 18.6278 9.08388 20.724 8.41004 24.0628C8.06139 25.7903 7.97335 27.4885 8.1936 28.2354C8.40702 28.9592 8.664 29.2203 9.16257 29.2203C9.91238 29.2203 10.5499 28.3782 10.8407 27.0035C10.9227 26.616 11.0033 26.2856 11.0197 26.2693C11.0543 26.2352 12.7764 25.9517 12.9648 25.949C13.0496 25.9479 13.0907 26.117 13.0913 26.468C13.0933 27.789 13.4913 29.0126 14.0042 29.274C14.9149 29.7383 15.6903 29.0402 15.9046 27.5634C16.0379 26.645 15.8787 24.9412 15.4526 22.7239C14.9195 19.95 14.404 18.744 13.4996 18.1539C12.9423 17.7905 12.0947 17.732 11.4806 18.0146ZM29.5052 17.9412C28.9056 18.1301 28.1455 18.9229 27.652 19.8738C26.1096 22.8463 25.4358 27.9471 26.4408 29.0418C26.6904 29.3137 27.3906 29.2808 27.7529 28.9804C28.1498 28.6512 28.5496 27.8059 28.698 26.982C28.7661 26.6038 28.8318 26.2807 28.8439 26.2639C28.8883 26.2021 30.8303 25.9445 30.8803 25.9939C30.9088 26.022 30.9668 26.4868 31.0093 27.0268C31.091 28.0664 31.3524 28.8561 31.7249 29.1885C31.8641 29.3126 32.0851 29.3691 32.431 29.3691C32.8796 29.3691 32.9654 29.3327 33.2174 29.0352C33.947 28.1737 33.9959 26.3254 33.3765 23.0214C32.8571 20.2511 32.5534 19.3826 31.8265 18.5878C31.1924 17.8946 30.3755 17.667 29.5052 17.9412ZM59.7977 17.9751C58.6891 18.3766 57.5829 19.9058 57.1418 21.6464C56.8313 22.8719 56.8305 25.2357 57.1401 26.3583C57.5629 27.8908 58.3615 29.0041 59.3556 29.4466C60.0669 29.7632 61.1564 29.7421 61.9129 29.3973C63.0037 28.9 63.8362 27.7323 64.2665 26.0961C64.527 25.1058 64.528 22.4475 64.2683 21.3353C63.9046 19.7773 63.2245 18.6651 62.3139 18.139C61.7388 17.8068 60.4875 17.7252 59.7977 17.9751ZM68.0286 17.9255C67.1826 18.2571 66.547 19.5041 66.0931 21.7226C65.7954 23.1769 65.7675 26.5806 66.0441 27.6622C66.4452 29.2302 67.0788 29.803 67.6596 29.1227C68.2165 28.4703 68.4771 27.385 68.6353 25.0596C68.6927 24.2169 68.7519 23.5151 68.767 23.5003C68.7821 23.4854 68.8514 23.7509 68.9212 24.0904C69.3666 26.2587 70.2901 28.655 70.8098 28.9906C71.0425 29.141 71.0984 29.1435 71.3332 29.0135C72.0194 28.6339 72.662 26.9207 73.2088 24.0132L73.4325 22.823L73.5029 23.4677C73.8349 26.5112 74.3753 28.934 74.8335 29.4329C75.0831 29.7048 75.4201 29.6597 75.7144 29.315C76.221 28.7214 76.3792 27.6819 76.3776 24.9555C76.3758 22.0066 76.1074 20.2405 75.4726 19.0008C75.0739 18.2225 74.681 17.9135 74.0898 17.9135C73.6684 17.9135 73.5845 17.9563 73.1666 18.3846C72.6392 18.9253 72.0976 19.8927 71.4871 21.3849C71.1588 22.1872 71.0446 22.3808 70.9896 22.2279C70.7257 21.4947 69.9723 19.7495 69.706 19.2542C69.3549 18.6014 68.6474 17.8107 68.4231 17.8206C68.3445 17.824 68.1669 17.8712 68.0286 17.9255ZM52.1923 20.8537L51.9018 21.0088L51.9659 21.7573C52.0013 22.169 52.0301 22.6103 52.0301 22.7379V22.97L52.5297 22.6669C53.4339 22.1185 53.7588 21.4783 53.4353 20.8824C53.3045 20.6415 52.6195 20.6256 52.1923 20.8537ZM84.1895 20.8536C83.903 21.0065 83.9 21.017 83.9624 21.6679C83.9971 22.0305 84.0259 22.4735 84.0263 22.6524L84.027 22.9778L84.4358 22.7516C85.0799 22.3955 85.5363 21.8463 85.5363 21.4276C85.5363 20.8573 85.392 20.69 84.9039 20.6946C84.6707 20.6968 84.3492 20.7683 84.1895 20.8536ZM11.797 21.1617C11.6041 21.5376 11.3559 22.5209 11.2314 23.4029L11.1636 23.8835L11.4478 23.8284C11.6042 23.7981 11.9926 23.7441 12.3107 23.7082L12.8893 23.6433V22.9316C12.8893 22.2101 12.67 21.1562 12.4707 20.9194C12.2677 20.6782 11.9947 20.7764 11.797 21.1617ZM29.6055 21.2771C29.3934 21.763 28.9984 23.709 29.093 23.8023C29.1192 23.8281 29.5198 23.8015 29.9834 23.7432L30.8262 23.637L30.758 22.748C30.7206 22.259 30.6128 21.6295 30.5184 21.3491C30.3762 20.927 30.3016 20.8342 30.0847 20.8094C29.856 20.7832 29.795 20.8428 29.6055 21.2771ZM60.4563 21.294C59.5551 21.8114 59.4422 25.32 60.2924 26.3854C60.457 26.5917 60.5771 26.6455 60.8208 26.6222C61.0822 26.5971 61.1743 26.5157 61.3592 26.1457C62.0133 24.8374 61.8649 21.9676 61.1131 21.3847C60.8268 21.1627 60.7126 21.147 60.4563 21.294ZM78.2533 27.3874C77.7156 27.5697 77.5874 27.7126 77.5874 28.1299C77.5874 28.4374 77.656 28.5641 77.9782 28.851C78.7364 29.5261 79.8123 29.4226 80.1137 28.6453C80.2307 28.344 80.0091 27.8248 79.6704 27.606C79.2524 27.3361 78.6701 27.2463 78.2533 27.3874Z" fill="#4AC2F7"/>
<path fill-rule="evenodd" clip-rule="evenodd" d="M14.5343 9.89258C13.7599 10.0913 13.0115 10.7477 12.7621 11.4465C12.5432 12.0598 12.5836 13.42 12.8367 13.9595C13.1001 14.521 13.6865 15.0905 14.1682 15.2527C14.6383 15.411 15.6373 15.411 16.1074 15.2527C16.5933 15.089 17.1796 14.5164 17.4299 13.9611C17.7131 13.3325 17.7684 12.3487 17.5602 11.6455C17.3695 11.0016 16.8624 10.3862 16.2837 10.0964C15.8527 9.88053 14.9781 9.77863 14.5343 9.89258ZM19.7852 9.86799C19.6794 9.97197 19.6997 15.3142 19.8062 15.3788C19.8565 15.4093 19.9697 15.4072 20.0577 15.3741C20.1886 15.3248 20.2176 15.1407 20.2176 14.3576V13.4013L20.6682 12.9673C20.916 12.7286 21.134 12.5527 21.1526 12.5764C21.6206 13.1726 23.4077 15.3057 23.4831 15.3581C23.5404 15.3979 23.6326 15.4164 23.688 15.3993C23.9841 15.3072 23.7701 14.9249 22.6796 13.5978L21.5036 12.1665L22.4692 11.1897C23.1275 10.5238 23.4158 10.1637 23.3746 10.0586C23.244 9.72413 22.9128 9.95873 21.6166 11.3042L20.2679 12.7039L20.2176 11.2806C20.1759 10.0999 20.1408 9.85229 20.0115 9.828C19.9258 9.81191 19.824 9.82988 19.7852 9.86799ZM27.1986 9.88113C27.0235 9.99586 26.9273 10.215 25.9552 12.7138C25.4505 14.0108 25.0515 15.1422 25.0684 15.2281C25.0852 15.314 25.1882 15.3843 25.2971 15.3843C25.4545 15.3843 25.568 15.1963 25.8489 14.4702L26.2027 13.5562L27.3989 13.5816L28.5953 13.607L28.9162 14.425C29.3011 15.4055 29.4085 15.5383 29.6362 15.3148C29.7861 15.1676 29.7221 14.9584 28.8213 12.6531C27.729 9.85802 27.5917 9.62352 27.1986 9.88113ZM39.3968 9.87145C39.2932 9.97305 39.3169 15.3155 39.4213 15.3788C39.4716 15.4093 39.5847 15.4072 39.6727 15.3741C39.8079 15.3231 39.8327 15.1092 39.8327 13.9914V12.669H41.4393H43.0459L43.0739 14.0267C43.1003 15.3094 43.1129 15.3843 43.303 15.3843C43.4987 15.3843 43.5049 15.3098 43.531 12.6755C43.5458 11.1858 43.5194 9.92911 43.4724 9.883C43.4254 9.83689 43.3115 9.82751 43.2192 9.86227C43.0763 9.91618 43.0516 10.0913 43.0516 11.0504V12.1753H41.4421H39.8327V11.0504C39.8327 10.1157 39.8058 9.91529 39.6735 9.86552C39.4766 9.79127 39.4784 9.79127 39.3968 9.87145ZM47.3498 9.97838C47.114 10.2347 45.236 15.1194 45.3052 15.2964C45.4441 15.6518 45.7226 15.3659 46.0862 14.4944L46.4563 13.607H47.6394H48.8223L49.1875 14.4957C49.4696 15.1819 49.5967 15.3843 49.746 15.3843C49.8522 15.3843 49.953 15.314 49.9698 15.2281C49.9972 15.0889 48.3271 10.6571 48.0579 10.1546C47.8532 9.77232 47.5978 9.70873 47.3498 9.97838ZM55.9774 9.89791C55.1628 10.0926 54.4374 10.7733 54.2038 11.5624C53.9874 12.2933 54.038 13.4175 54.3127 13.9793C54.8344 15.0468 55.9503 15.5885 57.1342 15.3492C57.8681 15.2009 58.4029 14.8121 58.7834 14.1501C59.0749 13.643 59.0957 13.5416 59.0957 12.6197C59.0957 11.7138 59.0714 11.5894 58.8029 11.1135C58.4459 10.4812 57.9648 10.1051 57.2943 9.93435C56.7455 9.79463 56.4444 9.78634 55.9774 9.89791ZM61.2283 9.86799C61.1896 9.90611 61.1578 11.147 61.1578 12.6256C61.1578 14.9919 61.1769 15.3211 61.3177 15.3741C61.6092 15.4839 61.6607 15.332 61.6607 14.3623V13.4013L62.113 12.9656C62.3843 12.7043 62.599 12.5676 62.6496 12.6242C62.6961 12.676 63.1937 13.2791 63.7555 13.9644C64.9795 15.4575 65.0272 15.5015 65.234 15.3331C65.4308 15.1727 65.3769 15.0898 63.9959 13.4274L62.9443 12.1617L63.9218 11.1852C64.4593 10.6481 64.8797 10.1513 64.8559 10.0812C64.7325 9.71761 64.4168 9.93425 63.087 11.295L61.711 12.7028L61.6607 11.2801C61.619 10.0998 61.5839 9.85229 61.4546 9.828C61.3689 9.81191 61.2671 9.82988 61.2283 9.86799ZM0.854027 9.97216C0.743378 10.0004 0.573581 10.0924 0.476814 10.1767C0.317982 10.315 0.300781 10.5728 0.300781 12.8219C0.300781 15.0087 0.320396 15.3212 0.460719 15.3741C0.548736 15.4072 0.6619 15.4093 0.712195 15.3788C0.762993 15.348 0.803732 14.2804 0.803732 12.9792C0.803732 11.2876 0.837328 10.602 0.924439 10.5165C1.05169 10.3916 3.85483 10.3411 4.16525 10.458C4.30437 10.5103 4.32438 10.8203 4.32438 12.9159C4.32438 15.0168 4.3442 15.3213 4.48432 15.3741C4.57234 15.4072 4.6855 15.4093 4.7358 15.3788C4.7869 15.3479 4.82733 14.2194 4.82733 12.8266C4.82733 10.415 4.82009 10.3235 4.61589 10.1418C4.42749 9.97424 4.22158 9.95192 2.72983 9.93731C1.80883 9.92832 0.964676 9.94402 0.854027 9.97216ZM7.3787 10.0143C6.98348 10.2123 6.93972 10.5006 6.93972 12.9085C6.93972 14.8357 6.96437 15.2322 7.09061 15.335C7.21102 15.433 7.27197 15.433 7.39238 15.335C7.51027 15.2389 7.54327 14.9668 7.54327 14.0887V12.9652H8.62622C9.47912 12.9652 9.78351 12.927 10.0596 12.7851C10.4438 12.5878 10.8627 11.909 10.8627 11.4842C10.8627 11.066 10.4425 10.3715 10.058 10.1543C9.77677 9.99556 9.4934 9.95064 8.64976 9.93109C8.03435 9.91687 7.50393 9.95163 7.3787 10.0143ZM30.9912 9.99458C30.9141 10.0426 30.8787 10.1531 30.9126 10.2399C30.9626 10.3678 31.1386 10.398 31.8326 10.398H32.6908V12.8559C32.6908 15.0116 32.7105 15.3212 32.8507 15.3741C32.9387 15.4072 33.0519 15.4093 33.1022 15.3788C33.1532 15.3479 33.1937 14.233 33.1937 12.8607V10.398H34.0519C34.7459 10.398 34.9219 10.3678 34.9719 10.2399C35.0059 10.1531 34.9705 10.0426 34.8933 9.99458C34.816 9.94659 33.9381 9.90739 32.9423 9.90739C31.9464 9.90739 31.0685 9.94659 30.9912 9.99458ZM14.4493 10.4433C13.5868 10.7452 13.1651 11.4598 13.1651 12.6197C13.1651 13.4886 13.3872 14.0732 13.8683 14.4705C14.936 15.3524 16.5531 14.8967 17.0109 13.5848C17.1993 13.045 17.1785 12.1056 16.9661 11.5628C16.5728 10.5574 15.4941 10.0776 14.4493 10.4433ZM55.8768 10.4466C55.3971 10.612 54.8597 11.1821 54.7207 11.6732C54.5879 12.1425 54.5934 13.1161 54.7316 13.6048C54.9707 14.4501 55.9549 15.0308 56.9269 14.9C57.7658 14.7872 58.3456 14.2056 58.5493 13.2731C58.9682 11.3551 57.5606 9.86632 55.8768 10.4466ZM7.61871 10.4541C7.57726 10.4957 7.54327 10.9666 7.54327 11.5006V12.4715H8.60721C9.64902 12.4715 9.67728 12.4655 9.96517 12.1829C10.3738 11.7818 10.3755 11.22 9.9693 10.7738C9.68573 10.4623 9.65757 10.4545 8.68677 10.4169C8.14087 10.3959 7.66015 10.4125 7.61871 10.4541ZM27.1778 11.0083C27.0672 11.2971 26.8591 11.8387 26.7154 12.2118C26.5717 12.5848 26.4542 12.9292 26.4542 12.977C26.4542 13.0249 26.8842 13.064 27.4098 13.064C27.9354 13.064 28.3654 13.0495 28.3654 13.0317C28.3654 12.9731 27.4488 10.5515 27.4136 10.5169C27.3946 10.4983 27.2886 10.7195 27.1778 11.0083ZM47.1769 11.6508C46.9366 12.2922 46.7202 12.8727 46.6957 12.9406C46.6621 13.0338 46.8879 13.064 47.6176 13.064C48.1492 13.064 48.584 13.0362 48.584 13.0023C48.584 12.9186 47.7796 10.7767 47.687 10.6141C47.6422 10.535 47.443 10.9395 47.1769 11.6508Z" fill="url(#paint0_linear_1581_5976)"/>
<path d="M71.1699 9.92941L69.3353 9.94155C66.8473 9.95804 67.0423 9.73094 67.0423 12.612C67.0423 14.6453 67.0575 14.837 67.2339 15.0284C67.4142 15.2239 67.5253 15.2362 69.1092 15.2362C70.4966 15.2362 70.8028 15.2108 70.8495 15.0913C70.9469 14.8424 70.7086 14.7934 69.1547 14.7425L67.6458 14.6932L67.6171 13.7305L67.5883 12.7678H69.0445C70.5135 12.7678 70.7559 12.7099 70.509 12.4178C70.4133 12.3046 70.091 12.2741 68.9915 12.2741H67.5955V11.396C67.5955 10.6863 67.626 10.5064 67.7547 10.458C67.8422 10.425 68.5626 10.398 69.3557 10.398C70.1488 10.398 70.8127 10.3637 70.8312 10.3217L71.1699 9.92941Z" fill="url(#paint1_linear_1581_5976)"/>
<path fill-rule="evenodd" clip-rule="evenodd" d="M84.562 0.154864C84.2411 0.29339 83.1245 0.970934 83.1245 1.0271C83.1245 1.04317 83.2715 1.0392 83.4514 1.01827C83.7619 0.981948 83.7686 0.987803 83.5831 1.13466C83.4756 1.2197 83.4304 1.28996 83.4825 1.29075C83.5345 1.29165 83.5201 1.32796 83.4505 1.37163C83.3601 1.42819 83.4393 1.54647 83.7271 1.78472C83.9489 1.9682 84.1304 2.16845 84.1304 2.22967C84.1304 2.2909 83.9636 2.40044 83.7598 2.47308C83.348 2.62004 81.1866 4.0301 80.4373 4.64057C80.1725 4.8564 79.7262 5.15349 79.4456 5.30085C79.1648 5.44811 78.5588 5.88958 78.0988 6.28184C77.6388 6.6741 77.1028 7.11736 76.9077 7.2669L76.553 7.53879L76.3144 7.19248C76.1832 7.00195 76.0209 6.84676 75.9537 6.84745C75.8865 6.84825 75.3111 7.31701 74.6748 7.88917C74.0386 8.46133 73.4048 8.95848 73.2665 8.9938C73.1282 9.02923 72.6085 9.25825 72.1114 9.50285L71.2078 9.9475L70.8778 10.3316C70.9504 10.2665 71.4432 10.0087 72.0215 9.73466C72.9457 9.29665 73.2082 9.2128 73.5304 9.2525C74.3976 9.35927 77.0056 9.93193 77.4997 10.124C77.9732 10.3081 78.0431 10.3136 78.1812 10.1774C78.3193 10.0412 78.3137 10.0025 78.1271 9.80035C78.0127 9.67641 77.7483 9.31779 77.5395 9.00353L77.1599 8.43206L77.3301 8.05965C77.4624 7.77029 77.6395 7.61579 78.1246 7.36692C78.4679 7.19089 79.1071 6.81183 79.5449 6.52475C79.9828 6.23758 80.4807 5.91697 80.6514 5.81208C80.8221 5.70729 81.1595 5.49306 81.4014 5.33607C81.6431 5.17909 81.8574 5.06706 81.8778 5.08711C81.898 5.10705 81.7985 5.67852 81.6565 6.35696C81.273 8.19063 81.427 9.10067 82.2342 9.77078C82.6525 10.1179 82.8699 10.1985 84.0283 10.4354C84.5531 10.5427 84.9965 10.6444 85.0137 10.6614C85.0309 10.6783 85.1791 11.4902 85.3429 12.4655C85.5068 13.4408 85.6626 14.3339 85.6892 14.4501C85.7334 14.6433 85.6578 14.6795 84.8083 14.8726C84.2971 14.9887 83.5168 15.1517 83.0742 15.2348C81.7563 15.4823 81.544 15.5575 81.4797 15.8002C81.3993 16.1033 81.6413 16.4297 82.1271 16.6742C82.4815 16.8526 82.6036 16.8665 83.0561 16.7802C83.3427 16.7256 83.9166 16.653 84.3316 16.6189C87.2232 16.381 90.5728 15.4766 93.4743 14.1502C94.2273 13.8061 94.966 13.4748 95.1159 13.4142C95.3792 13.3077 95.799 12.6651 95.799 12.3684C95.799 12.2904 95.7131 12.1219 95.6081 11.9939C95.3823 11.7191 95.5809 11.6745 92.6902 12.6477C91.6166 13.0091 90.6728 13.2917 90.593 13.2756C90.5039 13.2577 90.0622 12.2306 89.4497 10.6169C88.9008 9.17063 88.3903 7.94176 88.3153 7.88609C88.2403 7.83043 87.5395 7.63167 86.7581 7.44452C85.9767 7.25737 85.3375 7.06596 85.3375 7.01922C85.3375 6.81054 87.0911 3.75067 87.3065 3.58357C87.5525 3.39255 88.1646 3.32001 90.3381 3.22396C90.8477 3.20143 91.6465 3.13296 92.113 3.07164C93.0071 2.95435 93.3572 3.03125 93.681 3.41617C93.8793 3.65174 94.0182 3.60332 93.947 3.32349C93.8652 3.00208 94.1297 2.98541 94.4597 3.29114L94.6925 3.50696V3.28171C94.6925 2.97062 94.3515 2.52726 94.0161 2.40203C93.5148 2.21489 90.461 2.06058 89.4617 2.17192C89.2681 2.19355 88.5326 2.20466 87.8271 2.19673L86.5446 2.18234L86.544 1.81022C86.5431 1.20671 86.3453 0.675922 85.991 0.326433C85.618 -0.0415129 85.1476 -0.0979746 84.562 0.154864ZM74.0796 8.74523C74.2662 8.60125 74.714 8.22844 75.075 7.91676C75.7301 7.35075 75.7313 7.35025 75.9322 7.54732C76.0741 7.68654 76.1482 7.9241 76.1837 8.35436C76.2135 8.71556 76.2852 8.98071 76.3597 9.00492C76.4386 9.03052 76.4855 8.95014 76.4855 8.78939C76.4855 8.64838 76.5265 8.53308 76.5766 8.53308C76.701 8.53308 77.4191 9.53044 77.3464 9.60218C77.2917 9.65617 75.3115 9.34508 74.2328 9.11298L73.7405 9.0071L74.0796 8.74523ZM86.3937 9.52538C86.2001 9.4073 86.0416 9.28683 86.0416 9.25766C86.0416 9.22848 86.1435 9.23146 86.268 9.2644C86.3924 9.29725 86.6874 9.32483 86.9235 9.32553L87.3527 9.32692L88.4076 11.4764C88.9879 12.6587 89.4504 13.6381 89.4355 13.6529C89.4028 13.685 86.8862 14.3877 86.8035 14.3877C86.7717 14.3877 86.7458 13.342 86.7458 12.0639V9.74001L86.3937 9.52538Z" fill="url(#paint2_linear_1581_5976)"/>
</g>
<defs>
<linearGradient id="paint0_linear_1581_5976" x1="0.300781" y1="9.80561" x2="0.300781" y2="15.4337" gradientUnits="userSpaceOnUse">
<stop stop-color="#FDA400"/>
<stop offset="1" stop-color="#FDA400"/>
</linearGradient>
<linearGradient id="paint1_linear_1581_5976" x1="0.300781" y1="9.80561" x2="0.300781" y2="15.4337" gradientUnits="userSpaceOnUse">
<stop stop-color="#FDA400"/>
<stop offset="1" stop-color="#FDA400"/>
</linearGradient>
<linearGradient id="paint2_linear_1581_5976" x1="95.799" y1="-0.000726784" x2="95.799" y2="16.8684" gradientUnits="userSpaceOnUse">
<stop stop-color="#F96300"/>
<stop offset="1" stop-color="#FFD000"/>
</linearGradient>
<clipPath id="clip0_1581_5976">
<rect width="96" height="30" fill="white"/>
</clipPath>
</defs>
</svg>
