<svg width="84" height="26" viewBox="0 0 84 26" fill="none" xmlns="http://www.w3.org/2000/svg">
<g clip-path="url(#clip0_1569_5267)">
<path fill-rule="evenodd" clip-rule="evenodd" d="M11.1877 0C14.0496 2.79033 17.4403 4.05942 21.8634 4.05942C21.8634 4.75557 21.8771 5.48054 21.8911 6.22613C22.0242 13.2669 22.192 22.1467 11.1877 25.9618C0.180386 22.1407 0.349544 13.2729 0.483798 6.23478C0.498078 5.48621 0.511962 4.75833 0.511962 4.05942C4.93499 4.05942 8.3257 2.79033 11.1877 0ZM11.0628 2.07568C13.4124 4.42429 16.1961 5.49248 19.8273 5.49248C19.8273 6.07843 19.8386 6.68863 19.8501 7.3162C19.9593 13.2424 20.0971 20.7165 11.0628 23.9276C2.02609 20.7114 2.16496 13.2474 2.27518 7.32348C2.28691 6.6934 2.2983 6.08075 2.2983 5.49248C5.92951 5.49248 8.71321 4.42429 11.0628 2.07568Z" fill="#353A40"/>
<path d="M11.0619 13.0018H20.7137C20.7137 20.0617 14.2792 24.0678 11.0619 25.1885V13.0018H1.41016V5.01742C4.62741 4.45711 11.0619 2.91627 11.0619 1.23535V13.0018Z" fill="#353A40"/>
<path d="M32.7135 14.8659H31.4077L29.3077 11.3636C29.2466 11.2565 29.1703 11.1036 29.0939 10.9124H29.071C29.0252 11.0118 28.9565 11.1648 28.8572 11.3636L26.6885 14.8659H25.375L28.4372 10.2624L25.6194 5.7124H26.9328L28.8037 8.93181C28.9259 9.14593 29.0328 9.36005 29.1321 9.56652H29.155C29.2925 9.28358 29.407 9.06181 29.5139 8.90123L31.4612 5.7124H32.6906L29.8194 10.2471L32.7135 14.8659Z" fill="#353A40"/>
<path d="M36.4402 11.4096V14.8661H35.3711V5.72021H37.8835C38.8609 5.72021 39.6169 5.95727 40.1515 6.43139C40.686 6.90551 40.9609 7.57845 40.9609 8.45022C40.9609 9.32198 40.6631 10.0255 40.0675 10.5837C39.4718 11.1343 38.6624 11.4096 37.6467 11.4096H36.4402ZM36.4402 6.68374V10.4384H37.5627C38.3035 10.4384 38.8685 10.2702 39.258 9.93374C39.6475 9.59727 39.8384 9.11551 39.8384 8.50374C39.8384 7.29551 39.1282 6.69139 37.7002 6.69139L36.4402 6.68374Z" fill="#353A40"/>
<path d="M50.002 14.8659H48.8184L47.8486 12.3042H43.977L43.0682 14.8659H41.877L45.382 5.7124H46.4893L50.002 14.8659ZM47.4973 11.3406L46.0617 7.44064C46.0159 7.31064 45.97 7.11181 45.9242 6.82887H45.8937C45.8479 7.08887 45.802 7.29534 45.7486 7.44064L44.3282 11.3406H47.4973Z" fill="#353A40"/>
<path d="M52.6133 14.8661V5.72021H57.4929V6.69139H53.6824V9.60492H55.4158C56.3246 9.60492 57.0347 9.82669 57.5387 10.2626C58.0427 10.6985 58.2947 11.3332 58.2947 12.1437C58.2947 12.9849 58.0275 13.6502 57.5006 14.1396C56.966 14.629 56.2482 14.8737 55.3242 14.8737H52.6133V14.8661ZM53.6824 10.5684V13.9026H55.1867C55.8206 13.9026 56.3093 13.7573 56.6529 13.459C56.9966 13.1608 57.1722 12.7479 57.1722 12.2049C57.1722 11.119 56.5078 10.5684 55.1867 10.5684H53.6824Z" fill="#353A40"/>
<path d="M62.4109 11.4096V14.8661H61.3418V5.72021H63.8542C64.8316 5.72021 65.5876 5.95727 66.1222 6.43139C66.6567 6.90551 66.9316 7.57845 66.9316 8.45022C66.9316 9.32198 66.6338 10.0255 66.0382 10.5837C65.4425 11.1343 64.6331 11.4096 63.6174 11.4096H62.4109ZM62.4109 6.68374V10.4384H63.5334C64.2742 10.4384 64.8392 10.2702 65.2287 9.93374C65.6182 9.59727 65.8091 9.11551 65.8091 8.50374C65.8091 7.29551 65.0989 6.69139 63.6709 6.69139L62.4109 6.68374Z" fill="#353A40"/>
<path d="M75.9649 14.8659H74.7813L73.8115 12.3042H69.9398L69.0311 14.8659H67.8398L71.3449 5.7124H72.4522L75.9649 14.8659ZM73.4602 11.3406L72.0246 7.44064C71.9788 7.31064 71.9329 7.11181 71.8871 6.82887H71.8642C71.8184 7.08887 71.7726 7.29534 71.7191 7.44064L70.2988 11.3406H73.4602Z" fill="#353A40"/>
<path d="M83.8845 14.8659H82.8154V10.9736H81.4867C81.2347 10.9736 81.0056 11.0424 80.8147 11.18C80.6238 11.3177 80.4176 11.6312 80.1961 12.1053L79.0507 14.8583H77.7754L79.1652 11.7995C79.2568 11.6006 79.3943 11.3865 79.5776 11.1648C79.7608 10.943 79.9747 10.7824 80.2267 10.6906V10.6677C79.6158 10.5377 79.1499 10.2548 78.8063 9.83417C78.4627 9.41358 78.3023 8.89358 78.3023 8.28946C78.3023 7.50946 78.5696 6.89005 79.1118 6.41593C79.6539 5.94181 80.3641 5.7124 81.2423 5.7124H83.8921V14.8659H83.8845ZM82.8154 10.0024V6.68358H81.3339C80.7307 6.68358 80.2648 6.82887 79.9288 7.11181C79.5928 7.39476 79.4248 7.80005 79.4248 8.32005C79.4248 8.84005 79.5928 9.25299 79.9365 9.55123C80.2801 9.84946 80.7307 10.0024 81.3034 10.0024H82.8154Z" fill="#353A40"/>
<g opacity="0.6">
<path opacity="0.6" d="M27.774 18.9801H27.1936V20.6472H26.5216V18.9801H25.9336V18.4678H27.774V18.9801Z" fill="#353A40"/>
<path opacity="0.6" d="M29.8964 20.3947H29.8888V21.6488H29.2168V18.4676H29.8888V18.7964H29.8964C30.0644 18.5441 30.2935 18.4141 30.599 18.4141C30.8815 18.4141 31.0953 18.5135 31.2557 18.7047C31.4084 18.8958 31.4848 19.1635 31.4848 19.4923C31.4848 19.8517 31.3932 20.1499 31.2175 20.3641C31.0419 20.5858 30.7975 20.6929 30.4997 20.6929C30.2324 20.7005 30.0339 20.6011 29.8964 20.3947ZM29.8735 19.5076V19.6835C29.8735 19.8364 29.9117 19.9588 29.9957 20.0505C30.0797 20.1423 30.179 20.1958 30.3088 20.1958C30.4615 20.1958 30.5837 20.1347 30.6677 20.0199C30.7517 19.8976 30.7975 19.737 30.7975 19.5152C30.7975 19.1329 30.6524 18.9417 30.3546 18.9417C30.2172 18.9417 30.1026 18.9952 30.0186 19.0947C29.9193 19.1941 29.8735 19.3317 29.8735 19.5076Z" fill="#353A40"/>
<path opacity="0.6" d="M34.0356 20.7005C33.6766 20.7005 33.3865 20.6011 33.1803 20.3947C32.9741 20.1882 32.8672 19.9129 32.8672 19.5688C32.8672 19.2094 32.9741 18.9264 33.1879 18.7199C33.4017 18.5135 33.6919 18.4141 34.0585 18.4141C34.4174 18.4141 34.6999 18.5135 34.9061 18.7199C35.1123 18.9264 35.2116 19.1941 35.2116 19.5305C35.2116 19.8899 35.1046 20.1805 34.8908 20.387C34.677 20.5935 34.4021 20.7005 34.0356 20.7005ZM34.0508 18.9341C33.8905 18.9341 33.7683 18.9876 33.6843 19.0947C33.6003 19.2017 33.5545 19.3547 33.5545 19.5611C33.5545 19.9817 33.7225 20.1882 34.0585 20.1882C34.3792 20.1882 34.5396 19.9741 34.5396 19.5458C34.5396 19.1405 34.3792 18.9341 34.0508 18.9341Z" fill="#353A40"/>
<path opacity="0.6" d="M38.313 18.9801H37.7327V20.6472H37.0607V18.9801H36.4727V18.4678H38.313V18.9801Z" fill="#353A40"/>
<path opacity="0.6" d="M41.8927 18.4754L41.0068 20.8307C40.793 21.3966 40.4723 21.6795 40.0447 21.6795C39.8843 21.6795 39.7468 21.6642 39.6399 21.626V21.0907C39.7316 21.1442 39.8232 21.1672 39.9301 21.1672C40.1058 21.1672 40.2203 21.0831 40.289 20.9225L40.4112 20.6472L39.5254 18.4754H40.2661L40.6708 19.7984C40.6938 19.8825 40.7167 19.9742 40.7319 20.089H40.7396C40.7548 20.0048 40.7778 19.9131 40.8083 19.7984L41.2207 18.4678L41.8927 18.4754Z" fill="#353A40"/>
<path opacity="0.6" d="M45.062 20.6548H44.4282V20.3413H44.4205C44.2754 20.586 44.0616 20.7083 43.7714 20.7083C43.5576 20.7083 43.3972 20.6472 43.2751 20.5325C43.1529 20.4101 43.0918 20.2495 43.0918 20.0507C43.0918 19.6301 43.3438 19.3854 43.8402 19.3166L44.4282 19.2401C44.4282 19.0031 44.2983 18.8807 44.0387 18.8807C43.7791 18.8807 43.5347 18.9572 43.298 19.1101V18.6054C43.3896 18.5595 43.5194 18.5136 43.6798 18.4754C43.8402 18.4372 43.9929 18.4219 44.1227 18.4219C44.7413 18.4219 45.0543 18.7354 45.0543 19.3548L45.062 20.6548ZM44.4282 19.7678V19.6225L44.0311 19.676C43.8096 19.7066 43.7027 19.806 43.7027 19.9742C43.7027 20.0507 43.7256 20.1119 43.7791 20.1654C43.8325 20.2189 43.9013 20.2419 43.9929 20.2419C44.1151 20.2419 44.222 20.196 44.2983 20.1119C44.39 20.0125 44.4282 19.8978 44.4282 19.7678Z" fill="#353A40"/>
<path opacity="0.6" d="M47.3613 20.3947H47.3536V21.6488H46.6816V18.4676H47.3536V18.7964H47.3613C47.5293 18.5441 47.7584 18.4141 48.0638 18.4141C48.3464 18.4141 48.5602 18.5135 48.7206 18.7047C48.8809 18.8958 48.9496 19.1635 48.9496 19.4923C48.9496 19.8517 48.858 20.1499 48.6824 20.3641C48.5067 20.5858 48.2624 20.6929 47.9645 20.6929C47.6973 20.7005 47.4987 20.6011 47.3613 20.3947ZM47.3384 19.5076V19.6835C47.3384 19.8364 47.3766 19.9588 47.4606 20.0505C47.5369 20.1423 47.6438 20.1958 47.7736 20.1958C47.9264 20.1958 48.0486 20.1347 48.1326 20.0199C48.2166 19.8976 48.2624 19.737 48.2624 19.5152C48.2624 19.1329 48.1173 18.9417 47.8195 18.9417C47.682 18.9417 47.5675 18.9952 47.4835 19.0947C47.3842 19.1941 47.3384 19.3317 47.3384 19.5076Z" fill="#353A40"/>
<path opacity="0.6" d="M52.5611 20.6545H51.8891V19.7445H51.1408V20.6545H50.4688V18.4751H51.1408V19.278H51.8891V18.4751H52.5611V20.6545Z" fill="#353A40"/>
<path opacity="0.6" d="M56.021 20.6548H55.3871V20.3413H55.3795C55.2344 20.586 55.0206 20.7083 54.7304 20.7083C54.5166 20.7083 54.3562 20.6472 54.2341 20.5325C54.1119 20.4178 54.0508 20.2495 54.0508 20.0507C54.0508 19.6301 54.3028 19.3854 54.7991 19.3166L55.3871 19.2401C55.3871 19.0031 55.2573 18.8807 54.9977 18.8807C54.7381 18.8807 54.4937 18.9572 54.257 19.1101V18.6054C54.3486 18.5595 54.4784 18.5136 54.6388 18.4754C54.7991 18.4372 54.9519 18.4219 55.0817 18.4219C55.7002 18.4219 56.0133 18.7354 56.0133 19.3548L56.021 20.6548ZM55.3948 19.7678V19.6225L54.9977 19.676C54.7762 19.7066 54.6693 19.806 54.6693 19.9742C54.6693 20.0507 54.6922 20.1119 54.7457 20.1654C54.7991 20.2189 54.8679 20.2419 54.9595 20.2419C55.0817 20.2419 55.1886 20.196 55.265 20.1119C55.349 20.0125 55.3948 19.8978 55.3948 19.7678Z" fill="#353A40"/>
<path opacity="0.6" d="M59.5489 20.6545H58.8845V19.8363H58.7318C58.6172 19.8363 58.5103 19.9433 58.411 20.1498L58.182 20.6545H57.4336L57.7467 20.0351C57.846 19.8516 57.9758 19.7292 58.1514 19.6757C57.7925 19.6145 57.6092 19.4233 57.6092 19.1098C57.6092 18.6892 57.9223 18.4751 58.5409 18.4751H59.5489V20.6545ZM58.8845 19.4386V18.9033H58.6325C58.4034 18.9033 58.2812 18.9951 58.2812 19.171C58.2812 19.3545 58.3958 19.4386 58.6325 19.4386H58.8845Z" fill="#353A40"/>
<path opacity="0.6" d="M65.5883 20.6545H64.9086V18.9492H64.1603V20.6545H63.4883V18.4751H65.5883V20.6545Z" fill="#353A40"/>
<path opacity="0.6" d="M69.3005 20.6547H68.6285V18.9494H68.262C68.1856 19.607 68.071 20.0582 67.9107 20.3105C67.7503 20.5629 67.5365 20.6776 67.2616 20.6776C67.1623 20.6776 67.0783 20.6623 67.002 20.6317V20.1729C67.0478 20.1958 67.1012 20.2035 67.1623 20.2035C67.2921 20.2035 67.4067 20.0811 67.4907 19.8288C67.5747 19.5764 67.6587 19.1253 67.7274 18.46H69.3081V20.6547H69.3005Z" fill="#353A40"/>
<path opacity="0.6" d="M73.1103 20.6547H72.4994V19.2323C72.4459 19.347 72.3849 19.4464 72.3238 19.5459L71.583 20.6623H70.9492V18.4829H71.5601V19.867C71.6059 19.7753 71.6518 19.6835 71.7052 19.5994L72.4459 18.4829H73.1103V20.6547Z" fill="#353A40"/>
<path opacity="0.6" d="M76.3951 18.9801H75.8147V20.6472H75.1427V18.9801H74.5547V18.4678H76.3951V18.9801Z" fill="#353A40"/>
<path opacity="0.6" d="M80.0066 20.6545H79.2048L78.5175 19.5916H78.5099V20.6545H77.8379V18.4751H78.5099V19.4998H78.5175L79.1895 18.4751H79.9837L79.1819 19.5075L80.0066 20.6545Z" fill="#353A40"/>
<path opacity="0.6" d="M83.1596 20.6548H82.5258V20.3413H82.5182C82.3731 20.586 82.1593 20.7083 81.8691 20.7083C81.6553 20.7083 81.4949 20.6472 81.3727 20.5325C81.2505 20.4178 81.1895 20.2495 81.1895 20.0507C81.1895 19.6301 81.4415 19.3854 81.9378 19.3166L82.5258 19.2401C82.5258 19.0031 82.396 18.8807 82.1364 18.8807C81.8767 18.8807 81.6324 18.9572 81.3956 19.1101V18.6054C81.4873 18.5595 81.6171 18.5136 81.7775 18.4754C81.9378 18.4372 82.0905 18.4219 82.2204 18.4219C82.8389 18.4219 83.152 18.7354 83.152 19.3548L83.1596 20.6548ZM82.5335 19.7678V19.6225L82.1364 19.676C81.9149 19.7066 81.808 19.806 81.808 19.9742C81.808 20.0507 81.8309 20.1119 81.8844 20.1654C81.9378 20.2189 82.0065 20.2419 82.0982 20.2419C82.2204 20.2419 82.3273 20.196 82.4036 20.1119C82.4876 20.0125 82.5335 19.8978 82.5335 19.7678Z" fill="#353A40"/>
</g>
</g>
<defs>
<clipPath id="clip0_1569_5267">
<rect width="84" height="26" fill="white"/>
</clipPath>
</defs>
</svg>
