<svg width="78" height="32" viewBox="0 0 78 32" fill="none" xmlns="http://www.w3.org/2000/svg">
<g clip-path="url(#clip0_1573_5693)">
<path d="M24.2617 31.0063V27.2122H26.5387C26.844 27.2081 27.1493 27.2204 27.4533 27.2492C27.7094 27.2695 27.9607 27.3292 28.1979 27.4261C28.3888 27.5038 28.5561 27.6284 28.6835 27.7878C28.8038 27.9385 28.8684 28.1246 28.8669 28.3158C28.8633 28.4813 28.8165 28.643 28.731 28.7858C28.6456 28.9286 28.5243 29.0476 28.3786 29.1317C28.0522 29.3561 27.4587 29.4696 26.6088 29.4696H25.063V31.0063H24.2617ZM25.0711 29.0181H26.625C26.9992 29.0438 27.3744 28.9832 27.7204 28.8412C27.8185 28.7953 27.9012 28.723 27.959 28.6327C28.0168 28.5425 28.0472 28.4381 28.0468 28.3317C28.0472 28.2543 28.0303 28.1778 27.9972 28.1075C27.9641 28.0373 27.9157 27.975 27.8552 27.9251C27.7125 27.8071 27.5385 27.7312 27.3534 27.7059C27.1063 27.6788 26.8575 27.6683 26.6088 27.6742H25.063L25.0711 29.0181Z" fill="#044881"/>
<path d="M30.0723 31.006L32.3735 27.2119H33.2422L35.7161 31.006H34.8016L34.1028 29.8627H31.5642L30.9167 31.006H30.0723ZM31.7989 29.4535H33.8627L33.2287 28.3974C33.0345 28.0806 32.8915 27.8165 32.7944 27.6053C32.7118 27.8561 32.6023 28.0977 32.4679 28.3261L31.7989 29.4535Z" fill="#044881"/>
<path d="M37.8418 31.0062V27.2122H40.5154C40.9272 27.2005 41.3391 27.2351 41.7429 27.3151C41.9969 27.3704 42.2298 27.4949 42.4146 27.6742C42.5684 27.8263 42.6563 28.0306 42.6601 28.2445C42.658 28.3831 42.6188 28.5186 42.5463 28.6377C42.4739 28.7568 42.3708 28.8552 42.2474 28.9231C41.8561 29.1434 41.4145 29.2642 40.9632 29.2742C41.1309 29.321 41.2928 29.3856 41.4461 29.467C41.6873 29.606 41.9094 29.7746 42.1071 29.9686L43.1646 31.0062H42.1664L41.3571 30.2141C41.1754 30.0281 40.9836 29.8519 40.7824 29.6861C40.6613 29.5794 40.525 29.4905 40.3778 29.4221C40.261 29.3735 40.1388 29.3389 40.0136 29.3191C39.9245 29.3191 39.7734 29.3033 39.5711 29.3033H38.6404V31.0062H37.8418ZM38.6511 28.894H40.3697C40.6567 28.9001 40.9434 28.8753 41.2249 28.8201C41.3989 28.7881 41.5605 28.7095 41.6916 28.593C41.7398 28.5499 41.7787 28.4978 41.806 28.4397C41.8333 28.3817 41.8486 28.3189 41.8508 28.2551C41.8463 28.1602 41.8146 28.0685 41.7592 27.9905C41.7039 27.9125 41.6271 27.8513 41.5378 27.8141C41.2313 27.6805 40.8962 27.6216 40.5612 27.6425H38.6484L38.6511 28.894Z" fill="#044881"/>
<path d="M45.5391 31.006V27.2119H46.3484V31.006H45.5391Z" fill="#044881"/>
<path d="M48.959 29.7705L49.709 29.7309C49.7365 29.9093 49.8238 30.0737 49.9572 30.1982C50.129 30.345 50.336 30.4467 50.5588 30.494C50.8586 30.5738 51.1681 30.6129 51.4788 30.6101C51.7509 30.6119 52.0225 30.5836 52.2881 30.5256C52.4767 30.4866 52.6538 30.4063 52.8061 30.2907C52.8565 30.2515 52.8977 30.2023 52.927 30.1463C52.9563 30.0903 52.9731 30.0288 52.9761 29.9659C52.9746 29.9056 52.9587 29.8465 52.9297 29.7933C52.9006 29.7401 52.8592 29.6943 52.8088 29.6596C52.6471 29.5485 52.4632 29.4721 52.2692 29.4352C52.1101 29.3982 51.7566 29.3349 51.2063 29.2478C50.8148 29.1995 50.4278 29.1209 50.0489 29.0128C49.8105 28.9466 49.5915 28.8262 49.4095 28.6616C49.3431 28.6011 49.29 28.528 49.2533 28.4467C49.2167 28.3655 49.1973 28.2778 49.1964 28.189C49.2031 28.0878 49.2305 27.989 49.2768 27.8983C49.3231 27.8076 49.3875 27.7269 49.4662 27.661C49.6807 27.4732 49.9408 27.3423 50.2216 27.2808C50.5814 27.1925 50.9514 27.1499 51.3223 27.154C51.7188 27.147 52.1144 27.1923 52.4986 27.2887C52.7895 27.3535 53.0587 27.4898 53.2809 27.6847C53.4543 27.8377 53.5598 28.0508 53.575 28.2788L52.8088 28.3157C52.788 28.2011 52.7391 28.0932 52.6663 28.0012C52.5934 27.9092 52.4988 27.836 52.3906 27.7877C52.064 27.6474 51.708 27.585 51.352 27.6055C50.9956 27.5843 50.639 27.6411 50.3079 27.7718C50.0894 27.8827 49.9815 28.0147 49.9815 28.1758C49.9841 28.247 50.0073 28.3161 50.0484 28.3749C50.0894 28.4338 50.1467 28.4801 50.2135 28.5085C50.5962 28.6514 50.9977 28.7403 51.4059 28.7725C51.853 28.8256 52.2963 28.9059 52.7333 29.0128C53.0211 29.08 53.289 29.212 53.5156 29.3982C53.5926 29.4644 53.6546 29.5456 53.6978 29.6365C53.741 29.7274 53.7644 29.8261 53.7665 29.9263C53.7633 30.0339 53.7378 30.1397 53.6914 30.2373C53.645 30.3349 53.5788 30.4222 53.4968 30.494C53.2729 30.6934 53.0024 30.8357 52.709 30.9085C52.3323 31.0112 51.9426 31.0609 51.5516 31.0563C51.0918 31.0658 50.6327 31.0152 50.1865 30.9058C49.8632 30.8302 49.565 30.6748 49.3205 30.4544C49.2169 30.3696 49.1315 30.2654 49.0694 30.148C49.0074 30.0306 48.9698 29.9023 48.959 29.7705Z" fill="#044881"/>
<path d="M8.47947 18.3341H1.96149C2.0337 18.8592 2.30297 19.3392 2.71688 19.6807C3.15912 20.0258 3.71382 20.203 4.27893 20.1797C4.64178 20.1828 5.00153 20.1143 5.33669 19.9782C5.67183 19.8421 5.97549 19.6412 6.22947 19.3876L7.93451 20.1797C7.55017 20.7411 7.0242 21.1958 6.40753 21.4998C5.74332 21.7948 5.01878 21.9366 4.28972 21.9143C3.72021 21.9378 3.15183 21.8468 2.61963 21.647C2.08743 21.4472 1.60269 21.1428 1.1953 20.7526C0.802205 20.3693 0.493394 19.9113 0.287862 19.4069C0.0823293 18.9024 -0.0155798 18.3621 0.000156301 17.8193C-0.0177598 17.2653 0.0786009 16.7135 0.283482 16.1968C0.488363 15.6801 0.79756 15.2091 1.1926 14.812C1.57908 14.421 2.04434 14.1127 2.5589 13.9069C3.07345 13.701 3.6261 13.6019 4.18181 13.616C4.75499 13.5956 5.3263 13.691 5.8601 13.8964C6.39391 14.1017 6.87873 14.4125 7.28433 14.8094C8.08649 15.6067 8.48757 16.6549 8.48757 17.9539L8.47947 18.3341ZM6.47498 16.7817C6.34095 16.3516 6.06118 15.9791 5.68181 15.7255C5.27629 15.447 4.7904 15.3027 4.29512 15.3137C3.76166 15.3039 3.2396 15.4653 2.80861 15.7731C2.47788 16.046 2.22195 16.3954 2.06401 16.7896L6.47498 16.7817Z" fill="#044881"/>
<path d="M17.9807 19.6066C17.9807 19.1974 17.5194 18.8462 16.6156 18.5056L15.6713 18.1571C13.9474 17.5102 13.076 16.7076 13.076 15.7809C13.076 15.1868 13.3863 14.6825 14.0176 14.2469C14.7651 13.7751 15.6432 13.5409 16.532 13.5762C17.2319 13.5739 17.9268 13.6919 18.585 13.9247C18.9729 14.0646 19.3367 14.2614 19.6641 14.5082L18.523 15.8944C17.8107 15.4112 17.1444 15.1472 16.5481 15.1472C16.5481 15.1472 15.3449 15.0389 15.3449 15.8389C15.3449 16.367 16.5239 16.6944 16.5239 16.6944L17.5355 17.0746C18.585 17.4601 19.3134 17.8667 19.6938 18.2469C19.8719 18.4193 20.0127 18.625 20.1077 18.8518C20.2027 19.0786 20.25 19.3219 20.2469 19.567C20.2469 20.2455 19.915 20.7974 19.2325 21.2647C18.5499 21.732 17.5787 21.9749 16.3944 21.9749C15.1657 21.9967 13.9609 21.6412 12.9492 20.9584L14.1309 19.5089C15.5607 20.4858 16.54 20.4383 16.54 20.4383C16.54 20.4383 17.9807 20.4673 17.9807 19.6066Z" fill="#044881"/>
<path d="M75.7367 19.6067C75.7367 19.1975 75.2726 18.8463 74.3688 18.5057L73.4273 18.1572C71.7034 17.5103 70.832 16.7077 70.832 15.781C70.832 15.1869 71.1395 14.6826 71.7708 14.247C72.5191 13.7747 73.3983 13.5405 74.2879 13.5763C74.9869 13.5747 75.6808 13.6926 76.3383 13.9249C76.7257 14.0656 77.0894 14.2623 77.4174 14.5083L76.2789 15.8945C75.5667 15.4113 74.9003 15.1473 74.3041 15.1473C74.3041 15.1473 73.0982 15.039 73.0982 15.839C73.0982 16.3671 74.2771 16.6945 74.2771 16.6945L75.2969 17.0773C76.3491 17.4628 77.0721 17.8694 77.4552 18.2496C77.6305 18.4234 77.7685 18.6297 77.8611 18.8564C77.9538 19.0831 77.9992 19.3256 77.9947 19.5697C77.9947 20.2483 77.6602 20.8001 76.9777 21.2674C76.2951 21.7348 75.3266 21.9777 74.1368 21.9777C72.9051 21.9999 71.6974 21.6435 70.6836 20.9585L71.868 19.509C73.2978 20.4859 74.2798 20.4384 74.2798 20.4384C74.2798 20.4384 75.7367 20.4674 75.7367 19.6067Z" fill="#044881"/>
<path d="M33.3731 15.4246L31.6843 16.3355C31.4206 16.0461 31.0993 15.8125 30.7401 15.649C30.3966 15.5168 30.0299 15.4522 29.6609 15.4589C29.3246 15.4441 28.9886 15.495 28.6727 15.6088C28.3568 15.7226 28.0672 15.8969 27.821 16.1216C27.5881 16.3397 27.4047 16.6033 27.2829 16.8954C27.1611 17.1875 27.1036 17.5014 27.1142 17.8167C27.1023 18.1218 27.1563 18.426 27.2725 18.7094C27.3887 18.9928 27.5645 19.2491 27.7886 19.4616C28.027 19.678 28.3069 19.8459 28.6121 19.9556C28.9173 20.0653 29.2417 20.1145 29.5665 20.1005C29.9675 20.1197 30.3675 20.0474 30.7351 19.8893C31.1026 19.7312 31.4276 19.4917 31.6843 19.1896L33.2787 20.2642C32.41 21.3643 31.1861 21.9144 29.607 21.9144C28.1879 21.9144 27.0737 21.5051 26.2697 20.6787C25.8071 20.2243 25.4599 19.6698 25.2562 19.0601C25.0524 18.4503 24.9979 17.8022 25.0968 17.1681C25.1957 16.5339 25.4455 15.9313 25.8258 15.4088C26.2062 14.8863 26.7066 14.4585 27.2868 14.1599C28.012 13.7848 28.8219 13.5941 29.642 13.6055C30.3894 13.5953 31.1287 13.7572 31.8003 14.0781C32.4341 14.3873 32.9757 14.851 33.3731 15.4246Z" fill="#044881"/>
<path d="M44.4824 13.814H46.5031V21.7348H44.4824V20.8899C44.1358 21.2244 43.7288 21.493 43.2819 21.682C42.8697 21.8484 42.4274 21.9319 41.9815 21.9275C41.4678 21.9297 40.9595 21.8246 40.4905 21.6193C40.0216 21.4139 39.6028 21.1131 39.2621 20.7368C38.8816 20.3434 38.5841 19.8804 38.3869 19.3743C38.1897 18.8682 38.0965 18.329 38.1128 17.7876C38.0678 16.6832 38.4668 15.6054 39.2243 14.7856C39.5619 14.4126 39.9776 14.1151 40.4431 13.9133C40.9086 13.7114 41.4131 13.61 41.9222 13.616C42.3936 13.6109 42.861 13.7008 43.2954 13.88C43.7383 14.0688 44.141 14.3375 44.4824 14.6721V13.814ZM42.3403 15.4457C42.0444 15.4393 41.7505 15.4949 41.4783 15.6087C41.2061 15.7226 40.9619 15.892 40.7621 16.1057C40.3374 16.5587 40.1125 17.1574 40.1362 17.7717C40.1158 18.3935 40.3454 18.9983 40.7756 19.4562C40.9771 19.6675 41.2223 19.8343 41.495 19.9454C41.7676 20.0565 42.0613 20.1094 42.3565 20.1005C42.6552 20.1082 42.9523 20.0544 43.2283 19.9425C43.5044 19.8306 43.7534 19.6631 43.959 19.4509C44.391 18.9871 44.6179 18.3749 44.5903 17.748C44.6035 17.4428 44.5544 17.138 44.4461 16.8516C44.3377 16.5651 44.1721 16.3026 43.959 16.0793C43.749 15.8685 43.4963 15.703 43.2171 15.5935C42.9378 15.4839 42.6383 15.4326 42.3376 15.443L42.3403 15.4457Z" fill="#044881"/>
<path d="M51.6484 10.7461H53.6718V21.7322H51.6484V10.7461Z" fill="#044881"/>
<path d="M66.9057 18.3343H60.3823C60.4518 18.8597 60.7205 19.3403 61.135 19.6809C61.5774 20.0258 62.132 20.2029 62.6971 20.1799C63.0597 20.1839 63.4193 20.1157 63.7541 19.9796C64.0889 19.8434 64.392 19.6421 64.6449 19.3878L66.3527 20.1799C65.9663 20.7405 65.4397 21.195 64.823 21.5C64.1605 21.7945 63.4378 21.9363 62.7106 21.9145C62.142 21.9366 61.5749 21.845 61.0437 21.6452C60.5126 21.4455 60.0287 21.1418 59.6215 20.7528C59.2281 20.369 58.919 19.9107 58.713 19.4058C58.507 18.901 58.4086 18.3603 58.4237 17.8168C58.407 17.263 58.5045 16.7115 58.7103 16.1953C58.9161 15.6791 59.226 15.2087 59.6215 14.8122C60.0083 14.4208 60.474 14.1124 60.9891 13.9065C61.5041 13.7006 62.0573 13.6018 62.6135 13.6162C63.1867 13.595 63.7583 13.6901 64.2922 13.8955C64.8261 14.1008 65.3109 14.4121 65.716 14.8096C66.5091 15.6069 66.9057 16.6551 66.9057 17.9541V18.3343ZM64.8931 16.7819C64.7536 16.3502 64.4681 15.9778 64.0838 15.7258C63.6817 15.4486 63.1996 15.3043 62.7079 15.3139C62.1813 15.3055 61.6662 15.4649 61.2403 15.768C60.9081 16.0409 60.6504 16.3901 60.4903 16.7845L64.8931 16.7819Z" fill="#044881"/>
<path d="M53.5358 0.941406H24.1914V5.05494H53.811V0.941406H53.5358ZM53.4657 1.2688V4.72754H24.5502V1.2688H53.4657Z" fill="#044881"/>
<path d="M24.5508 1.26855V4.7273H39.0139V1.26855H24.5508Z" fill="#3586D6"/>
<path d="M39 1.26855V4.7273H53.4631V1.26855H39Z" fill="white"/>
</g>
<defs>
<clipPath id="clip0_1573_5693">
<rect width="78" height="32" fill="white"/>
</clipPath>
</defs>
</svg>
