<svg width="34" height="34" viewBox="0 0 34 34" fill="none" xmlns="http://www.w3.org/2000/svg">
<path d="M8.50192 0C6.24707 0 4.08457 0.895735 2.49015 2.49015C0.895735 4.08457 0 6.24707 0 8.50192L0 25.5C0 27.7548 0.895735 29.9173 2.49015 31.5118C4.08457 33.1062 6.24707 34.0019 8.50192 34.0019H25.5C27.7548 34.0019 29.9173 33.1062 31.5118 31.5118C33.1062 29.9173 34.0019 27.7548 34.0019 25.5V0H8.50192Z" fill="#B1EC52"/>
<path d="M28.0945 12.7441H24.0116L20.1281 16.9969V8.50175H16.9786V10.5605C16.8758 10.4274 16.7672 10.2958 16.6457 10.1671C15.5001 8.95422 13.8492 8.3418 11.7386 8.3418C9.29803 8.3418 7.91034 9.43408 7.17543 10.3501C6.2628 11.488 5.85643 13.0399 6.13839 14.3052C6.86802 17.5801 9.90709 18.1032 12.1392 18.3933C13.9016 18.6224 15.5875 18.9423 15.5429 20.513C15.4948 22.1432 13.6585 22.5443 12.4524 22.5443C9.311 22.5443 9.20484 20.2224 9.20484 20.2224H5.82617C5.87421 21.0942 6.13935 22.4939 7.21242 23.6957C8.38828 25.0113 10.1511 25.6785 12.4524 25.6785C14.2181 25.6785 15.8258 25.1021 16.9786 24.0824V25.4816H20.1291V21.4708L21.2439 20.2507L24.4266 25.4816H28.0935L23.4621 17.8202L28.0945 12.7441ZM9.29227 13.5765C9.01415 12.3603 10.2275 11.2843 11.7967 11.2843C13.2104 11.2843 14.6273 11.6013 15.1663 13.5722H16.9786V16.58C14.7191 14.723 9.82111 15.8883 9.29227 13.5765Z" fill="#4D5759"/>
</svg>
