<svg width="110" height="19" viewBox="0 0 110 19" fill="none" xmlns="http://www.w3.org/2000/svg">
<path d="M0.163711 15V5.69H2.72871V12.625H6.05371V5.69H8.61871V12.625H9.85371V17.09H7.28871V15H0.163711ZM11.4635 15V5.69H14.0285V11.01L18.0185 5.69H20.2985V15H17.7335V9.68L13.7435 15H11.4635ZM29.8883 7.875V13.005C30.6483 12.9543 31.2627 12.6947 31.7313 12.226C32.2127 11.7573 32.4533 11.162 32.4533 10.44C32.4533 9.718 32.2127 9.12267 31.7313 8.654C31.2627 8.18533 30.6483 7.92567 29.8883 7.875ZM27.3233 18.99V15.285C25.7653 15.1837 24.5177 14.6897 23.5803 13.803C22.6557 12.9037 22.1933 11.7827 22.1933 10.44C22.1933 9.09733 22.6557 7.98267 23.5803 7.096C24.5177 6.19667 25.7653 5.69633 27.3233 5.595V1.7H29.8883V5.595C31.4463 5.69633 32.6877 6.19667 33.6123 7.096C34.5497 7.98267 35.0183 9.09733 35.0183 10.44C35.0183 11.7827 34.5497 12.9037 33.6123 13.803C32.6877 14.6897 31.4463 15.1837 29.8883 15.285V18.99H27.3233ZM27.3233 13.005V7.875C26.5633 7.92567 25.9427 8.18533 25.4613 8.654C24.9927 9.12267 24.7583 9.718 24.7583 10.44C24.7583 11.162 24.9927 11.7573 25.4613 12.226C25.9427 12.6947 26.5633 12.9543 27.3233 13.005ZM36.9205 18.99V5.69H39.4855V7.02H39.5805C39.7579 6.754 39.9985 6.50067 40.3025 6.26C40.9865 5.75333 41.7275 5.5 42.5255 5.5C43.6529 5.5 44.6282 5.96233 45.4515 6.887C46.2875 7.81167 46.7055 8.96433 46.7055 10.345C46.7055 11.7383 46.2875 12.8973 45.4515 13.822C44.6282 14.734 43.6529 15.19 42.5255 15.19C41.7275 15.19 40.9865 14.9367 40.3025 14.43C39.9985 14.1893 39.7579 13.936 39.5805 13.67H39.4855V18.99H36.9205ZM40.0745 12.112C40.5305 12.5807 41.0942 12.815 41.7655 12.815C42.4369 12.815 43.0005 12.5807 43.4565 12.112C43.9125 11.6433 44.1405 11.0543 44.1405 10.345C44.1405 9.63567 43.9125 9.04667 43.4565 8.578C43.0005 8.10933 42.4369 7.875 41.7655 7.875C41.0942 7.875 40.5305 8.10933 40.0745 8.578C39.6185 9.04667 39.3905 9.63567 39.3905 10.345C39.3905 11.0543 39.6185 11.6433 40.0745 12.112ZM53.835 15V13.86H53.74C53.512 14.1387 53.2777 14.3603 53.037 14.525C52.4797 14.9683 51.7957 15.19 50.985 15.19C50.1363 15.19 49.446 14.943 48.914 14.449C48.3947 13.9423 48.135 13.3027 48.135 12.53C48.135 11.77 48.3757 11.124 48.857 10.592C49.351 10.0473 50.0287 9.699 50.89 9.547L53.835 9.015C53.7843 8.66033 53.6197 8.369 53.341 8.141C53.0623 7.90033 52.6887 7.78 52.22 7.78C51.6373 7.78 51.1243 7.95733 50.681 8.312C50.453 8.47667 50.2693 8.64767 50.13 8.825L48.61 7.305C48.8887 6.963 49.2117 6.66533 49.579 6.412C50.4657 5.804 51.4093 5.5 52.41 5.5C53.5753 5.5 54.5317 5.85467 55.279 6.564C56.0263 7.27333 56.4 8.15367 56.4 9.205V15H53.835ZM53.835 11.01V10.82L51.745 11.2C51.0483 11.3393 50.7 11.656 50.7 12.15C50.7 12.7833 51.08 13.1 51.84 13.1C52.41 13.1 52.885 12.9037 53.265 12.511C53.645 12.1183 53.835 11.618 53.835 11.01ZM57.6357 15V12.625L57.8637 12.682C58.0411 12.7073 58.1867 12.72 58.3007 12.72C58.6554 12.72 58.9277 12.625 59.1177 12.435C59.3204 12.245 59.4851 11.8207 59.6117 11.162C59.7511 10.5033 59.8207 9.566 59.8207 8.35V5.69H67.4207V15H64.8557V8.065H62.3857V8.35C62.3857 12.9733 61.2457 15.285 58.9657 15.285C58.5731 15.285 58.2437 15.2407 57.9777 15.152C57.7751 15.0633 57.6611 15.0127 57.6357 15ZM75.1172 15V13.86H75.0222C74.7942 14.1387 74.5599 14.3603 74.3192 14.525C73.7619 14.9683 73.0779 15.19 72.2672 15.19C71.4186 15.19 70.7282 14.943 70.1962 14.449C69.6769 13.9423 69.4172 13.3027 69.4172 12.53C69.4172 11.77 69.6579 11.124 70.1392 10.592C70.6332 10.0473 71.3109 9.699 72.1722 9.547L75.1172 9.015C75.0666 8.66033 74.9019 8.369 74.6232 8.141C74.3446 7.90033 73.9709 7.78 73.5022 7.78C72.9196 7.78 72.4066 7.95733 71.9632 8.312C71.7352 8.47667 71.5516 8.64767 71.4122 8.825L69.8922 7.305C70.1709 6.963 70.4939 6.66533 70.8612 6.412C71.7479 5.804 72.6916 5.5 73.6922 5.5C74.8576 5.5 75.8139 5.85467 76.5612 6.564C77.3086 7.27333 77.6822 8.15367 77.6822 9.205V15H75.1172ZM75.1172 11.01V10.82L73.0272 11.2C72.3306 11.3393 71.9822 11.656 71.9822 12.15C71.9822 12.7833 72.3622 13.1 73.1222 13.1C73.6922 13.1 74.1672 12.9037 74.5472 12.511C74.9272 12.1183 75.1172 11.618 75.1172 11.01ZM87.753 0.94L89.083 3.125C88.7916 3.277 88.4623 3.42267 88.095 3.562C87.1956 3.91667 86.3216 4.18267 85.473 4.36C84.5736 4.56267 83.9023 4.873 83.459 5.291C83.0156 5.69633 82.7053 6.30433 82.528 7.115C82.7053 6.87433 82.9143 6.67167 83.155 6.507C83.7503 6.089 84.3646 5.88 84.998 5.88C86.2393 5.88 87.3096 6.336 88.209 7.248C89.1083 8.16 89.558 9.25567 89.558 10.535C89.558 11.827 89.0956 12.929 88.171 13.841C87.259 14.7403 86.138 15.19 84.808 15.19C83.3386 15.19 82.129 14.6517 81.179 13.575C80.2416 12.4857 79.773 10.9973 79.773 9.11C79.773 7.00733 80.1973 5.37333 81.046 4.208C81.9073 3.03 83.0346 2.289 84.428 1.985C84.9093 1.88367 85.663 1.662 86.689 1.32C86.7903 1.282 86.9613 1.225 87.202 1.149C87.4426 1.06033 87.6263 0.990666 87.753 0.94ZM83.25 12.188C83.668 12.606 84.1873 12.815 84.808 12.815C85.4286 12.815 85.948 12.606 86.366 12.188C86.784 11.7573 86.993 11.2063 86.993 10.535C86.993 9.86367 86.784 9.319 86.366 8.901C85.948 8.47033 85.4286 8.255 84.808 8.255C84.1873 8.255 83.668 8.47033 83.25 8.901C82.832 9.319 82.623 9.86367 82.623 10.535C82.623 11.2063 82.832 11.7573 83.25 12.188ZM91.4148 14.753C91.1234 14.4617 90.9778 14.1007 90.9778 13.67C90.9778 13.2393 91.1234 12.8783 91.4148 12.587C91.7061 12.2957 92.0671 12.15 92.4978 12.15C92.9284 12.15 93.2894 12.2957 93.5808 12.587C93.8721 12.8783 94.0178 13.2393 94.0178 13.67C94.0178 14.1007 93.8721 14.4617 93.5808 14.753C93.2894 15.0443 92.9284 15.19 92.4978 15.19C92.0671 15.19 91.7061 15.0443 91.4148 14.753Z" fill="#262626"/>
<path d="M101.242 15V13.86H101.147C100.919 14.1387 100.685 14.3603 100.444 14.525C99.8869 14.9683 99.2029 15.19 98.3922 15.19C97.5436 15.19 96.8532 14.943 96.3212 14.449C95.8019 13.9423 95.5422 13.3027 95.5422 12.53C95.5422 11.77 95.7829 11.124 96.2642 10.592C96.7582 10.0473 97.4359 9.699 98.2972 9.547L101.242 9.015C101.192 8.66033 101.027 8.369 100.748 8.141C100.47 7.90033 100.096 7.78 99.6272 7.78C99.0446 7.78 98.5316 7.95733 98.0882 8.312C97.8602 8.47667 97.6766 8.64767 97.5372 8.825L96.0172 7.305C96.2959 6.963 96.6189 6.66533 96.9862 6.412C97.8729 5.804 98.8166 5.5 99.8172 5.5C100.983 5.5 101.939 5.85467 102.686 6.564C103.434 7.27333 103.807 8.15367 103.807 9.205V15H101.242ZM101.242 11.01V10.82L99.1522 11.2C98.4556 11.3393 98.1072 11.656 98.1072 12.15C98.1072 12.7833 98.4872 13.1 99.2472 13.1C99.8172 13.1 100.292 12.9037 100.672 12.511C101.052 12.1183 101.242 11.618 101.242 11.01ZM106.278 15V5.69H108.843V15H106.278ZM106.506 4.037C106.227 3.74567 106.088 3.41 106.088 3.03C106.088 2.65 106.234 2.32067 106.525 2.042C106.816 1.75067 107.165 1.605 107.57 1.605C107.975 1.605 108.317 1.75067 108.596 2.042C108.887 2.32067 109.033 2.65 109.033 3.03C109.033 3.41 108.887 3.74567 108.596 4.037C108.305 4.31567 107.956 4.455 107.551 4.455C107.146 4.455 106.797 4.31567 106.506 4.037Z" fill="#544DEF"/>
</svg>
