<svg width="99" height="31" viewBox="0 0 99 31" fill="none" xmlns="http://www.w3.org/2000/svg">
<path fill-rule="evenodd" clip-rule="evenodd" d="M48.7097 1.63358C48.2865 2.53908 47.92 3.30238 47.8952 3.32978C47.8704 3.35718 47.1077 3.50695 46.2001 3.66261C45.2926 3.81828 44.5437 3.95071 44.5358 3.95694C44.5278 3.96317 45.0542 4.54875 45.7054 5.25819C46.3566 5.96766 46.8956 6.57568 46.9032 6.60935C46.9108 6.64305 46.8003 7.47558 46.6577 8.4594C46.5151 9.44321 46.4094 10.2592 46.4228 10.2727C46.4362 10.2862 47.1331 9.91761 47.9715 9.45365L49.4958 8.61005L51.0331 9.46135C51.8786 9.92956 52.5761 10.2992 52.583 10.2827C52.5925 10.2602 52.164 7.2145 52.0767 6.68396C52.0656 6.6165 52.3473 6.2832 53.2457 5.30094C53.8966 4.58915 54.4293 3.99351 54.4293 3.97727C54.4293 3.96102 53.6796 3.81807 52.7634 3.65963L51.0976 3.37148L50.3112 1.69221C49.8787 0.768612 49.5147 0.00712111 49.5021 5.11743e-05C49.4895 -0.00706084 49.133 0.728044 48.7097 1.63358ZM48.8551 2.32589C48.5131 3.05898 48.2129 3.68117 48.188 3.70861C48.163 3.73605 47.5324 3.86465 46.7867 3.99444C46.041 4.12418 45.426 4.23528 45.42 4.2413C45.414 4.24731 45.8501 4.73417 46.3891 5.32316C46.9281 5.9122 47.3692 6.42649 47.3694 6.46601C47.3696 6.50557 47.2752 7.17751 47.1597 7.95924C47.0442 8.74097 46.9549 9.40247 46.9613 9.4292C46.9678 9.45634 47.5226 9.17316 48.2173 8.78815C48.9017 8.40885 49.4771 8.09849 49.4958 8.09849C49.5147 8.09849 50.0919 8.4094 50.7787 8.78937C51.4655 9.16938 52.0325 9.47507 52.0388 9.46871C52.0495 9.4579 51.648 6.64874 51.613 6.4897C51.6023 6.44106 51.9268 6.05709 52.591 5.33242C53.5411 4.29579 53.5802 4.24668 53.4746 4.21979C53.4138 4.20435 52.7875 4.09228 52.0829 3.97074L50.8017 3.74981L50.1632 2.38632C49.8121 1.6364 49.514 1.01614 49.5008 1.00794C49.4877 0.999731 49.1971 1.59281 48.8551 2.32589ZM48.9394 2.80656C48.6447 3.4373 48.3919 3.96645 48.3775 3.98249C48.3632 3.99852 47.8204 4.10263 47.1714 4.2139C46.5223 4.32513 45.9913 4.42903 45.9913 4.44477C45.9913 4.46055 46.3693 4.8855 46.8313 5.38919L47.6714 6.30492L47.643 6.5958C47.6273 6.75579 47.6067 6.90843 47.5971 6.93498C47.58 6.98216 48.4664 8.23442 48.5331 8.2574C48.5516 8.26379 48.653 8.22045 48.7584 8.16107L48.9501 8.05317L48.6664 7.45509C48.5103 7.12617 48.1924 6.4613 47.9598 5.97755C47.7272 5.49385 47.5369 5.08889 47.5369 5.07761C47.5369 5.06637 47.962 5.67494 48.4817 6.42995C49.0013 7.185 49.4429 7.79247 49.4631 7.77997C49.4832 7.76743 49.6596 7.84494 49.855 7.95225C50.0504 8.05961 50.2103 8.13755 50.2103 8.12555C50.2103 8.11352 49.917 7.45391 49.5585 6.65976C48.8555 5.10236 48.804 4.98221 48.8674 5.04748C48.8899 5.07062 49.4446 5.91119 50.0999 6.91541C51.1377 8.50552 51.314 8.75414 51.4653 8.84071C51.5609 8.89542 51.6487 8.94015 51.6604 8.94015C51.6722 8.94015 51.6687 8.85022 51.6527 8.74026C51.6286 8.57445 51.1788 7.47112 50.1945 5.16321C50.113 4.97228 50.0532 4.81602 50.0615 4.81602C50.0698 4.81602 50.3647 5.27885 50.7168 5.84457C51.0689 6.41025 51.3629 6.8671 51.3702 6.85982C51.3775 6.8525 51.3642 6.726 51.3406 6.57871L51.2978 6.31094L51.5296 6.07498L51.7614 5.83902L51.5294 5.2568C51.4019 4.93659 51.3028 4.66924 51.3093 4.66271C51.3158 4.65615 51.4493 4.86787 51.6061 5.1332C51.7628 5.39853 51.9054 5.6156 51.9231 5.6156C51.9799 5.6156 53.0081 4.46147 52.9767 4.43298C52.96 4.41788 52.4294 4.31734 51.7976 4.20965C51.0992 4.09056 50.6325 3.992 50.6071 3.95816C50.5841 3.92757 50.3304 3.39859 50.0432 2.78262C49.756 2.16665 49.5107 1.66203 49.4981 1.66123C49.4854 1.66043 49.234 2.17582 48.9394 2.80656ZM4.72032 6.10591C3.9675 6.22197 2.97315 6.63337 2.36841 7.07891C1.31045 7.85833 0.567529 8.90143 0.213259 10.1049C-0.0072147 10.854 5.36649e-05 10.5673 5.36649e-05 18.5121C5.36649e-05 26.5675 -0.00984636 26.216 0.239283 27.0144C0.830277 28.9084 2.3309 30.3221 4.31784 30.8567L4.7412 30.9706L35.7989 30.9916C52.8806 31.0032 73.0127 31.0027 80.5369 30.9906C93.2707 30.9701 94.2375 30.9635 94.5097 30.8964C95.3228 30.6958 96.118 30.3314 96.7171 29.8847C97.8669 29.0276 98.6791 27.6998 98.9192 26.2848C98.9973 25.8245 99.0002 25.5414 99 18.5414C98.9998 12.4248 98.9902 11.2125 98.9395 10.876C98.7599 9.68464 98.2503 8.65761 97.4012 7.77605C96.5114 6.85204 95.4318 6.28665 94.1964 6.09766C93.8549 6.04539 91.0138 6.03689 73.8073 6.03668L53.8151 6.03643L53.677 6.13111C53.4458 6.28964 53.3671 6.43121 53.3671 6.68871C53.3671 6.93633 53.4384 7.07272 53.6517 7.23318L53.7671 7.31996L73.8877 7.341L94.0085 7.36204L94.3426 7.45765C95.295 7.73018 95.9114 8.09159 96.5046 8.72502C97.0192 9.27458 97.3649 9.89998 97.5724 10.6569L97.6844 11.0653V18.514V25.9627L97.5705 26.3835C97.4342 26.8867 97.1212 27.5431 96.8379 27.9196C96.2185 28.7426 95.3877 29.2949 94.3484 29.5745L94.0085 29.666H49.5002H4.99184L4.61868 29.5666C3.03435 29.1449 1.89355 28.0253 1.43117 26.4385L1.31705 26.0469L1.30523 18.6718C1.29345 11.3361 1.29387 11.2945 1.38058 10.8658C1.55365 10.0102 1.96013 9.2503 2.57552 8.63181C3.12562 8.07888 3.79051 7.69639 4.58639 7.47487L4.99184 7.36204L25.1126 7.341L45.2332 7.31996L45.3486 7.23318C45.562 7.07272 45.6362 6.93212 45.6362 6.68871C45.6362 6.43546 45.5543 6.28947 45.3233 6.13111L45.1852 6.03643L25.1512 6.04055C7.84722 6.04413 5.06306 6.05301 4.72032 6.10591ZM47.4778 7.79339C47.4371 7.99038 47.328 8.76643 47.328 8.85864C47.328 8.93952 47.3527 8.93274 47.6593 8.7682L47.9905 8.5904L47.7633 8.13401C47.6384 7.88303 47.5284 7.67766 47.5189 7.67766C47.5095 7.67766 47.491 7.72976 47.4778 7.79339ZM17.5653 12.753C16.8459 12.8606 16.2208 13.1242 15.8141 13.4917C15.4913 13.7833 15.1915 14.2511 15.0533 14.679C14.896 15.1659 14.8662 16.0948 14.9887 16.6924C15.1647 17.5505 15.6256 18.1961 16.33 18.571C16.458 18.6392 17.0233 18.869 17.5862 19.0818C18.923 19.5872 19.1296 19.6775 19.4692 19.9049C19.9511 20.2277 20.1831 20.6443 20.2623 21.3292C20.3439 22.0353 20.1755 22.6499 19.7954 23.0328C19.4392 23.3916 19.0091 23.5447 18.2754 23.5738C17.4601 23.6061 17.0057 23.4668 16.602 23.061C16.2402 22.6974 16.0738 22.2344 15.9925 21.3651L15.9443 20.8496H15.3032C14.9506 20.8496 14.6623 20.8638 14.6625 20.8812C14.665 21.1096 14.7623 21.939 14.8136 22.1696C15.1312 23.5988 16.0449 24.5052 17.387 24.7224C17.85 24.7973 18.8834 24.7538 19.333 24.6404C20.2292 24.4145 20.9161 23.8946 21.2825 23.1648C21.5519 22.6283 21.6804 21.7934 21.6014 21.0932C21.4621 19.8593 20.8178 19.0083 19.5703 18.4105C19.3865 18.3224 18.7384 18.0639 18.13 17.8359C17.5215 17.608 16.9388 17.3643 16.835 17.2944C16.4404 17.0287 16.2495 16.5381 16.2495 15.7897C16.2495 14.755 16.6856 14.1577 17.5807 13.9665C18.3354 13.8054 19.0505 13.9875 19.48 14.4501C19.7734 14.7661 19.9223 15.1497 19.9915 15.7681L20.0186 16.0101H20.6627H21.3068L21.281 15.7891C21.158 14.7343 20.9173 14.1483 20.3854 13.6087C19.8293 13.0447 19.1651 12.7851 18.1919 12.7516C17.9162 12.7421 17.6342 12.7427 17.5653 12.753ZM8.79194 12.9906C8.7477 13.1102 5.55576 24.4331 5.55576 24.4703C5.55576 24.4947 5.83609 24.5108 6.25966 24.5108H6.96361L7.34804 22.9853C7.55949 22.1463 7.75169 21.3983 7.7752 21.3231L7.81794 21.1863H9.60261H11.3873L11.6076 21.9964C11.7288 22.4419 11.9329 23.1899 12.0611 23.6587L12.2943 24.5108H12.9978C13.4322 24.5108 13.7013 24.495 13.7013 24.4693C13.7013 24.4163 10.5272 13.015 10.5002 12.971C10.4891 12.9528 10.1045 12.938 9.64568 12.938C9.01647 12.938 8.8066 12.9509 8.79194 12.9906ZM22.3064 13.5266V14.1153L23.7789 14.1263L25.2514 14.1374L25.262 19.3241L25.2726 24.5108H25.9199H26.5672V19.3136V14.1164H28.0292H29.4913V13.5272V12.938H25.8988H22.3064V13.5266ZM30.9115 18.7244V24.5108H31.559H32.2064V21.9607V19.4106L33.4701 19.4276C34.65 19.4435 34.7516 19.4509 35.0052 19.5397C35.6126 19.7526 35.9393 20.0964 36.1581 20.7531C36.2538 21.0402 36.2709 21.1816 36.3023 21.9427C36.3218 22.4178 36.3496 22.9296 36.364 23.08C36.3945 23.3999 36.5231 24.0252 36.6171 24.3109L36.6828 24.5108H37.3269H37.971V24.3619C37.971 24.2799 37.9333 24.1383 37.8871 24.0471C37.7023 23.6821 37.649 23.2563 37.5977 21.7334C37.566 20.792 37.5535 20.6727 37.4542 20.3624C37.2309 19.6648 36.7286 19.1093 36.133 18.9012C36.0297 18.865 35.8887 18.8227 35.8197 18.807C35.7001 18.7797 35.7045 18.7757 35.919 18.7193C36.6831 18.5185 37.3026 17.894 37.5837 17.0411C37.6851 16.7334 37.6944 16.6485 37.6927 16.0522C37.6912 15.5233 37.6741 15.3378 37.6024 15.0716C37.3312 14.0657 36.6231 13.3675 35.6085 13.1056C35.1012 12.9746 34.4699 12.9394 32.6137 12.9387L30.9115 12.938V18.7244ZM42.5531 12.9688C42.5246 13.0176 39.3077 24.4137 39.3077 24.4657C39.3077 24.496 39.5388 24.5108 40.0114 24.5108H40.715L41.1325 22.8591L41.5499 21.2073L43.3432 21.1964L45.1364 21.1854L45.4663 22.3958C45.6477 23.0614 45.8519 23.8096 45.9199 24.0584L46.0437 24.5108H46.7485C47.2854 24.5108 47.4529 24.4983 47.4516 24.4582C47.4507 24.4293 46.7317 21.8302 45.8537 18.6824L44.2575 12.9591L43.4147 12.9477C42.9512 12.9414 42.5635 12.9509 42.5531 12.9688ZM53.4267 18.7233V24.5108H56.4135H59.4002V23.9217V23.3325H57.0611H54.722L54.7114 18.1458L54.7008 12.9591L54.0638 12.9475L53.4267 12.9358V18.7233ZM60.904 18.7244V24.5108H61.5514H62.1989V18.7244V12.938H61.5514H60.904V18.7244ZM64.4964 18.7244V24.5108H65.1459H65.7954L65.7829 19.0716L65.7704 13.6324L65.8633 14.0896C65.9143 14.3411 66.0007 14.6915 66.0553 14.8682C66.1368 15.1321 69.2712 24.1965 69.3642 24.4372C69.3903 24.5046 69.4809 24.5108 70.4325 24.5108H71.4724V18.7233V12.9358L70.8353 12.9475L70.1983 12.9591L70.1881 17.5251C70.1825 20.0364 70.1919 22.4358 70.2089 22.857C70.2261 23.2783 70.2287 23.6097 70.2149 23.5935C70.201 23.5773 70.1653 23.4693 70.1353 23.3536C70.0942 23.1944 67.6461 16.0299 66.7021 13.3063L66.5745 12.938H65.5355H64.4964V18.7244ZM73.8215 17.6818C73.8349 22.9773 73.8133 22.589 74.132 23.2464C74.4108 23.8214 74.9981 24.3052 75.7225 24.5566C76.2744 24.7481 77.3182 24.8204 78.0589 24.7183C78.4565 24.6636 79.0545 24.468 79.3664 24.2908C79.4933 24.2187 79.7382 24.0162 79.9106 23.8408C80.2683 23.4771 80.4458 23.1554 80.5905 22.6092L80.6831 22.2594V17.6092V12.9591L80.048 12.9475L79.413 12.9358L79.3993 17.4082C79.3857 21.8445 79.3849 21.8833 79.2952 22.2044C79.2455 22.3824 79.1736 22.5889 79.1354 22.6634C79.0359 22.8572 78.7099 23.1963 78.5088 23.315C78.2257 23.4822 77.7411 23.5851 77.2407 23.5844C76.1346 23.5828 75.518 23.1948 75.2166 22.3105C75.1283 22.0514 75.1272 22.0068 75.1065 17.504L75.0856 12.9591L74.4476 12.9475L73.8095 12.9358L73.8215 17.6818ZM82.3749 12.9742C82.3749 12.9941 82.9259 14.012 83.5993 15.2362C84.2727 16.4603 84.9605 17.7125 85.1277 18.0188L85.4319 18.5757L83.8834 21.4743C83.0317 23.0686 82.3229 24.4045 82.3083 24.4429C82.284 24.5067 82.3447 24.5118 83.0003 24.5013L83.7189 24.4898L84.9369 22.1226C85.6068 20.8207 86.1674 19.7555 86.1825 19.7555C86.1977 19.7555 86.7462 20.8207 87.4015 22.1226L88.5929 24.4898L89.3269 24.5013C89.7307 24.5076 90.061 24.5028 90.061 24.4906C90.061 24.4785 89.3638 23.1503 88.5117 21.5393C87.631 19.874 86.9705 18.5792 86.9811 18.5385C86.9913 18.4991 87.6697 17.2425 88.4886 15.746C89.3075 14.2495 89.9774 13.0056 89.9774 12.9816C89.9774 12.9533 89.7323 12.9381 89.2778 12.9382L88.5781 12.9382L87.3892 15.1686C86.7353 16.3952 86.1902 17.3984 86.1778 17.3979C86.1654 17.3974 85.6207 16.3938 84.9673 15.1675L83.7793 12.938H83.0771C82.6909 12.938 82.3749 12.9543 82.3749 12.9742ZM91.7687 12.9938C91.4158 13.1263 91.0766 13.4318 90.889 13.786C90.8044 13.9456 90.792 14.0284 90.792 14.432C90.792 14.8521 90.8023 14.9145 90.9032 15.1072C91.0603 15.4069 91.3321 15.6653 91.6473 15.8146C91.8815 15.9255 91.9629 15.9423 92.253 15.9396C92.6288 15.9362 92.8487 15.8693 93.1338 15.6717C93.5342 15.3942 93.7548 14.9439 93.7529 14.408C93.752 14.1416 93.7308 14.044 93.6232 13.8125C93.4709 13.4844 93.238 13.2365 92.9342 13.0788C92.7486 12.9824 92.6505 12.9621 92.3167 12.9506C92.0552 12.9417 91.8684 12.9564 91.7687 12.9938ZM91.9441 13.2135C91.6556 13.294 91.4781 13.4053 91.2954 13.6203C90.9094 14.0746 90.9195 14.8119 91.3179 15.2679C91.7972 15.8164 92.6401 15.8422 93.1438 15.3238C93.653 14.7997 93.6259 13.9696 93.0838 13.4889C92.7746 13.2147 92.3272 13.1066 91.9441 13.2135ZM91.6901 14.432V15.2947H91.8154H91.9407V14.8949V14.4951H92.1059C92.2701 14.4951 92.2725 14.4975 92.5079 14.8949C92.7337 15.276 92.7514 15.2947 92.8882 15.2947C93.051 15.2947 93.0596 15.3239 92.7688 14.8863C92.658 14.7195 92.5673 14.5654 92.5673 14.5437C92.5673 14.5222 92.6323 14.4922 92.7117 14.4772C92.9139 14.439 93.0268 14.2801 93.0268 14.0338C93.0268 13.8835 93.0044 13.8153 92.9328 13.7477C92.78 13.6035 92.6293 13.5693 92.1469 13.5693H91.6901V14.432ZM91.9407 14.0262V14.3268H92.2304C92.582 14.3268 92.7231 14.278 92.7759 14.1382C92.8248 14.0085 92.7706 13.8452 92.6645 13.8027C92.6225 13.7859 92.4425 13.7617 92.2645 13.7488L91.9407 13.7256V14.0262ZM8.87197 16.9415L8.12308 19.9869L9.58194 19.998C10.3843 20.0041 11.0507 19.999 11.0628 19.9868C11.075 19.9746 10.7555 18.5991 10.3529 16.9303L9.62083 13.896L8.87197 16.9415ZM43.3249 14.0953C43.2996 14.1879 42.9616 15.5561 42.5739 17.1358L41.8688 20.008H43.3453C44.4127 20.008 44.8217 19.9948 44.8217 19.9605C44.8217 19.9175 43.4195 14.068 43.3855 13.9691C43.3775 13.9459 43.3502 14.0027 43.3249 14.0953ZM32.2064 16.174V18.2405H33.4717C34.8175 18.2405 35.0115 18.2185 35.4229 18.0198C35.6859 17.8928 36.0124 17.5496 36.1507 17.2548C36.4396 16.639 36.4445 15.7044 36.1622 15.0325C36.0724 14.8188 35.7586 14.4898 35.5397 14.3795C35.1248 14.1708 34.9404 14.1476 33.5327 14.127L32.2064 14.1076V16.174Z" fill="#0079C2"/>
</svg>
