<svg width="236" height="312" viewBox="0 0 236 312" fill="none" xmlns="http://www.w3.org/2000/svg">
<path fill-rule="evenodd" clip-rule="evenodd" d="M206.133 86.8707C205.539 87.214 204.563 86.6855 204.386 85.9245C204.168 84.9938 205.374 84.0992 206.118 84.6396C206.371 84.8234 206.644 84.9914 206.725 85.0132C206.967 85.0781 206.456 86.6845 206.133 86.8707ZM194.834 81.7512C193.509 82.5162 192.257 81.0117 193.365 79.9869C194.085 79.3203 194.619 79.3877 195.091 80.2047C195.589 81.0683 195.544 81.3409 194.834 81.7512ZM184.843 74.974C183.44 75.6192 182.482 73.6727 183.822 72.8989C184.391 72.5703 184.679 72.5979 185.069 73.0197C185.749 73.7536 185.65 74.6024 184.843 74.974ZM176.128 66.5922C175.218 67.0107 174.284 66.4236 174.394 65.5028C174.529 64.3869 175.945 64.0713 176.501 65.0337C177.003 65.9043 176.926 66.2248 176.128 66.5922ZM169.254 56.3869C169.02 56.6023 168.464 56.6236 168.019 56.434C167.412 56.1757 167.269 55.8688 167.446 55.2078C167.623 54.5468 167.901 54.3529 168.555 54.4326C169.302 54.5235 169.888 55.2168 169.726 55.8189C169.7 55.9159 169.488 56.1716 169.254 56.3869Z" fill="white"/>
<path fill-rule="evenodd" clip-rule="evenodd" d="M195.854 122.173C202.01 113.857 207.595 103.27 212.189 91.2029C215.887 81.4897 219.463 66.2058 219.936 58.0891C220.6 46.692 218.431 37.5942 214.499 35.2797C212.729 34.2375 208.085 33.5232 204.377 33.723C193.202 34.3241 176.23 40.8049 161.979 49.9133C156.498 53.4162 149.39 58.5633 145.058 62.1659C129.869 74.7962 110.369 101.649 88.3577 140.248C86.1464 144.126 84.2413 147.451 84.1245 147.637C84.0079 147.822 79.854 148.612 74.8941 149.391C62.6313 151.317 62.0562 151.393 62.4317 151.039C63.0157 150.489 62.9642 148.306 62.339 147.121C61.4437 145.423 60.0149 145.169 58.1952 146.385C57.865 146.605 57.6036 146.767 57.3579 146.949C56.0857 147.896 55.2335 149.407 47.4318 162.55C44.7165 167.125 41.1129 173.182 39.4232 176.012C36.2988 181.244 35.9636 182.233 36.9873 183.193C37.5913 183.76 40.4647 183.62 42.5852 182.921C43.7852 182.525 45.6718 180.891 46.3593 179.653C46.7497 178.949 48.4322 178.539 58.0086 176.817C64.165 175.709 69.2506 174.888 69.3105 174.992C69.3703 175.096 67.9672 178.011 66.1922 181.47C64.4176 184.93 62.8451 188.224 62.6979 188.79C62.1966 190.719 62.9679 193.278 65.1659 196.981L67.3157 200.602L67.7974 201.275C68.2145 201.387 65.572 204.656 64.9089 204.849L63.0705 208.039C58.6246 213.559 58.464 215.734 62.5974 214.448C64.8679 213.742 66.4139 212.732 67.9452 210.955C68.6729 210.11 70.1711 208.822 71.274 208.092L73.28 206.764L76.5875 209.232C78.4065 210.589 80.0715 211.747 80.2869 211.805L81.8907 212.798C82.1236 212.967 82.9083 213.371 83.6341 213.696L84.9546 214.286L85.905 214.97L89.389 215.904C94.5953 217.299 95.1354 217.106 102.53 211.224L108.502 206.472L108.579 209.064C108.621 210.49 108.727 215.633 108.814 220.495L108.973 229.334L107.762 230.868C106.316 232.702 105.679 234.843 105.844 237.317C106.073 240.76 107.762 241.403 110.319 239.021C111.048 238.342 114.389 235.289 117.743 232.237C136.423 215.243 137.721 214.105 138.397 212.675C138.483 212.492 138.56 212.305 138.661 212.079C139.933 209.233 137.186 206.924 134.194 208.325C133.219 208.782 132.855 208.81 132.824 208.43C132.801 208.146 132.669 205.416 132.53 202.364C132.391 199.312 132.172 194.637 132.042 191.976L131.807 187.137L139.977 179.925C150.905 170.277 164.824 157.178 171.047 150.685C171.918 149.775 173.815 147.803 175.262 146.303C182.11 139.203 190.695 129.142 195.854 122.173ZM211.223 89.8099C209.863 93.3411 206.976 100.222 206.586 100.864C206.329 101.287 205.785 101.186 202.915 100.18C201.062 99.531 198.345 98.4027 196.878 97.6728C195.411 96.9432 194.006 96.2615 193.755 96.1581C193.505 96.0552 192.944 96.4709 192.51 97.0822C192.075 97.6934 189.861 100.843 187.591 104.081C181.679 112.512 175.329 120.903 171.491 125.357C169.666 127.475 168.236 129.319 168.314 129.454C168.618 129.982 174.706 133.165 178.489 134.776L182.471 136.471L181.353 137.72C174.464 145.418 162.309 157.584 161.113 157.978C158.166 158.949 151.104 157.617 145.605 155.053C133.846 149.568 121.791 139.914 113.519 129.357L111.511 126.794L115.274 121.092C131.258 96.8696 152.802 73.8233 173.251 59.0714C175.706 57.3001 173.748 58.223 170.743 60.2532C166.755 62.9473 159.342 68.7712 154.817 72.765C138.778 86.9227 124.566 104.106 113.709 122.467C112.488 124.531 111.45 126.247 111.401 126.28C111.185 126.426 108.488 121.552 107.695 119.583C107.214 118.387 106.754 116.346 106.675 115.049L106.53 112.689L110.871 106.155C121.6 90.0089 132.134 76.4777 140.342 68.3033C146.352 62.3173 156.336 54.8676 165.738 49.3544L170.505 46.5589L170.631 48.4777C171.018 54.363 176.626 62.5918 185.296 69.9986C192.537 76.1847 198.224 79.4444 205.039 81.3171C209.288 82.4841 209.765 82.5439 211.711 82.154L213.808 81.734L213.044 84.4012C212.623 85.8681 211.804 88.3021 211.223 89.8099ZM205.206 103.887C204.86 104.522 203.809 106.537 202.87 108.364C199.737 114.461 193.878 122.944 187.995 129.897C186.49 131.677 184.71 133.783 184.04 134.578C182.838 136.005 182.807 136.015 181.464 135.453C177.399 133.751 169.533 129.295 169.892 128.898C177.873 120.044 183.388 112.896 189.823 103.062L193.565 97.3449L194.754 97.8452C195.407 98.1202 198.229 99.1704 201.025 100.178C204.124 101.296 206.054 102.152 205.972 102.372C205.897 102.57 205.553 103.252 205.206 103.887ZM152.963 166.254C138.951 179.272 121.294 194.475 106.705 206.084C101.657 210.101 100.767 210.32 95.4816 208.845C91.2009 207.651 87.5313 205.76 82.7547 202.287L81.86 201.637L84.3902 199.947C86.8961 198.274 87.0007 198.142 95.2806 186.21C99.8786 179.585 103.681 174.014 103.73 173.832C103.999 172.828 102.17 173.655 95.8376 177.402C90.3072 180.674 88.8573 181.387 89.0277 180.752C89.2511 179.918 88.4962 178.09 87.8577 177.919C87.0482 177.702 85.9562 178.236 84.5044 179.56C83.3074 180.652 78.3905 187.05 74.0117 193.213C73.6696 193.695 73.3492 193.407 71.7884 191.216C69.6431 188.206 68.4234 185.424 68.1697 182.965C67.9933 181.256 68.048 181.07 69.7411 177.648C75.8388 165.321 89.6408 140.371 98.1577 126.277C99.066 124.774 99.8795 123.504 99.9654 123.454C100.051 123.405 100.433 124.34 100.813 125.534C102.318 130.25 108.519 139.478 112.229 142.521C112.704 142.911 112.978 143.381 112.838 143.567C112.698 143.752 109.136 148.509 104.924 154.138C97.9851 163.409 95.5158 166.735 93.6129 169.375L92.9682 170.269L91.2469 168.587C87.3782 164.806 83.9256 159.856 82.7921 156.465C82.4957 155.578 82.1524 154.911 82.0295 154.982C81.2988 155.404 84.5545 162.11 87.0921 165.411C88.7748 167.6 92.8638 171.887 93.1094 171.721C93.6378 171.362 95.6278 168.782 104.514 156.939C109.979 149.656 114.497 143.521 114.554 143.307C114.612 143.092 113.866 142.227 112.896 141.384C108.34 137.423 102.583 129.262 100.933 124.424L100.327 122.648L102.881 118.519C105.376 114.484 106.367 113.219 106.021 114.511C105.639 115.937 107.195 120.936 109.137 124.526C115.284 135.886 128.946 148.283 142.736 155.014C148.663 157.907 155.52 159.51 159.383 158.907C160.317 158.761 161.066 158.671 161.048 158.707C161.031 158.742 157.392 162.138 152.963 166.254ZM136.697 212.707C136.336 213.215 133.219 216.207 129.769 219.357C119.267 228.946 115.975 231.949 111.963 235.603C109.846 237.531 107.93 239.059 107.704 238.999C106.644 238.715 107.405 233.4 108.71 231.967C109.32 231.298 121.914 220.347 132.702 211.105C134.773 209.331 134.96 209.253 136.287 209.609C137.528 209.941 137.669 210.087 137.519 210.884C137.427 211.379 137.056 212.199 136.697 212.707ZM126.552 214.561C123.957 216.777 119.258 220.817 116.108 223.54L110.382 228.49L110.177 217.792C110.064 211.908 109.983 206.671 109.997 206.154C110.018 205.381 110.985 204.426 115.414 200.801C118.38 198.373 122.914 194.611 125.49 192.44C128.066 190.268 130.25 188.642 130.345 188.826C130.439 189.01 130.549 190.019 130.59 191.07C130.631 192.121 130.845 196.793 131.066 201.454C131.287 206.115 131.423 210.065 131.369 210.231C131.314 210.397 129.147 212.345 126.552 214.561ZM98.175 212.87C96.2956 214.301 94.9592 215.037 94.1269 215.098C90.0744 215.398 84.6976 213.227 78.2725 208.698C78.0374 208.532 77.8166 208.377 77.6099 208.232C75.9895 207.097 75.2344 206.568 75.2605 206.081C75.2833 205.656 75.9011 205.263 77.0579 204.527C77.227 204.42 77.4076 204.305 77.5996 204.181L80.4051 202.377L83.1213 204.216C88.8515 208.096 95.38 210.578 99.3223 210.377C100.323 210.326 101.106 210.385 101.061 210.509C101.017 210.633 99.7184 211.695 98.175 212.87ZM97.5512 180.516C96.0267 182.707 94.2702 185.213 93.6478 186.086C93.0255 186.959 90.9854 189.874 89.114 192.563L85.7115 197.453L80.8188 200.505C78.1278 202.183 74.8669 204.228 73.5717 205.048L71.217 206.539L79.0899 195.417L86.9629 184.295L91.1364 181.822C93.4315 180.461 96.4649 178.637 97.8768 177.768C99.2887 176.899 100.417 176.265 100.384 176.36C100.35 176.455 99.076 178.326 97.5512 180.516ZM82.4567 188.191C79.7864 191.946 75.3021 198.278 72.4919 202.263C69.6818 206.248 66.8397 210.072 66.176 210.76C65.0887 211.889 61.4012 213.797 61.1502 213.362C61.0942 213.265 63.0806 210.431 65.5646 207.064C68.0483 203.697 71.2307 199.379 72.6367 197.468L73.9501 195.683C84.0455 181.963 84.8459 180.876 85.9003 180.164C85.9429 180.136 85.9858 180.108 86.0299 180.079C86.0797 180.047 86.131 180.015 86.1845 179.981C86.2329 179.951 86.2831 179.919 86.3358 179.885C87.3964 179.207 87.8648 179.485 87.5378 180.596C87.4137 181.018 85.1274 184.436 82.4567 188.191ZM70.8184 197.632C69.1943 199.838 68.9683 200.018 68.4377 199.52C67.3165 198.468 64.5776 193.408 64.2227 191.732C63.7952 189.714 63.987 188.952 65.8536 185.254L67.2824 182.424L67.7209 184.81C68.0319 186.502 68.8253 188.329 70.4503 191.095C71.7102 193.24 72.7123 195.039 72.6768 195.094C72.6415 195.149 71.8053 196.291 70.8184 197.632ZM80.2839 154.719C77.4555 159.8 72.1103 169.806 71.2357 171.655C70.9118 172.341 70.4278 172.991 70.1606 173.1C69.8934 173.208 66.282 173.902 62.1351 174.642C57.9881 175.381 53.0702 176.283 51.2063 176.646C49.3423 177.01 47.801 177.28 47.7814 177.248C47.6553 177.041 61.1223 153.327 61.4772 153.131C61.9678 152.86 82.2431 149.573 82.6888 149.692C82.7058 149.697 82.7223 149.701 82.7379 149.704C82.7856 149.715 82.8257 149.724 82.85 149.749C82.9783 149.88 82.6629 150.446 80.6789 154.009L80.2839 154.719ZM53.7234 163.669C44.4872 180.196 44.4415 180.269 42.9336 181.093C41.4789 181.888 38.0487 182.449 37.8892 181.917C37.8276 181.712 39.8173 178.127 42.311 173.953C44.8047 169.778 49.133 162.509 51.9295 157.8C54.7255 153.09 57.2936 148.93 57.6357 148.554C58.641 147.451 59.6202 146.913 60.2954 147.094C61.0033 147.284 61.6949 148.845 61.4306 149.657C61.3353 149.949 57.8674 156.254 53.7234 163.669ZM187.473 70.018C197.218 77.9839 207.533 82.6575 212.815 81.5009C213.9 81.263 213.96 81.1647 214.69 78.4423C215.104 76.8953 215.388 75.615 215.321 75.5971L216.14 72.7885C216.963 70.238 218.028 63.9929 218.38 59.6528C219.14 50.2789 218.16 42.7133 215.642 38.508C214.738 36.9977 214.351 36.6868 212.543 36.0225C205.814 33.5487 191.304 36.4306 177.482 42.9861C171.728 45.7154 171.28 46.0054 171.187 47.0641C170.715 52.4242 177.295 61.6997 187.473 70.018Z" fill="white"/>
<path fill-rule="evenodd" clip-rule="evenodd" d="M76.7761 230.266C72.0682 242.261 62.8035 251.793 45.1765 262.777C41.0299 265.361 35.756 268.692 33.4567 270.178C26.7723 274.5 13.5262 285.164 4.62501 293.39C1.93653 295.875 -0.0289841 297.576 0.2577 297.169C2.50751 293.982 9.65249 283.28 10.9537 281.149C20.7061 265.177 23.9479 258.574 29.2492 243.885C35.6887 226.041 41.0747 217.755 50.0889 211.827C52.0001 210.57 58.4308 208.001 59.1706 208.2C59.6552 208.329 56.585 212.127 55.8147 212.351C53.4008 213.053 50.1015 215.26 48.2067 217.441C46.0241 219.953 42.9135 226.003 38.0771 237.141C35.1035 243.99 33.1866 247.792 31.1471 250.885C30.2291 252.276 29.611 253.395 29.7727 253.371C30.9288 253.202 36.3612 248.96 38.9803 246.182C41.4926 243.517 41.4343 243.976 38.6527 248.748C35.288 254.522 32.3126 258.496 24.9818 267.007C22.7429 269.607 20.8743 271.873 20.8296 272.044C20.7852 272.214 21.4752 271.712 22.3633 270.927C25.3326 268.305 33.1561 263.011 41.7837 257.785C55.6948 249.36 60.1369 246.037 65.5607 239.999C69.862 235.211 72.3019 230.96 73.8106 225.624C74.7954 222.142 75.1549 221.305 75.5446 221.588C75.8151 221.784 76.7268 222.253 77.5701 222.63L79.1042 223.316L78.4861 225.4C78.1464 226.547 77.3766 228.736 76.7761 230.266ZM71.503 228.708C68.5086 235.256 63.4309 241.251 56.0965 246.897C52.1068 249.969 48.9781 252.065 40.8657 257.1C33.9095 261.418 30.5503 263.621 28.2456 265.377C27.3227 266.08 28.2416 264.836 30.7032 262.051C35.6057 256.504 39.6629 250.271 41.8943 244.858C42.836 242.573 44.1216 239.904 44.7518 238.925C46.5351 236.156 45.6009 236.687 42.6508 240.119C39.6779 243.577 33.8972 249.438 33.7357 249.157C33.6791 249.059 34.0791 248.315 34.6251 247.505C35.1707 246.694 36.6515 243.738 37.915 240.936C47.3282 220.066 48.978 217.303 53.8474 214.265C55.7784 213.06 55.7367 213.502 53.6788 216.058C48.5135 222.471 48.3268 224.998 53.1291 223.505C55.7671 222.684 57.5632 221.511 59.3423 219.446C60.1878 218.465 61.9284 216.968 63.2098 216.119L65.5404 214.577L69.3832 217.444C71.4965 219.021 73.4309 220.366 73.6812 220.433C74.2067 220.574 72.8288 225.808 71.503 228.708Z" fill="white"/>
<path fill-rule="evenodd" clip-rule="evenodd" d="M216.1 100.253C217.191 98.1298 218.413 95.7889 218.815 95.0512C219.217 94.3134 219.617 93.5215 219.704 93.2909C219.8 93.0356 217.558 92.0417 213.956 90.7428C210.708 89.5717 207.43 88.3515 206.671 88.032L205.29 87.4508L200.942 94.0936C193.465 105.518 187.058 113.823 177.786 124.11C177.369 124.571 186.508 129.748 191.231 131.726C192.79 132.379 192.827 132.367 194.224 130.709C195.002 129.785 197.069 127.338 198.818 125.27C205.653 117.192 212.461 107.337 216.1 100.253Z" fill="white"/>
<path d="M94.4436 121.066C95.4989 119.319 96.4441 117.843 96.5438 117.786C96.6435 117.728 97.0867 118.815 97.5291 120.202C99.2769 125.681 106.482 136.403 110.792 139.938C111.343 140.391 111.662 140.938 111.5 141.153C111.337 141.368 107.199 146.895 102.305 153.435C94.2431 164.206 91.3742 168.071 89.1633 171.138L88.4143 172.177L86.4145 170.222C81.9197 165.829 77.9084 160.078 76.5915 156.139C76.2471 155.109 75.8483 154.333 75.7054 154.415L75.5401 154.11C82.0547 142.273 89.1334 129.853 94.4436 121.066Z" fill="white"/>
<path fill-rule="evenodd" clip-rule="evenodd" d="M192.211 64.7017C203.534 73.9567 215.519 79.3866 221.655 78.0428C222.915 77.7664 222.986 77.6521 223.833 74.4893C224.315 72.6919 224.645 71.2044 224.567 71.1836C224.489 71.1626 223.711 71.3003 222.839 71.4891C220.654 71.9619 214.634 70.2192 209.984 67.7672C195.347 60.0499 179.89 43.9576 179.38 35.9067C179.258 33.9649 179.865 34.1965 180.031 36.1549C180.191 38.0276 183.281 43.0949 186.568 46.8735C197.486 59.4261 216.853 72.0543 223.282 70.8128C224.584 70.5613 224.723 70.3803 225.518 67.9205C226.474 64.9573 227.711 57.7016 228.12 52.6591C229.003 41.7683 227.865 32.9784 224.94 28.0926C223.889 26.3378 223.439 25.9766 221.339 25.2049C213.521 22.3307 196.663 25.679 180.604 33.2954C173.919 36.4663 173.399 36.8032 173.29 38.0333C172.742 44.2608 180.387 55.0373 192.211 64.7017Z" fill="white"/>
</svg>
